<?xml version="1.0" encoding="utf-8"?>
<!-- Generator: Adobe Illustrator 24.2.0, SVG Export Plug-In . SVG Version: 6.00 Build 0)  -->
<svg version="1.1" id="Layer_1" xmlns="http://www.w3.org/2000/svg" xmlns:xlink="http://www.w3.org/1999/xlink" x="0px" y="0px"
	 viewBox="0 0 84.8199997 67.3600006" style="enable-background:new 0 0 84.8199997 67.3600006;" xml:space="preserve">
<style type="text/css">
	.st0{fill:#212121;}
</style>
<g>
	<path class="st0" d="M81.2687607,21.1326141c-1.7413483-4.0552769-4.0791321-7.5379734-7.1324768-10.520072
		C71.1545105,7.5356646,67.67173,5.2215743,63.6881905,3.5758181c-3.8883553-1.7415118-8.1106339-2.576278-12.5713234-2.576278
		c-4.4847107,0-8.7069092,0.8347661-12.6905289,2.576278c-4.0552788,1.7411861-7.5379753,4.0552764-10.5197487,7.0367241
		c-2.886507,2.886343-5.2002716,6.4647951-6.941782,10.520072c-1.2402611,2.886343-2.0751915,5.8681164-2.4091949,9.0166473
		c-3.0534267,0.0957565-5.8681974,0.8350925-8.5398235,2.4095192c-2.7194228,1.6460838-4.9617782,3.888195-6.5362062,6.6315536
		C1.833745,42.005024,0.998816,45.0584526,0.998816,48.3027382c0,3.2201843,0.834929,6.2019577,2.4807668,9.0169716
		c1.5744281,2.7430382,3.8167834,4.9616966,6.5362062,6.5361252c2.8386278,1.6695328,5.8204012,2.5046234,9.0408306,2.5046234
		c3.2202644,0,6.2974682-0.8350906,9.0168896-2.5046234c1.6698589-0.9067459,3.0772038-1.9799232,4.317627-3.3872681
		c1.908432,1.3356934,3.8882751,2.4805222,6.035202,3.3872681c3.9836197,1.6695328,8.2058182,2.5046234,12.6905289,2.5046234
		c4.3891983,0,8.6114769-0.8350906,12.5713234-2.5046234c3.9119682-1.7415123,7.3948326-4.1269302,10.4480934-7.2041321
		c3.0533447-2.8863449,5.3911285-6.3690414,7.1324768-10.4243164c1.7414322-3.8885193,2.5524216-8.0388985,2.5524216-12.5234489
		C83.8211823,29.2431679,83.0101929,25.0208073,81.2687607,21.1326141z M32.2957878,14.9065552
		c2.4091949-2.3854179,5.2241287-4.294013,8.5397415-5.6297045c3.2442894-1.3119149,6.5361252-1.9799232,10.114418-1.9799232
		c0.0714912,0,0.0714912,0,0.1669197,0c3.5543518,0,7.0370483,0.6680083,10.2573166,2.0753527
		c3.2442017,1.240262,6.0589752,3.1488571,8.4444733,5.5342751c0.4294357,0.4292717,0.7633591,0.8347664,1.1689301,1.2402611
		H31.150713C31.5562077,15.7413216,31.890213,15.3358269,32.2957878,14.9065552z M12.9259892,52.8589401h-1.9800043v-1.0972786
		c-0.8348475,0.7631111-1.7411861,1.0972786-2.7431173,1.0972786c-1.7414303,0-2.9818544-0.500927-3.8883557-1.5744286
		c-0.7394178-0.9301949-1.1688519-1.908596-1.1688519-2.9817734c0-1.3360176,0.4294341-2.5049515,1.3358541-3.4110451
		c0.7394991-1.0735016,1.9799232-1.5744286,3.7213535-1.5744286c1.0733404,0,2.0752716,0.3338432,3.1487751,1.0735054
		c1.0734215,0.7631111,1.5743465,2.0750275,1.5743465,3.8165398V52.8589401z M23.0402412,51.5229225
		c-0.9302769,1.0735054-2.0037804,1.5744286-3.4112072,1.5744286c-1.5743465,0-2.886425-0.5009232-3.7928438-1.4073448
		c-0.8349295-0.9064178-1.2642813-2.147007-1.3358536-3.5543518v-0.6680069v-6.9653969h2.147006v4.1507072h0.0952663
		c0.1670837-0.262188,0.5009251-0.500927,0.9781551-0.7396622c0.4293537-0.262188,0.9302788-0.4292717,1.6697769-0.4292717
		c1.3119164,0,2.4808483,0.5009232,3.3872681,1.4076691c0.9064198,0.9060936,1.4073448,2.0037003,1.4073448,3.3156166
		C24.185154,49.4475708,23.7797413,50.6165047,23.0402412,51.5229225z M28.4075146,50.187233
		c0.5009251,0.5009232,1.168932,0.7631111,1.9082699,0.7631111c0.9064999,0,1.669857-0.4292717,2.0753517-1.1686058h2.5762787
		c-0.3339233,1.0018501-0.9303589,1.8128395-1.7413483,2.4091949c-0.9302788,0.5725784-1.8367786,0.9064178-2.9102821,0.9064178
		c-1.3119164,0-2.4808483-0.5009232-3.3872681-1.4073448c-1.0019321-0.9064178-1.5028572-2.147007-1.5028572-3.5543518
		s0.5009251-2.5046234,1.5028572-3.4110451c0.9064198-0.9064178,2.0753517-1.4073448,3.3872681-1.4073448
		c0.6679268,0,1.3358536,0.1667595,1.9800034,0.500927c0.6679268,0.262188,1.1688538,0.5725784,1.5742645,1.0735016
		c0.5010071,0.500927,0.8349304,1.0731773,1.0973625,1.741188h-2.5762787
		c-0.5009232-0.7393379-1.1688519-1.1451569-2.0753517-1.1451569c-0.8349304,0-1.4789181,0.2387352-1.9082699,0.7396622
		c-0.5009251,0.5722504-0.7395,1.1448288-0.7395,1.908268C27.6680145,48.9466438,27.9065895,49.6146545,28.4075146,50.187233z
		 M47.9680099,46.2987137c-1.1688499,5.3912926-1.7413483,9.7090836-1.7413483,12.9292679v0.4054947
		c-1.9082718-0.2384109-3.6497002-0.8109894-5.3911324-1.5744286c-1.8128395-0.7393379-3.5542679-1.6457558-5.1286964-2.7192612
		c1.0019302-2.2424355,1.4790802-4.5561981,1.4790802-7.0370483c0-2.5049515-0.47715-4.8187141-1.4075089-7.0608253
		c-0.9064178-2.147007-2.2183342-4.055275-3.8881912-5.7967873c-1.7414322-1.6460838-3.6496201-2.9817734-5.796627-3.8881931
		c-0.4055748-0.1670837-0.8349285-0.3341675-1.2404232-0.5009251c0.238575-2.6479321,0.8348484-5.2001076,1.8130035-7.7050571
		c0.1669197-0.4054966,0.3339214-0.7393379,0.5009232-1.1448326h34.4696045
		c-3.4827805,2.4091949-6.2976303,5.3909683-8.3729858,8.944994C51.1883583,34.6341362,49.3755188,39.6674843,47.9680099,46.2987137
		z M75.3767929,43.9132957c-1.240509,3.2205086-3.1488571,6.1306305-5.558136,8.5160484
		c-2.4808502,2.4095192-5.2956161,4.2223587-8.5159645,5.6297035c-2.4809303,1.0735016-5.057209,1.669857-7.8004074,1.908596
		v-0.500927c0-9.58955,1.8367805-17.4616928,5.5580521-23.6877518c3.6497002-6.0348721,9.0407448-10.352663,16.2448769-12.738081
		c0.071579,0.0716534,0.071579,0.2384109,0.1669235,0.3100662c1.3119125,3.3159389,1.9799271,6.7983112,1.9799271,10.3529873
		C77.4520645,37.2820663,76.78405,40.6693344,75.3767929,43.9132957z"/>
	<path class="st0" d="M19.5575428,45.631031c-0.7394981,0-1.4074249,0.2625122-2.0037804,0.7634392
		c-0.5725784,0.5009232-0.8111534,1.1448288-0.8111534,1.908268c0,0.7393379,0.238575,1.4073448,0.8111534,1.9799232
		c0.5009251,0.5725784,1.1689339,0.8347664,2.0037804,0.8347664c0.739418,0,1.3119965-0.262188,1.8129215-0.7631111
		c0.5009251-0.5725784,0.7395-1.1451569,0.7395-1.884819c0-0.9301987-0.238575-1.5741043-0.7395-2.0750275
		C20.8695393,45.8935432,20.2969608,45.631031,19.5575428,45.631031z"/>
	<path class="st0" d="M8.1312952,45.3926201c-0.834929,0-1.5028558,0.2384109-1.9084325,0.7393341
		c-0.5963545,0.5963554-0.834929,1.2402611-0.834929,2.0037003c0,0.7393379,0.2385745,1.4073448,0.834929,1.9799232
		c0.5009251,0.4054947,1.1451573,0.6680107,1.9084325,0.6680107c0.7394991,0,1.4074259-0.262516,1.8844938-0.6680107
		c0.5962725-0.5725784,0.8348475-1.2405853,0.8348475-1.9799232c0-0.7634392-0.238575-1.4073448-0.8348475-2.0037003
		C9.5387211,45.631031,8.8707943,45.3926201,8.1312952,45.3926201z"/>
</g>
</svg>
