<?xml version="1.0" encoding="utf-8"?>
<!-- Generator: Adobe Illustrator 22.0.1, SVG Export Plug-In . SVG Version: 6.00 Build 0)  -->
<svg version="1.1" id="Layer_1" xmlns="http://www.w3.org/2000/svg" xmlns:xlink="http://www.w3.org/1999/xlink" x="0px" y="0px"
	 width="302.4676819px" height="57.6820984px" viewBox="0 0 302.4676819 57.6820984"
	 style="enable-background:new 0 0 302.4676819 57.6820984;" xml:space="preserve">
<g>
	<g>
		<path d="M162.2043762,31.3201542l-5.2201996,0.001915v-5.4605827l5.2201996-0.0045967v-5.6710663h5.6706848v5.6710663
			l5.2242126,0.0045967v5.4586678h-5.2242126v5.8122234h-5.6706848V31.3201542z"/>
	</g>
	<g>
		<path d="M10.6328907,23.5582027v-4.3401585c0-2.2061806-0.2936077-4.4047012-3.8791466-4.5506439v-0.00383H3.8789546v0.0084267
			C0.2936077,14.8104696,0,17.0118637,0,19.2180443v18.7625961c0,3.694912,0.9352163,4.8563194,3.8789546,4.8693428l0,0h2.8747895
			l0,0c2.9515905-0.0130234,3.8791466-1.1744308,3.8791466-4.8693428V27.8853359H6.9314795H5.0478315v3.4283066h1.8836479v6.5051594
			c0,0.9210472-0.1103187,1.5597839-1.1707921,1.5597839h-0.886569c-1.0604737,0-1.1782615-0.6387367-1.1782615-1.557869v-17.767622
			c0-1.0754147,0.041178-1.9564323,1.4923623-1.9564323l0.2620063,0.0019169c1.4477372,0,1.4812541,0.8791008,1.4812541,1.9573898
			v3.5022335H10.6328907z"/>
		<path d="M107.6954346,37.2614632v-3.0768547c0-3.6612015-0.3386154-5.1930218-2.7983704-5.5586433
			c-0.1158752-0.0187702-0.1045761-0.1832905,0.0076599-0.1832905c2.7962646-0.0609035,2.9104156-2.1153984,2.9104156-6.9531384
			c0-5.5877542-0.5088882-6.8259659-4.9976578-6.8259659h-5.9702148v28.1883278h3.6864777V42.766861h-0.0392685V18.0583591
			h0.0392685l1.8907318,0.0055542c1.5731812-0.0055542,1.77314,0.0739288,1.77314,3.1910038
			c0,4.669199-0.0802536,5.5034828-1.930191,5.5034828h-0.2690964v3.1159286
			c1.0510941,0.0093842,1.137085,0.085228,1.5299072,0.8388805c0.4318848,0.9183655,0.4694214,3.1534672,0.4694214,4.2288799
			v3.9708977c0,4.7498322,4.4046936,3.9389114,4.4046936,3.9389114
			C107.7756805,41.179882,107.6954346,40.6533775,107.6954346,37.2614632"/>
		<path d="M23.7910366,37.2614632v-3.0720673c0-3.6659889-0.3328705-5.1978092-2.7981796-5.5663033
			c-0.1122322-0.0093842-0.1009331-0.180418,0.0111084-0.180418c2.7945404-0.0609035,2.9067745-2.1153984,2.9067745-6.9493084
			c0-5.5887117-0.5050507-6.8297958-4.9901829-6.8297958h-5.977684v28.1864128l3.6922169,0.0028725V42.766861h-0.0430927V18.0639133
			l0.0430927-0.0036392h1.8926506c1.56744,0.0036392,1.7693062,0.079483,1.7693062,3.194643
			c0,4.6684322-0.0821629,5.5034828-1.922718,5.5034828h-0.2769451v3.1159286
			c1.0514717,0.0074692,1.1334438,0.085228,1.526453,0.8388805c0.4338055,0.9183655,0.471344,3.1534672,0.471344,4.2288799
			v3.9708977c0,4.7498322,4.4066048,3.9389114,4.4066048,3.9389114
			C23.8693714,41.179882,23.7910366,40.6533775,23.7910366,37.2614632"/>
		<path d="M61.5946121,14.6674004l-6.7183113-0.00383v28.1892853l3.5985641-0.0028725V18.0966625l2.1808929,0.0019169
			c1.4552078-0.0019169,1.492363,0.8781433,1.492363,1.9545155v17.767622c0,0.9191322-0.1156807,1.557869-1.1782608,1.557869
			h-0.8957634v3.4713974h1.8420868c2.9816589,0,3.9318161-1.1558533,3.9318161-4.8693428V19.2180443
			C65.8479996,16.9408073,65.5279617,14.6635704,61.5946121,14.6674004"/>
		<polygon points="34.5528221,14.6635704 30.1127014,14.6635704 25.842844,42.8499832 29.4170818,42.8528557 30.0789928,38.2966576 
			32.338604,38.2966576 32.338604,34.7691422 30.5915127,34.7691422 32.338604,22.8072319 35.2637634,42.8499832 
			38.8397255,42.8499832 		"/>
		<polygon points="91.2081985,14.6635704 86.7678833,14.6635704 82.4997559,42.8518982 86.0665207,42.8499832 
			86.7322617,38.2976151 88.9935989,38.2976151 88.9935989,34.7691422 87.2466965,34.7691422 88.991684,22.8072319 
			91.9170303,42.8499832 95.489357,42.8499832 		"/>
		<path d="M48.6163101,14.6635704v0.00383l0,0v18.58218c-0.0356255-0.1683502-4.2418976-18.58601-4.2418976-18.58601H40.438961
			v28.1883278l2.807373,0.0009575v0.0084305l0.7800789-0.0028763V24.5139141
			c1.0717735,4.9490166,3.9615021,18.3389416,3.9615021,18.3389416l4.0455818-0.0028725V14.6635704H48.6163101z"/>
		<path d="M79.3106689,22.8156586c0,3.113245-0.2355728,3.9716625-1.8068466,3.9716625l-0.5084991-0.0036392v3.1618938
			l0.8995972,0.0036392c4.3223343,0,5.036911-1.7488194,5.036911-6.8259659v-1.5785542
			c0-5.5913925-0.5201797-6.8267317-4.9976501-6.8267317h-5.9738541V42.902462l3.68647,0.001915v-0.0879097l-0.0392609,0.0026817
			V18.1125603h0.0392609h1.8928452c1.5727997,0,1.7710266,0.0758438,1.7710266,3.1900463V22.8156586z"/>
		<rect x="110.4823151" y="14.7355833" width="3.5928166" height="28.1678371"/>
		<polygon points="119.6956177,14.8526058 123.6383514,14.8526058 118.3714142,28.1368103 124.1114197,43.0192947 
			119.9350281,43.0192947 114.7504425,28.5416946 		"/>
	</g>
	<g>
		<g>
			<polygon points="273.6715088,43.187645 280.885498,43.187645 280.885498,44.8177185 275.5528564,44.8177185 
				275.5528564,49.1559601 279.6997681,49.3233528 279.6997681,50.6186371 275.5528564,50.7860336 275.5528564,55.7603302 
				281.1530457,55.7603302 281.1530457,57.4108963 273.6715088,57.4108963 			"/>
			<polygon points="240.8186646,43.187645 248.0362854,43.187645 248.0362854,44.818676 242.6965637,44.818676 
				242.6965637,49.1559601 246.8428955,49.3233528 246.8428955,50.6215134 242.6965637,50.7860336 242.6965637,55.7620544 
				248.2980957,55.7620544 248.2980957,57.4164505 240.8186646,57.4164505 			"/>
			<path d="M234.3340149,57.6820984c-1.9133301,0-3.299408-0.6228409-4.1670074-1.8666077
				c-0.8622437-1.2456818-1.2964325-3.0665131-1.2964325-5.4644127c0-1.1416817,0.0993958-2.1741982,0.3068237-3.0935173
				c0.2020569-0.9239197,0.5257263-1.7038116,0.9614563-2.3435059c0.4376221-0.643528,0.9966888-1.1334496,1.6852264-1.4776192
				c0.6919708-0.3451309,1.5222321-0.5180779,2.5099335-0.5180779c1.3839569,0,2.5101166,0.3721352,3.3668213,1.1165962
				l-0.8978729,1.3841515c-0.3554688-0.2731133-0.7295227-0.4939423-1.1240692-0.6509933
				c-0.3947296-0.1589661-0.8453827-0.2384491-1.3448792-0.2384491c-0.686615,0-1.2437592,0.1141472-1.6833191,0.3412971
				c-0.4378204,0.2282982-0.7819977,0.5789833-1.0397797,1.0539665c-0.2581787,0.4723015-0.4340057,1.070816-0.5293732,1.7861633
				c-0.0953827,0.7136269-0.1440277,1.5664864-0.1440277,2.5614624c0,0.9903793,0.048645,1.8516693,0.1495819,2.5792732
				c0.1045685,0.7304764,0.2805786,1.3316765,0.5312805,1.8058929c0.2541504,0.4749832,0.6038818,0.8304558,1.053009,1.0650711
				c0.4506531,0.2328949,1.0267639,0.3489609,1.7223816,0.3489609c0.5556183,0,1.043808-0.1020813,1.4663086-0.3096962
				c0.4248047-0.2076149,0.8118744-0.4525757,1.1635132-0.7406273l0.9015198,1.4000473
				c-0.4749908,0.3617935-1.008194,0.6601906-1.5934906,0.8995972
				C235.7444,57.5633507,235.078476,57.6820984,234.3340149,57.6820984"/>
			<path d="M251.322464,43.187645h1.9060516l3.9220581,8.0950127c0.3123779,0.6349068,0.5797424,1.2541084,0.8059387,1.8694801
				c0.2246399,0.6115417,0.4154053,1.1594963,0.5651855,1.639267h0.040802
				c-0.0559387-0.4797707-0.1065063-1.0819283-0.1568604-1.8049355c-0.0448303-0.7209015-0.0693359-1.47015-0.0693359-2.2387428
				V43.187645h1.7357788v14.2288055h-1.9619751l-3.5949249-7.4336777c-0.2468719-0.496624-0.4525757-0.9306221-0.6172791-1.3027534
				c-0.1626129-0.3740501-0.2972412-0.7088356-0.4169464-1.0108719c-0.114151-0.302227-0.2187195-0.5845375-0.3050995-0.8453941
				c-0.0896454-0.2620049-0.1756287-0.5228653-0.2577972-0.7856369h-0.0411835
				c0.0559235,0.506012,0.0990295,1.1380424,0.1346436,1.8899727c0.0337067,0.7500153,0.0484619,1.5373764,0.0484619,2.3622742
				v7.1260872h-1.7375183V43.187645z"/>
			<polygon points="265.8009949,44.8429985 262.4680786,44.6344261 262.4680786,43.187645 271.0116272,43.187645 
				271.0116272,44.6344261 267.6787109,44.8429985 267.6787109,57.4164505 265.8009949,57.4164505 			"/>
			<g>
				<path d="M289.3937988,50.9329338c0.8731689-0.2478371,1.5224304-0.6695747,1.9564209-1.2606239
					c0.4263306-0.5910454,0.6394958-1.4308853,0.6394958-2.5204735c0-1.3475723-0.374054-2.3435059-1.1296082-2.9906693
					c-0.7538452-0.6498451-1.788269-0.9735222-3.0975342-0.9735222h-3.8117371v14.2288055h1.8294678v-7.6403313v-0.9221954
					V44.818676h1.9039307c0.8978882,0,1.5260925,0.1869278,1.8777161,0.5573387
					c0.3478088,0.3730888,0.5276489,0.9716072,0.5276489,1.7984238c0,0.8948059-0.1758118,1.550396-0.5182495,1.9721375
					c-0.3460999,0.4209709-0.9743042,0.6295433-1.8871155,0.6295433h-0.7798767l3.5179138,7.6403313h2.1062012
					L289.3937988,50.9329338z"/>
			</g>
			<g>
				<polygon points="252.5886383,2.473551 259.8083496,2.473551 259.8083496,4.1036239 254.4703674,4.1036239 
					254.4703674,8.4382277 258.6170654,8.6092596 258.6170654,9.9026308 254.4703674,10.0719395 254.4703674,15.0462379 
					260.0720825,15.0462379 260.0720825,16.7004433 252.5886383,16.7004433 				"/>
				<polygon points="240.0929718,2.473551 241.9725952,2.473551 241.9725952,8.2968817 247.0487823,8.2968817 247.0487823,2.473551 
					248.9266815,2.473551 248.9266815,16.7004433 247.0487823,16.7004433 247.0487823,9.970048 241.9725952,9.970048 
					241.9725952,16.7004433 240.0929718,16.7004433 				"/>
				<path d="M205.9720459,22.8305969h2.7811279l2.2649689,7.1663074c0.2189178,0.6601887,0.3757782,1.2606201,0.4694366,1.7955513
					c0.09729,0.5368443,0.1606903,0.9913349,0.1871185,1.3625126h0.0392609
					c0.0409851-0.3562393,0.1047668-0.8097725,0.194397-1.3531284c0.0896301-0.5424004,0.2432404-1.1447468,0.4619598-1.8049355
					l2.3063354-7.1663074h2.80336v14.2288094h-1.8777161v-8.4054775c0-1.2091007,0.016861-2.1797523,0.0469208-2.9008446
					c0.0373535-0.7230091,0.0595703-1.2158031,0.0708771-1.4747467h-0.0410004
					c-0.0223999,0.1074467-0.0693207,0.3114204-0.1290741,0.6079025c-0.0635986,0.295332-0.1440277,0.640461-0.2449646,1.0313644
					c-0.1047668,0.3928185-0.2206421,0.8080463-0.3478088,1.2485542c-0.131012,0.4422321-0.2639313,0.8622475-0.4002838,1.2625351
					l-2.0688629,5.9878521h-1.7355957l-1.9993286-5.7428913c-0.1495819-0.4115868-0.2899628-0.8501816-0.4133148-1.3196087
					c-0.1216125-0.4665565-0.2319336-0.9126205-0.3217621-1.3335934c-0.1009216-0.4188652-0.1796417-0.7873592-0.2393951-1.1033764
					c-0.0599518-0.3162098-0.1049652-0.531292-0.1308136-0.6387386h-0.0450134c0,0.1206608,0.0093842,0.3225288,0.0224152,0.5966015
					c0.0149384,0.2757969,0.0262299,0.606945,0.0411682,0.9913368c0.0132141,0.3851566,0.0260468,0.8201122,0.0335236,1.2998829
					c0.0074615,0.4834099,0.0093842,0.9838657,0.0093842,1.5074959v8.3857517h-1.7373199V22.8305969z"/>
				<path d="M224.9653778,37.3260078c-0.4881897,0-0.9670105-0.0720139-1.4306946-0.2141266
					c-0.4638672-0.1449852-0.8718109-0.3863068-1.223465-0.7220497c-0.357193-0.3376579-0.64505-0.7883186-0.8622437-1.3466148
					c-0.2150726-0.556572-0.3253937-1.2475967-0.3253937-2.0742226V22.8325119h1.8796234v9.807251
					c0,0.5209503,0.0319824,0.9744835,0.0955658,1.3531265c0.0561218,0.3778801,0.1664429,0.690258,0.3273163,0.9390526
					c0.1534119,0.2459183,0.374054,0.4320793,0.651001,0.5563812c0.2729187,0.1262131,0.6433258,0.1878853,1.0920715,0.1878853
					c0.7369843,0,1.3617401-0.1476669,1.8706207-0.4451065c0.515976-0.2964821,0.9164581-0.5891304,1.2175293-0.8800583V22.8325119
					h1.8777161v14.2268944h-1.3860779l-0.3271179-1.3222923c-0.3985596,0.4002876-0.8808289,0.7630348-1.4552002,1.0951424
					C226.3981781,37.1612968,225.7305145,37.3260078,224.9653778,37.3260078"/>
				<path d="M237.120697,37.3260078c-0.8451996,0-1.6344757-0.1300468-2.37146-0.391861
					c-0.7368011-0.2610474-1.3540802-0.610775-1.8610535-1.0530052l0.8212585-1.3841553
					c0.5571594,0.4265251,1.0733185,0.7341156,1.537384,0.9202805c0.4711456,0.1842461,1.0508881,0.2805824,1.7283173,0.2805824
					c0.9424896,0,1.6082306-0.2039719,1.9937744-0.6098175c0.3926239-0.4058418,0.5852966-0.9838638,0.5852966-1.7244949
					c0-0.4272919-0.0578461-0.7911911-0.177536-1.0867119c-0.1122437-0.2955265-0.2880554-0.548914-0.519989-0.7620811
					c-0.2263947-0.2141266-0.5127258-0.401247-0.8453979-0.5563812c-0.3367004-0.1589661-0.7126617-0.3208065-1.1334381-0.4862843
					c-0.5891418-0.2198715-1.0941925-0.4554462-1.5151672-0.7042389c-0.4225006-0.2451515-0.7704926-0.5322495-1.0510864-0.8538208
					c-0.2805786-0.3254013-0.4899139-0.7042389-0.6247559-1.1363201c-0.1384735-0.4338036-0.2056885-0.9472847-0.2056885-1.538332
					c0-1.2269115,0.3516388-2.1443176,1.0549164-2.7560501c0.7013702-0.6144142,1.6720123-0.919323,2.9102173-0.9183655
					c0.779892,0,1.4253387,0.0833149,1.9434052,0.2562618c0.5178833,0.1721821,1.004364,0.4152279,1.4492645,0.73316
					l-0.7741394,1.4860458c-0.409668-0.2897797-0.8078461-0.5012226-1.1838074-0.6414204
					c-0.3834381-0.1365566-0.828537-0.2049313-1.3316803-0.2049313c-0.6789551,0-1.2215424,0.1514969-1.6122589,0.4544907
					c-0.3947296,0.3020344-0.5950623,0.8126411-0.5950623,1.5300961c0,0.3562374,0.0358124,0.6601887,0.110321,0.9070644
					c0.0787048,0.2487907,0.2041626,0.4638748,0.3778687,0.6498451c0.179657,0.1871204,0.4115906,0.3516407,0.6959991,0.4956684
					c0.2880554,0.1430683,0.6414185,0.2993546,1.06604,0.4648323c0.5462189,0.2066555,1.0549164,0.4255695,1.529892,0.6601887
					c0.4788208,0.2338524,0.890213,0.5219059,1.2380219,0.8670349c0.3481903,0.3441715,0.6230316,0.7574825,0.8304443,1.2389774
					c0.2022552,0.48456,0.3031921,1.084034,0.3031921,1.7974663c0,0.5238228-0.0691376,1.0277252-0.2131653,1.51688
					c-0.1421204,0.4882011-0.3853455,0.9212379-0.7220459,1.2998848c-0.3439789,0.3788376-0.796936,0.6837463-1.3521729,0.9099388
					C238.6471558,37.2137756,237.9513397,37.3260078,237.120697,37.3260078"/>
				<polygon points="244.095459,36.0073547 245.5299835,35.8390045 245.5299835,24.0473576 244.095459,23.8648338 
					244.095459,22.8305969 248.836853,22.8305969 248.836853,23.8648338 247.4078827,24.0473576 247.4078827,35.8390045 
					248.836853,36.0073547 248.836853,37.0594063 244.095459,37.0594063 				"/>
				<path d="M256.6064453,37.3260078c-1.9041443,0-3.2921143-0.6218834-4.1562805-1.8694801
					c-0.8695221-1.2410851-1.3016052-3.0636406-1.3016052-5.4596233c0-1.1409168,0.1030426-2.1734314,0.3068237-3.0983067
					c0.2055054-0.9229622,0.5253601-1.7047672,0.9614563-2.3415909c0.4376373-0.6406517,0.9968872-1.1334476,1.6888733-1.4776173
					c0.6825867-0.3422565,1.5168762-0.5153961,2.5007324-0.5153961c1.3952637,0,2.5155029,0.3704109,3.3702698,1.1129551
					l-0.8976746,1.3812809c-0.3516541-0.2692852-0.7295227-0.4881973-1.1225281-0.6481228
					c-0.3962708-0.1580067-0.8453979-0.2355747-1.3500671-0.2355747c-0.6810608,0-1.238205,0.1139565-1.6758423,0.3393822
					c-0.4360962,0.2273407-0.7819977,0.5780239-1.0440063,1.0549221c-0.257782,0.473259-0.4301605,1.0679455-0.530899,1.7852097
					c-0.0953827,0.7145805-0.1421204,1.5693588-0.1421204,2.5614605c0,0.9884624,0.0522919,1.8516674,0.1532288,2.5792713
					c0.09729,0.7295227,0.2803955,1.3297615,0.5310974,1.8078117c0.2543488,0.4740219,0.6004333,0.828537,1.0551147,1.0614319
					c0.4450989,0.2355766,1.0212097,0.3524055,1.7168121,0.3524055c0.5556335,0,1.0472717-0.1018906,1.4701538-0.3095055
					c0.4225159-0.2066536,0.811676-0.4535294,1.1652527-0.7434998l0.8997803,1.4036903
					c-0.4751892,0.358345-1.0101013,0.6584625-1.5973206,0.8997841
					C258.0241089,37.2063065,257.3580017,37.3260078,256.6064453,37.3260078"/>
				<polygon points="232.1906586,4.1390562 228.8240356,3.9324002 228.8240356,2.473551 237.450119,2.473551 237.450119,3.9324002 
					234.0871429,4.1390562 234.0871429,16.7004433 232.1906586,16.7004433 				"/>
			</g>
		</g>
		<g>
			<path d="M280.6832275,12.9643564l-4.9242859-11.4269819c-0.3479919,0.1488153-0.6864319,0.3087389-1.025238,0.4788135
				l5.5888977,11.1138382C280.4403992,13.0710363,280.5600891,13.0149193,280.6832275,12.9643564z"/>
			<path d="M279.630249,13.5320377l-6.8732605-10.3674631c-0.2677612,0.1777356-0.5351257,0.364856-0.7952271,0.5582967
				l7.3882751,10.0066299C279.443512,13.6601686,279.5369568,13.5946665,279.630249,13.5320377z"/>
			<path d="M285.372345,12.7316532l3.770752-11.8544664c-0.5609741-0.1777356-1.1278992-0.3319136-1.7020874-0.4544899
				l-2.6650696,12.1517134C284.9760742,12.6155882,285.1777649,12.6697903,285.372345,12.7316532z"/>
			<path d="M281.8243408,12.5893497L279.009491,0.4723017C278.5923767,0.568639,278.175415,0.678,277.7638245,0.8051729
				l3.6192627,11.9011984C281.5305481,12.6613626,281.6764832,12.6221008,281.8243408,12.5893497z"/>
			<path d="M284.2053833,12.4715614l1.5973206-12.3340464C285.2788696,0.0700983,284.7441406,0.0233661,284.2109375,0
				l-0.5667114,12.423872C283.8330688,12.4332561,284.0184631,12.4491529,284.2053833,12.4715614z"/>
			<path d="M278.5923767,14.3831768c0.0317688-0.0337086,0.0674133-0.0683746,0.1028442-0.0992098l-8.6035156-8.9813938
				c-0.09729,0.0944219-0.1982117,0.1878862-0.2955017,0.2842236c-0.0975037,0.0990186-0.1909485,0.1972713-0.2880554,0.2955236
				l8.985199,8.6046629C278.5251465,14.4513597,278.5586548,14.4166937,278.5923767,14.3831768z"/>
			<path d="M286.4797363,13.1945696l5.816803-10.9977732c-0.5668945-0.3003118-1.1522217-0.5695966-1.741333-0.8118763
				l-4.6891174,11.5252342C286.0773621,12.9944258,286.2815247,13.0888481,286.4797363,13.1945696z"/>
			<path d="M283.0045166,12.423872l-0.6134338-12.421957c-0.4788208,0.0243237-0.9614563,0.0655017-1.4364624,0.1271729
				l1.5484924,12.3388338C282.6716614,12.4481955,282.8399963,12.4332561,283.0045166,12.423872z"/>
			<path d="M277.1203003,21.6607609l-11.5269165,4.6860523c0.2413025,0.5920048,0.5088806,1.1709862,0.8135986,1.7423058
				l10.9977417-5.8187332C277.2980347,22.0702419,277.2045593,21.8683739,277.1203003,21.6607609z"/>
			<path d="M277.6404724,22.6771851l-10.5639343,6.5752602c0.3665771,0.5808964,0.761322,1.150301,1.1970215,1.7001705
				l9.782135-7.6769142C277.9097595,23.0803471,277.7657471,22.8830757,277.6404724,22.6771851z"/>
			<path d="M276.7799683,20.5692558l-12.1497803,2.6652679c0.1271667,0.5715122,0.2803955,1.1391945,0.4581299,1.7011299
				l11.8544312-3.7705612C276.8789673,20.9678211,276.8230591,20.7684422,276.7799683,20.5692558z"/>
			<path d="M270.6078796,33.4384232l8.270813-9.2930031c-0.0992126-0.0869541-0.1947937-0.1775455-0.2863159-0.2683277
				c-0.0934753-0.0925064-0.1835022-0.1888447-0.2712097-0.2861385l-9.2918396,8.2679615
				c0.2449646,0.2748394,0.5031433,0.5460377,0.7668762,0.8116856
				C270.0616455,32.936245,270.3311157,33.1905899,270.6078796,33.4384232z"/>
			<path d="M276.678833,18.293169l-12.3405151-1.549633c-0.0634155,0.4816856-0.1026611,0.9585857-0.1271667,1.4400806
				l12.4209595,0.6136475C276.6414795,18.6315937,276.6564331,18.462286,276.678833,18.293169z"/>
			<path d="M276.9128723,17.1756172l-11.9013672-3.6219368c-0.1231384,0.413312-0.2353821,0.8275814-0.32901,1.2447233
				l12.1160583,2.8148489C276.832428,17.465395,276.8695984,17.3213692,276.9128723,17.1756172z"/>
			<path d="M277.3409424,16.1141834l-11.118988-5.5896692c-0.166626,0.3395739-0.3275146,0.6827879-0.4734497,1.0286827
				l11.4242859,4.9210539C277.2212219,16.3526325,277.2773438,16.2329292,277.3409424,16.1141834z"/>
			<path d="M276.6286621,19.4358082l-12.4213562,0.5630856c0.0245056,0.5378036,0.0675964,1.0698605,0.1386719,1.5992374
				l12.3328552-1.6038342C276.6564331,19.8108158,276.6414795,19.6229286,276.6286621,19.4358082z"/>
			<path d="M277.9394531,15.1416178l-10.0100403-7.3907752c-0.194397,0.262773-0.3815308,0.5301423-0.5573425,0.7996182
				l10.3693542,6.8698263C277.8049927,15.327589,277.8685913,15.2331667,277.9394531,15.1416178z"/>
			<path d="M288.0845337,23.8770924c-0.033905,0.0337086-0.0693359,0.0664597-0.0993958,0.1018906l8.6021423,8.982542
				c0.0971069-0.0972939,0.194397-0.1917152,0.2915039-0.2909241c0.0974731-0.0963402,0.1909485-0.193634,0.2882385-0.2916946
				l-8.9815674-8.6056213C288.1555786,23.8069935,288.1216736,23.8414688,288.0845337,23.8770924z"/>
			<path d="M283.6704407,25.8371639l0.6132812,12.4231052c0.4828186-0.027195,0.9616394-0.0702896,1.4423828-0.1271744
				l-1.5507812-12.3397903C284.0071411,25.8128395,283.838623,25.8260555,283.6704407,25.8371639z"/>
			<path d="M284.8563843,25.6716862l2.8127136,12.117239c0.4154358-0.0982513,0.8342896-0.2076149,1.2458801-0.3330612
				l-3.6209717-11.9029236C285.1517029,25.5967999,285.0040283,25.6362534,284.8563843,25.6716862z"/>
			<path d="M285.9932556,25.2985935l4.9229736,11.4241085c0.3478088-0.1486244,0.6900635-0.308548,1.0284729-0.4788132
				l-5.5846558-11.114603C286.2345886,25.1892338,286.1167908,25.2453499,285.9932556,25.2985935z"/>
			<path d="M287.0443726,24.7270813l6.8717041,10.3703384c0.2733154-0.1786957,0.5404968-0.3656235,0.8005676-0.560215
				l-7.3876953-10.0073929C287.235321,24.5981846,287.1418457,24.663496,287.0443726,24.7270813z"/>
			<path d="M288.7370605,23.1186523l10.0085144,7.3917313c0.1945801-0.265646,0.3813171-0.5303326,0.5611572-0.8024902
				l-10.3749084-6.8707848C288.8718872,22.9344044,288.8082886,23.026144,288.7370605,23.1186523z"/>
			<path d="M280.1990662,25.0666561l-5.8169861,10.9949017c0.5688171,0.3029938,1.1485596,0.5732346,1.7377014,0.8126411
				l4.6890869-11.5242767C280.6029968,25.2648849,280.3992004,25.1704636,280.1990662,25.0666561z"/>
			<path d="M279.1947021,24.4110661l-7.6778564,9.7903957c0.5517883,0.4301682,1.1204224,0.8275833,1.7020874,1.1924362
				l6.5721741-10.5610943C279.589447,24.7037163,279.3871765,24.5635185,279.1947021,24.4110661z"/>
			<path d="M282.4734192,25.7877502l-1.6049805,12.3350029c0.5314941,0.0672264,1.0643005,0.114151,1.5994263,0.1382828
				l0.5667114-12.423872C282.8453674,25.8279705,282.6586304,25.8128395,282.4734192,25.7877502z"/>
			<path d="M281.3060913,25.528616l-3.7703857,11.8552341c0.559082,0.1767769,1.1278992,0.3282738,1.6982727,0.4554443
				l2.6706238-12.1517124C281.6990967,25.6437225,281.5008545,25.5912457,281.3060913,25.528616z"/>
			<path d="M289.5546875,16.6004658l11.5288391-4.6862431c-0.2394104-0.5910482-0.5108032-1.1727104-0.811676-1.7403917
				l-10.9977722,5.8168182C289.3807678,16.1898365,289.4723206,16.3928528,289.5546875,16.6004658z"/>
			<path d="M289.0365906,15.581934l10.5656738-6.5733442c-0.3665771-0.5826197-0.7649536-1.149344-1.1970215-1.699213
				l-9.7859802,7.6778708C288.7747803,15.1789646,288.9111633,15.3771935,289.0365906,15.581934z"/>
			<path d="M289.8950195,17.6917782l12.1497498-2.6643095c-0.1196899-0.572278-0.2731018-1.1428328-0.4562073-1.7030449
				l-11.8505859,3.7707529C289.8013611,17.294363,289.8521118,17.4897194,289.8950195,17.6917782z"/>
			<path d="M289.3374939,22.1480007l11.1136169,5.5875626c0.1723633-0.3374672,0.3294067-0.6816387,0.4826355-1.0277252
				l-11.4296265-4.9199047C289.4535522,21.9066792,289.3974304,22.0273399,289.3374939,22.1480007z"/>
			<path d="M288.0845337,14.3831768c0.0917358,0.0934639,0.1849976,0.1888437,0.2690735,0.2842236l9.2958679-8.2660465
				c-0.2468872-0.2777119-0.5031433-0.5489116-0.7706909-0.8145576c-0.2635498-0.2618151-0.5385742-0.5228643-0.8114929-0.7678256
				l-8.2671814,9.2956867C287.8955078,14.1989288,287.9945068,14.2904787,288.0845337,14.3831768z"/>
			<path d="M287.4860229,13.8492041l7.6759338-9.7877159c-0.5500793-0.4320812-1.1166077-0.8294966-1.7020874-1.1932032
				l-6.5723572,10.561861C287.0912781,13.5582771,287.2897034,13.6977072,287.4860229,13.8492041z"/>
			<path d="M289.7622986,21.0846519l11.9009705,3.6228943c0.1233521-0.4142685,0.2355652-0.8294964,0.3345947-1.2466393
				l-12.1216125-2.8138905C289.8461914,20.7927666,289.8013611,20.9387093,289.7622986,21.0846519z"/>
			<path d="M290.0463257,18.8252258l12.4213562-0.5657654c-0.0206909-0.5339737-0.0674438-1.0652657-0.1346436-1.5973225
				l-12.3370972,1.6028767C290.0166321,18.4492607,290.0369263,18.6381054,290.0463257,18.8252258z"/>
			<path d="M289.9959412,19.9661427l12.3445435,1.5532722c0.0597534-0.4795799,0.1028748-0.9631824,0.1271973-1.4419956
				l-12.4232788-0.6163292C290.0334778,19.6303997,290.0200806,19.7977924,289.9959412,19.9661427z"/>
		</g>
	</g>
</g>
<g>
</g>
<g>
</g>
<g>
</g>
<g>
</g>
<g>
</g>
<g>
</g>
<g>
</g>
<g>
</g>
<g>
</g>
<g>
</g>
<g>
</g>
<g>
</g>
<g>
</g>
<g>
</g>
<g>
</g>
</svg>
