<svg id="Layer_1" data-name="Layer 1" xmlns="http://www.w3.org/2000/svg" viewBox="0 0 139.85 28.99">
  <defs>
    <style>
      .cls-1 {
        fill: black;
      }
    </style>
  </defs>
  <polygon class="cls-1" points="75.08 15.74 72.45 15.74 72.45 13 75.08 13 75.08 10.15 77.93 10.15 77.93 13 80.56 13 80.56 15.74 77.93 15.74 77.93 18.67 75.08 18.67 75.08 15.74"/>
  <path class="cls-1" d="M5.35,11.84V9.66c0-1.11-.15-2.21-2-2.29H1.95C0.15,7.45,0,8.55,0,9.66v9.43c0,1.86.47,2.44,1.95,2.45H3.39c1.48,0,2-.59,2-2.45V14H2.54v1.72H3.48V19c0,0.46-.05.78-0.59,0.78H2.45c-0.53,0-.59-0.32-0.59-0.78V10.08c0-.54,0-1,0.75-1H2.74c0.73,0,.74.44,0.74,1v1.76H5.35Z"/>
  <path class="cls-1" d="M54.14,18.73V17.18c0-1.84-.17-2.61-1.41-2.8a0,0,0,0,1,0-.09c1.41,0,1.46-1.06,1.46-3.49,0-2.81-.26-3.43-2.51-3.43h-3V21.54h1.85v0h0V9.08h1c0.79,0,.89,0,0.89,1.6,0,2.35,0,2.77-1,2.77H51.27V15a0.61,0.61,0,0,1,.77.42,6.81,6.81,0,0,1,.24,2.13v2a1.82,1.82,0,0,0,2.21,2,6.15,6.15,0,0,1-.36-2.81"/>
  <path class="cls-1" d="M12,18.73V17.19c0-1.84-.17-2.61-1.41-2.8a0,0,0,0,1,0-.09C12,14.27,12,13.23,12,10.8,12,8,11.77,7.37,9.51,7.37h-3V21.54H8.36v0h0V9.08h1c0.79,0,.89,0,0.89,1.61,0,2.35,0,2.77-1,2.77H9.1V15a0.61,0.61,0,0,1,.77.42,6.81,6.81,0,0,1,.24,2.13v2a1.82,1.82,0,0,0,2.21,2A6.11,6.11,0,0,1,12,18.73"/>
  <path class="cls-1" d="M31,7.37H27.59V21.54h1.81V9.1h1.1c0.73,0,.75.44,0.75,1V19c0,0.46-.06.78-0.59,0.78H30.2v1.74h0.93c1.5,0,2-.58,2-2.45V9.66c0-1.15-.16-2.29-2.14-2.29"/>
  <polygon class="cls-1" points="17.37 7.37 15.14 7.37 12.99 21.54 14.79 21.54 15.12 19.25 16.26 19.25 16.26 17.48 15.38 17.48 16.26 11.46 17.73 21.54 19.52 21.54 17.37 7.37"/>
  <polygon class="cls-1" points="45.85 7.37 43.62 7.37 41.47 21.54 43.26 21.54 43.6 19.25 44.73 19.25 44.73 17.48 43.86 17.48 44.73 11.46 46.2 21.54 48 21.54 45.85 7.37"/>
  <path class="cls-1" d="M24.44,7.37h0v9.34L22.31,7.37h-2V21.54h1.8V12.32l2,9.22h2V7.37H24.44Z"/>
  <path class="cls-1" d="M39.87,11.47c0,1.57-.12,2-0.91,2H38.7v1.59h0.45c2.17,0,2.53-.88,2.53-3.43V10.83c0-2.81-.26-3.43-2.51-3.43h-3V21.57H38v0h0V9.11h1c0.79,0,.89,0,0.89,1.6v0.76Z"/>
  <rect class="cls-1" x="55.54" y="7.41" width="1.81" height="14.16"/>
  <polygon class="cls-1" points="60.17 7.47 62.15 7.47 59.5 14.14 62.39 21.62 60.29 21.62 57.68 14.35 60.17 7.47"/>
  <polygon class="cls-1" points="125.37 21.71 129 21.71 129 22.53 126.32 22.53 126.32 24.71 128.4 24.79 128.4 25.44 126.32 25.53 126.32 28.03 129.13 28.03 129.13 28.86 125.37 28.86 125.37 21.71"/>
  <polygon class="cls-1" points="108.86 21.71 112.48 21.71 112.48 22.53 109.8 22.53 109.8 24.71 111.88 24.79 111.88 25.45 109.8 25.53 109.8 28.03 112.61 28.03 112.61 28.86 108.86 28.86 108.86 21.71"/>
  <path class="cls-1" d="M105.6,29a2.37,2.37,0,0,1-2.09-.94,4.82,4.82,0,0,1-.65-2.75,7.05,7.05,0,0,1,.15-1.56,3.33,3.33,0,0,1,.48-1.18,2.2,2.2,0,0,1,.85-0.74,2.8,2.8,0,0,1,1.26-.26,2.49,2.49,0,0,1,1.69.56l-0.45.7a2.32,2.32,0,0,0-.57-0.33,1.78,1.78,0,0,0-.68-0.12,1.83,1.83,0,0,0-.85.17,1.25,1.25,0,0,0-.52.53,2.58,2.58,0,0,0-.27.9,9.86,9.86,0,0,0-.07,1.29,9.55,9.55,0,0,0,.08,1.3,2.79,2.79,0,0,0,.27.91,1.24,1.24,0,0,0,.53.53,1.88,1.88,0,0,0,.87.18,1.65,1.65,0,0,0,.74-0.16,3,3,0,0,0,.58-0.37l0.45,0.7a3.54,3.54,0,0,1-.8.45,2.63,2.63,0,0,1-1,.18"/>
  <path class="cls-1" d="M114.14,21.71h1l2,4.07a9.82,9.82,0,0,1,.4.94c0.11,0.31.21,0.58,0.28,0.82h0c0-.24-0.05-0.54-0.08-0.91s0-.74,0-1.13v-3.8h0.87v7.15h-1l-1.81-3.74c-0.12-.25-0.23-0.47-0.31-0.65s-0.15-.36-0.21-0.51-0.11-.29-0.15-0.42l-0.13-.4h0c0,0.25,0,.57.07,0.95s0,0.77,0,1.19v3.58h-0.87V21.71Z"/>
  <polygon class="cls-1" points="121.41 22.54 119.74 22.44 119.74 21.71 124.03 21.71 124.03 22.44 122.36 22.54 122.36 28.86 121.41 28.86 121.41 22.54"/>
  <path class="cls-1" d="M133.27,25.6a1.77,1.77,0,0,0,1-.63,2.13,2.13,0,0,0,.32-1.27,1.87,1.87,0,0,0-.57-1.5,2.31,2.31,0,0,0-1.56-.49h-1.92v7.15h0.92V22.53h1a1.28,1.28,0,0,1,.94.28,1.3,1.3,0,0,1,.26.9,1.56,1.56,0,0,1-.26,1,1.17,1.17,0,0,1-.95.32H132l1.77,3.84h1.06Z"/>
  <polygon class="cls-1" points="114.77 1.24 118.4 1.24 118.4 2.06 115.72 2.06 115.72 4.24 117.8 4.33 117.8 4.98 115.72 5.06 115.72 7.56 118.53 7.56 118.53 8.39 114.77 8.39 114.77 1.24"/>
  <polygon class="cls-1" points="108.49 1.24 109.44 1.24 109.44 4.17 111.99 4.17 111.99 1.24 112.93 1.24 112.93 8.39 111.99 8.39 111.99 5.01 109.44 5.01 109.44 8.39 108.49 8.39 108.49 1.24"/>
  <path class="cls-1" d="M91.34,11.48h1.4l1.14,3.6a6.82,6.82,0,0,1,.33,1.59h0c0-.18.05-0.41,0.1-0.68a5.93,5.93,0,0,1,.23-0.91l1.16-3.6h1.41v7.15H96.18V14.4c0-.61,0-1.09,0-1.46s0-.61,0-0.74h0l-0.07.3q0,0.23-.12.52l-0.17.63c-0.07.22-.13,0.43-0.2,0.64l-1,3H93.74l-1-2.89c-0.07-.21-0.15-0.43-0.21-0.66s-0.12-.46-0.16-0.67-0.09-.4-0.12-0.56-0.05-.27-0.07-0.32h0c0,0.06,0,.16,0,0.3s0,0.31,0,.5,0,0.41,0,.65,0,0.49,0,.76v4.22H91.34V11.48Z"/>
  <path class="cls-1" d="M100.89,18.76a2.46,2.46,0,0,1-.72-0.11,1.57,1.57,0,0,1-.61-0.36,1.84,1.84,0,0,1-.43-0.68,2.92,2.92,0,0,1-.16-1V11.48H99.9v4.93a4.19,4.19,0,0,0,0,.68,1.17,1.17,0,0,0,.16.47,0.73,0.73,0,0,0,.33.28,1.33,1.33,0,0,0,.55.1,1.83,1.83,0,0,0,.94-0.22,3.1,3.1,0,0,0,.61-0.44V11.48h0.94v7.15h-0.7L102.62,18a3.47,3.47,0,0,1-.73.55,2,2,0,0,1-1,.25"/>
  <path class="cls-1" d="M107,18.76a3.52,3.52,0,0,1-1.19-.2,2.84,2.84,0,0,1-.93-0.53l0.41-.7a3.43,3.43,0,0,0,.77.46,2.41,2.41,0,0,0,.87.14,1.35,1.35,0,0,0,1-.31,1.2,1.2,0,0,0,.29-0.87,1.47,1.47,0,0,0-.09-0.55,1,1,0,0,0-.26-0.38,1.6,1.6,0,0,0-.43-0.28l-0.57-.24a4.88,4.88,0,0,1-.76-0.35,2.07,2.07,0,0,1-.53-0.43,1.59,1.59,0,0,1-.31-0.57,2.54,2.54,0,0,1-.1-0.77,1.73,1.73,0,0,1,.53-1.39,2.14,2.14,0,0,1,1.46-.46,3.12,3.12,0,0,1,1,.13,2.7,2.7,0,0,1,.73.37l-0.39.75a2.68,2.68,0,0,0-.6-0.32,2,2,0,0,0-.67-0.1,1.3,1.3,0,0,0-.81.23,0.91,0.91,0,0,0-.3.77,1.63,1.63,0,0,0,.05.46,0.85,0.85,0,0,0,.19.33,1.29,1.29,0,0,0,.35.25l0.54,0.23c0.28,0.1.53,0.21,0.77,0.33a2.27,2.27,0,0,1,.62.44,2,2,0,0,1,.42.62,2.35,2.35,0,0,1,.15.9,2.66,2.66,0,0,1-.11.76,1.68,1.68,0,0,1-.36.65,1.82,1.82,0,0,1-.68.46,2.79,2.79,0,0,1-1,.17"/>
  <polygon class="cls-1" points="110.5 18.1 111.22 18.02 111.22 12.09 110.5 12 110.5 11.48 112.89 11.48 112.89 12 112.17 12.09 112.17 18.02 112.89 18.1 112.89 18.63 110.5 18.63 110.5 18.1"/>
  <path class="cls-1" d="M116.79,18.76a2.36,2.36,0,0,1-2.09-.94,4.78,4.78,0,0,1-.65-2.74,7.27,7.27,0,0,1,.15-1.56,3.39,3.39,0,0,1,.48-1.18,2.2,2.2,0,0,1,.85-0.74,2.78,2.78,0,0,1,1.26-.26,2.49,2.49,0,0,1,1.69.56L118,12.6a2.46,2.46,0,0,0-.56-0.33,1.81,1.81,0,0,0-.68-0.12,1.84,1.84,0,0,0-.84.17,1.25,1.25,0,0,0-.52.53,2.65,2.65,0,0,0-.27.9,9.9,9.9,0,0,0-.07,1.29,9.54,9.54,0,0,0,.08,1.3,2.71,2.71,0,0,0,.27.91,1.23,1.23,0,0,0,.53.53,1.85,1.85,0,0,0,.86.18,1.65,1.65,0,0,0,.74-0.16,3,3,0,0,0,.58-0.37l0.45,0.7a3.6,3.6,0,0,1-.8.45,2.62,2.62,0,0,1-1,.18"/>
  <polygon class="cls-1" points="104.52 2.08 102.83 1.98 102.83 1.24 107.16 1.24 107.16 1.98 105.47 2.08 105.47 8.39 104.52 8.39 104.52 2.08"/>
  <path class="cls-1" d="M128.89,6.52l-2.48-5.74L125.9,1l2.81,5.59,0.18-.08"/>
  <path class="cls-1" d="M128.36,6.8l-3.45-5.21-0.4.28,3.71,5,0.14-.1"/>
  <path class="cls-1" d="M131.25,6.4l1.9-6c-0.28-.09-0.57-0.17-0.86-0.23L131,6.32l0.3,0.08"/>
  <path class="cls-1" d="M129.47,6.33l-1.42-6.09-0.63.17,1.82,6,0.22-.06"/>
  <path class="cls-1" d="M130.66,6.27l0.8-6.2C131.2,0,130.94,0,130.67,0l-0.29,6.24,0.28,0"/>
  <path class="cls-1" d="M127.84,7.23l0.05-.05-4.32-4.52-0.15.14L123.28,3l4.52,4.33,0.05-.05"/>
  <path class="cls-1" d="M131.81,6.63l2.92-5.53C134.45,1,134.15.82,133.86,0.7L131.5,6.49l0.31,0.14"/>
  <path class="cls-1" d="M130.06,6.24L129.75,0,129,0.07l0.78,6.2,0.25,0"/>
  <path class="cls-1" d="M127.1,10.89l-5.79,2.35a9,9,0,0,0,.41.88l5.53-2.92a3,3,0,0,1-.14-0.31"/>
  <path class="cls-1" d="M127.36,11.4l-5.31,3.31a9.44,9.44,0,0,0,.6.85l4.92-3.86a3.6,3.6,0,0,1-.21-0.3"/>
  <path class="cls-1" d="M126.93,10.34l-6.11,1.34c0.06,0.29.14,0.57,0.23,0.85l6-1.9c0-.1-0.06-0.2-0.08-0.3"/>
  <path class="cls-1" d="M123.83,16.81L128,12.14,127.84,12l-0.14-.14L123,16l0.38,0.41,0.41,0.39"/>
  <path class="cls-1" d="M126.88,9.2l-6.2-.78c0,0.24-.05.48-0.06,0.72l6.24,0.31c0-.08,0-0.17,0-0.25"/>
  <path class="cls-1" d="M127,8.63l-6-1.82c-0.06.21-.12,0.42-0.17,0.63l6.09,1.41c0-.07,0-0.15.06-0.22"/>
  <path class="cls-1" d="M127.21,8.1l-5.59-2.81c-0.08.17-.17,0.34-0.24,0.52l5.74,2.47,0.08-.18"/>
  <path class="cls-1" d="M126.86,9.77l-6.24.28c0,0.27,0,.54.07,0.8l6.2-.81c0-.09,0-0.19,0-0.28"/>
  <path class="cls-1" d="M127.52,7.61l-5-3.71-0.28.4,5.21,3.45,0.1-.14"/>
  <path class="cls-1" d="M132.61,12l0,0.05,4.32,4.52,0.15-.15,0.14-.15L132.67,12l-0.05.05"/>
  <path class="cls-1" d="M130.4,13l0.31,6.24,0.73-.06L130.65,13l-0.25,0"/>
  <path class="cls-1" d="M131,12.9L132.41,19l0.63-.17-1.82-6L131,12.9"/>
  <path class="cls-1" d="M131.56,12.72L134,18.46l0.52-.24-2.81-5.59-0.18.08"/>
  <path class="cls-1" d="M132.09,12.43l3.45,5.21,0.4-.28-3.71-5-0.14.1"/>
  <path class="cls-1" d="M132.94,11.62l5,3.72,0.28-.4L133,11.48l-0.1.14"/>
  <path class="cls-1" d="M128.65,12.6l-2.92,5.53a9.33,9.33,0,0,0,.87.41L129,12.74l-0.31-.14"/>
  <path class="cls-1" d="M128.15,12.27l-3.86,4.92a10.19,10.19,0,0,0,.85.6l3.3-5.31-0.3-.21"/>
  <path class="cls-1" d="M129.79,13L129,19.16c0.27,0,.54.06,0.8,0.07L130.08,13l-0.28,0"/>
  <path class="cls-1" d="M129.21,12.83l-1.89,6c0.28,0.09.57,0.17,0.85,0.23l1.34-6.11-0.3-.08"/>
  <path class="cls-1" d="M133.35,8.35L139.15,6a9.36,9.36,0,0,0-.41-0.87L133.21,8a3.13,3.13,0,0,1,.14.31"/>
  <path class="cls-1" d="M133.09,7.83l5.31-3.3a9.69,9.69,0,0,0-.6-0.85l-4.92,3.86a2.74,2.74,0,0,1,.21.3"/>
  <path class="cls-1" d="M133.52,8.89l6.11-1.34a8.25,8.25,0,0,0-.23-0.86l-6,1.9a2.94,2.94,0,0,1,.08.3"/>
  <path class="cls-1" d="M133.24,11.13l5.59,2.81c0.09-.17.16-0.34,0.24-0.52L133.33,11l-0.08.18"/>
  <path class="cls-1" d="M132.61,7.23l0.14,0.14,4.67-4.16L137,2.81l-0.41-.39L132.47,7.1l0.14,0.14"/>
  <path class="cls-1" d="M132.31,7L136.17,2a9.71,9.71,0,0,0-.86-0.6L132,6.75,132.31,7"/>
  <path class="cls-1" d="M133.46,10.6l6,1.82c0.06-.21.12-0.42,0.17-0.63l-6.09-1.42c0,0.07,0,.15-0.06.22"/>
  <path class="cls-1" d="M133.6,9.46l6.24-.28c0-.27,0-0.54-0.07-0.8l-6.2.8c0,0.09,0,.19,0,0.28"/>
  <path class="cls-1" d="M133.58,10l6.21,0.78c0-.24.05-0.48,0.06-0.72l-6.24-.31c0,0.08,0,.17,0,0.25"/>
</svg>
