<?xml version="1.0" encoding="utf-8"?>
<!-- Generator: Adobe Illustrator 19.2.1, SVG Export Plug-In . SVG Version: 6.00 Build 0)  -->
<svg version="1.1" id="Layer_1" xmlns="http://www.w3.org/2000/svg" xmlns:xlink="http://www.w3.org/1999/xlink" x="0px" y="0px"
	 viewBox="0 0 55 55" style="enable-background:new 0 0 55 55;" xml:space="preserve">
<title>los-angeles</title>
<path d="M45.7,45.7c-9.9,10.2-26.2,10.5-36.4,0.6S-1.2,20.1,8.7,9.9c0.2-0.2,0.4-0.4,0.6-0.6C19.2-0.9,35.5-1.2,45.7,8.7
	s10.5,26.2,0.6,36.4C46.1,45.3,45.9,45.5,45.7,45.7 M27.5,0.8C12.8,0.8,0.8,12.7,0.8,27.5c0,7.1,2.8,13.9,7.8,18.9
	c10.6,10.3,27.5,10,37.8-0.6c10-10.4,10-26.8,0-37.2C41.4,3.6,34.6,0.8,27.5,0.8"/>
<path d="M6,18.2c0.8,0.4,1.7,0.2,2.1-0.6c0.1-0.2,0.2-0.5,0.2-0.8c0-0.1,0-0.3-0.1-0.4c0-0.1-0.1-0.2-0.1-0.3l-0.5,0.2
	c0,0.1,0.1,0.2,0.1,0.3c0,0.1,0,0.2,0,0.3c0,0.1-0.1,0.3-0.1,0.4c-0.3,0.5-0.9,0.7-1.4,0.4s-0.7-0.9-0.4-1.4
	c0.1-0.1,0.1-0.2,0.2-0.3c0.1-0.1,0.2-0.2,0.4-0.3l-0.2-0.5c-0.1,0-0.2,0.1-0.3,0.1l0,0l0,0l0,0l-0.2,0.1l0,0l-0.1,0.1l0,0
	c-0.1,0.1-0.2,0.2-0.2,0.3c-0.2,0.4-0.3,0.8-0.2,1.2C5.4,17.6,5.7,17.9,6,18.2"/>
<path d="M7.4,13.6c0.3-0.5,0.9-0.6,1.4-0.2c0.3,0.2,0.4,0.5,0.4,0.8c0,0.2-0.1,0.4-0.2,0.6c-0.3,0.5-0.9,0.6-1.4,0.3c0,0,0,0,0,0
	c-0.2-0.1-0.4-0.4-0.4-0.7C7.2,14.1,7.2,13.8,7.4,13.6 M7.4,15.5c0.3,0.2,0.8,0.3,1.2,0.3c0.9-0.2,1.4-1,1.3-1.9
	c-0.2-0.9-1-1.4-1.8-1.3c-0.4,0.1-0.8,0.3-1,0.7c-0.2,0.3-0.3,0.8-0.2,1.2C6.8,14.9,7,15.2,7.4,15.5"/>
<path d="M11.4,12.8c0.2-0.2,0.3-0.5,0.3-0.8c0-0.3-0.2-0.6-0.4-0.8L9.8,9.9v0.1l-0.3,0.3l1.3,1.2c0.5,0.5,0.4,0.8,0.2,0.9
	s-0.4,0.4-1-0.1l-1.3-1.2l-0.4,0.4l1.4,1.3C10.1,13.3,10.8,13.3,11.4,12.8C11.3,12.9,11.3,12.8,11.4,12.8"/>
<path d="M12.4,11.6l0.4-0.4l-1.3-1.4l3,0.3l-2.1-2.5l-0.1,0.1L12,7.9l1.2,1.5l-3-0.3L12.4,11.6z"/>
<path d="M13.8,7.3l1.4,2.1l0.5-0.3L14.3,7l0.5-0.4l-0.3-0.4l-0.1,0.1l-1.5,1l0.3,0.4L13.8,7.3"/>
<path d="M17.1,8.2l0.5-0.3L17,6.8c0-0.1,0.1-2,0.1-2l-0.2,0.1l-0.4,0.2c0,0,0,1,0,1.2l-1.1-0.7L14.8,6l1.7,1.1L17.1,8.2"/>
<path d="M20.7,4c0.3-0.1,0.5,0,0.8,0.1c0.5,0.3,0.7,0.9,0.4,1.4c0,0,0,0,0,0.1c-0.1,0.2-0.3,0.4-0.6,0.5c-0.5,0.2-1.1-0.1-1.2-0.7
	c0,0,0,0,0,0C19.8,4.7,20.1,4.2,20.7,4C20.6,4,20.6,4,20.7,4 M21.4,6.5c0.8-0.2,1.3-1.1,1.1-1.9c0,0,0,0,0,0
	c-0.2-0.8-1.1-1.3-1.9-1.1c-0.4,0.1-0.7,0.4-0.9,0.8C19.1,5,19.4,6,20.1,6.4C20.5,6.6,20.9,6.6,21.4,6.5"/>
<path d="M23.8,5.9l-0.2-1.3l1-0.2l-0.1-0.6l-1,0.2l-0.1-0.6l1-0.2l-0.1-0.5l-0.1,0.1L22.8,3l0.5,3L23.8,5.9z"/>
<path d="M28.3,5.6V5h-0.9c0-0.2,0-2.5,0-2.5h-0.6v3L28.3,5.6L28.3,5.6z"/>
<path d="M29,4.1c0-0.6,0.5-1,1.1-0.9c0.3,0,0.6,0.2,0.7,0.4C31,3.8,31.1,4,31,4.3c0,0.6-0.5,1-1.1,0.9c0,0,0,0,0,0
	c-0.3,0-0.5-0.2-0.7-0.4C29.1,4.6,29,4.3,29,4.1 M29.8,5.8c0.8,0.1,1.6-0.5,1.7-1.4c0,0,0,0,0,0c0.1-0.9-0.5-1.6-1.4-1.7
	c-0.9-0.1-1.6,0.5-1.7,1.4c0,0.4,0.1,0.8,0.4,1.1C29,5.5,29.4,5.7,29.8,5.8"/>
<path d="M32.6,6.2c0.3,0.1,0.5,0,0.8-0.1c0.2-0.1,0.4-0.4,0.5-0.6c0.1-0.4-0.1-0.9-0.5-1.1l-0.2-0.1c-0.2,0-0.3-0.2-0.3-0.4
	c0-0.1,0.1-0.1,0.1-0.1c0.1,0,0.2,0,0.3,0c0.2,0,0.3,0.1,0.3,0.3v0.1L34,4V3.9c-0.1-0.3-0.3-0.6-0.7-0.6c-0.3-0.1-0.5,0-0.8,0.1
	c-0.2,0.1-0.3,0.3-0.3,0.5c-0.1,0.4,0.1,0.8,0.5,0.9l0.2,0c0.2,0.1,0.3,0.3,0.3,0.5c0,0.2-0.3,0.4-0.5,0.3c0,0,0,0,0,0
	c-0.1,0-0.2-0.1-0.3-0.2c0-0.1,0-0.2,0-0.3V5h-0.6v0.1C31.7,5.6,32.1,6.1,32.6,6.2"/>
<path d="M37.1,5.6c0,0.3,0,0.6,0,0.8l-0.6-0.3L37.1,5.6 M36.1,6.5l1,0.5c0,0.1,0,0.8,0,0.8L37.7,8V4.4l-0.2,0.2L35,6.8l0.6,0.2
	L36.1,6.5"/>
<path d="M39.4,6.8l0.6,3L41.8,7l-0.5-0.3l-1,1.6l-0.6-3l-0.1,0.2L38,8.1l0.5,0.3L39.4,6.8"/>
<path d="M41.4,8.6c-0.3,0.3-0.4,0.7-0.4,1.1c0,0.4,0.2,0.7,0.5,1c0.3,0.2,0.6,0.4,1,0.3c0.4,0,0.8-0.2,1-0.5l0.1-0.2l-1-0.9
	l-0.3,0.4l0.5,0.4c-0.3,0.2-0.7,0.2-1,0c-0.2-0.2-0.3-0.4-0.3-0.6c0-0.3,0-0.6,0.2-0.8c0.2-0.2,0.4-0.3,0.7-0.4
	c0.3,0,0.5,0.1,0.7,0.2c0.2,0.2,0.4,0.5,0.3,0.8v0.2h0.6V9.6c0-0.9-0.7-1.6-1.6-1.6C42.1,8.1,41.7,8.3,41.4,8.6"/>
<path d="M45,9.9l-2.1,2l1.2,1.2l0.4-0.3L43.7,12l0.6-0.6l0.8,0.8l0.4-0.4L44.7,11l0.4-0.4l0.8,0.8l0.4-0.4L45,9.9L45,9.9z"/>
<path d="M45.3,14.7l0.4-0.3l-0.5-0.7l2-1.5l-0.4-0.5l-0.1,0.1l-2.3,1.8L45.3,14.7z"/>
<path d="M46.6,16.7l0.5-0.3l-0.6-1l0.7-0.4l0.6,1l0.5-0.3l-0.6-1l0.5-0.3l0.6,1l0.5-0.3l-0.9-1.5l-0.1,0.1l-2.5,1.5L46.6,16.7z"/>
<path d="M48.4,17.2v0.2c0.1,0.2,0,0.4-0.2,0.6c-0.2,0.1-0.4,0-0.6-0.1c0-0.1,0-0.2,0-0.3c0-0.1,0.1-0.2,0.2-0.3l0.1-0.1l-0.4-0.5
	l-0.1,0.1c-0.4,0.3-0.6,0.8-0.4,1.2c0.2,0.5,0.8,0.7,1.3,0.5c0.4-0.2,0.6-0.7,0.5-1.1v-0.2c-0.1-0.2,0-0.3,0.1-0.4
	c0.1,0,0.1,0,0.2,0c0.1,0,0.2,0.1,0.2,0.2c0.1,0.1,0.1,0.3,0,0.4l-0.1,0.1l0.5,0.3l0.1-0.1c0.2-0.3,0.2-0.6,0.1-0.9
	c-0.2-0.5-0.7-0.7-1.1-0.5c0,0-0.1,0-0.1,0C48.5,16.4,48.3,16.8,48.4,17.2"/>
<path d="M34.8,33.4V21.6H47c1.1,3.8,1.1,7.9,0,11.8H34.8z M46.7,34.2H34.4v12.3l-0.5,0.2V8.1l0.5,0.2v12.4h12.3l0.2,0.5H34.4v12.6
	h12.4L46.7,34.2 M44.5,36.5L44.5,36.5c0,0.1,0,0.1-0.1,0.2l0,0c0,0,0,0.1-0.1,0.1c-0.1,0-0.2,0-0.3,0.1c-0.3,0.1-0.6,0.2-0.8,0.3
	c0,0-0.1,0.1-0.1,0.1h-0.1l0,0c-0.2,0.1-0.3,0.3-0.4,0.5c-0.1,0.2-0.2,0.4-0.2,0.6c0,0.1,0,0.2,0,0.3v0.1c0,0.1,0,0.2-0.1,0.3l0,0
	c0,0.1,0,0.1-0.1,0.2l0,0l0,0c0,0,0,0,0,0.1l0,0l0,0l0,0c-0.1,0.1-0.2,0.2-0.4,0.2c-0.1,0-0.2,0-0.2,0.1v0.1c0,0.1,0,0.1,0,0.2
	c0,0,0,0,0,0.1c-0.1,0.2-0.1,0.5-0.1,0.7c0,0.1,0,0.2,0,0.3c0,0,0,0.1,0,0.2v0.1c0.1,0.1,0.2,0.2,0.3,0.4v0.1h-0.6h-0.1l0,0
	c0-0.1,0-0.2,0-0.3c0-0.1-0.1-0.1-0.1-0.1l0,0c0,0,0-0.1,0-0.1c0-0.1,0-0.2,0-0.3c0-0.1,0-0.2,0-0.3s0-0.1,0-0.1c0-0.2,0-0.4,0-0.5
	c0-0.1,0-0.1,0-0.2c0-0.1,0-0.2,0-0.2s0-0.1-0.1-0.2c0,0,0-0.1,0-0.2c0,0.1,0,0.2,0,0.3c0,0.3,0,0.6-0.2,0.9
	c-0.1,0.3-0.2,0.5-0.2,0.8c0,0.1,0,0.1,0,0.2c0,0.1,0,0.1,0.1,0.2l0,0c0.1,0.1,0.1,0.1,0.1,0.2l0,0h0c-0.1,0-0.2,0-0.2,0
	c-0.1,0-0.2,0-0.2-0.1c0,0,0-0.1,0-0.2c0,0-0.1-0.1-0.1-0.1c0-0.1,0-0.3,0-0.4c0-0.2,0.1-0.4,0.1-0.6c0-0.1,0-0.1,0-0.2
	c0-0.1,0-0.1,0-0.2s0-0.3,0-0.5c0-0.1,0-0.1,0-0.2c0.1,0,0.1-0.1,0.2-0.1h0.1l0,0h0c-0.2,0-0.4,0-0.5,0.1h-0.3h-0.1
	c-0.2,0.2-0.5,0.3-0.7,0.4c-0.1,0-0.3,0-0.4,0c-0.1,0-0.2,0-0.3,0l0,0L38,39.9L37.8,40l0,0l0,0c-0.1,0-0.2,0.1-0.3,0.1l0,0
	c0,0.1,0,0.2-0.1,0.3l0,0l0,0c0-0.1-0.1-0.1-0.1-0.2c0,0,0,0,0-0.1l0,0c-0.1,0-0.1,0-0.2,0l0,0c0,0.1,0,0.1,0,0.2l0,0l0,0
	c0,0,0-0.1,0-0.2c0,0,0-0.1,0.1-0.1s0.1-0.3,0.2-0.4c0.1-0.1,0.2-0.2,0.2-0.3c0-0.1,0.1-0.1,0.1-0.1l0,0c0,0,0.1,0,0.1,0H38
	c0.1,0.1,0.2,0.1,0.3,0.1l0,0c-0.2-0.2-0.6-0.2-0.8,0l-0.5,0.5c-0.1,0.1-0.1,0.3-0.2,0.4c-0.1,0.2-0.1,0.3,0,0.5c0,0.1,0,0.2,0,0.4
	c0,0.1,0,0.2,0.1,0.4c0,0.2,0.1,0.3,0.1,0.5c0.1,0.1,0.1,0.1,0.2,0.2c0,0,0.1,0.1,0.1,0.1c-0.1,0-0.2,0-0.3,0H37c0,0-0.1,0-0.1,0
	c0-0.1,0-0.1,0-0.2c0,0-0.1-0.1-0.1-0.1c-0.1-0.1-0.1-0.2-0.1-0.3c0-0.1,0-0.2-0.1-0.3s-0.1-0.2-0.1-0.3c0-0.1-0.1-0.3-0.2-0.4
	c0-0.1,0-0.1,0-0.2c0-0.1,0.1-0.2,0.1-0.3c0-0.1,0-0.1,0.1-0.2c0,0,0-0.1,0-0.1c0-0.1,0-0.2,0-0.2c0-0.1-0.1-0.3-0.2-0.4
	c-0.1-0.2-0.1-0.3-0.2-0.5s-0.1-0.3-0.2-0.5c-0.1-0.1-0.2-0.3-0.2-0.4c0-0.2,0-0.4,0-0.6v-0.1l0,0c0,0,0,0.1-0.1,0.2l0,0l0,0l0,0
	l0,0v0.1c0,0.1,0,0.1,0,0.2c0,0.1,0,0.1,0,0.2c0,0.1,0,0.2,0,0.2c0,0.1,0,0.2,0,0.3c0,0,0,0.1,0,0.2c0,0,0,0.1,0,0.1
	c0,0.1,0,0.1,0.1,0.2s0,0.3,0,0.4c0,0.1,0,0.1,0,0.2c0,0.1,0,0.3,0,0.4l0,0c0,0,0,0.1,0,0.1l0,0c0,0,0,0.1,0,0.1l0,0
	c0,0.1,0,0.2,0,0.3c0,0.1,0,0.2,0,0.3c0,0,0,0,0,0l0,0c0,0,0,0.1,0,0.2c0,0,0,0,0,0.1l0,0.1l0,0l0,0l0,0v0.2c0,0.1,0,0.2,0,0.2l0,0
	c0,0,0,0.1,0,0.1l0,0c0,0,0,0,0,0.1l0,0c0-0.1,0-0.1,0-0.2c0,0,0-0.1,0-0.1l0,0c0,0,0,0.1,0,0.1l0,0l0,0l0,0l0,0c0,0,0,0.1,0,0.1
	l0,0l0,0l0,0l0,0c0,0,0-0.1,0-0.1l0,0l0,0h-0.4l0,0v-0.1h0c0-0.1,0-0.3,0-0.4c0-0.1,0-0.2,0-0.2c0-0.1,0-0.2,0-0.3
	c0-0.1,0-0.2,0-0.3c0,0,0-0.1,0-0.1c0-0.2,0.1-0.4,0.1-0.7c0-0.2,0-0.4,0-0.6c0,0,0-0.1,0-0.1c0-0.1,0-0.2,0-0.3c0,0,0-0.1,0-0.1
	v-0.5c0,0,0.1-0.5,0.1-0.5c0,0,0,0,0-0.1c0.1-0.2,0.2-0.3,0.4-0.3c0.1,0,0.1,0,0.2-0.1c0.3-0.1,0.7-0.1,1-0.1h0.1h0.4h0.1
	c0.3,0,0.6,0.1,1,0.1c0.3,0,0.6,0,1,0h0.2l0.6-0.1h0.2c0.2,0,0.4,0,0.5,0c0.1,0,0.2,0,0.3,0c0.1,0,0.3-0.1,0.4-0.1h0.1l0.2-0.1h0.1
	c0.1,0,0.2-0.1,0.3-0.1l0,0c-0.1,0-0.1,0-0.2,0c-0.1,0-0.1,0-0.2,0s0,0,0,0v0c0.1-0.1,0.3-0.1,0.4-0.1c0.1,0,0.1,0.1,0.2,0.1l0,0
	c0-0.1,0-0.2-0.1-0.2l0,0l0,0l0,0c0-0.2,0.1-0.3,0.2-0.4c0.1-0.1,0.2-0.2,0.1,0c-0.1,0.1-0.1,0.2-0.1,0.3c0,0.1,0.1,0.1,0.2,0.1l0,0
	c0,0,0-0.1,0-0.1c0-0.1,0-0.1,0.1-0.2c0.1-0.1,0.1-0.2,0.2-0.2l0.1-0.1l0,0c0,0,0,0,0,0.1c0,0.1-0.1,0.3-0.2,0.3l0,0l0,0
	c0,0,0,0.1,0,0.1s-0.1,0-0.1,0.1l0,0l0,0c0.1,0,0.1,0,0.2,0c0.1,0.1,0.3,0.2,0.3,0.3c0,0.1,0.1,0.2,0.2,0.2c0.1,0,0.1,0.1,0.2,0.1
	c0.1,0,0.1,0,0.2,0l0,0l0,0C44.5,36.4,44.5,36.5,44.5,36.5 M36.1,39L36.1,39c0,0,0,0.1,0,0.1c0,0,0.1,0.1,0.1,0.2
	c0,0.1,0.1,0.1,0.1,0.2v0.1c0,0.1,0,0.2-0.1,0.3l0,0c-0.1-0.1-0.1-0.2-0.1-0.4c0,0,0-0.1,0-0.1l0,0C36.1,39.3,36.1,39.1,36.1,39
	 M35.7,41L35.7,41L35.7,41z M35.7,41c-0.1-0.2-0.1-0.5,0-0.7c0-0.1,0.1-0.3,0.1-0.4c0-0.2,0-0.4,0-0.6c0-0.2,0-0.3,0-0.5
	c-0.1-0.2-0.1-0.3-0.1-0.5c-0.1-0.3-0.1-0.6,0.1-0.9l0,0l0,0c0,0.3,0,0.5,0.1,0.8c0,0.1,0.1,0.3,0.1,0.4c0,0.1,0.2,0.3,0.1,0.3
	c0,0.2,0,0.5,0,0.7c0,0,0,0.1-0.1,0.1c0,0-0.1,0.1-0.1,0.2l0,0c-0.1,0.2-0.1,0.4-0.1,0.6v0.1C35.8,40.7,35.8,40.8,35.7,41
	 M36.1,40.3C36,40.5,36,40.7,36,40.9c0,0.1,0.1,0.5-0.1,0.5v-0.1c0-0.1,0-0.2,0-0.2c0.1-0.1,0.1-0.3,0.1-0.5v0c0-0.2,0-0.4,0.1-0.6
	H36h0.1c0,0,0-0.1,0-0.1l0,0c0,0,0.1,0.1,0.1,0.2C36.2,40.1,36.1,40.2,36.1,40.3 M35.9,41.8L35.9,41.8L35.9,41.8L35.9,41.8
	L35.9,41.8L35.9,41.8 M35.6,41.8C35.6,41.8,35.6,41.7,35.6,41.8L35.6,41.8C35.7,41.8,35.7,41.8,35.6,41.8L35.6,41.8L35.6,41.8
	 M36,42.3h-0.2h0c-0.1,0-0.1-0.1-0.1-0.1c0,0,0-0.1,0-0.1v-0.1l0,0l0,0h-0.1h0.1h0.1l0,0l0,0l0,0h0h0.1v-0.1l0,0v0l0,0l0,0
	C36,42.1,36.2,42.3,36,42.3 M33.5,27.6l-1.3-0.6l-1.5,0.7c0-0.2,0-0.3,0-0.5c0-0.4,0-0.6,0-0.8l0,0l0,0c0.3,0.1,0.5,0.1,0.8,0.1
	c0.1-0.1,0.2-0.1,0.3-0.3H32c0.2-0.1,0.3-0.2,0.4-0.3l0,0v-0.2c0.2,0,0.2,0,0.2-0.1l0.2-0.1c0.1,0,0.2-0.1,0.2-0.2
	c0-0.1-0.1-0.3-0.2-0.4c0.1-0.1,0.2-0.2,0.3-0.3c0.1-0.1,0.1-0.2,0-0.3c-0.1-0.1-0.3-0.1-0.4,0l-0.2,0.1c0,0,0-0.1,0-0.1l0,0l0,0
	c0-0.2-0.1-0.4-0.3-0.6c-0.2-0.4-0.4-0.7-0.4-0.9s0-1.4,0-1.8c0-0.2,0-0.4,0-0.7s-0.1-0.7-0.1-1c0-0.4-0.1-0.9-0.4-1.2l0,0l0,0l0,0
	l0,0l0,0l0,0l0,0v0l0,0V18l0,0c0.1-0.1,0.1-0.2,0.1-0.4c0,0,0-0.1,0-0.1l0,0c0-0.2-0.1-0.5-0.2-0.7l-0.1-0.1l0,0
	c-0.1-0.1-0.2-0.2-0.3-0.3h0.1h0.2c0.1,0,0.2,0,0.3,0.1l0,0l0,0l0,0l0.3,0.3c0.1,0.1,0.1,0.2,0.2,0.2l0.1,0.1l0.1-0.1l0,0l0,0
	c0.1-0.1,0.1-0.3,0.1-0.5c0-0.1,0-0.2-0.1-0.3l0,0c-0.1-0.2-0.2-0.3-0.4-0.4l-0.1-0.1l-0.1-0.1c-0.1-0.1-0.2-0.1-0.2-0.2h0.2h0.2
	l0,0c0.1,0,0.2,0,0.3,0c0.2,0.1,0.4,0.2,0.6,0.3l0,0l0,0.1l0,0l0.1-0.1l0,0l0,0v-0.2c0-0.1,0-0.1,0-0.2c0-0.2-0.1-0.4-0.2-0.5l0,0
	c-0.2-0.2-0.4-0.3-0.6-0.3l0,0c-0.1,0-0.2-0.1-0.4-0.1h0.1l0,0l0.2-0.1c0.1-0.1,0.2-0.1,0.3-0.1h0.4h0.1l0,0h0.1l0,0h0.1l0.1,0.1
	v-0.1l0,0l0,0l0,0c0,0,0-0.1,0-0.1c0-0.2-0.1-0.4-0.2-0.5h-0.1h-0.1h-0.1l0,0h-0.2h-0.3c-0.1,0-0.3,0-0.4-0.1l0.1-0.2
	c0.1,0,0.1-0.1,0.2-0.1l0,0c0.1-0.1,0.2-0.1,0.3-0.2l0,0c0.2,0,0.4,0,0.6,0H33l0,0V13c0-0.3-0.2-0.5-0.5-0.7l0,0c-0.1,0-0.2,0-0.3,0
	h-0.2h-0.2l0,0c-0.1,0-0.3,0-0.4,0l0.1-0.1c0.1-0.1,0.1-0.1,0.2-0.2c0.1-0.1,0.1-0.1,0.2-0.2l0,0l0,0l0,0h0.7v-0.1
	c-0.1-0.3-0.3-0.5-0.6-0.5l0,0c-0.2,0-0.5,0.1-0.7,0.2l0,0c-0.1,0.1-0.2,0.1-0.4,0.1l0.1-0.1c0-0.1,0.1-0.1,0.1-0.2
	c0-0.1,0.1-0.2,0.2-0.3c0.1-0.1,0.3-0.2,0.5-0.3h0.1H32l0-0.1c0-0.1-0.1-0.1-0.1-0.2l0,0l0,0h-0.1l0,0h-0.1l0,0h-0.1h-0.3
	c-0.2,0.1-0.4,0.2-0.6,0.4l0,0c-0.1,0.1-0.2,0.2-0.3,0.2c0,0,0-0.1,0.1-0.1l0,0c0-0.1,0-0.2,0.1-0.2c0-0.1,0-0.2,0.1-0.3
	c0.1-0.2,0.3-0.3,0.5-0.4l0,0l0.1-0.1l-0.1-0.1c0,0-0.1-0.1-0.1-0.1l0,0l0,0c-0.2-0.1-0.4-0.1-0.6,0l0,0c-0.2,0.1-0.4,0.3-0.5,0.5
	l0,0c-0.1,0.1-0.2,0.2-0.3,0.3c0,0,0-0.1,0-0.1c0-0.1,0-0.2,0-0.2c0-0.1,0-0.1,0-0.2l0,0c0,0,0-0.1,0-0.1l0,0c0,0,0,0,0-0.1
	c0-0.1,0.1-0.1,0.1-0.2c0-0.2,0.1-0.4,0.2-0.6L30,8.7l-0.1-0.1l0,0h-0.6h-0.1h-0.1h-0.1l0,0l0,0c-0.1,0.1-0.2,0.3-0.3,0.5v0.1l0,0
	c0,0.1-0.1,0.2-0.2,0.4c0,0,0-0.1,0-0.1l0,0c0-0.1,0-0.2-0.1-0.2l0,0c0-0.1,0-0.2-0.1-0.2l0,0l0,0l0,0l0,0c0-0.2,0.1-0.4,0.3-0.6
	l0.1-0.1h-0.1h-0.6c-0.1,0-0.2,0-0.2,0.1l0,0l-0.1-0.1l0,0l0,0l0,0c-0.1,0.2-0.2,0.3-0.2,0.5c0,0,0,0.1,0,0.1l0,0
	c0,0.1-0.1,0.3-0.1,0.4c0,0,0-0.1,0-0.1l0,0c0-0.1-0.1-0.1-0.1-0.2l-0.1-0.2c0,0,0-0.1,0-0.1c0,0,0-0.1,0-0.1l0,0c0,0,0-0.1,0-0.1
	l0,0V8.5l0,0V8.3l0,0V8.2V8.1h-0.1H27h-0.1l0,0l-0.1,0.1v0l0,0h-0.1l0,0l-0.1,0.1l0,0l-0.1,0.1l0,0l-0.1,0.1l0,0v0.4
	c0,0,0,0.1,0,0.1l0,0c0,0,0,0,0,0.1c0,0.1,0,0.1,0,0.2l0,0v0.1c0,0,0,0.1,0,0.1s0,0.1,0,0.1v0.1l-0.2-0.1l0,0
	c-0.1-0.1-0.1-0.1-0.2-0.2l-0.1-0.1l0,0C26,9.2,26,9.1,25.9,9.1c-0.1-0.2-0.1-0.4-0.1-0.5c0,0,0-0.1,0-0.1V8.3l0,0
	c-0.3,0.1-0.5,0.3-0.6,0.6l0,0c0,0.2,0,0.3,0.1,0.5l0,0l0.1,0.2v0.1c0,0.1,0.1,0.2,0.1,0.4l-0.1-0.1l0,0l-0.2-0.1l0,0l-0.2-0.1
	l-0.1,0c0-0.1-0.1-0.1-0.1-0.2c0-0.1-0.1-0.2-0.1-0.3c0,0,0-0.1,0-0.1V8.8l0,0h-0.1h0h-0.1l0,0l0,0c-0.2,0.1-0.3,0.4-0.3,0.6l0,0
	c0,0.2,0.1,0.4,0.2,0.5l0.1,0.1l0,0c0.1,0.1,0.1,0.2,0.2,0.4l-0.1,0.1l0,0l-0.2-0.1l0,0h-0.1c-0.1,0-0.2-0.1-0.3-0.1
	c-0.1-0.1-0.2-0.3-0.3-0.5l0,0V9.7l-0.1,0.1l0,0l0,0l0,0l0,0v0.1l0,0v0.1l0,0c-0.1,0.1-0.1,0.2-0.1,0.3c0,0.1,0,0.1,0,0.2l0,0
	c0.1,0.2,0.3,0.4,0.4,0.5l0,0c0.1,0.1,0.2,0.2,0.2,0.3h-0.1l0,0h-0.2l0,0h-0.3l0,0c-0.3-0.1-0.5-0.2-0.7-0.4l-0.1-0.1l-0.1,0.1l0,0
	l0,0c0,0-0.1,0.1-0.1,0.1l0,0c0,0.1,0,0.2,0,0.3c0,0.1,0,0.2,0.1,0.3l0,0c0.1,0.2,0.3,0.3,0.6,0.4l0,0c0.1,0.1,0.2,0.1,0.3,0.2h-0.2
	h-0.2l0,0c-0.1,0-0.2,0-0.3,0l0,0c-0.2-0.1-0.4-0.2-0.6-0.3l0,0L22,11.8l-0.1,0.1l0,0v0.2c0,0,0,0,0,0.1v0.1c0,0,0,0.1,0,0.1l0,0
	c0,0,0,0.1,0,0.1l0,0c0,0.1,0.1,0.2,0.1,0.2l0,0c0.2,0.1,0.4,0.2,0.6,0.3l0,0c0.1,0,0.2,0.1,0.4,0.1h-0.1l0,0l-0.2,0.1l0,0l-0.1,0.1
	l0,0h-0.1c-0.1,0-0.3,0-0.4-0.1l0,0h0l0,0h-0.1l-0.1-0.1v0.1c0,0.3,0.1,0.6,0.3,0.8h0.1h0.1h0.1l0,0h0.1h0.4c0.1,0,0.3,0,0.4,0
	L23.1,14l0,0l-0.2,0.1c-0.1,0.1-0.2,0.1-0.3,0.2c-0.2,0-0.4,0-0.6,0h-0.1h-0.1l0,0v0.1l0,0l0,0c0,0,0,0.1,0,0.1
	c0.1,0.2,0.2,0.4,0.5,0.5h0.2h0.2l0,0l0.2-0.1H23c0.1,0,0.2,0,0.3,0l-0.1,0.1l0,0c-0.1,0.1-0.1,0.1-0.2,0.2
	c-0.1,0.1-0.1,0.2-0.2,0.3l0,0c-0.2,0.1-0.4,0.1-0.6,0.1h-0.1v0.1c0.1,0.3,0.4,0.5,0.6,0.5l0,0c0.2,0,0.5-0.1,0.7-0.2l0,0
	c0.1,0,0.3,0.1,0.4,0.2v0.1l0,0c0,0.1-0.1,0.2-0.1,0.2l-0.1,0.2c0,0,0,0.1-0.1,0.1l0,0c-0.2,0.1-0.4,0.2-0.5,0.2h-0.1v0.1l0,0l0,0
	c0,0.1,0.1,0.1,0.1,0.1h0.1l0,0h0.1l0,0h0.1l0,0h0.1h0.2c0.2-0.1,0.4-0.2,0.6-0.4l0,0l0.2-0.1V17c-0.2,0.1-0.3,0.3-0.4,0.4
	c-0.1,0.1-0.3,0.2-0.4,0.4v0.1c-0.3,0.4-0.4,0.8-0.4,1.2c0,0.3,0,0.7-0.1,1s0,0.5,0,0.7s0,1,0,1.5c0,0.1,0,0.3,0,0.3l-0.3,0.7
	c-0.2,0.1-0.4,0.4-0.4,0.6l0,0l0,0c0,0,0,0.1,0,0.1l-0.2-0.1c-0.1-0.1-0.3-0.1-0.4,0c-0.1,0.1-0.1,0.2,0,0.3
	c0.1,0.1,0.1,0.2,0.3,0.3C22,24.7,22,24.8,22,24.9c0,0.1,0.1,0.2,0.2,0.2l0.1,0.1c0,0,0,0.1,0.2,0.1v0.5l0,0
	c0.1,0.1,0.2,0.2,0.4,0.3H23c0.1,0.1,0.2,0.2,0.3,0.3c0.3,0,0.5,0,0.8-0.1l0,0c0,0.3,0,0.7-0.1,1.1l-1.2-0.5l-1.3,0.6V7.9
	c3.9-1.2,8.1-1.2,12,0L33.5,27.6L33.5,27.6z M33.5,30.1l-1.3-0.7l-1.4,0.7c0-0.2,0-0.4,0-0.6l1.4-0.7l1.3,0.7L33.5,30.1L33.5,30.1z
	 M30.8,28.3l1.5-0.7l1.3,0.6v0.5l-1.3-0.7l-1.4,0.7v-0.3C30.9,28.5,30.9,28.4,30.8,28.3 M33.5,45.1c-0.6-0.1-1.2-0.2-1.9-0.2
	c-0.3,0-0.6,0.1-0.9,0.1c-0.4,0.1-0.8,0.1-1.1,0.1c-0.3,0-0.7-0.1-1-0.1c-0.4-0.1-0.7-0.1-1.1-0.1c-0.4,0-0.7,0.1-1.1,0.1
	c-0.3,0.1-0.7,0.1-1,0.1c-0.4,0-0.8-0.1-1.1-0.1c-0.3-0.1-0.6-0.1-0.9-0.1c-0.6,0-1.3,0.1-1.9,0.2v-0.6c0.6-0.1,1.3-0.2,1.9-0.2
	c0.3,0,0.7,0.1,1,0.1c0.3,0.1,0.7,0.1,1,0.1c0.3,0,0.6-0.1,0.9-0.1c0.4-0.1,0.8-0.1,1.2-0.1c0.4,0,0.8,0.1,1.2,0.1
	c0.3,0.1,0.6,0.1,0.9,0.1c0.3,0,0.7-0.1,1-0.1c0.3-0.1,0.7-0.1,1-0.1c0.6,0,1.3,0.1,1.9,0.2L33.5,45.1L33.5,45.1z M33.5,45.8
	c-0.6-0.1-1.2-0.2-1.9-0.2c-0.3,0-0.6,0.1-1,0.1c-0.4,0.1-0.7,0.1-1.1,0.1c-0.3,0-0.7,0-1-0.1c-0.4-0.1-0.7-0.1-1.1-0.1
	c-0.4,0-0.7,0.1-1.1,0.1c-0.3,0.1-0.7,0.1-1,0.1c-0.4,0-0.7-0.1-1.1-0.1c-0.3-0.1-0.6-0.1-0.9-0.1c-0.6,0-1.3,0.1-1.9,0.2v-0.3
	c0.6-0.1,1.3-0.2,1.9-0.2c0.3,0,0.7,0.1,1,0.1c0.4,0.1,0.7,0.1,1.1,0.1c0.3,0,0.6-0.1,0.9-0.1c0.4-0.1,0.8-0.1,1.1-0.1
	c0.4,0,0.8,0.1,1.1,0.1c0.3,0.1,0.6,0.1,0.9,0.1c0.4,0,0.7-0.1,1.1-0.1c0.3-0.1,0.7-0.1,1-0.1c0.6,0,1.3,0.1,1.9,0.2L33.5,45.8
	L33.5,45.8z M33.5,46.6c-0.6-0.1-1.2-0.2-1.9-0.2c-0.3,0-0.6,0.1-0.9,0.1c-0.4,0.1-0.8,0.1-1.1,0.1c-0.3,0-0.7-0.1-1-0.1
	c-0.4-0.1-0.7-0.1-1.1-0.1c-0.4,0-0.7,0.1-1.1,0.1c-0.3,0.1-0.7,0.1-1,0.1c-0.4,0-0.8-0.1-1.1-0.1c-0.3-0.1-0.6-0.1-0.9-0.1
	c-0.6,0-1.3,0.1-1.9,0.2v-0.6c0.6-0.1,1.3-0.2,1.9-0.2c0.3,0,0.7,0.1,1,0.1c0.3,0.1,0.7,0.1,1,0.1c0.3,0,0.6-0.1,0.9-0.1
	c0.4-0.1,0.8-0.1,1.2-0.1c0.4,0,0.8,0.1,1.2,0.1c0.3,0.1,0.6,0.1,0.9,0.1c0.3,0,0.7-0.1,1-0.1c0.3-0.1,0.7-0.1,1-0.1
	c0.6,0,1.3,0.1,1.9,0.2L33.5,46.6L33.5,46.6z M32.4,47.1c-0.3,0-0.7-0.1-1-0.1c-0.3,0-0.6,0.1-0.9,0.1c-0.4,0.1-0.7,0.1-1.1,0.1
	c-0.3,0-0.7,0-1-0.1c-0.4-0.1-0.7-0.1-1.1-0.1c-0.4,0-0.7,0.1-1.1,0.1c-0.3,0.1-0.7,0.1-1,0.1c-0.4,0-0.7-0.1-1.1-0.1
	c-0.3-0.1-0.6-0.1-1-0.1c-0.3,0-0.6,0-0.8,0l-0.5-0.1c0.5-0.1,1-0.1,1.5-0.1c0.3,0,0.7,0.1,1,0.1c0.4,0.1,0.7,0.1,1.1,0.1
	c0.3,0,0.6,0,0.9-0.1c0.4-0.1,0.7-0.1,1.1-0.1c0.4,0,0.8,0.1,1.1,0.1C28.7,47,29,47,29.3,47c0.4,0,0.7-0.1,1.1-0.1
	c0.3-0.1,0.7-0.1,1-0.1c0.5,0,1.1,0,1.6,0.1L32.4,47.1 M27.5,47.8c-0.8,0-1.6,0-2.3-0.1h0.3c0.3,0,0.6-0.1,0.9-0.1
	c0.4-0.1,0.8-0.1,1.2-0.1c0.4,0,0.8,0.1,1.2,0.1c0.3,0.1,0.6,0.1,0.9,0.1h0.2C29,47.7,28.3,47.8,27.5,47.8 M21.1,46.8l-0.5-0.2V34.2
	h-0.2v-0.1H8.3c0.7,2.1,1.8,4,3.2,5.8c-1.5-1.9-2.6-4-3.3-6.2h12.5V21.2H8.1l0.2-0.5h12.4V8.2l0.5-0.2L21.1,46.8L21.1,46.8z
	 M20.2,46.4c-1.6-0.6-3.2-1.5-4.6-2.5C17,44.9,18.6,45.8,20.2,46.4L20.2,46.4L20.2,46.4z M15.3,39.1L15.3,39.1H15h-0.3
	c-0.1,0-0.2,0-0.3,0h-0.1h-0.1l0,0c-0.1,0-0.2,0-0.2-0.1c0,0,0,0,0,0l0,0h0.1h0.1h0.1c0,0,0,0,0.1,0c0,0,0.1,0.1,0.1,0.1l0,0l0,0
	c0,0,0,0-0.1,0l0,0l-0.2,0l-0.4,0h-0.1l0,0l0,0h-0.1h-0.1l-0.2,0h-0.1h-0.2h-0.1h-0.2c0,0-0.1,0-0.1,0c-0.1,0-0.2-0.1-0.3-0.1
	l-0.4-0.1l-0.2-0.1c-0.1,0-0.3-0.1-0.4-0.2l0,0c0.1,0,0.3,0,0.4,0h0.6c0,0,0,0,0,0c0,0,0,0,0-0.1h-0.1H12h-0.2h-0.1h-0.2l0,0h-0.1
	h-0.1c0,0-0.3,0-0.3-0.1v0h0.1l0.6,0.1h0.2H12c0.1,0,0.1,0,0,0c0,0-0.1,0-0.1,0h-0.3h-0.1c-0.1,0-0.1,0-0.2,0c-0.1,0-0.1,0-0.2,0
	c-0.2-0.1-0.2-0.3-0.2-0.5c0,0,0,0-0.1-0.1l0,0c0,0,0.1-0.1,0.1-0.1c0.1,0,0.1-0.1,0.1-0.1h0.1l0.2-0.1c0.1,0,0.1-0.1,0.2-0.1
	s0.4-0.2,0.6-0.3l0.4-0.1c0.1,0,0.2-0.1,0.4-0.1h0.1h0.1l0.2,0c0.3,0,0.5-0.1,0.7-0.3c0.1-0.1,0.2-0.1,0.2-0.1l0.2-0.1
	c0,0,0.1,0,0.1,0l0,0c-0.1,0-0.1,0.1-0.2,0.2c0,0,0,0,0,0.1l0,0l0,0c0,0,0,0-0.1,0.1l0,0l0,0c0,0,0.1,0,0.1,0c0.1,0,0.2,0,0.3,0h0.5
	c0.3,0,0.6,0,0.9,0l0.3-0.1c0.1-0.1,0.2-0.1,0.2-0.2c0.2-0.1,0.4-0.1,0.6-0.2c0.1,0,0.3,0,0.2,0.1c0,0.1-0.1,0.1-0.2,0.1l0,0h0l0,0
	c0,0-0.1,0.1-0.1,0.1l0,0h-0.1l0,0c0,0-0.1,0.1-0.1,0.1c-0.1,0-0.2,0-0.3,0c0,0-0.1,0-0.1,0l0,0l0.5,0.2h0.1c0,0,0.1,0,0.1,0
	c0.1,0,0.1,0,0.2,0c0,0,0.1,0.1,0.1,0.1l0,0h0.1c0,0,0.1,0,0.1,0c0,0,0.1,0.1,0.1,0.1s0.1,0,0.2,0c0,0,0.1,0.1,0.1,0.1
	c0.1,0,0.2,0,0.2,0c0,0,0,0,0.1,0.1c0.1,0.1,0.2,0.1,0.3,0.1l0,0c0,0,0,0,0,0.1c0-0.1,0-0.1,0.1-0.2c0-0.1,0-0.1,0.1-0.2
	c0.1-0.3,0.3-0.5,0.6-0.6c0.1,0,0.2,0,0.2,0c0.1,0,0,0.1-0.1,0.1c-0.3,0.2-0.5,0.6-0.5,1c0,0.1,0,0.2,0.1,0.2l0,0c0,0,0,0.1-0.1,0.1
	c0,0.1,0,0.2,0,0.3c0,0,0,0.1,0,0.1c0,0.2,0.1,0.3,0.1,0.5c0,0.1,0.1,0.1,0.1,0.2c0,0,0,0,0.1,0.1l0,0c-0.4-0.1-0.6-0.3-0.7-0.7
	c0-0.1,0-0.3,0-0.4c0-0.1,0-0.1-0.1-0.1c-0.1,0-0.1,0-0.1,0.1l0,0c-0.1,0.1-0.2,0.1-0.2,0.1c0,0-0.1,0.1-0.1,0.1
	c-0.1,0-0.2,0.1-0.2,0.1c0,0-0.1,0-0.1,0c-0.1,0.1-0.1,0.1-0.2,0.1c-0.1,0-0.2,0.1-0.3,0.2c-0.1,0-0.2,0-0.3,0
	c-0.1,0-0.2,0.1-0.3,0.1c-0.1,0-0.2,0-0.2,0l0,0l0,0h0.1h0.1c0.1,0,0.1,0,0.2,0c0.1,0.1,0.2,0.1,0.2,0.2l0,0l0,0c0,0,0,0.1,0.1,0.1
	l0,0l0,0c-0.2,0-0.4-0.1-0.6-0.1c-0.3-0.1-0.6-0.1-0.9-0.1h-0.4L15.3,39.1z M7.2,27.4c0-2,0.3-3.9,0.8-5.8h12.2v11.8H8
	C7.4,31.4,7.1,29.4,7.2,27.4 M13.2,13c2-2,4.4-3.6,7.1-4.6v12H8.4C9.4,17.6,11,15.1,13.2,13 M23.9,28.7l-1.1-0.6l-1.3,0.6v-0.5
	l1.3-0.6l1.2,0.5C24,28.4,24,28.5,23.9,28.7 M24.6,41.6l0.4-0.2l0.1-0.1c0.1-0.1,0.2-0.1,0.2-0.2c0.4,0,1.1,0.1,1.3,0.1h0.1
	c0.1,0.2,0,0.4-0.1,0.6c-0.3,0.1-0.5,0.1-0.8,0.2l0,0c-0.2,0.1-0.4,0.1-0.6,0.2L25,42.4c-0.2,0.1-0.3,0.2-0.5,0.2h-0.2
	c-0.2,0.1-0.5,0.1-0.7,0.2c-0.1,0-0.1,0-0.2-0.1l0,0l0,0c0,0,0,0,0-0.1l0,0l0.1-0.1l0.3-0.1c0,0,0-0.1,0-0.1c0,0-0.1,0-0.1,0
	l-0.3,0.1l0,0l0,0l0,0l0.2-0.1v-0.1l0,0l0.1-0.1v-0.2l0,0L24.6,41.6 M24.2,37.1c0.1,0.4,0.4,0.6,0.8,0.5c0,0,0.1,0,0.1,0
	c0.6-0.2,1.9-3,2-3.3s0-0.2-0.1,0c-1,1.6-1.7,2.9-2.3,2.6c-0.3-0.2-0.5-0.6-0.4-1c0-0.1,0-0.5,0-0.6c0-0.8,0-0.6,0-1.2
	c0-0.2,0-0.4,0-0.6V33c0-0.2,0-0.6,0-0.8v-0.4l0,0c0.1,0.1,0.2,0.1,0.3,0.1c0.2,0,0.5-0.1,0.6-0.2c1-1.3,1.8-2.7,2.3-4.2H28
	c-0.2,0.7-0.7,1.8-0.9,2.2c-0.4,1-0.9,1.9-1.5,2.8c-0.2,0.2-0.3,0.4-0.6,0.5C25,33,24.8,33,24.7,33c-0.1-0.1-0.2-0.1-0.1,0.2
	c0,0.1,0.1,0.2,0.2,0.3c0.1,0.1,0.2,0.1,0.4,0.1c0.2,0,0.5-0.1,0.6-0.2c0.7-1.1,1.3-2.3,1.7-3.6c0.3-0.7,0.7-1.9,0.9-2.5l0.4-0.1
	c-0.4,1.4-0.9,2.8-1.4,4.1c-0.4,1-0.9,1.9-1.5,2.8c-0.2,0.2-0.3,0.4-0.6,0.5c-0.1,0-0.3,0-0.4,0c0,0-0.3-0.3-0.2,0.2
	c0.1,0.1,0.1,0.2,0.2,0.3c0.1,0.1,0.2,0.1,0.3,0.1c0.2,0,0.5-0.1,0.6-0.2c0.7-1.1,1.3-2.2,1.7-3.4c0.6-1.5,1.1-2.9,1.5-4.5l0.6-0.2
	c-0.5,2.6-1.2,5.2-2.1,7.7c-0.7,2.1-1.9,4.1-3.4,5.7c0,0,0-0.5,0-0.6C24.2,39.4,24.2,38.5,24.2,37.1 M24.2,27.5c0-0.4,0-0.7,0.1-1
	c0.3,0.2,0.7,0.4,1.1,0.5l-0.1,0.1c-0.2,0.2-0.4,0.3-0.6,0.4C24.5,27.6,24.3,27.6,24.2,27.5 M25.8,28c-0.3,0.6-0.9,1.3-1.3,1.2
	c-0.3-0.2-0.4-0.5-0.4-0.8c0-0.2,0-0.4,0-0.6l0,0c0.1,0.1,0.2,0.1,0.3,0.1c0.2,0,0.4-0.1,0.6-0.2c0.2-0.2,0.4-0.4,0.6-0.6
	c0.5,0.1,1,0.2,1.5,0.2c-0.5,1.2-1.1,2.4-1.8,3.4c-0.2,0.2-0.4,0.4-0.6,0.5c-0.2,0-0.3,0-0.5-0.1l0,0c0-0.4,0-0.8,0-1.1
	c0-0.2,0-0.4,0-0.5c0,0.2,0.3,0.4,0.5,0.3c0,0,0,0,0.1,0c0.4-0.1,1-1.1,1.4-2C26.4,27.3,26.1,27.7,25.8,28 M28.7,41
	C27.8,41,27,41,26.1,41c-0.5,0-1.1-0.1-1.6-0.2c1.2-1,2.6-3.9,3.3-5.7c1-2.7,1.7-5.4,2.1-8.3l0.5-0.2c0,0.1,0,0.4,0,0.6
	c-0.4,2.5-0.9,4.9-1.6,7.3c-0.6,2.2-1.5,4.3-2.6,6.3c0.2,0,0.4,0,0.6,0c0.9-1.9,1.7-3.9,2.3-6c0.5-1.8,0.7-2.7,1.4-6.2
	c0,0.2,0,0.4,0,0.6c0.1,1,0.1,2.1,0,3.1c0,0.3-0.1,1.6-0.1,2.8c0.1,2.5,0,4,0.2,5.2c0,0.2-0.1,0.4-0.2,0.6c-0.6,0.2-1.2,0.3-1.8,0.4
	 M30.1,42.7L30.1,42.7l0.2,0.1l0,0.1l0,0L30.1,42.7L30.1,42.7c-0.1,0-0.1,0-0.2,0c0,0,0,0,0,0.1c0,0,0,0,0,0l0.1,0.1
	c0,0,0.1,0.1,0.1,0.1l0,0c0,0,0,0.1,0,0.1c-0.1,0-0.1,0-0.2,0c-0.1-0.1-0.1-0.2-0.2-0.3c0,0-0.1,0-0.1,0c0,0,0,0.1,0,0.1
	c0,0,0,0,0,0c0.1,0.1,0.1,0.2,0.2,0.3c0,0-0.1,0-0.1,0c-0.1,0-0.2-0.1-0.2-0.2c0-0.1,0-0.1,0-0.2v-0.1c0,0-0.1,0-0.1,0
	c0,0,0,0.1,0,0.1v0.1c0,0,0,0.1,0,0.1v0.1c0,0.1-0.1,0.1-0.2,0.1c-0.1,0-0.2,0-0.3-0.1c-0.1-0.1-0.1-0.2-0.2-0.3l0-0.2v-0.1
	c0,0,0-0.1,0-0.1v-0.1v-0.3c0-0.1,0-0.1,0-0.2c0-0.1-0.1-0.2-0.1-0.3v-0.2c0,0,0-0.1,0-0.1c0.3,0,0.6-0.1,0.8-0.1c0.1,0,0.2,0,0.3,0
	l0,0c0,0,0,0,0,0.1l0,0c0,0,0,0.1,0,0.1c0,0.1,0,0.1,0,0.2c0.1,0.1,0.4,0.5,0.5,0.6l0.2,0.2l0.1,0.1l0.1,0.1c0,0.1,0.1,0.1,0.1,0.2
	l0,0l0,0l0,0l-0.1-0.1c0,0-0.1,0-0.1,0c0,0,0,0,0,0.1 M27.5,26.5c1.2,0,2.3-0.2,3.4-0.5l0,0l-0.4,0.2c-0.9,0.5-1.9,0.8-3,0.9
	c-1.1,0-2.1-0.3-3-0.9L24.2,26l0-0.1C25.3,26.3,26.4,26.5,27.5,26.5 M31.3,24.1L31.2,24l-0.1,0.1l-0.1,0.1l-0.3-0.1V24l0,0.1V24
	v-0.1c0.1,0,0.2,0.1,0.4,0.2L31.3,24.1z M29.3,23.5h-0.2v0.1v0.1l-0.7,0v-0.1h0.2v-0.2l0.5,0.1v0.1L29.3,23.5z M29.8,23.9v-0.1v-0.1
	l0.4,0.1v0.1l-0.1,0v0.1V24L29.8,23.9L29.8,23.9L29.8,23.9z M29.8,23.7h-0.2v0.1v0.1l-0.6-0.1v-0.1h0.2v-0.1v0l0.5,0.1V23.7z
	 M28,23.5v-0.1h0.6v0.1h-0.2v0.3h-0.5v-0.1H28L28,23.5L28,23.5z M27.2,23.5v-0.1h0.6v0.1h-0.2v0.2h-0.6v-0.1h0.2L27.2,23.5
	L27.2,23.5z M26.5,23.5L26.5,23.5l0.6-0.1v0.1h-0.3v0.2h-0.6v-0.1h0.2L26.5,23.5L26.5,23.5z M25.8,23.6v-0.1l0.5,0v0.1h-0.3v0.3
	h-0.5v-0.1h0.2L25.8,23.6z M25.2,23.7v-0.1l0.5-0.1v0.1h-0.2v0.1v0.1l-0.4,0.1v-0.1h0.2L25.2,23.7z M24.4,24v0.1l-0.3,0.1l-0.1-0.1
	l0.1-0.1l-0.1-0.1l-0.1-0.1l0.2-0.1l0.2-0.1v0.1h-0.2L24.4,24z M23.4,24.4l-0.1-0.1c0.1-0.1,0.2-0.2,0.3-0.2l0.1,0.1l-0.1,0.1
	l0.1,0.1l0.1,0.1c-0.1,0.1-0.2,0.1-0.2,0.2l-0.1-0.1l0.1-0.1L23.4,24.4z M25.6,25.1L25.6,25.1C25.6,25.1,25.6,25.1,25.6,25.1
	c0.1,0,0.1,0,0.2-0.1l0,0l0,0c0,0,0,0,0,0l0,0c0,0,0.1,0,0.1,0c0,0,0,0,0,0l0,0c0,0,0,0,0.1,0l0,0c-0.1,0-0.1,0-0.2,0.1v0.1h0l0,0
	l0,0l-0.5-0.1c0,0,0,0,0,0c0,0,0,0,0.1,0l0,0l0,0h0.1C25.5,25.2,25.5,25.2,25.6,25.1L25.6,25.1L25.6,25.1 M26.7,25.1L26.7,25.1
	c-0.1,0-0.1,0.1-0.1,0.1c0,0.1,0,0.2,0,0.2h-0.4l0,0c0,0,0-0.1,0-0.1c0.1,0,0.1,0,0.2,0l0,0l0,0l0,0c0-0.1,0-0.2,0-0.2v-0.1h0.1
	C26.5,25.1,26.6,25.1,26.7,25.1L26.7,25.1C26.7,25.1,26.7,25.1,26.7,25.1L26.7,25.1 M27,25.4L27,25.4L27,25.4L27,25.4
	c0,0,0.1,0,0.1,0l0,0h0.1l0,0l0,0l0,0c0,0,0,0.1,0.1,0.1l0,0c0,0.1,0.1,0.1,0.1,0.1h-0.6c0,0,0,0,0-0.1l0,0l0,0c0,0,0.1,0,0.1-0.1
	c0,0,0,0,0,0l0,0 M27.6,25.3L27.6,25.3L27.6,25.3l0.1-0.1l0,0l0,0l0,0h0.1l0,0l0,0c0,0,0,0.1,0.1,0.1l0,0c0,0.1,0.1,0.1,0.1,0.1
	c0,0,0.1,0,0.1,0l0,0L27.6,25.3L27.6,25.3c0,0,0-0.1,0-0.1 M29.9,25.2L29.9,25.2C30,25.1,30,25,30,24.9l0,0l0,0l0,0c0,0-0.1,0-0.1,0
	l0,0c0,0,0,0,0-0.1l0,0c0,0,0-0.1,0-0.1l0,0H30v-0.1c0-0.1-0.1-0.1-0.2-0.1h-0.1l0,0c0,0,0,0,0,0.1l0,0l0,0l0,0l-0.1-0.1
	c-0.1-0.1-0.1-0.1-0.2-0.1h-0.2l0,0c0,0,0,0.1,0,0.1c0,0-0.1,0-0.1,0c0,0,0,0-0.1,0l0,0l0,0l0,0l0,0c0,0-0.1,0-0.1,0.1l0,0l0,0l0,0
	v0.1c0,0.1,0,0.2,0,0.2l0,0l0,0l0,0c0.1,0,0.1,0,0.2,0l0.1-0.1l0,0l0,0c0,0,0,0,0.1,0c0,0,0,0,0.1,0l0,0h0l0,0c0,0,0.1,0,0.1,0
	c0,0,0,0,0,0l0,0l0,0h0.1l0.1,0l0,0l0,0l0,0l0,0l0,0l0,0l0,0c0,0,0,0,0,0.1l0,0l0,0l-0.4,0l0,0l0,0l0,0h0v-0.1
	c-0.1-0.1-0.1-0.1-0.2-0.1H29l0,0c0,0.1-0.1,0.1,0,0.2c0,0,0,0,0,0.1h-0.2l0,0c0,0,0-0.1,0-0.1c0,0,0,0,0-0.1c0,0,0-0.1,0-0.1l0,0
	c0,0,0,0-0.1,0l0,0l0,0l0,0v0c0,0,0-0.1,0-0.1c0-0.1,0-0.1,0-0.2l0,0l0,0l0,0c0,0-0.1,0-0.1,0v0l0,0c0,0,0-0.1,0-0.1l0,0
	c0,0,0,0,0,0l0,0l0,0c0,0-0.1,0-0.1,0l0,0c0,0,0,0-0.1,0c0,0,0,0-0.1,0l0,0l0,0c0,0,0,0,0,0l0,0c0,0,0,0.1,0,0.1c0,0,0,0,0,0l0,0
	l0,0l0,0l0,0c0,0-0.1,0-0.1,0.1l0,0l0,0l0,0l0,0c-0.1-0.1-0.3-0.2-0.4-0.1s-0.2,0.3-0.1,0.4l0,0l0,0c0,0,0.1-0.1,0.1-0.1l0,0
	c0,0,0.1,0,0.1-0.1l0,0l0,0l0,0l0,0c0,0,0-0.1,0-0.1l0,0c0,0-0.1,0-0.1,0c0,0,0,0-0.1,0l0,0l0,0l0,0l0,0c0,0-0.1,0-0.1,0.1l0,0l0,0
	l0,0v0.1c0,0,0,0.1,0,0.1h-0.4l0-0.1c-0.1,0-0.1-0.1-0.2-0.1l0,0c0,0,0-0.1,0-0.1l0,0l0,0l0,0l0,0c0,0-0.1,0-0.1,0l0,0
	c0,0-0.1,0,0,0.1c0,0,0,0-0.1,0l0,0l0,0c0,0,0,0,0,0.1l0,0l0,0l0,0h-0.3c0-0.1,0-0.1,0-0.2l0,0l0,0l0,0c-0.1,0-0.1,0-0.2,0
	c-0.1,0-0.1,0.1-0.1,0.1l0,0c0,0-0.1,0-0.1,0l0,0l0,0H26c0,0,0-0.1,0-0.1l0,0c0,0-0.1,0-0.1,0c0,0,0,0-0.1,0h-0.1l0,0l0,0
	c0,0-0.1,0-0.1,0.1l0,0l0,0l0,0v0.1c0,0,0,0.1,0,0.1l0,0l0,0l0,0l0,0c0,0-0.1,0-0.1,0h-0.2l0,0l0,0c0,0,0,0,0,0c0,0,0,0-0.1,0
	c0,0,0-0.1-0.1-0.1l0,0H25c-0.1,0-0.1,0-0.2,0c0,0,0,0.1,0,0.1h-0.1l0,0l0,0l-0.1-0.1l0,0h-0.1c-0.1,0-0.1,0.1-0.1,0.2
	c0,0,0,0,0,0.1c-0.3-0.1-0.6-0.1-0.8-0.2c0.1-0.5,1.7-1,3.9-1s3.8,0.5,3.9,1c-0.4,0.1-0.8,0.2-1.2,0.3h0.1l0,0L29.9,25.2z
	 M31.5,24.5c0,0.1,0,0.2-0.1,0.2l-0.2,0.1c0-0.1-0.1-0.1-0.1-0.2l0.1-0.1l0.1,0.1L31.5,24.5L31.5,24.5L31.5,24.5 M32.2,25.8
	C32.1,25.9,32.1,26,32,26h-0.1l-0.4-0.1l0.1-0.1l0.3-0.1h0.3L32.2,25.8 M32.2,24.8c0-0.1,0.1-0.2,0.1-0.2c0.1,0,0.2-0.1,0.4-0.1h0.1
	c0,0,0,0.1,0,0.1c-0.1,0.1-0.2,0.2-0.4,0.2h0H32.2 M32.3,25.3c0.1,0,0.1-0.1,0.1-0.2V25h0.1c0,0.1,0.1,0.2,0.1,0.3l-0.1,0.1
	l-0.1,0.1c-0.2,0-0.4,0-0.5,0h-0.1l0.1-0.1C32,25.3,32.1,25.3,32.3,25.3 M30.2,20.7c0,0.4,0,0.9-0.1,1.3c0,0.2-0.1,0.4-0.1,0.7v0.2
	l-0.5-0.1C29.7,22.1,30,21.4,30.2,20.7 M29.6,20.6c0,0.1,0,0.1,0,0.2c0.1-0.2,0.2-0.4,0.2-0.7c0-0.1,0-0.3,0-0.5
	c0.1,0,0.1,0,0.2,0.1c-0.3,1-0.6,2-1,3h-0.4c0.3-0.7,0.6-1.4,0.9-2 M29.3,20.3L29.3,20.3c-0.3,0.7-0.6,1.6-1,2.4h-0.7
	C28.2,21.9,28.7,21.1,29.3,20.3 M29,20.1L29,20.1c-0.5,0.9-1.1,1.8-1.7,2.6l0,0c-0.4,0-0.8,0-1.2,0C27.1,21.9,28.1,21,29,20.1
	 M28.8,19.5c0,0.1,0.1,0.3,0.2,0.4c-1,1.1-2.2,2-3.4,2.9c-0.3,0-0.6,0.1-0.9,0.1v-0.2c0-0.2,0-0.4,0-0.5
	C26.2,21.4,27.5,20.5,28.8,19.5 M26,15.1c0,0,0.1,0.3,0.1,0.3c0,0.1,0.1,0.2,0.2,0.3c-0.1,0-0.1,0.1-0.2,0.1c-0.2,0-0.3-0.1-0.3-0.3
	c0,0,0,0,0,0C25.8,15.3,25.9,15.1,26,15.1 M29,12.6c-0.1-0.1-0.3-0.2-0.4-0.3l0,0l0,0l0,0l0,0h-0.3l0,0h-0.1l0,0h-0.1h-0.1H28l0,0
	l0,0h-0.2l0,0h-0.1h-0.1h-0.1c0,0-0.1,0-0.1,0h-0.1h-0.1h-0.1H27l0,0h-0.1h0l0,0h-0.1h-0.1h-0.1l0,0h-0.1l0,0h-0.1l0,0l0,0l0,0l0,0
	c-0.1,0.1-0.3,0.2-0.4,0.3c0-0.1,0-0.1,0-0.2c0.1-0.2,0.2-0.4,0.4-0.5c0,0,0.1-0.1,0.1-0.1c0,0,0.1,0,0.1,0c0-0.1,0.1-0.1,0.2-0.1
	c0,0,0,0,0,0c0-0.1,0.1-0.1,0.2-0.1c0.1,0,0.1,0,0.2,0.1c0.1-0.1,0.3-0.1,0.5,0c0-0.1,0.1-0.1,0.2-0.1c0.1,0,0.1,0,0.2,0.1
	c0.1,0,0.1,0,0.2,0c0.1,0,0.1,0.1,0.2,0.1c0,0,0.1,0,0.1,0c0,0,0.1,0.1,0.1,0.1c0.2,0.1,0.3,0.3,0.4,0.5c0,0.1,0,0.1,0,0.2
	 M28.6,15.7c-0.1,0-0.1,0-0.2-0.1c0.1-0.1,0.1-0.2,0.2-0.3l0.1-0.3c0.1,0.1,0.2,0.2,0.2,0.3C28.9,15.6,28.8,15.7,28.6,15.7
	C28.6,15.7,28.6,15.7,28.6,15.7 M28.9,17.2L28.9,17.2L28.9,17.2h-0.1l0.1-0.1h0.1V17.2L28.9,17.2z M28.8,17.4l0.2-0.1H29l0,0l0,0
	c0,0,0,0.1,0,0.1c-0.1,0.3-0.2,0.6-0.3,0.9l-0.5,0.3C28.5,18.2,28.7,17.7,28.8,17.4 M26.3,17.5l0.3,0.1c0.1,0,0.1,0.1,0.2,0.1H27
	h0.1c0,0.2,0.2,0.3,0.4,0.3c0.1,0,0.2-0.1,0.3-0.3h0.1h0.1c0.1,0,0.1,0,0.2-0.1l0.3-0.1c-0.2,0.4-0.4,0.9-0.6,1.3l-0.8,0.4
	C26.8,18.7,26.5,18.1,26.3,17.5 M26.2,18.7c0-0.2,0-0.5,0-0.7c0.2,0.5,0.4,0.9,0.6,1.4L26,19.8c0,0,0-0.1,0-0.1
	C26.1,19.4,26.2,19,26.2,18.7 M26.4,16.5c0,0.1-0.1,0.2-0.2,0.2c-0.1,0-0.2-0.1-0.2-0.2c0-0.1,0.1-0.2,0.2-0.2S26.4,16.4,26.4,16.5
	L26.4,16.5 M28.6,16.7c-0.1,0-0.2-0.1-0.2-0.2c0-0.1,0.1-0.2,0.2-0.2c0.1,0,0.2,0.1,0.2,0.2C28.8,16.6,28.7,16.7,28.6,16.7
	L28.6,16.7 M26.5,17.4l-0.3-0.1l-0.1-0.2l0,0c0.1,0.1,0.2,0.2,0.3,0.2h0C26.5,17.3,26.5,17.3,26.5,17.4
	C26.5,17.4,26.5,17.4,26.5,17.4 M28,17h-0.1c-0.1,0-0.3,0.1-0.3,0.2c-0.1-0.1-0.3-0.1-0.4,0C27.1,17.1,27,17,26.8,17h-0.1
	c0,0,0,0,0-0.1c0-0.2-0.1-0.3-0.3-0.3c0,0,0-0.1,0-0.1c0-0.1-0.1-0.2-0.1-0.3l0.2-0.4c0.1,0.1,0.3,0.2,0.5,0.3
	c0.3,0.1,0.6,0.1,0.9,0c0.2-0.1,0.4-0.2,0.5-0.4l0.1,0.4c-0.1,0.1-0.2,0.2-0.1,0.3c0,0,0,0.1,0,0.1C28.1,16.6,28,16.8,28,17
	C28,16.9,28,17,28,17 M28.2,17.2L28.2,17.2c0.2,0,0.3-0.1,0.4-0.2l-0.1,0.2l-0.3,0.1C28.2,17.4,28.2,17.3,28.2,17.2
	C28.2,17.3,28.2,17.3,28.2,17.2 M28.6,12.6c0.1,0,0.1,0.1,0.1,0.1c0.1,0.2,0.1,0.3,0.1,0.5h-0.1l0,0C28.8,13,28.7,12.8,28.6,12.6
	 M26.9,12.4h0.2c-0.1,0.2-0.2,0.5-0.2,0.7h-0.2C26.8,12.9,26.8,12.7,26.9,12.4 M26.5,13.1L26.5,13.1h-0.1c0.1-0.2,0.1-0.4,0.2-0.6
	h0.2C26.7,12.7,26.6,12.9,26.5,13.1 M26,13.2c0-0.1,0.1-0.3,0.1-0.4c0,0,0.1,0,0.1,0C26.2,12.9,26.1,13.1,26,13.2
	c0.1,0.1,0,0.1,0,0.1L26,13.2L26,13.2z M26,13.9c0-0.1,0-0.2,0-0.4c0-0.1,0-0.2,0.1-0.2c0.1-0.1,0.2-0.1,0.3-0.1
	c0.1,0,0.2,0,0.3,0.1c0.1,0,0.1,0.1,0.1,0.2c-0.1,0-0.2,0-0.3,0l-0.2,0.1c0,0,0,0,0,0.1c0,0,0.1,0,0.1,0h0.2l0,0
	c0,0.1,0,0.1,0.1,0.2c0.1,0,0.1,0,0.2-0.1c0,0,0,0,0-0.1l0,0h0.1c0,0,0,0,0.1,0.1l0,0c0,0,0,0.1,0,0c0.1-0.1,0.1-0.1,0.1-0.2
	c0,0,0-0.1,0-0.1c0,0-0.1,0-0.1,0c0,0,0,0,0-0.1c0,0,0.1,0,0.1,0c0,0,0.1-0.1,0.1-0.1c0,0-0.1-0.1-0.1-0.1c0,0-0.1,0-0.1,0l0,0
	c0.2,0,0.3,0,0.5,0h0.1c0-0.2,0-0.5,0-0.7l0,0h0.1c0.1,0.2,0.1,0.5,0.1,0.8h0.2c0,0-0.1,0-0.1,0c0,0-0.1,0-0.1,0.1
	c0,0.1,0,0.1,0.1,0.1c0,0,0.1,0,0.1,0c0,0,0,0,0,0.1c0,0-0.1,0-0.1,0c0,0,0,0,0,0.1c0,0.1,0.1,0.1,0.1,0.2l0,0l0,0
	c0,0,0-0.1,0.1-0.1H28l0,0c0,0.1,0,0.1,0.1,0.1c0,0,0,0,0,0l0,0c0.1,0,0.1,0,0.1-0.1c0,0,0,0,0,0l0,0h0.2c0,0,0.1,0,0.1,0
	c0,0,0,0,0-0.1l-0.2-0.1c-0.1,0-0.2,0-0.3,0c0-0.1,0-0.1,0.1-0.2c0.1-0.1,0.2-0.1,0.3-0.1c0.1,0,0.2,0,0.3,0.1
	c0.1,0.1,0.1,0.2,0.1,0.2c0,0.1,0,0.1,0,0.2c0,0.1,0,0.3,0,0.4c0,0.1,0,0.2-0.1,0.3c-0.1,0.3-0.2,0.6-0.3,0.9
	c-0.2,0.2-0.4,0.4-0.6,0.5c-0.3,0.1-0.6,0.1-0.8,0c-0.2-0.1-0.5-0.3-0.6-0.5c-0.1-0.3-0.2-0.6-0.3-0.9c0-0.1-0.1-0.2-0.1-0.3
	c0-0.1,0-0.3,0-0.4 M25.5,20.3c0,0.1,0.1,0.2,0.2,0.3c0.2,0.1,0.2,0,0.1-0.1c-0.1-0.1-0.1-0.2,0-0.3c1-0.4,1.9-0.9,2.9-1.4
	c0,0.1,0,0.2,0,0.3c-1.3,1-2.7,1.9-4.1,2.6c0-0.3,0-0.7,0.2-1L25.5,20.3 M25.2,19.4c0,0.2,0.1,0.4,0.2,0.6L25,20.1c0,0,0-0.1,0-0.1
	C25,19.8,25.1,19.6,25.2,19.4 M30.9,17.7v-0.1c0.1,0.1,0.1,0.2,0.2,0.3C31,17.9,30.9,17.8,30.9,17.7 M30.3,17.6l0.1-0.1l0.2,0.1
	l-0.1,0.5C30.5,17.9,30.4,17.8,30.3,17.6 M30.2,17.8L30.2,17.8L30.2,17.8L30.2,17.8 M31.5,22.9l0.2,0.4c-0.3-0.1-0.5-0.2-0.8-0.3
	l-0.7-0.2v-0.2c0-0.2,0-0.4,0.1-0.6c0.2-0.5,0.2-1.1,0.1-1.7c0-0.2,0-0.3,0-0.5c0.1,0,0.2,0,0.4,0c0.1-0.1,0.2-0.1,0.1-0.1
	c-0.2-0.1-0.3-0.3-0.2-0.5c0-0.1,0-0.2,0-0.3c0.1-0.4,0.1-0.7,0.2-1c0,0,0.1,0.1,0.1,0.2v0.1c0.2,0.3,0.4,0.7,0.4,1.1
	c0,0.4,0,0.7,0.1,1.1s0,0.5,0,0.6c0,0.4,0,1.6,0,1.8v0.1L31.5,22.9z M24.3,16.1h-0.5c-0.2,0-0.3,0.1-0.5,0.2
	c-0.2,0.1-0.4,0.2-0.6,0.2c-0.1,0-0.2-0.1-0.3-0.1l-0.1-0.1c0.2,0,0.4-0.1,0.5-0.1l0,0c0.1-0.1,0.2-0.2,0.3-0.3l0.1-0.2l0,0l0.3-0.2
	l0,0l0.2-0.1l0,0h-0.2l0,0h-0.1l0,0c-0.1,0-0.2,0-0.3,0l0,0H23h-0.2l0,0l-0.2,0.1l0,0h-0.2h-0.1c-0.1,0-0.2-0.1-0.3-0.2l0,0l0,0V15
	h0.3c0.1,0,0.2,0,0.3,0l0,0l0.1-0.1l0.2-0.1l0,0l0.2-0.1l0.3-0.1l0,0l0.2-0.1l0,0l-0.2-0.1l0,0l-0.1-0.1c-0.1,0-0.2-0.1-0.4-0.1
	h-0.5h-0.1h-0.1h-0.1c-0.1-0.1-0.2-0.2-0.2-0.3v-0.4c0.2,0.1,0.4,0.1,0.6,0.1l0,0c0.1,0,0.3-0.1,0.4-0.1l0.2-0.1l0,0h0.4h0.2
	l-0.2-0.1l0,0l-0.1-0.1c-0.1,0-0.1-0.1-0.2-0.1l-0.3-0.1c-0.2,0-0.4-0.1-0.6-0.3c-0.1-0.1-0.1-0.2-0.1-0.2l0,0c0,0,0-0.1,0-0.1l0,0
	c0,0,0,0,0-0.1l0,0c0.2,0.1,0.3,0.2,0.5,0.3h0.1H23l0,0h0.2h0.4l0,0h0.2l0,0l-0.1-0.2l0,0l-0.1-0.1l0,0c-0.1-0.1-0.3-0.2-0.5-0.3
	l0,0L23,11.8c-0.1-0.1-0.3-0.2-0.4-0.3c0-0.1,0-0.3,0-0.4c0,0,0-0.1,0-0.1c0.1,0.2,0.3,0.3,0.5,0.4l0,0h0.1h0.2l0,0h0.2l0,0l0.3,0.1
	l0,0l0.2,0.1l0,0l0,0l-0.1-0.2l0,0L24,11.3L24,11.2l0,0c-0.1-0.1-0.2-0.2-0.3-0.3l0,0l-0.1,0c-0.1-0.1-0.2-0.2-0.3-0.4v-0.1
	c0-0.1,0-0.1,0-0.2l0,0v-0.1c0,0,0-0.1,0.1-0.1c0.1,0.2,0.2,0.4,0.4,0.5l0.1,0.1l0.3,0.1l0.2,0.1l0,0l0.3,0.2l0,0l0.2,0.2l0,0l0,0
	v-0.2c0-0.1,0-0.1,0-0.2l0,0c-0.1-0.2-0.1-0.4-0.2-0.5l0,0L24.4,10c-0.1-0.1-0.2-0.3-0.2-0.4c0-0.1,0-0.2,0.1-0.3l0.1-0.1
	c0,0.2,0.1,0.4,0.2,0.5v0.1l0.2,0.1h0.1l0,0l0,0l0,0l0.2,0.1l0,0l0.3,0.4l0.1,0.2l0,0l0,0v-0.2l0,0c0-0.1,0-0.1,0-0.2l0,0l0,0
	c0,0,0,0,0-0.1V9.9V9.8v0c0-0.1,0-0.2-0.1-0.3l-0.1-0.2l0,0c0-0.1-0.1-0.2-0.1-0.4c0,0,0,0,0-0.1c0-0.1,0.1-0.2,0.2-0.3l0.1-0.1
	c0,0,0,0,0,0.1c0,0.1,0,0,0,0v0.3V9l0,0v0.1l0,0c0.1,0.1,0.2,0.2,0.3,0.3l0.2,0.2l0,0l0.2,0.3l0,0l0.1,0.2l0,0l0,0l0.1-0.2l0,0l0,0
	V9.8l0,0c0-0.1,0-0.2,0-0.3l0,0l0,0c0-0.1,0-0.1,0-0.2l0,0V9c0,0,0-0.1,0-0.1l0,0c0-0.1,0-0.2,0-0.3c0.1-0.1,0.2-0.2,0.4-0.3
	c0,0.1-0.1,0.2-0.1,0.4c0,0,0,0.1,0,0.1l0,0c0,0,0,0.1,0,0.1c0,0,0,0.1,0,0.1c0,0.1,0.1,0.2,0.1,0.2l0.2,0.2l0,0l0.1,0.4l0,0V10
	l0.2-0.2l0,0l0.1-0.1l0,0c0.1-0.1,0.1-0.3,0.1-0.4l0,0V9.1c0,0,0-0.1,0-0.1c0-0.2,0.1-0.3,0.2-0.5l0,0l0.1-0.1H28l0,0H28h0.2
	C28.1,8.7,28,8.9,28,9.1l0,0l0,0l0,0v0v0.1v0.1v0.1l0.1,0.2c0,0,0,0.2,0,0.3l0,0v0.2l0.2-0.1l0,0l0.1-0.1l0,0
	c0.1-0.1,0.2-0.2,0.2-0.3l0.3-0.2C28.9,9.1,29,9,29.2,8.8c0.1-0.1,0.2-0.1,0.3-0.1h0.2c-0.1,0.1-0.3,0.3-0.3,0.5l0,0c0,0,0,0,0,0.1
	l0,0c0,0,0,0.1,0,0.1l0,0c0,0.1,0,0.1,0,0.2v0.3l0,0l-0.1,0.3l0,0l-0.1,0.2l0,0l0.2-0.1l0,0l0.1-0.1l0,0c0.1-0.1,0.2-0.2,0.3-0.2
	l0.2-0.2l0,0l0.1-0.1c0.1-0.1,0.2-0.3,0.4-0.3c0.2-0.1,0.3-0.1,0.5,0l0,0c-0.2,0.1-0.3,0.2-0.4,0.4l0,0l0,0c0,0.1-0.1,0.2-0.1,0.4
	v0.2L30,10.8L29.9,11l0,0l0.2-0.1h0.2l0,0c0.2-0.1,0.4-0.2,0.5-0.4l0,0l0.1-0.1c0.1-0.1,0.3-0.2,0.4-0.2c0.1,0,0.3,0,0.4,0.1l0,0h0
	l0,0c-0.2,0.1-0.4,0.1-0.5,0.3c0,0-0.1,0.1-0.1,0.1L31,11l-0.1,0.2l-0.4,0.4h0.4c0.2,0,0.4-0.1,0.6-0.2c0.2-0.1,0.4-0.2,0.6-0.2
	c0.1,0,0.2,0.1,0.3,0.2l0.1,0.1c-0.2,0-0.4,0.1-0.6,0.1l-0.1,0.1l0,0l0,0l0,0l0,0l-0.1,0.1L31.5,12l-0.3,0.2L31,12.3l0,0l0.2,0.1
	l0,0h0.2h0.1c0.2,0,0.4,0,0.5,0l0,0h0.2h0.2c0.1,0,0.1,0,0.2,0c0.1,0,0.2,0.1,0.3,0.2l0,0l-0.1,0.2l0,0c-0.1,0-0.2,0-0.4,0
	c-0.1,0-0.2,0-0.2,0c-0.1,0-0.2,0.1-0.3,0.2h-0.1l-0.2,0.1l-0.3,0.1l0,0l-0.2,0.1l0,0l0.2,0.1l0.1,0.1l0,0c0.2,0.1,0.4,0.1,0.6,0.1
	h0.3c0.1,0,0.2,0,0.3,0.1c0.1,0.1,0.2,0.2,0.2,0.3l0,0l0,0c0,0,0,0.1,0,0.1c-0.2-0.1-0.4-0.1-0.6-0.1c-0.1,0-0.3,0.1-0.4,0.1l0,0
	l-0.2,0.1l0,0h-0.4h-0.1l0.2,0.1l0.1,0.1l0,0c0.1,0.1,0.2,0.1,0.3,0.2l0.2,0.3c0.2,0,0.4,0.1,0.6,0.2c0.1,0.1,0.1,0.3,0.1,0.4l0,0
	c-0.2-0.1-0.3-0.2-0.5-0.3h-0.1c-0.1,0-0.2,0-0.3,0h-0.2l0,0l-0.4-0.1l0,0h-0.2l0,0l0.1,0.2l0.1,0.1l0,0c0.1,0.1,0.2,0.2,0.3,0.3
	l0.2,0.2l0,0l0.1,0.1c0.1,0.1,0.3,0.2,0.4,0.3c0,0.1,0,0.2,0,0.2c0,0,0,0.1,0,0.1v0.1c-0.1-0.1-0.2-0.2-0.3-0.3l-0.1-0.1
	c-0.1,0-0.3-0.1-0.4-0.1h-0.2l0,0l-0.3-0.1l0,0L30.5,16l0.1,0.2l0,0.1l0,0c0.1,0.1,0.1,0.2,0.2,0.3l0.1,0.2l0,0l0.1,0.1
	c0.1,0.1,0.2,0.2,0.3,0.4v0.1c0,0,0,0,0,0.1l0,0c0,0,0,0.1,0,0.1l0,0l0,0v0.1l0,0v0.1c-0.1-0.2-0.2-0.4-0.3-0.5H31l-0.2-0.1l0,0
	h-0.3L30.3,17l-0.2-0.1c-0.1-0.1-0.1-0.3-0.2-0.3c-0.1-0.2-0.2-0.4-0.2-0.7c0-0.3,0-0.5,0-0.8c0-0.3,0-0.5,0-0.8
	c-0.1-0.4-0.2-0.7-0.4-1c-0.1-0.1-0.1-0.2-0.2-0.4c0,0,0-0.1,0-0.3s-0.1-0.4-0.1-0.4h0c0,0,0-0.1,0-0.1c-0.3-0.2-0.4-0.2-0.5-0.4
	c-0.1-0.1-0.2-0.2-0.3-0.3c-0.1-0.1-0.3-0.1-0.4-0.2c-0.1,0-0.2,0-0.3,0c-0.1,0-0.1,0.1-0.2,0.1c-0.1,0-0.1,0-0.2-0.1
	c-0.1,0-0.2,0-0.3,0c-0.1,0-0.2,0.1-0.4,0.1c-0.1,0.1-0.2,0.2-0.3,0.3c-0.1,0.1-0.2,0.2-0.3,0.3c0,0,0,0.1,0,0.1l-0.1,0.1
	c-0.1,0.2-0.2,0.4-0.2,0.6c0,0,0,0.1,0,0.1c0,0.2-0.1,0.3-0.1,0.5c-0.1,0.3-0.3,0.5-0.4,0.7c-0.1,0.3-0.2,0.7-0.1,1
	c0,0.4,0,0.8,0,1.2c-0.1,0.2-0.2,0.4-0.4,0.6l0,0c-0.1,0.1-0.2,0.1-0.3,0.2l0,0l-0.1,0.1l0,0l-0.1,0.1c-0.1,0.1-0.3,0.2-0.4,0.2
	c-0.1,0-0.2,0-0.4-0.1l-0.1-0.1c0.2-0.1,0.4-0.2,0.5-0.3c0-0.1,0.1-0.2,0.1-0.3l0,0l0.1-0.2l0.2-0.3l0,0L24.3,16.1L24.3,16.1
	L24.3,16.1z M23.9,18.4c0.1,0.1,0.3,0.2,0.5,0.2l0,0c0.1,0.2,0.1,0.3,0.2,0.5c-0.1,0.2-0.1,0.4,0,0.6c0.1,0.2,0.1,0.4,0.1,0.6
	c-0.4,0.5-0.5,1-0.4,1.6c0,0.2,0,0.5,0.1,0.8v0.2L23.8,23c-0.2,0.1-0.5,0.2-0.7,0.3l0.2-0.4v-0.1c0-0.1,0-1.4,0-1.8
	c0-0.2,0-0.4,0-0.6s0.1-0.7,0.1-1.1c0-0.4,0.1-0.7,0.3-1L23.9,18.4z M24.3,18.4c-0.1,0-0.1,0-0.2,0l0,0c0.1-0.1,0.2-0.1,0.2-0.2
	C24.4,18.3,24.4,18.4,24.3,18.4 M24.2,18.1c-0.1,0.1-0.2,0.1-0.3,0.2l0,0v0c0.1-0.2,0.3-0.3,0.5-0.4l0,0l0,0
	C24.3,17.9,24.2,17.9,24.2,18.1 M22.9,24.6c-0.1-0.1-0.2-0.2-0.2-0.3v-0.1c0-0.3,0.5-0.6,1.3-0.9c1.1-0.3,2.3-0.4,3.4-0.4
	c1.2,0,2.3,0.1,3.4,0.4c0.8,0.2,1.3,0.6,1.3,0.9v0.1c-0.1,0.1-0.1,0.2-0.2,0.3c0,0,0,0,0,0c0-0.4-0.5-0.8-1.4-1
	c-1-0.3-2.1-0.4-3.1-0.4c-1.1,0-2.1,0.1-3.1,0.4C23.4,23.8,22.9,24.1,22.9,24.6C22.9,24.5,22.9,24.5,22.9,24.6 M22,24.5
	C22,24.5,22,24.4,22,24.5l0.1-0.1c0.1,0,0.2,0.1,0.3,0.1c0,0.1,0.1,0.2,0.1,0.2h-0.1C22.3,24.7,22.1,24.6,22,24.5 M22.3,24.9h0.1V25
	c0,0.1,0.1,0.2,0.1,0.2l0.3,0.2l0.1,0.1h-0.1c-0.2,0-0.4,0-0.5,0l-0.1-0.1l-0.1-0.1C22.1,25.2,22.2,25.1,22.3,24.9 M23.7,26.2
	l-0.4,0.1l-0.1-0.1l0.4-0.1L23.7,26.2 M23.3,25.4L23.3,25.4l-0.1-0.1L22.9,25c1.4,0.6,2.9,0.8,4.4,0.8c1.5,0.1,3-0.2,4.4-0.8
	c-0.1,0.1-0.2,0.2-0.3,0.3c-1.3,0.6-2.7,0.9-4.1,0.8C26,26.2,24.6,26,23.3,25.4 M21.5,29.5l1.3-0.7l1.1,0.6v0.1c0,0.2,0,0.3,0,0.5
	l-1.1-0.6l-1.3,0.7L21.5,29.5L21.5,29.5z M34.8,8.4c5.4,2.1,9.7,6.4,11.8,11.9H34.8V8.4z M42.5,12.6c-8.2-8.3-21.6-8.3-29.8-0.1
	s-8.3,21.6-0.1,29.8s21.6,8.3,29.8,0.1c4-3.9,6.2-9.3,6.2-14.9C48.6,21.9,46.4,16.5,42.5,12.6"/>
<path d="M43.5,45.8c-0.5-0.2-1.1-0.1-1.6,0.2c0.3-0.5,0.5-1,0.4-1.6c0.5,0.2,1.1,0.1,1.6-0.2C43.5,44.7,43.3,45.2,43.5,45.8
	 M44.2,43.9L44.2,43.9C44.1,43.9,44.1,43.9,44.2,43.9C44.1,43.9,44.1,43.9,44.2,43.9c-0.6,0.4-1.4,0.6-2,0.3c0-0.1,0-0.2-0.1-0.2
	c-0.1,0-0.1,0-0.2,0c-0.1,0.1-0.1,0.2,0,0.2c0,0,0,0,0,0c0,0,0.1,0,0.2,0l0,0c0.2,0.7-0.1,1.4-0.5,1.9c0,0,0,0.1,0,0.1c0,0,0,0,0,0
	l0,0c0,0,0.1,0,0.1,0c0,0,0,0,0,0c0.5-0.4,1.3-0.6,1.9-0.3l0,0c0,0,0,0.1,0,0.2c0,0.1,0.1,0.1,0.2,0.1c0.1,0,0.1-0.1,0.1-0.2
	c0,0-0.1,0-0.2,0c-0.2-0.7,0.1-1.4,0.5-1.9C44.2,44,44.2,44,44.2,43.9C44.2,43.9,44.2,43.9,44.2,43.9L44.2,43.9"/>
<path d="M41.2,46.4c0,0.1,0,0.1,0,0.2c0,0,0.1,0,0.2,0s0-0.1,0-0.2C41.3,46.4,41.2,46.4,41.2,46.4"/>
<path d="M44.3,43.6c-0.1,0-0.1,0.1,0,0.2c0,0.1,0.1,0.1,0.2,0l0,0c0.1,0,0.1-0.1,0-0.2C44.5,43.6,44.4,43.5,44.3,43.6"/>
<path d="M42.4,45.1c0,0.2-0.1,0.4-0.2,0.5c0.2-0.1,0.3-0.1,0.5-0.1c0.1,0,0.3,0,0.4,0c0-0.1,0-0.3,0-0.4c0-0.2,0.1-0.4,0.2-0.5
	c-0.2,0.1-0.4,0.1-0.5,0.1c-0.1,0-0.3,0-0.4,0C42.4,44.8,42.4,45,42.4,45.1"/>
<path d="M46.4,41.3c0.2-0.5,0.2-1.1-0.1-1.6c0.6,0,1.1-0.2,1.5-0.6c-0.2,0.5-0.2,1.1,0.1,1.6C47.3,40.7,46.8,40.9,46.4,41.3
	 M48.2,40.7c0,0-0.1,0-0.2,0c-0.4-0.6-0.4-1.4,0-2c0,0,0-0.1,0-0.1l0,0c0,0-0.1,0-0.1,0c0,0,0,0,0,0c-0.4,0.6-1.1,0.9-1.8,0.9
	c0-0.1,0-0.1-0.1-0.1c-0.1,0-0.2,0-0.2,0.1s0,0.2,0.1,0.2c0,0,0.1,0,0.2,0l0,0c0.4,0.6,0.4,1.4,0,2c0,0,0,0.1,0,0.1c0,0,0,0,0,0l0,0
	c0,0,0.1,0,0.1,0c0,0,0,0,0,0c0.4-0.6,1-0.9,1.7-0.9l0,0c0,0.1,0,0.1,0.1,0.1c0.1,0,0.2,0,0.2-0.1S48.3,40.7,48.2,40.7"/>
<path d="M46.1,41.9c0-0.1-0.1-0.1-0.2,0s-0.1,0.1,0,0.2s0.1,0.1,0.2,0c0,0,0,0,0,0C46.1,42,46.1,41.9,46.1,41.9"/>
<path d="M48.3,38.3c-0.1,0-0.1,0-0.2,0c0,0.1,0,0.1,0,0.2l0,0c0,0,0.1,0,0.2,0c0,0,0,0,0,0C48.4,38.4,48.4,38.4,48.3,38.3
	C48.3,38.3,48.3,38.3,48.3,38.3"/>
<path d="M47.5,39.5c-0.2,0.1-0.3,0.2-0.5,0.3c-0.1,0-0.3,0.1-0.4,0.1c0,0.1,0.1,0.3,0.1,0.4c0,0.2,0,0.4,0,0.5
	c0.2-0.1,0.3-0.2,0.5-0.3c0.1,0,0.3-0.1,0.4-0.1c0-0.1-0.1-0.3-0.1-0.4C47.5,39.9,47.5,39.7,47.5,39.5"/>
<path d="M49.5,35.6c0.1-0.6-0.1-1.1-0.5-1.5c0.5-0.1,1-0.5,1.3-1c0,0.6,0.2,1.1,0.6,1.5C50.3,34.7,49.8,35.1,49.5,35.6 M51.1,34.5
	c0,0-0.1,0-0.2,0c-0.5-0.5-0.7-1.2-0.5-1.9c0,0,0-0.1,0-0.1l0,0c0,0-0.1,0-0.1,0c-0.2,0.7-0.8,1.3-1.5,1.4c0,0,0-0.1-0.1-0.1
	c-0.1,0-0.2,0-0.2,0.1s0,0.2,0.1,0.2c0,0,0.1,0,0.2,0l0,0c0.5,0.5,0.7,1.2,0.5,1.9c0,0,0,0.1,0,0.1l0,0c0,0,0.1,0,0.1,0
	c0.2-0.7,0.8-1.2,1.5-1.3l0,0c0,0.1,0.1,0.1,0.1,0.1c0.1,0,0.2,0,0.2-0.1c0,0,0,0,0,0c0-0.1,0-0.2-0.1-0.2c0,0,0,0,0,0"/>
<path d="M49.3,36.2c-0.1,0-0.1,0-0.2,0.1c0,0.1,0,0.1,0.1,0.2c0.1,0,0.1,0,0.2-0.1c0,0,0,0,0,0C49.4,36.3,49.4,36.2,49.3,36.2"/>
<path d="M50.4,32.4c0.1,0,0.1,0,0.2-0.1c0-0.1,0-0.1-0.1-0.1c0,0,0,0,0,0c-0.1,0-0.1,0-0.2,0C50.3,32.2,50.3,32.3,50.4,32.4
	C50.4,32.4,50.4,32.4,50.4,32.4"/>
<path d="M50.1,33.5c-0.1,0.1-0.2,0.3-0.4,0.4c-0.1,0.1-0.2,0.1-0.4,0.2c0.1,0.1,0.1,0.2,0.2,0.4c0.1,0.2,0.1,0.4,0.1,0.5
	c0.1-0.1,0.2-0.3,0.4-0.4c0.1-0.1,0.2-0.1,0.4-0.2c-0.1-0.1-0.1-0.2-0.2-0.4C50.1,33.9,50.1,33.7,50.1,33.5"/>
<path d="M51.8,27.9c-0.5,0.3-0.8,0.8-1,1.3c-0.1-0.6-0.5-1-1-1.3c0.5-0.3,0.8-0.8,1-1.3C51,27.1,51.3,27.6,51.8,27.9 M50.9,26.1
	L50.9,26.1C50.8,26.1,50.8,26.1,50.9,26.1L50.9,26.1c-0.1,0.8-0.4,1.4-1,1.8c0,0-0.1-0.1-0.1-0.1c-0.1,0-0.2,0.1-0.2,0.2
	c0,0.1,0.1,0.2,0.2,0.2c0.1,0,0.1,0,0.1-0.1l0,0c0.6,0.3,1,1,1,1.7c0,0,0,0.1,0.1,0.1l0,0l0,0c0,0,0.1,0,0.1-0.1l0,0
	c0-0.7,0.4-1.3,1-1.7l0,0c0,0,0.1,0.1,0.1,0.1c0.1,0,0.2-0.1,0.2-0.2c0-0.1-0.1-0.2-0.2-0.2c-0.1,0-0.1,0-0.1,0.1
	C51.3,27.4,50.9,26.8,50.9,26.1C50.9,26.1,50.9,26,50.9,26.1L50.9,26.1"/>
<path d="M50.9,30.1c0.1,0,0.1,0,0.1-0.1s0-0.1-0.1-0.1c-0.1,0-0.1,0-0.1,0.1c0,0,0,0,0,0C50.8,30.1,50.8,30.1,50.9,30.1L50.9,30.1"
	/>
<path d="M50.9,25.9c0.1,0,0.1,0,0.1-0.1s0-0.1-0.1-0.1c-0.1,0-0.1,0-0.1,0.1c0,0,0,0,0,0C50.7,25.8,50.8,25.9,50.9,25.9
	C50.9,25.9,50.9,25.9,50.9,25.9"/>
<path d="M50.6,27.6c-0.1,0.1-0.2,0.2-0.3,0.3c0.1,0.1,0.2,0.2,0.3,0.3c0.1,0.1,0.2,0.3,0.3,0.5c0.1-0.2,0.2-0.3,0.3-0.5
	c0.1-0.1,0.2-0.2,0.3-0.3c-0.1-0.1-0.2-0.2-0.3-0.3c-0.1-0.1-0.2-0.3-0.3-0.5C50.8,27.3,50.7,27.4,50.6,27.6"/>
<path d="M51,21.1c-0.4,0.4-0.6,1-0.5,1.5c-0.3-0.5-0.7-0.9-1.3-1c0.4-0.4,0.6-1,0.5-1.5C50,20.6,50.4,21,51,21.1 M49.6,19.7
	L49.6,19.7C49.6,19.7,49.6,19.7,49.6,19.7c0.2,0.8,0,1.5-0.5,2c-0.1-0.1-0.2-0.1-0.2,0c-0.1,0.1-0.1,0.2,0,0.2c0,0,0.1,0.1,0.2,0
	c0,0,0.1-0.1,0.1-0.1l0,0c0.7,0.2,1.2,0.6,1.5,1.3c0,0,0.1,0,0.1,0l0,0c0,0,0-0.1,0-0.1c-0.2-0.7,0-1.4,0.5-1.9l0,0c0,0,0.1,0,0.2,0
	c0.1,0,0.1-0.1,0.1-0.2c0-0.1-0.1-0.1-0.2-0.1l0,0c-0.1,0-0.1,0.1-0.1,0.1C50.4,20.8,49.8,20.3,49.6,19.7
	C49.6,19.6,49.6,19.6,49.6,19.7"/>
<path d="M50.6,23.3c-0.1,0-0.1,0.1-0.1,0.2c0,0.1,0.1,0.1,0.2,0.1s0.1-0.1,0.1-0.2C50.8,23.3,50.7,23.3,50.6,23.3"/>
<path d="M49.5,19.5c0.1,0,0.1-0.1,0.1-0.2c0-0.1-0.1-0.1-0.2-0.1s-0.1,0.1-0.1,0.2c0,0,0,0,0,0C49.4,19.5,49.5,19.5,49.5,19.5"/>
<path d="M50.3,22.1c0-0.2,0.1-0.4,0.1-0.5c0.1-0.1,0.1-0.2,0.2-0.4c-0.1-0.1-0.2-0.1-0.4-0.2c-0.2-0.1-0.3-0.2-0.4-0.4
	c0,0.2-0.1,0.4-0.1,0.5c-0.1,0.1-0.1,0.2-0.2,0.4c0.1,0.1,0.2,0.1,0.4,0.2C50,21.9,50.2,22,50.3,22.1"/>
<path d="M11.5,45.8c0.1-0.6,0-1.1-0.4-1.6c0.5,0.3,1.1,0.4,1.6,0.2c-0.1,0.6,0,1.1,0.4,1.6C12.7,45.7,12.1,45.6,11.5,45.8 M13,44.3
	L13,44.3c0,0,0.1,0,0.1,0c0-0.1,0-0.2-0.1-0.2s-0.2,0-0.2,0.1c0,0,0,0,0,0c-0.7,0.2-1.4,0.1-1.9-0.3c0,0-0.1,0-0.1,0c0,0,0,0,0,0
	l0,0c0,0,0,0.1,0,0.1c0,0,0,0,0,0c0.5,0.5,0.7,1.2,0.6,1.9c0,0-0.1,0-0.1,0c-0.1,0.1-0.1,0.2,0,0.2c0.1,0.1,0.2,0.1,0.2,0l0,0
	c0,0,0-0.1,0-0.2l0,0c0.7-0.2,1.4-0.1,1.9,0.3c0,0,0.1,0,0.1,0c0,0,0,0,0,0l0,0c0,0,0-0.1,0-0.1c0,0,0,0,0,0
	C12.9,45.7,12.7,45,13,44.3"/>
<path d="M13.6,46.4c0,0.1,0,0.1,0,0.2c0,0,0.1,0,0.1,0c0.1,0,0.1-0.1,0-0.2S13.7,46.4,13.6,46.4C13.7,46.4,13.6,46.4,13.6,46.4"/>
<path d="M10.5,43.6c0,0.1,0,0.1,0,0.2c0.1,0,0.1,0,0.2,0c0-0.1,0-0.1,0-0.2C10.6,43.5,10.6,43.5,10.5,43.6
	C10.5,43.6,10.5,43.6,10.5,43.6"/>
<path d="M12.5,44.7c-0.1,0-0.3,0-0.4,0c-0.2,0-0.4-0.1-0.5-0.1c0.1,0.2,0.1,0.3,0.2,0.5c0,0.1,0,0.3,0,0.4c0.1,0,0.3,0,0.4,0
	c0.2,0,0.4,0.1,0.5,0.1c-0.1-0.2-0.1-0.3-0.2-0.5C12.5,45,12.5,44.8,12.5,44.7"/>
<path d="M7.1,40.7c0.3-0.5,0.3-1.1,0.1-1.6c0.4,0.4,0.9,0.6,1.5,0.6c-0.3,0.5-0.3,1.1-0.1,1.6C8.2,40.9,7.7,40.7,7.1,40.7 M8.9,39.7
	L8.9,39.7c0,0,0.1,0,0.2,0c0.1-0.1,0.1-0.2,0-0.2s-0.2-0.1-0.3,0c0,0-0.1,0.1-0.1,0.1c-0.7,0-1.4-0.3-1.8-0.9c0,0-0.1,0-0.1,0
	c0,0,0,0,0,0l0,0c0,0,0,0.1,0,0.1c0.4,0.6,0.4,1.4,0,2c0,0-0.1,0-0.2,0c-0.1,0-0.1,0.1-0.1,0.2s0.1,0.1,0.2,0.1l0,0
	C7,41,7,40.9,7,40.8c0,0,0,0,0,0l0,0c0.7,0,1.4,0.3,1.8,0.9c0,0,0.1,0,0.1,0c0,0,0,0,0,0H8.8c0,0,0-0.1,0-0.1c0,0,0,0,0,0
	C8.4,41,8.4,40.2,8.9,39.7"/>
<path d="M8.9,41.9c-0.1,0-0.1,0.1,0,0.2c0,0.1,0.1,0.1,0.2,0s0.1-0.1,0-0.2c0,0,0,0,0,0C9.1,41.8,9,41.8,8.9,41.9"/>
<path d="M6.8,38.5c0.1,0,0.1-0.1,0-0.2c0-0.1-0.1-0.1-0.2,0s-0.1,0.1,0,0.2C6.7,38.5,6.7,38.5,6.8,38.5"/>
<path d="M8.4,39.9c-0.1,0-0.3-0.1-0.4-0.1c-0.2-0.1-0.3-0.2-0.5-0.3c0,0.2,0,0.4,0,0.5c0,0.1-0.1,0.3-0.1,0.4c0.1,0,0.3,0.1,0.4,0.1
	c0.2,0.1,0.3,0.2,0.5,0.3c0-0.2,0-0.4,0-0.5C8.3,40.2,8.3,40,8.4,39.9"/>
<path d="M5.5,35.6c-0.3-0.5-0.7-0.9-1.3-1c0.4-0.4,0.6-1,0.6-1.6c0.3,0.5,0.7,0.9,1.3,1C5.7,34.4,5.5,35,5.5,35.6 M6.3,33.8
	c-0.1,0-0.1,0.1-0.1,0.1c-0.7-0.2-1.2-0.7-1.4-1.3c0,0-0.1,0-0.1,0l0,0c0,0,0,0.1,0,0.1c0.2,0.7,0,1.4-0.5,1.9c0,0-0.1,0-0.2,0
	c-0.1,0-0.2,0-0.2,0.1c0,0.1,0,0.2,0.1,0.2c0.1,0,0.2,0,0.2,0c0.1,0,0.1-0.1,0.1-0.1l0,0c0.7,0.2,1.2,0.7,1.5,1.3c0,0,0.1,0,0.1,0
	l0,0c0,0,0-0.1,0-0.1c-0.2-0.7,0-1.4,0.5-1.9l0,0c0,0,0.1,0,0.2,0c0.1,0,0.2,0,0.2-0.1c0-0.1,0-0.2-0.1-0.2
	C6.4,33.7,6.3,33.7,6.3,33.8"/>
<path d="M5.7,36.2c-0.1,0-0.1,0.1-0.1,0.2s0.1,0.1,0.2,0.1c0.1,0,0.1-0.1,0.1-0.2c0,0,0,0,0,0C5.8,36.2,5.8,36.2,5.7,36.2"/>
<path d="M4.5,32.1c-0.1,0-0.1,0.1-0.1,0.1c0,0.1,0.1,0.1,0.1,0.1c0.1,0,0.1-0.1,0.1-0.1C4.7,32.2,4.6,32.1,4.5,32.1
	C4.5,32.1,4.5,32.1,4.5,32.1"/>
<path d="M4.9,33.5c0,0.2-0.1,0.4-0.1,0.5c-0.1,0.1-0.1,0.2-0.2,0.4c0.1,0.1,0.2,0.1,0.4,0.2c0.2,0.1,0.3,0.2,0.4,0.4
	c0-0.2,0.1-0.4,0.1-0.5c0.1-0.1,0.1-0.2,0.2-0.4c-0.1-0.1-0.2-0.1-0.4-0.2C5.2,33.8,5,33.7,4.9,33.5"/>
<path d="M3.2,27.9c0.5-0.3,0.8-0.8,0.9-1.3c0.1,0.6,0.5,1,1,1.3c-0.5,0.3-0.8,0.8-1,1.3C4,28.6,3.7,28.2,3.2,27.9 M4.1,29.7
	L4.1,29.7C4.2,29.7,4.2,29.6,4.1,29.7c0.1-0.8,0.5-1.4,1.1-1.7l0,0c0,0,0.1,0.1,0.1,0.1c0.1,0,0.2-0.1,0.2-0.2
	c0-0.1-0.1-0.2-0.2-0.2c-0.1,0-0.1,0-0.1,0.1c-0.6-0.3-1-1-1-1.7c0,0,0-0.1-0.1-0.1l0,0c0,0-0.1,0-0.1,0.1c0,0.7-0.4,1.3-1,1.7
	c0,0-0.1-0.1-0.1-0.1c-0.1,0-0.2,0.1-0.2,0.2c0,0.1,0.1,0.2,0.2,0.2C3,28,3,28,3,27.9l0,0C3.6,28.3,4,28.9,4.1,29.7
	C4,29.6,4.1,29.7,4.1,29.7"/>
<path d="M4,30c0,0.1,0,0.1,0.1,0.1c0.1,0,0.1,0,0.1-0.1s0-0.1-0.1-0.1c0,0,0,0,0,0C4.1,29.9,4,29.9,4,30"/>
<path d="M4,25.7c0,0.1,0,0.1,0.1,0.1c0.1,0,0.1,0,0.1-0.1s0-0.1-0.1-0.1c0,0,0,0,0,0C4.1,25.6,4,25.7,4,25.7"/>
<path d="M4.4,28.2c0.1-0.1,0.2-0.2,0.3-0.3c-0.1-0.1-0.2-0.2-0.3-0.3c-0.1-0.1-0.2-0.3-0.3-0.5c-0.1,0.2-0.2,0.3-0.3,0.5
	c-0.1,0.1-0.2,0.2-0.3,0.3c0.1,0.1,0.2,0.2,0.3,0.3c0.1,0.1,0.2,0.3,0.3,0.5C4.2,28.5,4.3,28.3,4.4,28.2"/>
<path d="M5.3,20.1c-0.1,0.6,0.1,1.1,0.5,1.6c-0.5,0.1-1,0.5-1.3,1c0.1-0.6-0.1-1.1-0.5-1.5C4.5,21,5,20.6,5.3,20.1 M3.7,21.2
	c0,0,0.1,0,0.2,0h0c0.5,0.5,0.7,1.2,0.5,1.9c0,0,0,0.1,0,0.1l0,0c0,0,0.1,0,0.1,0c0.2-0.7,0.8-1.2,1.5-1.4l0,0
	c0,0.1,0.1,0.1,0.1,0.1c0.1,0,0.2,0,0.2-0.1c0-0.1,0-0.2-0.1-0.2l0,0c0,0-0.1,0-0.2,0c-0.5-0.5-0.7-1.2-0.5-1.9c0,0,0-0.1,0-0.1l0,0
	c0,0-0.1,0-0.1,0c-0.2,0.7-0.8,1.2-1.5,1.3c0-0.1-0.1-0.1-0.2-0.1c-0.1,0-0.1,0.1-0.1,0.2C3.6,21.1,3.7,21.1,3.7,21.2"/>
<path d="M4.3,23.6c0.1,0,0.1,0,0.1-0.1c0-0.1,0-0.1-0.1-0.1c-0.1,0-0.1,0-0.1,0.1C4.2,23.5,4.2,23.5,4.3,23.6
	C4.3,23.6,4.3,23.6,4.3,23.6"/>
<path d="M5.5,19.2c-0.1,0-0.1,0-0.2,0.1s0,0.1,0.1,0.2c0.1,0,0.1,0,0.2-0.1c0,0,0,0,0,0C5.6,19.3,5.6,19.3,5.5,19.2"/>
<path d="M4.7,22.1C4.8,22,5,21.9,5.1,21.8c0.1-0.1,0.2-0.1,0.4-0.2c-0.1-0.1-0.1-0.2-0.2-0.4c-0.1-0.2-0.1-0.4-0.1-0.5
	C5,20.8,4.9,21,4.7,21.1c-0.1,0.1-0.2,0.1-0.4,0.2c0.1,0.1,0.1,0.2,0.2,0.4C4.6,21.8,4.7,22,4.7,22.1"/>
<path d="M19.2,49.7l0.6-0.6l0,0.8L19.2,49.7 M20,48.1l-2.4,2.4l0.6,0.2l0.6-0.5l1.1,0.4l0.1,0.8l0.6,0.2l-0.3-3.6L20,48.1z"/>
<path d="M22.4,48.8l-0.6-0.1v0.1l-0.7,2.8l1.4,0.3l0.1-0.5l-0.8-0.2L22.4,48.8"/>
<polygon points="23.5,49.2 23.1,52.1 23.6,52.2 24.1,49.2 23.6,49.1 "/>
<path d="M24.8,49.4l-0.3,2.9l0.6,0l0.1-1.4l1,0.1v-0.5l-1-0.1l0-0.6l1,0.1v-0.5L24.8,49.4L24.8,49.4z"/>
<path d="M29,51.7c-0.4,0.4-1,0.4-1.4,0c0,0,0,0,0,0c-0.2-0.2-0.3-0.4-0.3-0.7c0-0.6,0.4-1,1-1c0.6,0,1,0.4,1,1
	C29.3,51.1,29.2,51.4,29,51.7 M28.2,49.3c-0.9,0-1.5,0.7-1.5,1.6c0,0.4,0.2,0.8,0.5,1.1c0.6,0.6,1.6,0.6,2.2-0.1
	c0.6-0.6,0.6-1.6-0.1-2.2C29,49.5,28.6,49.3,28.2,49.3"/>
<path d="M31,50.5L31,50.5l-0.2-0.8c0.5-0.1,0.7,0.1,0.7,0.3c0,0,0,0.1,0,0.1C31.5,50.3,31.3,50.5,31,50.5 M32,50.1
	c0-0.1,0-0.1,0-0.2c0-0.3-0.3-0.6-0.5-0.7c-0.3-0.1-0.5-0.1-0.8,0l-0.5,0.1l0.5,3l0.6-0.1L31,51.1l1,1l0.7-0.1l-1.1-1.1
	C31.9,50.7,32.1,50.4,32,50.1"/>
<path d="M35,48.2L35,48.2l-0.5,0.1l0.5,1.8l-2.6-1.5l0.9,3.2l0.5-0.1l-0.5-1.9l2.6,1.5L35,48.2z"/>
<polygon points="36,47.8 35.6,47.9 36.7,50.7 37.2,50.5 36.1,47.7 "/>
<path d="M38.8,48.4l-0.6,0.3l-0.1-0.8L38.8,48.4 M37.6,47l0.2,3.4l0.5-0.3v-0.8l1-0.5l0.6,0.5l0.5-0.3l-2.9-2.2L37.6,47L37.6,47z"/>
<path d="M17.7,47.7c0.1,0.1,0.2,0.1,0.2,0.2c0.1,0.1,0.1,0.3,0.2,0.4l0.5-0.1c0-0.1-0.1-0.2-0.1-0.3l0,0l0,0l0,0l-0.1-0.1l0,0
	l-0.1-0.1l0,0c-0.3-0.5-0.9-0.8-1.5-0.7c-0.9,0.1-1.5,0.9-1.4,1.7c0.1,0.7,0.7,1.3,1.4,1.4c0.1,0,0.3,0,0.5,0c0.1,0,0.2,0,0.3-0.1
	l-0.2-0.5c-0.1,0-0.2,0.1-0.3,0.1c-0.1,0-0.2,0-0.3,0c-0.5-0.1-0.9-0.7-0.8-1.2c0-0.1,0.1-0.3,0.2-0.4
	C16.5,47.5,17.1,47.3,17.7,47.7C17.6,47.7,17.6,47.7,17.7,47.7"/>
<polygon points="39,14.7 39.6,13.8 40.2,14.7 39.9,13.5 40.9,13.2 39.8,13.2 39.6,12.2 39.4,13.2 38.2,13.2 39.3,13.5 "/>
<polygon points="36.1,13.1 36.7,12.2 37.3,13.1 37,12 38,11.6 36.9,11.6 36.7,10.7 36.5,11.6 35.4,11.6 36.4,12 "/>
<path d="M42.8,36.6C42.8,36.6,42.8,36.6,42.8,36.6c0-0.1,0-0.1,0-0.1C42.7,36.5,42.7,36.6,42.8,36.6L42.8,36.6L42.8,36.6"/>
<path d="M42.1,37.9C42.1,37.9,42.1,37.9,42.1,37.9L42.1,37.9c0-0.2-0.1-0.3-0.1-0.3c0,0-0.1-0.2-0.1-0.2c0,0.1,0,0.2,0.1,0.3
	C42,37.8,42,37.9,42.1,37.9"/>
<path d="M42.3,38.2C42.3,38.2,42.3,38.3,42.3,38.2c0,0.2-0.1,0.3-0.1,0.4c0,0,0,0.1,0,0.2c0,0,0,0.1-0.1,0.2
	c-0.1,0.1-0.1,0.2-0.2,0.3c0,0,0,0,0,0h-0.1l0,0c0-0.1,0-0.1,0-0.2l0,0c0,0.1,0,0.1,0,0.2c0,0.1,0,0.3,0.2,0.2
	c0.1-0.1,0.3-0.3,0.4-0.5c0.1-0.3,0.2-0.6,0.2-0.9c0,0,0-0.1,0-0.1c0,0.1-0.1,0.1-0.1,0.2"/>
<path d="M42.8,37c0,0.1,0,0.2,0,0.3c0,0,0.1,0,0.1,0C42.9,37.2,42.9,37.2,42.8,37C42.9,37.1,42.8,37,42.8,37"/>
<path d="M43.1,36.9c-0.1,0-0.2,0-0.2-0.1l0-0.1c0,0,0,0.1,0,0.1c0,0,0.1,0.1,0.1,0.1c0,0,0.3,0.2,0.3,0.1L43.1,36.9L43.1,36.9
	L43.1,36.9z"/>
<path d="M37.9,37.2L37.9,37.2C37.9,37.2,37.9,37.2,37.9,37.2c0-0.1,0-0.2,0-0.2c0-0.1-0.1-0.1-0.1-0.1c0,0-0.1-0.1-0.1-0.1
	c-0.1,0,0,0.1,0,0.1c0.1,0,0.1,0.1,0.2,0.2c0,0.1,0,0.2,0.1,0.3C38,37.3,38,37.3,37.9,37.2z"/>
<path d="M43.5,36.1C43.5,36.1,43.5,36.1,43.5,36.1L43.5,36.1L43.5,36.1C43.4,36.2,43.5,36.2,43.5,36.1c0.2,0.1,0.1-0.1,0-0.1"/>
<path d="M44.4,36.5c0,0-0.1,0-0.1-0.1c0,0-0.1,0-0.1,0c0,0,0,0,0,0C44.2,36.6,44.5,36.6,44.4,36.5L44.4,36.5"/>
<path d="M42.8,37L42.8,37L42.8,37z"/>
<path d="M13.3,17.3c0.1,0.1,0.2,0.1,0.2,0.1l2.3-2.3l-0.1-0.2L13.3,17.3"/>
<path d="M17.1,16.8v2.3h-5.2l1.2-1.2c-0.1-0.1-0.1-0.1-0.2-0.2l-1.7,1.7h6.1c0,0,0-2.6,0-2.7L17.1,16.8"/>
<path d="M17.1,13.8c0,0,0,1.2,0,1.2l0.2,0.1v-2l-1.1,1.2l0.2,0.2L17.1,13.8"/>
<polygon points="16.4,15.9 16.4,15.6 14.6,17.4 14.9,17.4 "/>
<path d="M13.6,18.5h2.8v-1.1l-0.2,0.2v0.7h-2.4L13.6,18.5z"/>
<path d="M18.5,15.2c-0.2,0-0.4,0.1-0.5,0.3l-0.1-0.1v-0.3c0.1,0,0.1-0.1,0.1-0.2c0-0.1,0-0.2-0.2-0.2c-0.1,0-0.2,0-0.2,0.2
	c0,0,0,0.1,0,0.1c0,0.1,0,0.2,0.1,0.2v0.2l-1.2-0.5c-0.5-0.8-1.3-1.3-2.3-1.3c-0.8,0.1-1.5,0.6-1.8,1.3V15l0.3-0.3
	c0.5-0.6,1.4-0.8,2.1-0.6c0.5,0.2,0.9,0.6,1.1,1.1l1.7,0.6v0.1L16,16.6c-0.1,0.5-0.5,0.9-1.1,1.1c-0.8,0.2-1.6,0-2.1-0.5l-0.2-0.3
	v0.1c0.3,0.7,1,1.2,1.8,1.3c0.9,0,1.8-0.6,2.2-1.4l1.2-0.5v0.2h0.2v-0.2l0.1-0.1c0.1,0.2,0.3,0.3,0.5,0.3c0.4,0,0.6-0.4,0.6-0.8
	C19.1,15.5,18.9,15.3,18.5,15.2"/>
<polygon points="13.9,26.5 13.9,26.5 13.9,26.5 13.9,26.5 "/>
<path d="M18.2,24.6L18.2,24.6L18.2,24.6c-0.4,0.4-0.6,0.9-0.7,1.4v0.2v0.2c0,0.2,0,0.5,0,0.7l0,0l0,0v0.2v0v0.1v0.1v0.1
	c0.1,0.5,0.3,1,0.6,1.5l0,0l0,0l-0.2,0c-0.1-0.1-0.3-0.2-0.5-0.3c-0.1,0-0.2-0.1-0.2-0.1H17c-0.1,0-0.2,0-0.2-0.1c0,0,0-0.1,0-0.1
	v-0.1L16.7,28l-0.1-0.5v-0.1c0-0.1-0.1-0.2-0.1-0.3h0.1c0.1,0,0.2,0,0.3,0c0,0,0,0,0-0.1l0,0l0,0l0,0l0,0h-0.2v-0.1l0,0v-0.1v-0.1
	v-0.3l0,0l0,0v-0.1l0,0c-0.1-0.1-0.1-0.1-0.1-0.2l0,0l0,0v-0.1l0,0l0,0l0,0c0.1-0.1,0.1-0.2,0.2-0.3l0-0.3l0.1-0.1l0.1-0.1l0,0
	l0.3-0.2l0.1-0.1c0.2-0.1,0.4-0.3,0.5-0.4l0,0l0,0l0,0l0,0C18,24.6,18,24.6,18.2,24.6L18.2,24.6L18,24.7 M17,28.8L17,28.8
	c0.2,0,0.3,0.1,0.4,0.2c0.1,0.1,0.3,0.2,0.4,0.3h0h-0.4c-0.1,0-0.2,0-0.2,0c0-0.1-0.1-0.2-0.1-0.3C16.9,28.9,16.8,28.7,17,28.8
	 M15.1,30c-0.1,0-0.1,0-0.2,0h0c0,0,0,0,0-0.1l0,0c0.1,0,0.1-0.1,0.2-0.1l0,0c0,0,0,0,0.1,0c0,0.1,0,0.2,0,0.3 M15.6,30.1
	C15.5,30.1,15.5,30.1,15.6,30.1c-0.1,0-0.2,0-0.2,0c0-0.1,0-0.2,0-0.2c0,0,0-0.1,0.1-0.1c0.1,0,0.1,0,0.2,0.1
	C15.6,29.9,15.6,30,15.6,30.1 M16,30.1C16,30.1,16,30.1,16,30.1h-0.2c0-0.1,0-0.2,0-0.3l0.1-0.1c0.1,0,0.1,0,0.1,0
	C16.1,29.9,16.1,30,16,30.1 M16.5,30.1c0,0-0.1,0-0.1,0c0,0-0.1,0-0.1,0c0-0.1,0-0.2,0-0.3l0,0l0,0c0,0,0.1,0,0.1,0c0,0,0.1,0,0.1,0
	c0,0,0,0,0,0.1C16.5,29.9,16.5,30,16.5,30.1 M16.9,30.1c0,0-0.1,0-0.1,0c0,0-0.1,0-0.1,0c0-0.1,0-0.2,0-0.2c0-0.1,0-0.2,0.1-0.2
	c0,0,0.1,0,0.1,0c0,0.1,0,0.2,0,0.3 M17.3,29.9h-0.1c0,0-0.1,0-0.1,0c0-0.1,0-0.2,0-0.3c0,0,0.1-0.1,0.1-0.1h0.1l0.1,0.1
	C17.4,29.7,17.4,29.8,17.3,29.9 M17.8,29.9C17.7,29.9,17.7,29.9,17.8,29.9c-0.1,0-0.2,0-0.2,0c0-0.1,0-0.2,0-0.2
	c0,0,0.1-0.1,0.1-0.1c0,0,0.1,0,0.1,0C17.8,29.7,17.8,29.8,17.8,29.9 M18.1,29.5c0,0-0.8,0-1.5,0c-0.7,0-1.4,0.1-1.5,0.1
	c-0.1,0.1-0.2,0.2-0.3,0.3L14.8,30v0c0.1,0,3.5-0.1,3.7-0.1l0,0l0,0h-0.1l-6,0.2c-0.1,0-0.2,0-0.2,0.1l0,0l0,0l0,0l-0.1,0.1l0,0l0,0
	l0,0c0,0,0.1,0,0.1,0h0.1h0.1h0.1h0.7l4.6-0.2l0,0l0,0c-0.1,0.1-0.2,0.2-0.4,0.2h-0.1c-0.2,0.1-0.4,0.2-0.5,0.2
	c-0.3,0.1-0.6,0.3-0.8,0.5v0.1v0.1L16,31.3l0,0l0,0h-0.3c-0.1,0-0.2,0-0.3-0.1l0,0l-0.2-0.1l0,0l-0.1-0.1L14.9,31h-0.1h-0.1l0,0
	h-0.1h-0.1c-0.4,0-0.7,0.1-1,0.3c-0.2,0.1-0.5,0.1-0.8,0.1h0h-0.1l0,0h-0.1l-0.4-0.1h-0.4c-0.1,0-0.1,0-0.2,0l0,0l0,0l0,0l0,0v-0.1
	l0,0c0,0,0-0.1,0-0.1l0,0v-0.1l0,0l0,0l0,0l0,0l0,0l0,0l0,0l0,0l-0.6-0.3c0,0-0.1,0-0.1-0.1h-0.1c-0.1-0.1-0.1-0.1-0.2-0.2
	c-0.1-0.1-0.2-0.2-0.2-0.4l0,0c0-0.1,0-0.1,0-0.2v0.1c0.1,0.2,0.3,0.4,0.5,0.5l0,0h0.1c0.2,0,0.3,0,0.5,0c0.1,0,0.1-0.1,0.2-0.1
	l0.1-0.1c0.2-0.1,0.4-0.1,0.6-0.1h0.3h1.3c0.1,0,0.3,0,0.4-0.1c0.1-0.1,0.2-0.2,0.3-0.3v-0.1l0,0v0l0,0c0,0,0.1-0.1,0.2-0.1
	c0.2,0,2.6-0.1,2.8-0.1L18.1,29.5z M18.3,29.7c0,0.1-0.1,0.2-0.1,0.2c-0.1,0-0.1,0-0.2,0l0,0c0-0.1,0-0.1,0-0.2c0,0,0.1-0.1,0.1-0.1
	C18.2,29.6,18.3,29.6,18.3,29.7 M18.4,29.8c0.1,0,0.1,0,0.1,0.1l0,0h-0.3l0,0C18.3,29.9,18.3,29.8,18.4,29.8 M17.2,31.7L17.2,31.7
	c0,0.1,0,0.1-0.1,0.1c-0.1,0-0.2,0-0.2,0c-0.1,0-0.2,0-0.3,0c-0.1,0-0.3,0.1-0.4,0.1L16.1,32c-0.1,0.1-0.3,0.1-0.4,0.1
	c-0.5,0-1-0.7-1.6-0.5c-0.3,0.1-0.5,0.3-0.8,0.4c-0.6,0.1-1.1-0.3-1.7-0.2c-0.1,0-0.2,0.1-0.3,0.1c0,0-0.1,0.1-0.2,0.1l0,0V32l0,0
	l0.1-0.1l0,0c0.1-0.1,0.1-0.1,0.2-0.1c0.1,0,0.2-0.1,0.3-0.1c0.6-0.1,1.1,0.3,1.7,0.2c0.3-0.2,0.7-0.3,1-0.4c0.1,0,0.1,0,0.2,0
	c0.2,0,0.4,0.1,0.6,0.2c0.2,0.1,0.4,0.2,0.6,0.3c0.5,0.1,0.9-0.4,1.5-0.2 M17.1,32.3C17.1,32.4,17.1,32.4,17.1,32.3
	c-0.1,0.1-0.2,0.1-0.2,0.1h-0.2h-0.2h-0.1h-0.1h-0.1l-0.1,0.1c-0.3,0.1-0.7,0.1-1-0.1c-0.3-0.2-0.6-0.3-0.9-0.3
	c-0.1,0-0.3,0.1-0.4,0.2c-0.1,0.1-0.3,0.1-0.4,0.2c-0.4,0-0.8,0-1.2-0.2c-0.3-0.1-0.7,0-1,0.1L11,32.4c-0.1,0-0.1,0-0.2,0l0,0
	c0.1-0.2,0.3-0.3,0.5-0.3c0.3-0.1,0.6-0.1,0.9-0.1l0,0h0.2h0.1c0.2,0.1,0.4,0.1,0.7,0.1c0.1,0,0.1,0,0.2,0c0.1,0,0.1-0.1,0.2-0.2
	c0.2-0.1,0.4-0.2,0.6-0.2c0.2,0,0.3,0,0.5,0.1l0,0h0.1h0.1h0.1l0,0H15l0,0H15c0.1,0,0.1,0.1,0.2,0.1h0.1c0.1,0,0.1,0.1,0.2,0.1
	c0.3,0,0.6,0,0.8-0.2c0.2-0.1,0.5-0.1,0.7,0c0.1,0,0.1,0.1,0,0.1 M10.9,30.6c-0.1,0-0.2,0-0.3-0.1c-0.3-0.2-0.5-0.5-0.6-0.9
	c0,0,0-0.1,0-0.1c0,0,0-0.1,0-0.1c0-0.1,0-0.2,0-0.3c0,0,0-0.1,0.1-0.1c0-0.1,0.1-0.1,0.1-0.2c0,0,0.1,0,0.1,0.1
	c0,0,0.1,0.1,0.1,0.1l0.2,0.3l0.4,0.5l0.1,0.1c0,0,0.1,0.1,0.1,0.1l0,0c-0.3-0.1-0.5-0.3-0.6-0.6l0,0c0-0.1,0-0.1,0-0.2
	c0,0,0,0,0-0.1c0,0-0.1,0-0.1,0c0,0-0.1,0-0.1,0c-0.1,0.1-0.1,0.2-0.1,0.4c0,0.3,0.1,0.6,0.4,0.7l0,0c0,0.2,0,0.3,0.1,0.4
	c0.1,0,0.2,0.1,0.3,0.2l0,0 M10.5,30.9L10.5,30.9c-0.1,0-0.2,0-0.3,0l-0.4-0.1H9.7H9.7H9.5H9.5H9.3c-0.1,0-0.2-0.1-0.3-0.2l0,0
	c0,0,0,0,0,0c0,0,0-0.1,0-0.1c-0.1-0.1,0-0.3,0.1-0.3c0,0,0,0,0.1,0c0.1,0,0.3,0,0.4,0c0.1,0,0.3,0.1,0.4,0.2l0,0l0,0c0,0,0,0,0,0.1
	l0.2,0.2c0,0.1,0.1,0.1,0.2,0.2c0,0,0,0,0.1,0C10.4,30.8,10.5,30.8,10.5,30.9L10.5,30.9 M8.9,29.9L8.9,29.9L8.8,30l0,0l0,0V30
	c0,0,0,0.1,0,0.1c0,0.1,0,0.1,0,0.2v0.1l0,0l0,0l0,0l0,0l0,0c-0.2-0.2-0.4-0.4-0.4-0.7c0-0.1,0-0.3,0-0.5v-0.1
	c0.1-0.1,0.2-0.2,0.4-0.2h0.1H9l0.2,0l0.4-0.1h0.2h0.3l0.3-0.1h-0.1l-0.1,0.1l0,0l0,0C10.1,29,10,29.1,10,29.3
	c0,0.1-0.1,0.3-0.1,0.5v0.2l0,0l-0.1-0.1l-0.3,0l0,0H9.4C9.3,29.8,9.1,29.8,8.9,29.9L8.9,29.9L8.9,29.9 M9,30.5L9,30.5L9,30.5
	 M9.8,28c0.1,0.1,0.2,0.2,0.3,0.4c0,0,0.1,0.1,0.1,0.1l0,0h-0.2c0,0,0,0-0.1-0.1L10,28.4L9.8,28 M10.5,28.9L10.5,28.9
	c0.1,0,0.1,0.1,0.1,0.2l0.9,1.1c0.1,0.1,0.2,0.2,0.1,0.3c-0.1,0-0.1,0-0.2,0c0-0.1-0.1-0.1-0.1-0.2L11.2,30
	c-0.1-0.1-0.2-0.2-0.2-0.3l-0.3-0.4C10.5,29.2,10.5,29.1,10.5,28.9 M11.3,29.7C11.3,29.7,11.3,29.6,11.3,29.7L11.3,29.7L11.3,29.7
	c-0.1-0.1-0.2-0.2-0.2-0.3c0,0,0-0.1,0-0.1c0-0.1,0.1-0.3,0.3-0.3c0,0,0,0,0.1,0l0,0h0.1c0,0,0,0,0.1,0l0,0l0,0c0,0,0,0.1,0,0.1
	s-0.1,0.4-0.1,0.5c0,0.1,0,0.2,0,0.3l0,0l0,0l0,0l-0.1-0.1 M12,29.8c0-0.2,0-0.4,0.1-0.5c0,0,0-0.1,0-0.1c0-0.1,0-0.1,0-0.2
	c0,0,0,0,0,0c0.2,0,0.3,0.1,0.4,0.2c0,0.3,0,0.7,0,1c-0.1,0-0.2,0-0.2,0l0,0h-0.1c-0.1,0-0.1,0-0.2,0.1C11.9,30,11.9,29.9,12,29.8
	 M11.8,30.1L11.8,30.1c0,0,0-0.1,0-0.1c0-0.1,0-0.2,0-0.2s0-0.2,0-0.3c0-0.1,0-0.1,0-0.2l0,0c0,0,0-0.1,0-0.1c0-0.1,0-0.2,0.1-0.4
	l0,0l0,0c0,0,0,0,0,0c0,0,0,0.1,0,0.1s0,0.1,0,0.1s0,0.1,0,0.2s0,0.1,0,0.2s0,0.3-0.1,0.4c0,0,0,0.1,0,0.1
	C11.8,30,11.8,30.1,11.8,30.1 M12.9,29.5C12.9,29.4,12.9,29.4,12.9,29.5L12.9,29.5L12.9,29.5c0-0.1,0.1,0,0.1,0l0,0l0,0
	c0,0.1,0,0.2,0,0.3c0,0.1,0,0.2,0,0.3l0,0l0,0c0,0-0.1,0-0.1,0c0-0.1,0-0.2,0-0.3C12.8,29.6,12.8,29.5,12.9,29.5 M10.8,27.6
	L10.8,27.6v-0.2c0,0,0.1,0,0.1,0h0.5h0.3H12h0.2h0.3h0.2h0.2H13l0.6-0.1h0.2l-0.1,0.1c-0.1,0.1-0.3,0.2-0.4,0.4l0,0l0,0v0.1l0,0l0,0
	l0,0V28v0.1v0.1v0.1c0,0.1,0,0.1,0,0.2c0,0.2,0,0.4,0.1,0.6l0.1,0.1l0.1,0.1c-0.1,0-0.1-0.1-0.1-0.1l-0.1-0.1
	C13.2,29.1,13.1,29,13,29c-0.2-0.1-0.5-0.2-0.8-0.1l-0.5,0c-0.1,0-0.2,0-0.2,0h-0.1c-0.1,0-0.1,0-0.2,0.1l0,0l0,0l0,0l0,0
	c-0.1,0.1-0.1,0.2-0.2,0.3v0.1l0,0L11,29.1L10.8,29L10.8,29c0,0-0.1-0.1-0.1-0.2c0,0,0.1,0,0.1,0l0,0l0,0l0,0h0.1l0,0h0.1H11
	c0,0,0.1-0.1,0.1-0.1l0,0v-0.2l0,0l0,0c-0.1,0-0.2,0-0.3,0h-0.1l0,0l0,0l0,0c0-0.2,0.1-0.5,0.3-0.6 M12.1,26.6c0,0.1,0,0.3-0.1,0.4
	s0,0.1,0,0.1s0,0.1,0,0.2c0,0,0,0,0,0.1c0,0,0,0-0.1,0c-0.1,0-0.2,0-0.2,0l-0.7,0.1c0,0-0.1,0-0.1,0c-0.1-0.2-0.1-0.4,0-0.5
	c0.1-0.1,0.1-0.3,0.3-0.4c0.1-0.1,0.3-0.2,0.4-0.2c0.1-0.1,0.3-0.1,0.4,0l0,0c0,0.1,0,0.2,0,0.2 M12.4,26.2c0,0.1,0,0.1,0,0.2
	c0,0.1,0,0.1,0,0.1s0,0.1,0,0.2c0,0.1,0,0.2,0,0.3c0,0,0,0.1,0,0.1l0,0c0,0-0.1,0-0.1,0c0-0.2,0-0.3,0.1-0.5
	C12.4,26.5,12.4,26.3,12.4,26.2C12.4,26.2,12.4,26.2,12.4,26.2c0.1,0,0.1,0,0.1,0 M12.6,26.2L12.6,26.2L12.6,26.2c0,0,0.1,0,0.1,0
	c0,0,0,0.8,0,0.8l0,0c0,0-0.1,0-0.1,0c0,0-0.1,0-0.1,0c0-0.1,0-0.1,0-0.2c0-0.2,0-0.3,0.1-0.5C12.6,26.3,12.6,26.3,12.6,26.2
	L12.6,26.2 M13.1,27c0-0.1,0-0.1,0-0.2c0-0.1,0-0.2,0-0.3l0,0c0,0.1,0,0.3,0,0.4C13.1,26.9,13.1,26.9,13.1,27L13.1,27L13.1,27
	 M13.2,27L13.2,27C13.2,27,13.2,27,13.2,27c0-0.2,0-0.2,0-0.3c0,0,0-0.1,0-0.1c0,0,0,0,0.1,0c0.1,0.1,0.2,0.1,0.3,0.2l0.2,0.2
	c0,0,0.1,0.1,0,0.1c0,0-0.1,0-0.1,0C13.5,27.1,13.4,27.1,13.2,27L13.2,27L13.2,27 M10.8,26.8L10.8,26.8L10.8,26.8c0-0.2,0-0.3,0-0.4
	c0-0.1,0-0.1,0-0.2V26c0-0.1,0.1-0.2,0.1-0.4l0.1-0.1v-0.1l0.1-0.1l0,0l0,0l0,0l0,0l0.1-0.1l0.1-0.1l0,0l0,0l0,0l0,0l0,0h0.1
	l0.4-0.3l0.1-0.2l0,0v0l0,0l0,0v-0.1l0.1-0.1v-0.1c0-0.1,0-0.1,0.1-0.2c0.1,0,0.2,0,0.2,0h0.6c0.1,0,0.2,0,0.3,0l0,0v0l0,0v0.1v0.1
	c-0.1,0.3-0.1,0.5-0.1,0.8c0,0.1,0,0.1,0,0.2c0,0.4,0.2,0.8,0.4,1.1l0.1,0.1l0.1,0.1l0.1,0.1l0,0l0,0l0.1,0.2l0.1,0.1l0,0
	c0,0,0-0.1,0-0.1l-0.1-0.1l-0.1-0.1l0,0l0,0l0,0l0,0l-0.1-0.1c-0.2-0.2-0.5-0.3-0.8-0.4h-0.2c-0.4-0.1-0.9,0.1-1.3,0.3
	c-0.1,0.1-0.1,0.1-0.2,0.2l0,0c0,0,0,0.1-0.1,0.1 M16.2,26.8c0,0,0.1,0,0.1,0c0,0.1,0,0.1,0,0.2l0,0c0,0-0.1,0-0.1,0
	C16.2,26.9,16.2,26.8,16.2,26.8 M16.3,28.6c0-0.1,0-0.2,0-0.2c0-0.1-0.1-0.2-0.1-0.4c-0.1-0.3-0.1-0.6-0.1-0.9l0,0l0,0
	c0,0,0,0,0.1,0.1l0,0c0,0.1,0,0.2,0.1,0.2c0,0.2,0.1,0.3,0.1,0.5s0.1,0.3,0.1,0.4c0,0.1,0,0.2,0,0.3l0,0L16.3,28.6
	C16.3,28.6,16.3,28.6,16.3,28.6 M15.4,28.9L15.4,28.9c0,0,0.1,0,0.1,0c0.2-0.1,0.3-0.1,0.5-0.1c0,0,0.1,0,0.1,0c0,0,0,0.1,0,0.1
	c0,0,0,0.1,0,0.1c0,0.1,0,0.1,0,0.2c0,0.1,0,0.1,0,0.2c0,0,0,0.1,0,0.1l0,0c-0.2,0-0.4,0-0.6,0c-0.1,0-0.1,0-0.2,0
	C15.4,29.5,15.4,29.1,15.4,28.9 M16,26.9L16,26.9c0,0,0,0.1,0,0.1h-0.1l0,0C15.9,27,15.9,26.9,16,26.9C15.9,26.9,15.9,26.9,16,26.9
	 M15.2,27.1c0-0.1,0-0.1,0-0.2c0-0.1,0-0.2,0-0.3l0,0c0.1,0,0.2,0,0.4,0.1c0,0,0,0.1,0,0.1c0,0.1,0,0.1,0,0.2c0,0,0,0.1-0.1,0.1l0,0
	l0,0h-0.1C15.4,27.1,15.3,27.1,15.2,27.1 M15.4,27.2c0,0.1-0.1,0.1-0.1,0.1c-0.1,0.1-0.1,0-0.1-0.1c0,0,0-0.1,0-0.1h0.1
	C15.3,27.2,15.3,27.2,15.4,27.2L15.4,27.2 M14.8,29l-0.3,0.2l-0.1,0.1c0,0-0.1,0.1-0.1,0.1v-0.1v-0.1l0,0l0.1-0.2l0,0l0,0V29v-0.1
	l0,0l0,0c0,0,0.1-0.1,0.1-0.2l0.1-0.2v-0.1l0.2-0.3l0.3-0.4v0l0.1-0.1c0-0.1,0.1-0.2,0.2-0.2l0,0c0,0,0,0,0.1,0v0.1v0.3v0.1l0.5,0
	v0.1v0.1l0.1,0.5h-0.2c-0.3,0-0.6,0.1-0.9,0.3 M14.2,29.7c0.1-0.1,0.1-0.2,0.2-0.3l0.1-0.1l0.2-0.2C14.8,29,14.9,29,15,29l0,0
	c0,0.1,0,0.3,0,0.4c0,0-0.1,0-0.1,0.1c-0.1,0.1-0.2,0.1-0.2,0.2c0,0.1-0.1,0.2-0.2,0.3l0,0l0,0c0,0-0.1,0-0.1,0c-0.1,0-0.1,0-0.2,0
	c-0.1,0,0-0.3,0.1-0.4 M14.7,26.8C14.7,26.8,14.7,26.9,14.7,26.8C14.7,26.9,14.7,26.9,14.7,26.8L14.7,26.8L14.7,26.8
	C14.6,26.9,14.6,26.8,14.7,26.8c-0.1-0.1-0.1-0.2-0.1-0.3c0,0,0-0.1,0-0.1l0,0c0,0,0,0,0.1,0C14.7,26.6,14.7,26.7,14.7,26.8
	 M14.9,27.1c0,0.2,0,0.3,0,0.5c0,0.1,0,0.2,0,0.2c0,0.1-0.1,0.1-0.1,0.2l-0.1,0.2c0,0.1-0.1,0.2-0.1,0.3l-0.1,0.1l0,0
	c0-0.1,0-0.2,0-0.3V28v-0.1c0-0.1,0-0.1,0-0.2l0,0c0-0.1,0-0.1,0-0.2s0-0.3,0.1-0.4c0,0,0-0.1,0.1-0.1c0.1,0,0.1,0,0.2,0 M14.8,26.8
	C14.8,26.8,14.8,26.8,14.8,26.8c0,0.1,0,0.1,0,0.1h-0.1h-0.1c0-0.1,0-0.2,0-0.4c0,0,0-0.1,0-0.1l0,0c0,0,0,0,0.1,0l0,0
	c0,0.1,0,0.2,0,0.4 M13.6,29.7c0.1-0.4,0.2-0.8,0.2-1.1c0,0,0,0,0-0.1c0-0.2,0.1-0.4,0.1-0.6c0,0,0,0,0-0.1c0-0.2,0.1-0.3,0.1-0.5
	c0,0,0-0.1,0-0.1c0-0.1,0-0.1,0.1-0.2h0.1c0,0.1,0,0.1,0,0.2c0,0.1,0,0.1-0.1,0.2s0,0,0,0.1s-0.1,0.3-0.1,0.5s0,0.1,0,0.1
	s0,0.1,0,0.1v0.3c0,0.1-0.1,0.2-0.1,0.4s0,0.2,0,0.2c0,0.1-0.1,0.2-0.1,0.2l0,0c0,0.1,0,0.1-0.1,0.2s-0.1,0.1-0.1,0.2s0,0,0-0.1
	 M14.1,26.9c0-0.1,0-0.2,0.1-0.3c0,0,0-0.1,0-0.1c0,0,0,0,0.1,0c0,0,0,0,0.1,0c0,0.1-0.1,0.2-0.1,0.4s0,0.1,0,0.1
	C14.2,26.9,14.2,26.9,14.1,26.9L14.1,26.9 M13.7,29.8c0,0-0.1-0.1-0.1-0.1l0,0c0,0,0-0.1,0-0.2s0.1-0.2,0.1-0.3
	c0.2-0.5,0.3-1.1,0.4-1.6c0-0.1,0-0.2,0-0.3c0-0.1,0-0.2,0-0.2l0,0c0.1,0,0,0.2,0,0.2c-0.1,0.6-0.2,1.2-0.4,1.8c0,0,0,0.1,0,0.1
	c0,0.1,0,0.1,0,0.2S13.7,29.6,13.7,29.8c0,0,0,0.1-0.1,0.1l0,0l0,0l0,0L13.7,29.8z M13.5,29.9L13.5,29.9l0.2,0.1c0,0,0,0.1,0,0.1
	l0,0c-0.1,0-0.1,0-0.2,0l0,0C13.5,30,13.6,29.9,13.5,29.9 M14,26.7c0.1,0,0.1-0.1,0.2-0.1l0,0l0,0c0,0.1,0,0.1,0,0.2
	c0,0,0,0.1,0,0.1c0,0,0,0,0,0.1l0,0l-0.2-0.1L14,26.7L14,26.7L14,26.7 M13.3,30.1L13.3,30.1c-0.1-0.1-0.1-0.2-0.1-0.4
	c0,0,0-0.1,0-0.1l0,0c0,0,0,0,0.1,0c0,0,0,0,0,0.1c0,0.1,0,0.2,0,0.3C13.3,30,13.3,30,13.3,30.1 M13.4,29.9L13.4,29.9L13.4,29.9
	c0-0.1,0-0.1,0-0.2l0,0l0,0C13.4,29.8,13.4,29.8,13.4,29.9 M13.4,29.3c0-0.1-0.1-0.2-0.1-0.2c-0.1-0.2-0.1-0.4-0.1-0.5
	c0-0.3,0.1-0.6,0.4-0.8c0.1-0.1,0.1-0.1,0.2-0.1c0.1-0.1,0.1-0.1,0.2-0.1l0,0c0,0.1,0,0.1,0,0.2c-0.1,0.3-0.2,0.7-0.2,1
	c-0.1,0.3-0.2,0.6-0.3,0.9C13.4,29.4,13.4,29.4,13.4,29.3 M16.5,29.4L16.5,29.4c-0.1,0-0.1,0-0.1,0c0,0,0-0.1,0-0.1
	c0-0.1,0-0.2-0.1-0.4s0-0.1,0-0.1c0,0,0,0,0.1,0c0,0,0.1,0,0.1,0c0,0.1,0,0.1,0,0.2c0,0,0,0.1,0,0.1c0,0,0,0.1,0,0.1
	C16.5,29.3,16.5,29.3,16.5,29.4L16.5,29.4 M16.6,28.6c0,0-0.1,0-0.1,0c0,0,0,0,0-0.1c0,0,0,0,0,0l0,0c0,0,0-0.1,0-0.1c0,0,0,0,0-0.1
	v-0.1c0,0,0,0,0-0.1s0,0,0-0.1s-0.1-0.3-0.1-0.4c0-0.1,0-0.2-0.1-0.2l0,0c0,0-0.1-0.1,0-0.1c0,0,0.1,0,0.1,0l0,0
	c0,0.1,0,0.1,0.1,0.2c0,0,0,0.1,0,0.1c0,0,0,0.1,0,0.1c0,0,0,0,0,0.1l0.1,0.6C16.6,28.4,16.6,28.5,16.6,28.6
	C16.6,28.6,16.6,28.6,16.6,28.6L16.6,28.6 M16.6,29.4C16.6,29.4,16.6,29.4,16.6,29.4c0-0.1,0-0.2,0-0.3c0-0.1,0-0.2,0-0.3l0,0
	c0,0,0.1,0,0.1,0c0,0,0,0.1,0,0.1c0,0.2,0.1,0.3,0.1,0.5l0,0C16.7,29.5,16.7,29.5,16.6,29.4L16.6,29.4L16.6,29.4 M16.4,27L16.4,27
	c0,0-0.1,0-0.1,0l0,0H16.4L16.4,27 M13.7,26.3L13.7,26.3v-0.2V26v-0.1v-0.1l0,0v-0.1l0,0l0,0l0.1-0.1l0,0l0,0l0.1-0.1l0.2-0.4
	l0.1-0.1l0.3-0.2c0,0,0,0,0,0l0,0l0,0l0,0l0,0l0,0c0,0,0.1,0,0.1,0h1.2v0v0.1V25l0,0v0.1v0.2c0,0,0,0.1,0,0.1c0,0.2,0.1,0.4,0.2,0.6
	c0.1,0.1,0.1,0.2,0.2,0.3c0.1,0.1,0.1,0.2,0.2,0.3l0,0l0,0c0,0,0,0.1,0.1,0.1l0,0l0,0h-0.1h-0.1l0,0l-0.1,0l0,0h-0.1H16h-0.1h-0.2
	h-0.2c-0.2,0-0.5,0-0.7,0l0,0c-0.1,0-0.2,0.1-0.3,0.1l-0.1,0l-0.2,0.1l0,0l0,0l0,0l0,0l0,0c0,0,0,0-0.1-0.1l0,0c0,0,0-0.1,0-0.1
	 M15.3,24.5L15.3,24.5c0,0.1,0,0.2,0,0.3l0,0l0,0l0,0C15.3,24.7,15.3,24.6,15.3,24.5 M15.5,24.4L15.5,24.4L15.5,24.4
	c0,0.1,0,0.2,0.1,0.3l0,0l0,0l0,0c0,0,0,0-0.1,0l0,0C15.5,24.6,15.5,24.5,15.5,24.4 M17.9,24.9L17.9,24.9L17.9,24.9L17.9,24.9
	l-0.2-0.1l0,0l0,0l0,0l0,0l0,0v-0.1l-0.1-0.1l0,0l-0.8-0.8h-0.1h-0.1h0.1c0.1,0,0.1,0,0.2,0l0,0h0.1h0.1l0.3,0.1l0.4,0.1h0.2h0.2
	c-0.1,0.1-0.1,0.1-0.2,0.1l-0.1,0l-0.1,0.1h-0.1c0,0-0.1,0-0.1,0l0,0l0,0 M12.6,22.8h-0.3h-0.2c-0.1,0-0.2,0-0.3,0l0,0h0.2l0.2,0
	C12.4,22.7,12.5,22.7,12.6,22.8C12.6,22.8,12.6,22.8,12.6,22.8 M18.9,23.6c-0.1,0.1-0.2,0.2-0.4,0.2c-0.2,0.1-0.4,0.1-0.7,0.1
	c-0.2,0-0.4-0.1-0.7-0.2c-0.2,0-0.4,0-0.6,0c-0.2,0.1-0.3,0.2-0.4,0.3l0,0l0.2,0c0.1,0,0.2,0,0.3,0c0.1,0,0.2,0.1,0.2,0.1l0,0
	c-0.1,0-0.1,0-0.2,0.1l0,0c-0.1,0-0.2,0.1-0.2,0.1l0,0l0,0c0,0,0.2-0.1,0.3-0.1c0.1,0,0.2,0,0.2,0h0l0.1,0.1l0,0l0,0l0,0l0,0
	c0,0,0,0.1,0.1,0.1h0.1c0,0,0,0.1-0.1,0.1l-0.2,0.1c-0.1,0-0.1,0.1-0.1,0.1c0,0-0.1,0.1-0.1,0.1L16.6,25l-0.1,0.1
	c-0.1,0.1-0.2,0.2-0.3,0.3c0,0.1-0.1,0.1-0.1,0.1c0,0.1,0,0.1,0,0.2c0,0,0,0,0,0c0,0,0-0.1-0.1-0.1c0,0,0-0.1-0.1-0.1
	c-0.1-0.1-0.1-0.2-0.1-0.4c0-0.1,0-0.2,0-0.3c0,0,0-0.1,0-0.1c0,0,0-0.1,0-0.1c0-0.1,0.1-0.1,0.1-0.2c0,0,0.1,0,0.1,0l0,0l0,0l0,0
	c0,0-0.1,0-0.1,0c-0.2,0-0.4,0-0.5,0h-0.1h-0.1c0,0,0-0.1,0-0.1c0-0.1,0-0.2-0.1-0.3s0-0.1,0-0.1s-0.1-0.3-0.1-0.4s0-0.1-0.1-0.2
	s0-0.1,0-0.2c0,0,0-0.1,0-0.1c0,0,0,0-0.1,0c0,0.1,0.1,0.3-0.1,0.3c-0.1,0-0.2,0-0.4,0c0,0.1,0,0.1,0,0.2l0,0h-0.2l-0.1,0
	c-0.1,0-0.2,0-0.3,0c0,0,0,0-0.1,0.1c0,0.1,0,0.1,0,0.1h-0.2h-0.1c-0.1,0-0.1,0-0.2,0l0,0l0.1,0h0.1c0.1,0,0.2,0.1,0.2,0.1
	c0.1,0,0.2,0,0.2,0c0,0,0.1-0.1,0.1-0.1c0.1,0,0.2,0,0.2,0.1c0.1,0,0.1,0,0.2,0c0.1,0,0.1-0.1,0.1-0.2c0,0,0-0.1,0-0.1l0,0
	c0,0,0.1,0,0.1,0l0,0c0,0,0.1,0,0.1,0.1c0,0.1,0,0.2-0.1,0.2c0,0.1,0,0.2-0.1,0.3c0,0.1,0,0.1-0.1,0.2c0,0.1,0,0.1,0,0.2
	c-0.2,0-0.3,0-0.5,0l0,0l0,0c0.1,0,0.1,0,0.2,0l0,0c0,0.1-0.1,0.2-0.1,0.3l0,0c0,0-0.1,0.1-0.1,0.1l0,0c0,0-0.1,0.2-0.1,0.2
	s0,0.1-0.1,0.1s0,0.1,0,0.1L14,25.5v0.1l-0.2,0.3c-0.1,0.1-0.1,0.2-0.1,0.4l0,0l0,0c-0.1-0.1-0.1-0.1-0.1-0.2c0-0.1-0.1-0.2-0.1-0.2
	c0,0,0-0.1,0-0.1c-0.1-0.4-0.1-0.8,0.1-1.2c0-0.1,0.1-0.3,0.2-0.4c0,0,0.1-0.1,0.1-0.1l0,0l0,0c0,0-0.1,0-0.1,0H13
	c-0.1,0-0.2-0.1-0.2-0.1l0,0l0,0c0-0.1,0-0.3,0-0.4c0-0.3,0-0.7,0-1c0-0.1,0-0.2,0-0.3s0-0.1-0.1-0.1c0,0-0.1,0-0.1,0
	c-0.1,0-0.2,0.1-0.2,0.1c-0.1,0-0.2,0-0.2,0h-0.4h-0.2c-0.2,0-0.4,0.1-0.6,0.1l-0.3,0.1h-0.2c0,0-0.1,0-0.1,0l0,0
	c0.1,0,0.1,0,0.2,0.1h0.1c0.2,0,0.4,0,0.6,0c0.2,0,0.4-0.1,0.6-0.1c0.1,0,0.1,0,0.2,0H12c0.1,0,0.2,0,0.2,0h0.2c0,0,0.1-0.1,0.2-0.1
	c0.1,0,0,0.1,0,0.2c-0.2,0-0.3,0-0.5,0c-0.2,0.1-0.3,0.1-0.5,0.1c-0.1,0-0.2,0-0.4,0c-0.2,0-0.4,0-0.6,0l-0.1,0.2c0,0-0.1,0-0.1,0.1
	l0,0c0.1,0,0.2,0,0.3,0h0.2c0.1,0,0.3,0.1,0.4,0.1c0.1,0,0.2,0.1,0.4,0.1c0.2,0,0.4,0,0.5-0.1c0.1,0,0.1,0,0.2,0c0,0.1,0,0.2,0,0.4
	c0,0.1,0,0.2,0,0.3c0,0.1,0,0.1,0,0.2c-0.2,0-0.4,0-0.6,0l-0.2,0l0,0h0.1H12l0,0l0,0c0,0,0,0.1,0,0.1c0,0,0,0.1,0,0.1
	c0,0,0,0.1,0,0.1l-0.2,0.2l-0.1,0.2l-0.1,0.1l-0.1,0.1l-0.1,0l-0.3,0.3c0,0,0,0.1-0.1,0.1c-0.1,0.1-0.1,0.2-0.2,0.2l-0.1,0.1
	l-0.1,0.3c0,0.1-0.1,0.2-0.1,0.3c0,0.3,0,0.5,0.1,0.8c0,0.1,0,0.1,0.1,0.2c0,0.1,0.1,0.1,0.1,0.2l0,0h-0.1c-0.1,0-0.2,0-0.2,0.1
	c0,0,0,0,0,0h0.1h0.1c0.1,0,0.1,0,0.2,0c0,0.1-0.1,0.2-0.2,0.2c-0.1,0.2-0.2,0.4-0.2,0.6c0,0.1,0,0.1,0,0.2l0,0l0,0
	c0,0-0.1-0.1-0.1-0.1l-0.2-0.2l0,0l0,0l0,0l0,0c0,0-0.1-0.1-0.1-0.1H10l-0.3-0.3c-0.1-0.1-0.2-0.2-0.3-0.3s-0.1-0.2-0.3-0.1l-0.1,0
	c0,0.1,0.1,0.2,0.2,0.3l0.3,0.4c0.1,0.1,0.1,0.2,0.2,0.3s0.1,0.1-0.1,0.2H9.5l-0.2,0.1H9.2l-0.6,0.1c-0.1,0-0.3,0.1-0.4,0.1
	c0,0,0,0.1,0,0.1l0,0c0,0,0.1,0,0.1,0l0,0c0,0-0.1,0.2-0.1,0.4c0,0.5,0.2,0.9,0.6,1.2c0.3,0.2,0.6,0.3,1,0.3H10h0.2l0.5,0h0.2
	c0.1,0,0.2,0,0.2,0c0,0,0.1,0,0.1,0l0.1,0.1c0,0.1,0.1,0.1,0.1,0.2l0,0l-0.1,0l-0.1,0c-0.1,0-0.2,0.1-0.2,0.2c0,0-0.1,0.1-0.1,0.1
	c-0.1,0.1-0.1,0.1-0.2,0.2c-0.1,0.2-0.2,0.4-0.3,0.6c0,0.1-0.1,0.2-0.1,0.3l0,0l0,0c0,0,0.1,0,0.1-0.1l0,0l0,0c0,0,0.1,0,0.1,0l0,0
	l0,0l0,0h0.1l0,0l0.2-0.1h0.1h0.1h0.1h0.1c0.1-0.1,0.3-0.2,0.4-0.2c0.2,0,0.4,0,0.6,0.1l0,0h0.1h0.1h0.2h0.1c0.1,0,0.2,0,0.3,0
	c0.1,0,0.3,0,0.4-0.1l0,0h0.1l0,0h0.1c0.1-0.1,0.2-0.1,0.4-0.2c0.2,0,0.3,0.1,0.5,0.1l0.3,0.1h0.1H15l0,0h0.1h0.1h0.2
	c0.2,0,0.4,0,0.6-0.1h0c0.2-0.1,0.4-0.1,0.6-0.1h0.1h0.1H17h0.1c0.1,0,0.2,0.1,0.2,0.1l0,0l0,0h-0.1c0,0,0,0,0-0.1
	c0,0,0.1-0.1,0.1-0.1l0,0c0,0-0.1-0.1-0.1-0.1c0-0.1,0-0.1,0.1-0.2l0,0c0,0-0.1,0-0.1-0.1c0-0.1,0.1-0.1,0.1-0.2l0,0h-0.1
	c0-0.1,0-0.1,0.1-0.1c0,0,0,0,0,0l0,0h-0.1c-0.1,0-0.2-0.1-0.3-0.1c-0.2-0.1-0.4-0.1-0.6,0h0l0,0l0,0c-0.1,0-0.1,0-0.2,0l0,0l0,0
	c0-0.1,0.1-0.1,0.1-0.2c0.2-0.2,0.4-0.3,0.6-0.4l0.4-0.1c0.1-0.1,0.3-0.1,0.4-0.2c0.1,0,0.2-0.1,0.3-0.2c0.1-0.1,0.1-0.1,0.2-0.2
	c0.1,0,0.2,0,0.3,0h0.1c0,0,0.1,0,0.1,0l0,0c0,0,0,0,0,0c0-0.1,0-0.1,0-0.2c0-0.1,0-0.2,0-0.2c0,0-0.1-0.1-0.1-0.1
	c0-0.1,0.1-0.2,0.1-0.3c0,0,0,0,0-0.1l0,0c-0.1,0-0.2,0-0.4,0c0,0-0.1-0.1-0.1-0.1l0,0L18,28.9v0c-0.3-0.5-0.5-1.1-0.5-1.7
	c0,0,0-0.1,0-0.1c0-0.2,0-0.4,0.1-0.6c0.1-0.2,0.1-0.4,0.2-0.6c0.1-0.2,0.2-0.4,0.3-0.6c0.1-0.2,0.3-0.4,0.5-0.6
	c0.1-0.1,0.2-0.2,0.3-0.3c0.1-0.1,0.2-0.1,0.3-0.2c0,0,0-0.1,0-0.1c-0.1,0-0.1,0-0.2,0.1h-0.1c0,0-0.1,0-0.1,0.1l0,0l0,0l0.1-0.1
	l0,0h0l0,0l0,0l0,0l0.1-0.2l0,0c0,0,0.1-0.1,0.1-0.1l0.1-0.1c0,0,0.1-0.1,0-0.1S18.9,23.6,18.9,23.6"/>
<path d="M13.2,38.5c0-0.1,0-0.1-0.1-0.2c0-0.1,0-0.2,0-0.3c0,0,0-0.1,0-0.1c0,0,0-0.1-0.1-0.1l0,0l0,0l0,0c0,0.1,0,0.2,0,0.3v0.1
	c0,0.1,0,0.1,0,0.2v0.1c0,0.1,0,0.1,0,0.2l0,0c0,0.1,0.1,0.1,0.1,0.1l0,0l0,0l0,0l0,0c0-0.1,0-0.1-0.1-0.2
	C13.1,38.6,13.1,38.5,13.2,38.5"/>
<path d="M16.3,37.9h0.2c0.2,0,0.3,0,0.5,0l0,0c0-0.1-0.1-0.2-0.2-0.3h-0.1h-0.4c-0.2,0-0.4,0-0.6,0s-0.2,0-0.3,0H15h-0.5l-0.3,0.1
	l-0.2,0.1H14h-0.1c0,0-0.1,0.1-0.1,0.1h-0.1l0,0l-0.1,0.1l-0.1,0l0,0L13.5,38c0,0-0.1,0.1,0,0.1l0,0c0.1,0,0.1,0,0.1-0.1h0.1l0,0
	h0.1c0,0,0,0,0.1,0l0,0l0.1-0.1h0.1h0.1c0,0,0.1,0,0.1,0h0.1c0.2,0,0.4-0.1,0.6-0.1h0.2c0.2,0,0.4,0,0.5,0c0.1,0,0.3,0,0.4,0h0.4
	l0,0L16.3,37.9L16.3,37.9c-0.3-0.1-0.6-0.1-0.9,0c-0.1,0-0.2,0-0.3,0c-0.2,0.1-0.4,0.1-0.6,0.2c0,0-0.2,0.1-0.1,0.2
	c0.1,0,0.2,0,0.2,0h0.1l0,0h0.1h0.1c0.1,0,0.1-0.1,0.2-0.1H15l0,0c0.1,0,0.2,0,0.3,0l0.7-0.1h0.3"/>
<path d="M12,37.9c0,0-0.1,0-0.1,0c0,0,0-0.1,0-0.1c0,0,0,0,0.1-0.1l0,0H12l0,0C11.9,37.8,11.9,37.8,12,37.9l0.1,0l0,0L12,37.9
	 M12.3,37.5c0,0-0.1,0-0.1,0c-0.1,0-0.2,0-0.2,0.1l0,0l0,0c-0.1,0.1-0.1,0.2,0,0.2c0.1,0,0.1,0,0.2,0h0.1c0.1,0,0.3-0.1,0.2-0.2
	C12.5,37.5,12.4,37.5,12.3,37.5"/>
<path d="M46,30.8h-0.3v-5.4l0.3,0.1V30.8z M45.5,25.1h-0.3l0.1-0.2h0.1l0,0l0,0l0-0.1l0.1-0.1l0,0l0.1,0.1h0l0,0l0.1,0l0.2,0.3
	L45.5,25.1z M45.5,30.9h-0.4v-5.5l0.4,0V30.9L45.5,30.9z M45,30.9L44.6,31v-6l0.4,0.2V30.9L45,30.9z M44.4,24.6H44l0.1-0.2h0.1l0,0
	l0,0l0.1-0.1l0.1-0.1l0.1,0.1l0.1,0.1h-0.1l0,0l0.1,0.1l0.1,0.3L44.4,24.6z M44.4,31h-0.5v-6l0.5-0.1V31L44.4,31z M44.1,24.4
	L44.1,24.4L44.1,24.4L44.1,24.4L44.1,24.4z M43.8,31.1l-0.4,0.1v-6.9l0.4,0.2V31.1L43.8,31.1z M43.1,24l-0.5,0.1l0.1-0.2l0.2,0v-0.1
	h-0.1l0.1-0.1l0.2-0.1l0.1,0.1l0.1,0.2h-0.1l0,0l0.1,0.1l0.2,0.2L43.1,24z M43.1,31.2H42v-6.9l1.1-0.1L43.1,31.2L43.1,31.2z
	 M37.9,24.6l1.8-1.1l2.1,0.7L37.9,24.6 M41.8,24.6L37.6,25v-0.2l4.2-0.4V24.6z M41.8,31.2h-1.5v-1.4l0,0c-0.1,0-0.1,0-0.1-0.1
	c0-0.1,0-0.1,0.1-0.1l0,0v-0.1c0-0.4-0.2-0.7-0.6-0.8c-0.4,0-0.7,0.2-0.8,0.6c0,0.1,0,0.1,0,0.2v0.1c0.1,0,0.1,0,0.1,0.1
	c0,0.1,0,0.1-0.1,0.1v1.3h-1.4v-6.1l4.2-0.3V31.2L41.8,31.2z M37.4,31.1h-1v-6.4l0.7-0.1l0.3,0.1L37.4,31.1L37.4,31.1z M36.6,24.4
	h0.1v-0.1h-0.1l0.1-0.1l0.2-0.1l0.2,0.1l0.1,0.1H37v0.1h0.1l0.1,0.1h-0.2h-0.4L36.6,24.4z M45.8,25L45.8,25L45.8,25L45.8,25
	l-0.1-0.2l0,0l0,0l0,0l-0.1-0.1l-0.1-0.1h-0.1l-0.1,0.1l0,0l0,0l0,0l-0.1,0.2h0.1l0,0l0,0V25l-0.2-0.1l-0.3-0.5l0,0l0,0H45l-0.2-0.2
	l0,0l0,0l0,0l-0.1-0.1L44.6,24h-0.1l-0.1,0.1l0,0l0,0l0,0l-0.1,0.2l-0.5,0l-0.5-0.5h0l0,0h0.1l-0.2-0.3l0,0l0,0h0l-0.1-0.1L43,23.3
	h-0.1l-0.1,0.2l0,0l0,0l0,0l-0.2,0.3h0.1l0,0l0,0L42.4,24h-0.2l-2.5-0.8l0,0l-2.3,1.3l0,0l-0.1-0.2l0,0l0,0h0.1l-0.2-0.2l0,0l0,0
	l0,0L37.2,24L37,24h-0.1l-0.1,0.1l0,0l0,0l0,0l-0.2,0.2h0.1l0,0l0,0l-0.1,0.2h-0.2v0.3l0,0v6.3l0,0v0.2l7.1,0.1l0.8-0.1v-0.1h0.4
	l0.7-0.1V31h0.4l0.6-0.1v-0.1l0,0v-5.1l0,0v-0.2l-0.2-0.1L45.8,25z"/>
<polygon points="36.6,29.2 36.6,29.7 36.9,29.7 36.9,29.2 "/>
<path d="M36.6,27v0.8h0.2v-0.8c0-0.1,0.1-0.2,0.2-0.2h0.1c0-0.1-0.1-0.2-0.2-0.2C36.7,26.7,36.6,26.8,36.6,27"/>
<polygon points="42.3,29.1 42.3,29.6 42.7,29.6 42.7,29.1 "/>
<path d="M42.5,26.7c0-0.1,0.1-0.2,0.2-0.2c0,0,0.1,0,0.1,0h0.1c0-0.1-0.1-0.2-0.3-0.2c-0.2,0-0.4,0.1-0.4,0.3v0.9h0.2V26.7z"/>
<polygon points="39,26 39.3,26.2 39.3,27.5 39.9,27.4 39.9,25.9 "/>
<path d="M26.5,13.9c0.1,0,0.2,0,0.3,0c0,0,0.1,0,0.1-0.1c0,0,0-0.1-0.1-0.1c-0.1,0-0.1,0-0.2,0c0,0,0,0-0.1,0
	C26.5,13.8,26.5,13.8,26.5,13.9"/>
<path d="M26.8,15.1C26.8,15.1,26.8,15.1,26.8,15.1c0.1,0.1,0.1,0.1,0.2,0.1h0.3c0,0,0.1,0,0.2,0s0.1,0,0.2,0h0.3c0,0,0.1,0,0.1,0
	c0,0,0,0,0-0.1c0,0,0-0.1-0.1-0.1c0,0,0,0,0,0c0,0-0.1,0-0.1,0c0,0-0.1,0-0.1,0c-0.1,0-0.1-0.1-0.2-0.1c0,0-0.1,0-0.1,0
	s-0.1,0-0.1,0c-0.1,0-0.1,0-0.2,0.1c0,0-0.1,0-0.1,0c0,0-0.1,0-0.1,0C26.8,15,26.8,15,26.8,15.1C26.8,15.1,26.8,15.1,26.8,15.1"/>
<path d="M27,14.5h0.1c0,0,0.1,0,0.1,0c0,0,0.1,0.1,0.2,0.1c0,0,0.1,0,0.1,0c0,0,0.1,0,0.1,0h0.1c0,0,0.1,0,0.1-0.1
	c0-0.1,0-0.2-0.1-0.2c0,0-0.1-0.1-0.1-0.1c0,0-0.1,0.1-0.1,0.1c0,0.1-0.1,0.1-0.2,0.1c-0.1,0-0.2-0.1-0.2-0.1H27
	c0,0-0.1,0.1-0.1,0.1C27,14.4,27,14.5,27,14.5"/>
<path d="M29.8,33.4c0,0.4-0.1,0.4-0.1,1.6s-0.4,5.1-0.5,5.6c0.2-0.1,0.4-0.1,0.6-0.2c0-1,0.1-6.5,0.1-6.8S29.8,33,29.8,33.4"/>
<path d="M28.8,37.4c-0.1,0.4-0.8,3-0.9,3.3c0.2,0,0.4,0,0.7-0.1C28.5,40.4,28.8,37.6,28.8,37.4C28.9,37.2,28.8,37.4,28.8,37.4"/>
<path d="M28,13.9c0.1,0,0.2,0,0.3,0c0,0,0,0,0-0.1c0,0,0,0-0.1,0C28.1,13.9,28,13.9,28,13.9C27.9,13.9,27.9,13.9,28,13.9
	C27.9,13.9,27.9,14,28,13.9"/>
<path d="M27.5,15.3h-0.1h-0.1c0,0-0.1,0-0.1,0c0,0,0,0.1,0,0.1c0,0,0,0,0,0c0.1,0,0.1,0,0.2,0c0.1,0,0.1,0,0.2,0
	C27.6,15.4,27.6,15.4,27.5,15.3C27.5,15.3,27.5,15.3,27.5,15.3"/>
<path d="M23.6,22.6c0.2,0,0.4,0.1,0.5,0.2L24,22.3l-0.1,0.1C23.8,22.5,23.8,22.5,23.6,22.6L23.6,22.6z"/>
<path d="M30.9,22.4l-0.1-0.1l-0.1,0.4c0.1-0.1,0.3-0.2,0.5-0.2l0,0C31.1,22.6,31.1,22.5,30.9,22.4"/>
<path d="M43.5,19.5L43.5,19.5L43.5,19.5c0-2-1.6-3.7-3.7-3.7s-3.7,1.6-3.7,3.7l0,0h-0.6c-0.1-2.3,1.7-4.2,3.9-4.2c0.1,0,0.2,0,0.4,0
	c2.3-0.1,4.2,1.6,4.3,3.9c0,0.1,0,0.2,0,0.3H43.5z M43.3,19.5h-0.4l0,0l0,0c-0.1-1.7-1.6-3-3.3-2.9c-1.6,0.1-2.8,1.4-2.9,2.9l0,0
	l0,0h-0.4l0,0l0,0c0-1.9,1.6-3.5,3.5-3.5S43.3,17.6,43.3,19.5C43.3,19.5,43.3,19.5,43.3,19.5z M42.7,19.5h-0.4l0,0
	c0-1.4-1.1-2.5-2.6-2.5c-1.4,0-2.5,1.1-2.5,2.5l0,0l0,0h-0.4l0,0l0,0c0-1.6,1.3-2.9,2.9-2.9C41.4,16.6,42.7,17.9,42.7,19.5
	C42.7,19.5,42.7,19.5,42.7,19.5z M42.2,19.5h-0.4c0-1.1-0.9-2-2-2s-2,0.9-2,2h-0.4c-0.1-1.3,0.9-2.4,2.2-2.5
	c1.3-0.1,2.4,0.9,2.5,2.2C42.2,19.3,42.2,19.4,42.2,19.5L42.2,19.5L42.2,19.5z M41.3,19.5c0-0.8-0.7-1.5-1.5-1.5
	c-0.8,0-1.5,0.7-1.5,1.5H38c0-1,0.8-1.8,1.8-1.8c1,0,1.8,0.8,1.8,1.8H41.3L41.3,19.5z M40.7,19.5c-0.1-0.5-0.5-0.8-1-0.8
	c-0.4,0-0.7,0.4-0.8,0.8h-0.4c0.1-0.7,0.7-1.2,1.4-1.2c0.6,0.1,1.1,0.6,1.2,1.2C41.1,19.5,40.7,19.5,40.7,19.5z M39.1,19.5
	c0-0.4,0.3-0.7,0.7-0.7c0.4,0,0.7,0.3,0.7,0.7C40.5,19.5,39.1,19.5,39.1,19.5z M39.8,15.1c-2.4-0.1-4.4,1.8-4.5,4.2
	c0,0.1,0,0.2,0,0.3v0.2h9v-0.2c0.1-2.4-1.8-4.4-4.2-4.5C40,15.1,39.9,15.1,39.8,15.1"/>
</svg>
