<?xml version="1.0" encoding="utf-8"?>
<!-- Generator: Adobe Illustrator 19.2.1, SVG Export Plug-In . SVG Version: 6.00 Build 0)  -->
<svg version="1.1" id="Layer_1" xmlns="http://www.w3.org/2000/svg" xmlns:xlink="http://www.w3.org/1999/xlink" x="0px" y="0px"
	 viewBox="0 0 83 38" style="enable-background:new 0 0 83 38;" xml:space="preserve">
<style type="text/css">
	.st0{fill:#FFFFFF;}
</style>
<path class="st0" d="M16.1,30c7.8,0,14-6.3,14-14s-6.3-14-14-14c-7.8,0-14,6.3-14,14S8.4,30,16.1,30"/>
<path d="M6.9,6.7h4.7l6.1,18.1h-3.4c0,0-3.4-9.7-3.6-10.2v10.2H6.9V6.7z M20.3,6.7H25v18.1h-3.8V14.6C21.1,15,19,21,18.3,23
	l-1.7-5.1L20.3,6.7z M15.9,30.9c8.3,0,15.1-6.8,15.1-15.1S24.2,0.6,15.9,0.6S0.8,7.4,0.8,15.8S7.6,30.9,15.9,30.9"/>
<path d="M43.1,33.8l-3-8.7h-3.2v12.1h2.3v-7.6c0.1,0.4,2.7,7.6,2.7,7.6h2.3c0.9-2.6,2.6-7.3,2.7-7.6c0,0.9,0,7.6,0,7.6h2.3V25H46
	L43.1,33.8z"/>
<path d="M71.4,28.4c-0.7,0-1.2,0.5-2,1.9c0-0.3-0.1-1.7-0.1-1.7h-2.1v8.8h2.4v-4c0-0.6,0.2-1.1,0.6-1.6c0.3-0.4,0.7-0.6,1-0.6
	c0.2,0,0.4,0.1,0.6,0.2l0.1,0.1l0.8-2.3l0,0C72.3,28.5,71.9,28.4,71.4,28.4"/>
<path d="M77.7,35.6c-1.1,0-2-1.2-2-2.7c0-1.5,0.9-2.7,2-2.7c1.1,0,2,1.2,2,2.7C79.7,34.2,78.8,35.6,77.7,35.6 M77.7,28.1
	c-2.5,0-4.4,2-4.4,4.6s1.9,4.6,4.4,4.6s4.5-2,4.5-4.6S80.3,28.1,77.7,28.1"/>
<path d="M65.3,36.7l0.6-0.4l0,0l-0.7-1.7h-0.1c-0.6,0.4-0.9,0.5-1.2,0.5c-0.3,0-0.4-0.2-0.4-1.2V30h1.9v-1.8h-1.9v-2.6l-0.1-0.4
	l-2.2,0.4v2.6L60,28.6v1.5h1.3v5.3c0,1.3,0.6,1.9,1.8,1.9c0.6,0,1.3-0.2,2-0.6L65.3,36.7z"/>
<path d="M55.1,29.9c1,0,1.4,0.5,1.5,1.7h-3.3C53.5,30.6,54.2,29.9,55.1,29.9 M59,36.3L59,36.3l-0.8-1.8h-0.1
	c-0.8,0.5-1.1,0.7-1.7,0.8c-0.3,0.1-0.6,0.1-1,0.1c-0.8,0-1.5-0.4-1.9-1c-0.2-0.3-0.3-0.6-0.3-1.3H59v-1c0-2.4-1.5-4-3.7-4
	c-2.5,0-4.4,2.1-4.4,4.8c0,2.7,1.7,4.4,4.3,4.4c1,0,2-0.2,2.9-0.6C58.2,36.7,58.5,36.6,59,36.3"/>
</svg>
