<?xml version="1.0" encoding="utf-8"?>
<!-- Generator: Adobe Illustrator 21.0.2, SVG Export Plug-In . SVG Version: 6.00 Build 0)  -->
<svg version="1.1" id="Layer_1" xmlns="http://www.w3.org/2000/svg" xmlns:xlink="http://www.w3.org/1999/xlink" x="0px" y="0px"
	 viewBox="0 0 1202 1202" style="enable-background:new 0 0 1202 1202;" xml:space="preserve">
<style type="text/css">
	.st-portrait-0{fill:none;stroke:#FFF8B9;stroke-width:1.5;stroke-linecap:round;stroke-linejoin:round;stroke-miterlimit:10;}
	.st-portrait-1{fill:#FFF8B9;}
	.st-portrait-2{font-family:'UnitOffc-Bold';}
	.st-portrait-3{font-size:33.3684px;}
	.st-portrait-4{letter-spacing:1;}
	.st-portrait-5{fill:none;stroke:#FFF8B9;stroke-width:5;stroke-linecap:round;stroke-linejoin:round;stroke-miterlimit:10;}
	.st-portrait-6{fill:none;stroke:#FFF8B9;stroke-width:3;stroke-linecap:round;stroke-linejoin:round;stroke-miterlimit:10;}
	.st-portrait-7{fill:none;stroke:#FFFFFF;stroke-width:2.5;stroke-linecap:round;stroke-linejoin:round;stroke-miterlimit:10;}
	.st-portrait-8{fill:none;stroke:#EC0E69;stroke-width:2.5;stroke-linecap:round;stroke-linejoin:round;stroke-miterlimit:10;}
	.st-portrait-9{fill:none;stroke:#00B8F1;stroke-width:2.5;stroke-linecap:round;stroke-linejoin:round;stroke-miterlimit:10;}
	.st-portrait-10{fill:none;stroke:#EC0E69;stroke-width:2.254;stroke-linecap:round;stroke-linejoin:round;stroke-miterlimit:10;}
	.st-portrait-11{fill:none;stroke:#FFFFFF;stroke-width:2.254;stroke-linecap:round;stroke-linejoin:round;stroke-miterlimit:10;}
	.st-portrait-12{fill:none;stroke:#00B8F1;stroke-width:2.254;stroke-linecap:round;stroke-linejoin:round;stroke-miterlimit:10;}
	.st-portrait-13{fill:none;stroke:#FFF8B9;stroke-width:1.0403;stroke-linecap:round;stroke-linejoin:round;stroke-miterlimit:10;}
	.st-portrait-14{fill:#FFFFFF;}
</style>
<line class="st-portrait-0" x1="531.3" y1="-113.4" x2="606.2" y2="160.5"/>
<line class="st-portrait-0" x1="425.3" y1="-71.9" x2="568.5" y2="173.3"/>
<line class="st-portrait-0" x1="338" y1="-1.4" x2="539.8" y2="198.3"/>
<line class="st-portrait-0" x1="269" y1="89" x2="515.7" y2="229.7"/>
<line class="st-portrait-0" x1="644.7" y1="-127.2" x2="643.2" y2="156.8"/>
<line class="st-portrait-0" x1="756.4" y1="-112.4" x2="681.5" y2="161.6"/>
<line class="st-portrait-0" x1="860.6" y1="-68" x2="717.3" y2="177.2"/>
<line class="st-portrait-0" x1="950" y1="-0.1" x2="748.2" y2="199.7"/>
<line class="st-portrait-0" x1="1017.2" y1="89.3" x2="770.5" y2="230"/>
<line class="st-portrait-0" x1="787.3" y1="266.1" x2="1061.3" y2="191.2"/>
<text transform="matrix(0.9659 -0.2588 0.2588 0.9659 836.0634 846.3786)" class="st-portrait-1 st2 st3 st4">#Go4thDTLA</text>
<path class="st-portrait-5" d="M114.6,494.7L98,432.9l8.6-166.7l75.8-20.3l-8.5,170.3l36.9-9.9l-20.2-75.4l68.3-31.6l23.5,87.8l13.9-3.7
	l15.7,58.4l-13.9,3.7l12.7,47.5l-71.6,19.2l-12.7-47.5L114.6,494.7z"/>
<g>
	<path class="st-portrait-5" d="M316.5,311.5l-20.2,5.4l-7.1-26.6l72.9-19.5l7.1,26.6l-20.2,5.4l21.9,81.9l-32.4,8.7L316.5,311.5z"/>
	<path class="st-portrait-5" d="M371.7,268.2l32.4-8.7l10.2,38.2l15.4-4.1l-10.2-38.2l32.4-8.7l29.1,108.5l-32.4,8.7l-11.8-44.1l-15.4,4.1
		l11.8,44.1l-32.4,8.7L371.7,268.2z"/>
</g>
<g>
	<path class="st-portrait-6" d="M283,595.2c-13.3,3.6-22.2-2.9-26.6-19.4c-2.2-8.4-2.2-15,0-20c2.2-4.9,6.8-8.3,13.6-10.1
		c6.7-1.8,12.2-1.1,16.5,2.1c4.2,3.2,7.5,9,9.7,17.4c2.2,8.3,2.3,15,0.2,19.9C294.3,590.1,289.8,593.4,283,595.2z M280,584
		c1-0.3,1.8-0.7,2.3-1.3c0.5-0.6,0.9-1.5,0.9-2.7c0.1-1.2-0.1-2.7-0.4-4.6c-0.4-1.9-0.9-4.2-1.7-7c-0.7-2.6-1.4-4.8-1.9-6.4
		c-0.6-1.6-1.2-2.9-1.8-3.7c-0.6-0.8-1.3-1.3-2.1-1.5c-0.8-0.2-1.6-0.1-2.6,0.2c-1,0.3-1.8,0.7-2.4,1.3c-0.5,0.6-0.8,1.4-0.9,2.5
		c-0.1,1.1,0,2.5,0.3,4.3c0.3,1.7,0.8,3.9,1.5,6.6c0.7,2.7,1.4,5,2,6.7c0.6,1.7,1.2,3.1,1.9,4c0.6,1,1.3,1.5,2.1,1.8
		C278,584.3,278.9,584.3,280,584z"/>
	<path class="st-portrait-6" d="M294.2,540.2l27.3-7.3l3.1,11.7l-13.2,3.5l1.6,6.1l10.1-2.7l3,11.1l-10.1,2.7l5,18.7l-14.2,3.8L294.2,540.2z"
		/>
</g>
<g>
	<path class="st-portrait-5" d="M366.5,620c3.4-4.2,6.1-8,8.2-11.4c2.1-3.4,3.5-6.9,4.3-10.4c0.8-3.5,1-7.3,0.6-11.4
		c-0.4-4.1-1.3-9.1-2.9-14.8l-40.9-152.8l52.6-14.1l43.3,161.4c4.4,16.5,3.7,31.5-2.1,44.8c-5.8,13.3-17.7,25.7-35.6,37.2L366.5,620
		z"/>
	<path class="st-portrait-5" d="M485.3,379.1l52.6-14.1l47.3,176.3l-37.2,10l-9.1-10.8c-2.7,5.4-6.4,10.4-11.1,14.9c-4.7,4.5-11.8,8-21.4,10.6
		c-17.4,4.7-31.4,3-42.2-5.1c-10.7-8.1-18.9-22.6-24.6-43.7l-31.5-117.4l52.6-14.1l33.2,124c1.2,4.4,2.9,7.5,5.2,9.3
		c2.3,1.8,5.6,2.2,9.8,1c2.9-0.8,5.2-1.8,7.1-3c1.8-1.2,3.5-2.7,5-4.6L485.3,379.1z"/>
	<path class="st-portrait-5" d="M558.1,359.5l52.6-14.1l35.5,132.3l49.3-13.2l11.8,44l-102,27.3L558.1,359.5z"/>
	<path class="st-portrait-5" d="M718.6,424.2l-70.4-88.8l54.6-14.6l19.6,29.5c2.9,4.3,5.7,9,8.1,14.1s4.7,10.6,6.8,16.3
		c-0.7-6.1-1.5-12-2.1-17.6c-0.7-5.6-0.9-11-0.7-16.1l2-35.2l52.1-14l-17.8,110.8l20.7,77.4L739,500.1L718.6,424.2z"/>
</g>
<g>
	<path class="st-portrait-5" d="M472.1,602.9l52.1-14c4.8-1.3,9.5-2,14.1-2.1c4.6-0.1,8.9,0.6,12.7,2.2c3.8,1.6,7.3,4.2,10.3,8
		c3,3.7,5.4,8.7,7.1,14.9c1,3.7,1.6,6.9,1.8,9.8c0.2,2.9,0,5.6-0.7,8.1c-0.7,2.5-2,4.8-4,7.1c-2,2.2-4.6,4.5-8,6.7
		c7.7-0.1,14.2,1.6,19.3,5c5.2,3.5,9.1,10,11.6,19.5c1.7,6.4,2.5,12.1,2.3,17.3c-0.2,5.2-1.6,9.8-4.3,13.8
		c-2.6,4.1-6.6,7.6-11.9,10.8c-5.3,3.1-12.1,5.8-20.4,8l-47.9,12.8L472.1,602.9z M544.3,688.8c5.4-1.4,7-6.3,4.8-14.5
		c-0.8-3.1-2.2-5.4-4.2-7.1c-1.9-1.6-4.5-2-7.7-1.2l-8.6,2.3l6.1,22.9L544.3,688.8z M529.3,640.3c5.4-1.4,7.1-5.7,5.2-12.8
		c-1.6-6-5.1-8.3-10.5-6.8l-7.5,2l5.3,19.6L529.3,640.3z"/>
	<path class="st-portrait-5" d="M575.4,575.3l38.2-10.2l25.7,96l35.8-9.6l8.6,31.9l-74,19.8L575.4,575.3z"/>
	<path class="st-portrait-5" d="M742.3,670.2c-35.7,9.6-59.5-7.8-71.4-52.1c-6-22.5-6-40.4,0-53.6c6-13.2,18.2-22.3,36.4-27.2
		c18.1-4.9,32.8-3,44.2,5.7c11.4,8.6,20.1,24.2,26.1,46.7c6,22.4,6.2,40.2,0.5,53.4C772.5,656.3,760.5,665.3,742.3,670.2z
		 M734,640.2c2.7-0.7,4.8-1.9,6.2-3.5c1.5-1.6,2.3-4.1,2.5-7.3c0.2-3.2-0.2-7.3-1.2-12.4c-1-5.1-2.4-11.3-4.4-18.8
		c-1.9-7.1-3.6-12.8-5.2-17.2c-1.6-4.4-3.2-7.7-4.8-9.9c-1.7-2.2-3.5-3.6-5.5-4c-2-0.4-4.4-0.3-7.1,0.4c-2.8,0.8-4.9,1.9-6.4,3.4
		c-1.4,1.5-2.3,3.7-2.5,6.7c-0.3,3,0,6.8,0.9,11.5c0.9,4.7,2.2,10.6,4.1,17.7c2,7.3,3.8,13.4,5.4,18c1.6,4.7,3.3,8.3,5.1,10.8
		c1.7,2.6,3.6,4.2,5.6,4.8C728.8,641,731.2,640.9,734,640.2z"/>
	<path class="st-portrait-5" d="M858.3,639.1c-10.3,2.8-19.2,3.7-26.9,2.8c-7.7-0.9-14.3-3.6-20-8.1c-5.7-4.5-10.5-10.7-14.5-18.5
		c-4-7.8-7.5-17.4-10.5-28.7c-3.5-13-5.1-24-4.9-33.2c0.2-9.2,2-16.9,5.2-23c3.3-6.2,7.9-11.1,13.8-14.8c6-3.7,13-6.6,21.1-8.8
		c9.3-2.5,16.9-3.4,22.9-2.7c6,0.7,10.8,2,14.6,3.9l-6.4,31.2c-3-1.4-6-2.4-8.9-2.9c-3-0.5-6.2-0.3-9.8,0.6c-2.8,0.8-5.1,1.8-7,3
		c-1.8,1.3-3.1,3.2-3.7,5.9c-0.7,2.7-0.7,6.2-0.2,10.7c0.5,4.5,1.7,10.2,3.6,17.1c2.3,8.4,4.4,15.1,6.3,19.9c1.9,4.8,3.9,8.3,6,10.5
		c2,2.2,4.2,3.4,6.5,3.7c2.3,0.2,4.8,0,7.7-0.8c3.8-1,6.8-2.5,9-4.6c2.2-2,4.1-4.4,5.6-7l21.6,22.5c-2.6,4.4-6.4,8.5-11.3,12.3
		C873.2,633.9,866.6,636.9,858.3,639.1z"/>
	<path class="st-portrait-5" d="M924.3,481.8l37.4-10L951,535l49.3,63.5l-40.4,10.8L921.3,555l16.2,60.4l-38.2,10.2L865,497.7l38.2-10.2
		L917,539L924.3,481.8z"/>
</g>
<g>
	<path class="st-portrait-5" d="M334.6,801.9l38.5-10.3c6.9-1.9,13.3-2.9,19.1-3.2c5.8-0.2,10.9,0.6,15.3,2.4c4.5,1.9,8.3,4.9,11.5,9.2
		c3.2,4.3,5.8,10,7.7,17.1c1.9,7.1,2.7,13.3,2.5,18.6c-0.2,5.4-1.6,10.1-4.3,14.1c-2.6,4-6.6,7.5-11.8,10.3
		c-5.2,2.9-12,5.4-20.3,7.6l-3.5,0.9l10.4,39l-34.4,9.2L334.6,801.9z M388.4,841.5c3.3-0.9,5.4-2.3,6.3-4.3c0.9-2,0.7-5.4-0.6-10.3
		c-1.2-4.6-2.8-7.4-4.7-8.4c-1.9-1-4.2-1.1-6.8-0.4l-6.3,1.7l6.2,23.3L388.4,841.5z"/>
	<path class="st-portrait-5" d="M475.6,887.5l-32.7,8.8l-1.4-123l36.3-9.7l58.8,107.6l-36.5,9.8l-6-13.6l-19.8,5.3L475.6,887.5z M474.1,821.7
		c-1.4-2.9-2.7-6.3-4-10c-1.3-3.7-2.3-6.7-3-8.8l-0.2,0c0.3,1.1,0.6,2.5,0.9,4.1c0.3,1.6,0.6,3.3,0.9,5.2c0.3,1.8,0.6,3.6,0.8,5.4
		c0.2,1.8,0.4,3.5,0.5,5.2l2.1,25.1l11.9-3.2L474.1,821.7z"/>
	<path class="st-portrait-5" d="M512.7,754.2l41.8-11.2c7.9-2.1,14.7-3.2,20.4-3.2c5.7,0,10.4,0.9,14.4,2.9c3.9,2,7.2,4.8,9.7,8.7
		c2.5,3.8,4.5,8.5,6,14.1c1.2,4.6,1.8,8.7,1.8,12.2c-0.1,3.5-0.6,6.5-1.6,9.1c-1,2.6-2.5,4.8-4.3,6.6c-1.9,1.9-4,3.5-6.3,5
		c2.2,0,4.3,0.2,6.2,0.7c1.9,0.5,3.7,1.3,5.5,2.5c1.7,1.2,3.4,2.8,5,4.8c1.6,2,3.2,4.5,4.9,7.6l16.6,31.5l-36.3,9.7l-16-33.4
		c-1.6-3.2-3.1-5.2-4.5-6c-1.5-0.8-3.4-0.8-6-0.2l-3.5,0.9l11.7,43.6l-34.4,9.2L512.7,754.2z M567.3,790.2c5.6-1.5,7.4-5.9,5.5-13.2
		c-1.7-6.4-5.3-8.9-10.7-7.4l-7.9,2.1l5.5,20.5L567.3,790.2z"/>
	<path class="st-portrait-5" d="M634.2,751.9l-21.5,5.8l-7.6-28.2l77.3-20.7L690,737l-21.5,5.8l23.3,86.9l-34.3,9.2L634.2,751.9z"/>
	<path class="st-portrait-5" d="M734.2,765.1l-46-58l35.7-9.6l12.8,19.2c1.9,2.8,3.7,5.9,5.3,9.2c1.6,3.3,3.1,6.9,4.5,10.7
		c-0.5-4-0.9-7.8-1.4-11.5c-0.4-3.7-0.6-7.2-0.4-10.5l1.3-23l34-9.1L768.3,755l13.5,50.5l-34.4,9.2L734.2,765.1z"/>
</g>
<g>
	
		<rect x="890.1" y="678" transform="matrix(0.9659 -0.2588 0.2588 0.9659 -152.9516 258.8788)" class="st-portrait-7" width="33.2" height="64.7"/>
	
		<rect x="856.3" y="688.5" transform="matrix(0.9659 -0.2588 0.2588 0.9659 -156.99 249.1292)" class="st-portrait-7" width="22.7" height="64.7"/>
	
		<rect x="830.6" y="696.5" transform="matrix(0.9659 -0.2588 0.2588 0.9659 -160.0869 241.6525)" class="st-portrait-8" width="14.3" height="64.7"/>
	
		<rect x="807.9" y="703" transform="matrix(0.9659 -0.2588 0.2588 0.9659 -162.6004 235.5844)" class="st-portrait-8" width="11" height="64.7"/>
	<polygon class="st-portrait-9" points="1100.6,658.4 981.4,630.8 987.9,655.1 926.4,671.6 943.2,734 1004.7,717.6 1011.2,741.8 	"/>
</g>
<g>
	
		<rect x="356.8" y="665.6" transform="matrix(0.9659 -0.2588 0.2588 0.9659 -167.9177 120.426)" class="st-portrait-7" width="33.2" height="64.7"/>
	
		<rect x="401.1" y="655.1" transform="matrix(0.9659 -0.2588 0.2588 0.9659 -163.8793 130.1755)" class="st-portrait-7" width="22.7" height="64.7"/>
	
		<rect x="435.2" y="647.1" transform="matrix(0.9659 -0.2588 0.2588 0.9659 -160.7824 137.6522)" class="st-portrait-8" width="14.3" height="64.7"/>
	
		<rect x="461.2" y="640.6" transform="matrix(0.9659 -0.2588 0.2588 0.9659 -158.2689 143.7203)" class="st-portrait-8" width="11" height="64.7"/>
	<polygon class="st-portrait-9" points="179.5,749.9 298.7,777.4 292.2,753.2 353.7,736.7 336.9,674.2 275.4,690.7 268.9,666.5 	"/>
</g>
<g>
	<g>
		<g>
			<path class="st-portrait-10" d="M646.3,312.8L646.3,312.8c-5.5,1.5-11.1-2-12.2-7.6l-14.2-74.1c-0.4-2.2,0.9-4.4,3.1-5v0
				c2.2-0.6,4.5,0.6,5.2,2.8l24.8,71.2C654.9,305.5,651.8,311.3,646.3,312.8z"/>
			<path class="st-portrait-11" d="M621.5,220.1L621.5,220.1c-1.9,0.5-3.8-0.7-4.2-2.6l-4.9-25.6c-0.1-0.8,0.3-1.5,1.1-1.7l0,0
				c0.8-0.2,1.5,0.2,1.8,1l8.6,24.6C624.4,217.6,623.4,219.6,621.5,220.1z"/>
			<path class="st-portrait-12" d="M611.8,184.2L611.8,184.2c-0.9,0.2-1.8-0.3-2-1.2l-2.3-12.1c-0.1-0.4,0.2-0.7,0.5-0.8l0,0
				c0.4-0.1,0.7,0.1,0.8,0.4l4,11.6C613.2,183,612.7,184,611.8,184.2z"/>
		</g>
		<g>
			<path class="st-portrait-10" d="M648.6,311.8L648.6,311.8c-4.9,2.9-11.3,0.9-13.7-4.2L602,239.7c-1-2-0.2-4.5,1.7-5.6l0,0
				c2-1.1,4.5-0.6,5.7,1.3l42.4,62.4C655.1,302.5,653.6,308.9,648.6,311.8z"/>
			<path class="st-portrait-11" d="M600.7,228.7L600.7,228.7c-1.7,1-3.9,0.3-4.8-1.5l-11.4-23.5c-0.3-0.7-0.1-1.6,0.6-1.9l0,0
				c0.7-0.4,1.5-0.2,2,0.5l14.6,21.6C602.9,225.5,602.4,227.8,600.7,228.7z"/>
			<path class="st-portrait-12" d="M582.1,196.6L582.1,196.6c-0.8,0.5-1.8,0.1-2.2-0.7l-5.4-11.1c-0.2-0.3,0-0.7,0.3-0.9l0,0
				c0.3-0.2,0.7-0.1,0.9,0.2l6.9,10.2C583.2,195,582.9,196.1,582.1,196.6z"/>
		</g>
		<g>
			<path class="st-portrait-10" d="M650.7,310.2L650.7,310.2c-4,4-10.6,3.8-14.4-0.5L587,252.6c-1.5-1.7-1.4-4.3,0.2-5.9l0,0
				c1.6-1.6,4.2-1.7,5.9-0.2l57.1,49.3C654.5,299.6,654.7,306.2,650.7,310.2z"/>
			<path class="st-portrait-11" d="M582.9,242.4L582.9,242.4c-1.4,1.4-3.7,1.3-5-0.2l-17-19.7c-0.5-0.6-0.5-1.5,0.1-2l0,0
				c0.6-0.6,1.4-0.6,2-0.1l19.7,17C584.2,238.7,584.3,241,582.9,242.4z"/>
			<path class="st-portrait-12" d="M556.6,216.1L556.6,216.1c-0.7,0.7-1.7,0.6-2.3-0.1l-8.1-9.3c-0.2-0.3-0.2-0.7,0-1l0,0c0.3-0.3,0.7-0.3,1,0
				l9.3,8.1C557.2,214.4,557.2,215.5,556.6,216.1z"/>
		</g>
		<g>
			<path class="st-portrait-10" d="M652.2,308.2L652.2,308.2c-2.9,4.9-9.3,6.4-14,3.2l-62.4-42.4c-1.9-1.3-2.4-3.8-1.3-5.7l0,0
				c1.1-2,3.6-2.7,5.6-1.7l67.9,32.9C653.2,296.9,655.1,303.3,652.2,308.2z"/>
			<path class="st-portrait-11" d="M569.2,260.2L569.2,260.2c-1,1.7-3.2,2.2-4.8,1.1l-21.6-14.6c-0.6-0.4-0.8-1.3-0.5-2l0,0
				c0.4-0.7,1.2-0.9,1.9-0.6l23.5,11.4C569.5,256.4,570.2,258.5,569.2,260.2z"/>
			<path class="st-portrait-12" d="M537,241.7L537,241.7c-0.5,0.8-1.5,1-2.3,0.5l-10.2-6.9c-0.3-0.2-0.4-0.6-0.2-0.9l0,0
				c0.2-0.3,0.6-0.4,0.9-0.3l11.1,5.4C537.2,239.8,537.5,240.9,537,241.7z"/>
		</g>
		<g>
			<path class="st-portrait-10" d="M653.2,305.8L653.2,305.8c-1.5,5.5-7.3,8.6-12.7,6.7l-71.2-24.8c-2.1-0.7-3.3-3-2.8-5.2v0
				c0.6-2.2,2.8-3.5,5-3.1l74.1,14.2C651.2,294.7,654.7,300.3,653.2,305.8z"/>
			<path class="st-portrait-11" d="M560.6,281L560.6,281c-0.5,1.9-2.5,3-4.4,2.3l-24.6-8.6c-0.7-0.3-1.2-1-1-1.8l0,0c0.2-0.8,1-1.2,1.7-1.1
				l25.6,4.9C559.9,277.2,561.1,279.1,560.6,281z"/>
			<path class="st-portrait-12" d="M524.7,271.4L524.7,271.4c-0.2,0.9-1.2,1.4-2.1,1.1l-11.6-4c-0.3-0.1-0.5-0.5-0.4-0.8l0,0
				c0.1-0.4,0.5-0.6,0.8-0.5l12.1,2.3C524.4,269.6,524.9,270.5,524.7,271.4z"/>
		</g>
		<g>
			<path class="st-portrait-10" d="M653.6,303.3L653.6,303.3c0,5.7-4.8,10.2-10.5,9.8l-75.2-5.5c-2.3-0.2-4-2-4-4.3l0,0c0-2.3,1.7-4.1,4-4.3
				l75.2-5.5C648.7,293.1,653.6,297.6,653.6,303.3z"/>
			<path class="st-portrait-11" d="M557.7,303.3L557.7,303.3c0,2-1.7,3.5-3.6,3.4l-26-1.9c-0.8-0.1-1.4-0.7-1.4-1.5l0,0c0-0.8,0.6-1.4,1.4-1.5
				l26-1.9C556,299.8,557.7,301.3,557.7,303.3z"/>
			<path class="st-portrait-12" d="M520.5,303.3L520.5,303.3c0,0.9-0.8,1.7-1.7,1.6l-12.3-0.9c-0.4,0-0.7-0.3-0.7-0.7l0,0
				c0-0.4,0.3-0.7,0.7-0.7l12.3-0.9C519.7,301.6,520.5,302.4,520.5,303.3z"/>
		</g>
		<g>
			<path class="st-portrait-10" d="M653.2,300.8L653.2,300.8c1.5,5.5-2,11.1-7.6,12.2l-74.1,14.2c-2.2,0.4-4.4-0.9-5-3.1v0
				c-0.6-2.2,0.6-4.5,2.8-5.2l71.2-24.8C645.9,292.1,651.7,295.2,653.2,300.8z"/>
			<path class="st-portrait-11" d="M560.6,325.6L560.6,325.6c0.5,1.9-0.7,3.8-2.6,4.2l-25.6,4.9c-0.8,0.1-1.5-0.3-1.7-1.1l0,0
				c-0.2-0.8,0.2-1.5,1-1.8l24.6-8.6C558.1,322.6,560.1,323.7,560.6,325.6z"/>
			<path class="st-portrait-12" d="M524.7,335.2L524.7,335.2c0.2,0.9-0.3,1.8-1.2,2l-12.1,2.3c-0.4,0.1-0.7-0.2-0.8-0.5l0,0
				c-0.1-0.4,0.1-0.7,0.4-0.8l11.6-4C523.5,333.8,524.4,334.3,524.7,335.2z"/>
		</g>
	</g>
	<g>
		<g>
			<path class="st-portrait-10" d="M634.3,305.8L634.3,305.8c-1.5-5.5,2-11.1,7.6-12.2l74.1-14.2c2.2-0.4,4.4,0.9,5,3.1v0
				c0.6,2.2-0.6,4.5-2.8,5.2L647,312.6C641.6,314.4,635.7,311.3,634.3,305.8z"/>
			<path class="st-portrait-11" d="M726.9,281L726.9,281c-0.5-1.9,0.7-3.8,2.6-4.2l25.6-4.9c0.8-0.1,1.5,0.3,1.7,1.1l0,0
				c0.2,0.8-0.2,1.5-1,1.8l-24.6,8.6C729.4,284,727.4,282.9,726.9,281z"/>
			<path class="st-portrait-12" d="M762.8,271.4L762.8,271.4c-0.2-0.9,0.3-1.8,1.2-2l12.1-2.3c0.4-0.1,0.7,0.2,0.8,0.5l0,0
				c0.1,0.4-0.1,0.7-0.4,0.8l-11.6,4C764,272.8,763,272.3,762.8,271.4z"/>
		</g>
		<g>
			<path class="st-portrait-10" d="M635.2,308.2L635.2,308.2c-2.9-4.9-0.9-11.3,4.2-13.7l67.9-32.9c2-1,4.5-0.2,5.6,1.7l0,0
				c1.1,2,0.6,4.5-1.3,5.7l-62.4,42.4C644.5,314.6,638.1,313.1,635.2,308.2z"/>
			<path class="st-portrait-11" d="M718.3,260.2L718.3,260.2c-1-1.7-0.3-3.9,1.5-4.8l23.5-11.4c0.7-0.3,1.6-0.1,1.9,0.6l0,0
				c0.4,0.7,0.2,1.5-0.5,2l-21.6,14.6C721.5,262.5,719.3,262,718.3,260.2z"/>
			<path class="st-portrait-12" d="M750.5,241.7L750.5,241.7c-0.5-0.8-0.1-1.8,0.7-2.2l11.1-5.4c0.3-0.2,0.7,0,0.9,0.3l0,0
				c0.2,0.3,0.1,0.7-0.2,0.9l-10.2,6.9C752,242.7,750.9,242.5,750.5,241.7z"/>
		</g>
		<g>
			<path class="st-portrait-10" d="M636.8,310.2L636.8,310.2c-4-4-3.8-10.6,0.5-14.4l57.1-49.3c1.7-1.5,4.3-1.4,5.9,0.2h0
				c1.6,1.6,1.7,4.2,0.2,5.9l-49.3,57.1C647.4,314,640.8,314.3,636.8,310.2z"/>
			<path class="st-portrait-11" d="M704.6,242.4L704.6,242.4c-1.4-1.4-1.3-3.7,0.2-5l19.7-17c0.6-0.5,1.5-0.5,2,0.1l0,0c0.6,0.6,0.6,1.4,0.1,2
				l-17,19.7C708.3,243.7,706,243.8,704.6,242.4z"/>
			<path class="st-portrait-12" d="M730.9,216.1L730.9,216.1c-0.7-0.7-0.6-1.7,0.1-2.3l9.3-8.1c0.3-0.2,0.7-0.2,1,0l0,0c0.3,0.3,0.3,0.7,0,1
				l-8.1,9.3C732.6,216.8,731.6,216.8,730.9,216.1z"/>
		</g>
		<g>
			<path class="st-portrait-10" d="M638.8,311.8L638.8,311.8c-4.9-2.9-6.4-9.3-3.2-14l42.4-62.4c1.3-1.9,3.8-2.4,5.7-1.3l0,0
				c2,1.1,2.7,3.6,1.7,5.6l-32.9,67.9C650.1,312.7,643.8,314.6,638.8,311.8z"/>
			<path class="st-portrait-11" d="M686.8,228.7L686.8,228.7c-1.7-1-2.2-3.2-1.1-4.8l14.6-21.6c0.4-0.6,1.3-0.8,2-0.5l0,0
				c0.7,0.4,0.9,1.2,0.6,1.9l-11.4,23.5C690.7,229.1,688.5,229.7,686.8,228.7z"/>
			<path class="st-portrait-12" d="M705.4,196.6L705.4,196.6c-0.8-0.5-1-1.5-0.5-2.3l6.9-10.2c0.2-0.3,0.6-0.4,0.9-0.2l0,0
				c0.3,0.2,0.4,0.6,0.3,0.9l-5.4,11.1C707.2,196.7,706.2,197,705.4,196.6z"/>
		</g>
		<g>
			<path class="st-portrait-10" d="M641.2,312.8L641.2,312.8c-5.5-1.5-8.6-7.3-6.7-12.7l24.8-71.2c0.7-2.1,3-3.3,5.2-2.8l0,0
				c2.2,0.6,3.6,2.8,3.1,5l-14.2,74.1C652.3,310.7,646.7,314.2,641.2,312.8z"/>
			<path class="st-portrait-11" d="M666,220.1L666,220.1c-1.9-0.5-3-2.5-2.3-4.4l8.6-24.6c0.3-0.7,1-1.2,1.8-1l0,0c0.8,0.2,1.2,1,1.1,1.7
				l-4.9,25.6C669.9,219.4,667.9,220.6,666,220.1z"/>
			<path class="st-portrait-12" d="M675.6,184.2L675.6,184.2c-0.9-0.2-1.4-1.2-1.1-2.1l4-11.6c0.1-0.3,0.5-0.5,0.8-0.4l0,0
				c0.4,0.1,0.6,0.5,0.5,0.8l-2.3,12.1C677.5,183.9,676.5,184.5,675.6,184.2z"/>
		</g>
		<g>
			<path class="st-portrait-10" d="M643.7,313.1L643.7,313.1c-5.7,0-10.2-4.8-9.8-10.5l5.5-75.2c0.2-2.3,2-4,4.3-4l0,0c2.3,0,4.1,1.7,4.3,4
				l5.5,75.2C653.9,308.3,649.4,313.1,643.7,313.1z"/>
			<path class="st-portrait-11" d="M643.7,217.2L643.7,217.2c-2,0-3.5-1.7-3.4-3.6l1.9-26c0.1-0.8,0.7-1.4,1.5-1.4l0,0c0.8,0,1.4,0.6,1.5,1.4
				l1.9,26C647.3,215.5,645.7,217.2,643.7,217.2z"/>
			<path class="st-portrait-12" d="M643.7,180L643.7,180c-0.9,0-1.7-0.8-1.6-1.7L643,166c0-0.4,0.3-0.7,0.7-0.7l0,0c0.4,0,0.7,0.3,0.7,0.7
				l0.9,12.3C645.4,179.2,644.7,180,643.7,180z"/>
		</g>
	</g>
</g>
<line class="st-portrait-0" x1="764" y1="1542.4" x2="648.6" y2="1120.6"/>
<line class="st-portrait-0" x1="927.3" y1="1478.5" x2="706.7" y2="1100.9"/>
<line class="st-portrait-0" x1="1061.7" y1="1370" x2="750.9" y2="1062.4"/>
<line class="st-portrait-0" x1="1167.8" y1="1230.7" x2="788" y2="1014"/>
<line class="st-portrait-0" x1="589.5" y1="1563.6" x2="591.7" y2="1126.4"/>
<line class="st-portrait-0" x1="417.4" y1="1540.8" x2="532.8" y2="1119"/>
<line class="st-portrait-13" x1="257" y1="1472.4" x2="477.6" y2="1094.9"/>
<line class="st-portrait-0" x1="119.3" y1="1367.9" x2="430.1" y2="1060.3"/>
<line class="st-portrait-0" x1="15.9" y1="1230.3" x2="395.7" y2="1013.6"/>
<line class="st-portrait-0" x1="369.8" y1="958" x2="-52" y2="1073.4"/>
<line class="st-portrait-0" x1="1238.1" y1="1068.1" x2="815.1" y2="957.1"/>
<line class="st-portrait-0" x1="1258.8" y1="897.3" x2="821.6" y2="899.5"/>
<g>
	<g>
		<g>
			<path class="st-portrait-10" d="M587,886.2L587,886.2c8.5-2.3,17.1,3.1,18.8,11.8l21.8,114.1c0.7,3.4-1.4,6.8-4.8,7.7h0
				c-3.4,0.9-6.9-0.9-8-4.2l-38.1-109.7C573.8,897.4,578.5,888.4,587,886.2z"/>
			<path class="st-portrait-11" d="M625.2,1028.8L625.2,1028.8c2.9-0.8,5.9,1.1,6.5,4.1l7.5,39.4c0.2,1.2-0.5,2.3-1.7,2.7l0,0
				c-1.2,0.3-2.4-0.3-2.8-1.5l-13.2-37.9C620.6,1032.7,622.3,1029.6,625.2,1028.8z"/>
			<path class="st-portrait-12" d="M640,1084.1L640,1084.1c1.4-0.4,2.8,0.5,3.1,1.9l3.6,18.6c0.1,0.6-0.2,1.1-0.8,1.3l0,0
				c-0.5,0.1-1.1-0.2-1.3-0.7l-6.2-17.9C637.9,1085.9,638.6,1084.4,640,1084.1z"/>
		</g>
		<g>
			<path class="st-portrait-10" d="M583.4,887.7L583.4,887.7c7.6-4.4,17.3-1.4,21.2,6.5l50.6,104.5c1.5,3.1,0.4,6.9-2.7,8.7l0,0
				c-3,1.7-6.9,0.9-8.8-2l-65.2-96.1C573.5,902,575.8,892.1,583.4,887.7z"/>
			<path class="st-portrait-11" d="M657.2,1015.6L657.2,1015.6c2.6-1.5,6-0.5,7.3,2.2l17.5,36.1c0.5,1.1,0.1,2.4-0.9,3l0,0
				c-1,0.6-2.4,0.3-3.1-0.7l-22.5-33.2C653.8,1020.5,654.6,1017.1,657.2,1015.6z"/>
			<path class="st-portrait-12" d="M685.8,1065.1L685.8,1065.1c1.2-0.7,2.8-0.2,3.5,1.1l8.3,17.1c0.2,0.5,0.1,1.1-0.4,1.4l0,0
				c-0.5,0.3-1.1,0.1-1.4-0.3l-10.7-15.7C684.2,1067.5,684.6,1065.8,685.8,1065.1z"/>
		</g>
		<g>
			<path class="st-portrait-10" d="M580.2,890.1L580.2,890.1c6.2-6.2,16.4-5.8,22.1,0.8l75.9,87.9c2.3,2.6,2.1,6.6-0.3,9.1v0
				c-2.5,2.5-6.4,2.6-9.1,0.3L581,912.2C574.4,906.5,574,896.3,580.2,890.1z"/>
			<path class="st-portrait-11" d="M684.6,994.5L684.6,994.5c2.1-2.1,5.7-2,7.6,0.3l26.3,30.4c0.8,0.9,0.7,2.3-0.1,3.1l0,0
				c-0.9,0.9-2.2,0.9-3.1,0.1l-30.4-26.3C682.6,1000.2,682.5,996.6,684.6,994.5z"/>
			<path class="st-portrait-12" d="M725.1,1035L725.1,1035c1-1,2.7-1,3.6,0.1l12.4,14.4c0.4,0.4,0.3,1.1-0.1,1.5l0,0c-0.4,0.4-1,0.4-1.5,0.1
				l-14.4-12.4C724.2,1037.6,724.1,1036,725.1,1035z"/>
		</g>
		<g>
			<path class="st-portrait-10" d="M577.8,893.2L577.8,893.2c4.4-7.6,14.3-9.9,21.6-4.9l96.1,65.2c2.9,2,3.8,5.8,2,8.8l0,0
				c-1.7,3-5.5,4.2-8.7,2.7l-104.5-50.6C576.4,910.5,573.4,900.8,577.8,893.2z"/>
			<path class="st-portrait-11" d="M705.7,967L705.7,967c1.5-2.6,4.9-3.4,7.5-1.7l33.2,22.5c1,0.7,1.3,2,0.7,3.1l0,0c-0.6,1-1.9,1.4-3,0.9
				l-36.1-17.5C705.2,973,704.2,969.7,705.7,967z"/>
			<path class="st-portrait-12" d="M755.3,995.6L755.3,995.6c0.7-1.2,2.3-1.6,3.5-0.8l15.7,10.7c0.5,0.3,0.6,0.9,0.3,1.4l0,0
				c-0.3,0.5-0.9,0.7-1.4,0.4l-17.1-8.3C755,998.5,754.5,996.9,755.3,995.6z"/>
		</g>
		<g>
			<path class="st-portrait-10" d="M576.3,896.8L576.3,896.8c2.3-8.5,11.3-13.2,19.6-10.4l109.7,38.1c3.3,1.1,5.1,4.6,4.2,8l0,0
				c-0.9,3.4-4.3,5.5-7.7,4.8l-114.1-21.8C579.5,914,574,905.3,576.3,896.8z"/>
			<path class="st-portrait-11" d="M718.9,935.1L718.9,935.1c0.8-2.9,3.9-4.6,6.8-3.6l37.9,13.2c1.1,0.4,1.8,1.6,1.5,2.8l0,0
				c-0.3,1.2-1.5,1.9-2.7,1.7l-39.4-7.5C720,941,718.2,938,718.9,935.1z"/>
			<path class="st-portrait-12" d="M774.2,949.9L774.2,949.9c0.4-1.4,1.8-2.2,3.2-1.7l17.9,6.2c0.5,0.2,0.8,0.8,0.7,1.3l0,0
				c-0.1,0.5-0.7,0.9-1.3,0.8l-18.6-3.6C774.7,952.7,773.9,951.3,774.2,949.9z"/>
		</g>
		<g>
			<path class="st-portrait-10" d="M575.8,900.8L575.8,900.8c0-8.8,7.5-15.7,16.2-15.1l115.8,8.4c3.5,0.3,6.2,3.1,6.2,6.6l0,0
				c0,3.5-2.7,6.4-6.2,6.6L592,915.8C583.3,916.5,575.8,909.5,575.8,900.8z"/>
			<path class="st-portrait-11" d="M723.5,900.8L723.5,900.8c0-3,2.6-5.4,5.6-5.2l40,2.9c1.2,0.1,2.1,1.1,2.1,2.3l0,0c0,1.2-0.9,2.2-2.1,2.3
				l-40,2.9C726,906.2,723.5,903.8,723.5,900.8z"/>
			<path class="st-portrait-12" d="M780.7,900.8L780.7,900.8c0-1.4,1.2-2.6,2.6-2.5l18.9,1.4c0.6,0,1,0.5,1,1.1l0,0c0,0.6-0.4,1-1,1.1
				l-18.9,1.4C781.9,903.3,780.7,902.2,780.7,900.8z"/>
		</g>
		<g>
			<path class="st-portrait-10" d="M576.3,904.7L576.3,904.7c-2.3-8.5,3.1-17.1,11.8-18.8l114.1-21.8c3.4-0.7,6.8,1.4,7.7,4.8v0
				c0.9,3.4-0.9,6.9-4.2,8L595.9,915C587.6,917.9,578.6,913.2,576.3,904.7z"/>
			<path class="st-portrait-11" d="M718.9,866.5L718.9,866.5c-0.8-2.9,1.1-5.9,4.1-6.5l39.4-7.5c1.2-0.2,2.3,0.5,2.7,1.7l0,0
				c0.3,1.2-0.3,2.4-1.5,2.8L725.7,870C722.8,871,719.7,869.4,718.9,866.5z"/>
			<path class="st-portrait-12" d="M774.2,851.6L774.2,851.6c-0.4-1.4,0.5-2.8,1.9-3.1l18.6-3.6c0.6-0.1,1.1,0.2,1.3,0.8l0,0
				c0.1,0.5-0.2,1.1-0.7,1.3l-17.9,6.2C776.1,853.8,774.6,853,774.2,851.6z"/>
		</g>
	</g>
	<g>
		<g>
			<path class="st-portrait-10" d="M605.5,896.8L605.5,896.8c2.3,8.5-3.1,17.1-11.8,18.8l-114.1,21.8c-3.4,0.7-6.8-1.4-7.7-4.8l0,0
				c-0.9-3.4,0.9-6.9,4.2-8l109.7-38.1C594.2,883.6,603.2,888.4,605.5,896.8z"/>
			<path class="st-portrait-11" d="M462.9,935.1L462.9,935.1c0.8,2.9-1.1,5.9-4.1,6.5l-39.4,7.5c-1.2,0.2-2.3-0.5-2.7-1.7l0,0
				c-0.3-1.2,0.3-2.4,1.5-2.8l37.9-13.2C459,930.5,462.1,932.1,462.9,935.1z"/>
			<path class="st-portrait-12" d="M407.6,949.9L407.6,949.9c0.4,1.4-0.5,2.8-1.9,3.1l-18.6,3.6c-0.6,0.1-1.1-0.2-1.3-0.8l0,0
				c-0.1-0.5,0.2-1.1,0.7-1.3l17.9-6.2C405.8,947.7,407.2,948.5,407.6,949.9z"/>
		</g>
		<g>
			<path class="st-portrait-10" d="M604,893.2L604,893.2c4.4,7.6,1.4,17.3-6.5,21.2L493,965c-3.1,1.5-6.9,0.4-8.7-2.7l0,0
				c-1.7-3-0.9-6.9,2-8.8l96.1-65.2C589.7,883.3,599.6,885.6,604,893.2z"/>
			<path class="st-portrait-11" d="M476.1,967L476.1,967c1.5,2.6,0.5,6-2.2,7.3l-36.1,17.5c-1.1,0.5-2.4,0.1-3-0.9l0,0c-0.6-1-0.3-2.4,0.7-3.1
				l33.2-22.5C471.2,963.6,474.6,964.4,476.1,967z"/>
			<path class="st-portrait-12" d="M426.6,995.7L426.6,995.7c0.7,1.2,0.2,2.8-1.1,3.5l-17.1,8.3c-0.5,0.2-1.1,0.1-1.4-0.4l0,0
				c-0.3-0.5-0.1-1.1,0.3-1.4l15.7-10.7C424.2,994,425.8,994.4,426.6,995.7z"/>
		</g>
		<g>
			<path class="st-portrait-10" d="M601.6,890.1L601.6,890.1c6.2,6.2,5.8,16.4-0.8,22.1l-87.9,75.9c-2.6,2.3-6.6,2.1-9.1-0.3v0
				c-2.5-2.5-2.6-6.4-0.3-9.1l75.9-87.9C585.2,884.2,595.4,883.9,601.6,890.1z"/>
			<path class="st-portrait-11" d="M497.2,994.5L497.2,994.5c2.1,2.1,2,5.7-0.3,7.6l-30.4,26.3c-0.9,0.8-2.3,0.7-3.1-0.1l0,0
				c-0.9-0.9-0.9-2.2-0.1-3.1l26.3-30.4C491.5,992.5,495,992.3,497.2,994.5z"/>
			<path class="st-portrait-12" d="M456.7,1035L456.7,1035c1,1,1,2.7-0.1,3.6l-14.4,12.4c-0.4,0.4-1.1,0.3-1.5-0.1l0,0c-0.4-0.4-0.4-1-0.1-1.5
				l12.4-14.4C454,1034,455.7,1033.9,456.7,1035z"/>
		</g>
		<g>
			<path class="st-portrait-10" d="M598.5,887.7L598.5,887.7c7.6,4.4,9.9,14.3,4.9,21.6l-65.2,96.1c-2,2.9-5.8,3.8-8.8,2l0,0
				c-3-1.7-4.2-5.5-2.7-8.7l50.6-104.5C581.1,886.3,590.9,883.3,598.5,887.7z"/>
			<path class="st-portrait-11" d="M524.6,1015.5L524.6,1015.5c2.6,1.5,3.4,4.9,1.7,7.5l-22.5,33.2c-0.7,1-2,1.3-3.1,0.7l0,0
				c-1-0.6-1.4-1.9-0.9-3l17.5-36.1C518.6,1015.1,522,1014,524.6,1015.5z"/>
			<path class="st-portrait-12" d="M496,1065.1L496,1065.1c1.2,0.7,1.6,2.3,0.8,3.5l-10.7,15.7c-0.3,0.5-0.9,0.6-1.4,0.3l0,0
				c-0.5-0.3-0.7-0.9-0.4-1.4l8.3-17.1C493.2,1064.9,494.8,1064.4,496,1065.1z"/>
		</g>
		<g>
			<path class="st-portrait-10" d="M594.8,886.2L594.8,886.2c8.5,2.3,13.2,11.3,10.4,19.6l-38.1,109.7c-1.1,3.3-4.6,5.1-8,4.2l0,0
				c-3.4-0.9-5.5-4.3-4.8-7.7l21.8-114.1C577.7,889.3,586.3,883.9,594.8,886.2z"/>
			<path class="st-portrait-11" d="M556.6,1028.8L556.6,1028.8c2.9,0.8,4.6,3.9,3.6,6.8l-13.2,37.9c-0.4,1.1-1.6,1.8-2.8,1.5l0,0
				c-1.2-0.3-1.9-1.5-1.7-2.7l7.5-39.4C550.7,1029.9,553.7,1028,556.6,1028.8z"/>
			<path class="st-portrait-12" d="M541.8,1084.1L541.8,1084.1c1.4,0.4,2.2,1.8,1.7,3.2l-6.2,17.9c-0.2,0.5-0.8,0.8-1.3,0.7l0,0
				c-0.5-0.1-0.9-0.7-0.8-1.3l3.6-18.6C539,1084.6,540.4,1083.7,541.8,1084.1z"/>
		</g>
		<g>
			<path class="st-portrait-10" d="M590.9,885.7L590.9,885.7c8.8,0,15.7,7.5,15.1,16.2l-8.4,115.8c-0.3,3.5-3.1,6.2-6.6,6.2h0
				c-3.5,0-6.4-2.7-6.6-6.2l-8.4-115.8C575.2,893.1,582.1,885.7,590.9,885.7z"/>
			<path class="st-portrait-11" d="M590.9,1033.3L590.9,1033.3c3,0,5.4,2.6,5.2,5.6l-2.9,40c-0.1,1.2-1.1,2.1-2.3,2.1l0,0
				c-1.2,0-2.2-0.9-2.3-2.1l-2.9-40C585.5,1035.9,587.9,1033.3,590.9,1033.3z"/>
			<path class="st-portrait-12" d="M590.9,1090.5L590.9,1090.5c1.4,0,2.6,1.2,2.5,2.6l-1.4,18.9c0,0.6-0.5,1-1.1,1l0,0c-0.6,0-1-0.4-1.1-1
				l-1.4-18.9C588.3,1091.8,589.5,1090.5,590.9,1090.5z"/>
		</g>
	</g>
</g>
<g>
	<g>
		<g>
			<path class="st-portrait-14" d="M101.2,213.1l-0.9-3.2c-0.4-1.6-1.1-3.2-3.7-2.6l0,0l-2.1,0.6l0,0c-2.6,0.8-2.4,2.5-2,4.1l3.7,13.8
				c0.7,2.7,1.6,3.4,3.8,2.8l2.1-0.6c2.2-0.6,2.6-1.6,1.9-4.3l-2-7.4l-2.7,0.7l-1.4,0.4l0.7,2.5l1.4-0.4l1.3,4.8
				c0.2,0.7,0.2,1.2-0.6,1.4l-0.6,0.2c-0.8,0.2-1-0.2-1.2-0.9l-3.5-13c-0.2-0.8-0.4-1.4,0.7-1.7l0.2-0.1c1.1-0.3,1.3,0.4,1.5,1.1
				l0.7,2.6L101.2,213.1z"/>
			<path class="st-portrait-14" d="M175.1,204l-0.6-2.3c-0.7-2.7-1.3-3.7-3.1-3.5c-0.1,0-0.1-0.1,0-0.1c2-0.6,1.7-2.1,0.8-5.7
				c-1.1-4.1-1.7-4.9-5-4l-4.4,1.2l5.5,20.7l2.7-0.7l0-0.1l0,0l-4.9-18.1l0,0l1.4-0.4c1.2-0.3,1.3-0.3,1.9,2c0.9,3.4,1,4.1-0.3,4.4
				l-0.2,0.1l0.6,2.3c0.8-0.2,0.8-0.2,1.3,0.3c0.5,0.6,1,2.2,1.2,3l0.8,2.9c0.9,3.5,4,2,4,2C176,206.9,175.8,206.5,175.1,204"/>
			<path class="st-portrait-14" d="M113.5,220.5l-0.6-2.3c-0.7-2.7-1.3-3.7-3.1-3.5c-0.1,0-0.1-0.1,0-0.1c2-0.6,1.7-2.1,0.8-5.7
				c-1.1-4.1-1.7-4.9-5-4l-4.4,1.2l5.5,20.7l2.7-0.7l0-0.1l0,0l-4.9-18.1l0,0l1.4-0.4c1.2-0.3,1.3-0.3,1.9,2c0.9,3.4,1,4.1-0.3,4.4
				l-0.2,0.1l0.6,2.3c0.8-0.2,0.8-0.2,1.3,0.3c0.5,0.6,1,2.2,1.2,3l0.8,2.9c0.9,3.5,4,2,4,2C114.4,223.4,114.2,223,113.5,220.5"/>
			<path class="st-portrait-14" d="M136.8,196.5l-4.9,1.3l5.5,20.7l2.6-0.7l-4.9-18.2l1.6-0.4c1.1-0.3,1.3,0.3,1.5,1.1l3.5,13
				c0.2,0.7,0.2,1.2-0.6,1.4l-0.7,0.2l0.7,2.5l1.3-0.4c2.2-0.6,2.7-1.6,1.9-4.4l-3.7-13.8C140.4,197.3,139.7,195.7,136.8,196.5"/>
			<polygon class="st-portrait-14" points="117,201.8 113.7,202.7 116.1,224.2 118.8,223.5 118.3,220 120,219.6 119.3,217 118,217.4 
				117,208.2 123,222.4 125.7,221.7 			"/>
			<polygon class="st-portrait-14" points="158.6,190.7 155.3,191.5 157.7,213.1 160.4,212.4 159.9,208.9 161.6,208.5 160.9,205.9 
				159.6,206.2 158.6,197.1 164.6,211.2 167.3,210.5 			"/>
			<path class="st-portrait-14" d="M127.3,199L127.3,199l3.7,13.6c-0.1-0.1-6.8-12.8-6.8-12.8l-2.9,0.8l5.5,20.7l2.1-0.6l0,0l0.6-0.2
				l-3.6-13.5c1.8,3.4,6.5,12.7,6.5,12.7l3-0.8l-5.5-20.7L127.3,199z"/>
			<path class="st-portrait-14" d="M151.4,199c0.6,2.3,0.6,3-0.5,3.3l-0.4,0.1l0.6,2.3l0.7-0.2c3.2-0.9,3.4-2.3,2.4-6l-0.3-1.2
				c-1.1-4.1-1.7-4.9-5-4l-4.4,1.2l5.5,20.7l2.7-0.7l0-0.1l0,0l-4.9-18.1l0,0l1.4-0.4c1.2-0.3,1.3-0.3,1.9,2L151.4,199z"/>
			
				<rect x="175.5" y="186.2" transform="matrix(0.9659 -0.2588 0.2588 0.9659 -44.9398 52.4782)" class="st-portrait-14" width="2.7" height="21.4"/>
			<polygon class="st-portrait-14" points="179.5,185.2 182.4,184.4 181.2,195.2 188.3,205 185.3,205.8 178.6,196.2 			"/>
		</g>
	</g>
	<g>
		<g>
			<polygon class="st-portrait-14" points="292.9,177.9 298.5,176.3 298.9,177.6 294.7,178.7 295.6,182.1 298.9,181.4 299.1,182.4 
				295.9,183.4 297,187.3 301.4,186.1 301.7,187.4 295.9,189 			"/>
		</g>
		<g>
			<polygon class="st-portrait-14" points="267.2,184.7 272.9,183.2 273.2,184.5 269,185.6 269.9,189 273.2,188.3 273.5,189.3 270.3,190.3 
				271.3,194.2 275.7,193 276,194.3 270.2,195.8 			"/>
		</g>
		<g>
			<path class="st-portrait-14" d="M265.2,197.4c-1.5,0.4-2.7,0.2-3.6-0.6c-0.9-0.8-1.7-2.1-2.2-4c-0.2-0.9-0.4-1.7-0.4-2.5
				c0-0.8,0.1-1.4,0.3-2c0.2-0.6,0.5-1.1,1-1.5c0.5-0.4,1.1-0.7,1.9-0.9c1.1-0.3,2-0.2,2.9,0.2l-0.4,1.3c-0.3-0.1-0.7-0.2-1-0.3
				c-0.3,0-0.7,0-1.1,0.1c-0.5,0.1-0.9,0.4-1.2,0.6c-0.3,0.3-0.5,0.6-0.6,1c-0.1,0.4-0.1,0.9,0,1.5c0.1,0.6,0.2,1.3,0.4,2
				c0.2,0.8,0.4,1.4,0.7,2c0.2,0.5,0.5,1,0.8,1.3c0.3,0.3,0.6,0.5,1,0.6c0.4,0.1,0.9,0.1,1.4-0.1c0.4-0.1,0.8-0.3,1.1-0.5
				c0.3-0.3,0.5-0.5,0.8-0.8l1,0.9c-0.3,0.4-0.7,0.7-1.1,1C266.3,197,265.8,197.3,265.2,197.4"/>
		</g>
		<g>
			<path class="st-portrait-14" d="M275.4,182.5l1.5-0.4l4.8,5.5c0.4,0.4,0.7,0.9,1,1.3c0.3,0.4,0.6,0.8,0.8,1.2l0,0c-0.1-0.4-0.3-0.8-0.5-1.4
				c-0.2-0.6-0.4-1.1-0.5-1.7l-1.6-5.9l1.4-0.4l3,11.1l-1.5,0.4l-4.4-5c-0.3-0.3-0.5-0.6-0.7-0.9c-0.2-0.3-0.4-0.5-0.5-0.7
				c-0.2-0.2-0.3-0.4-0.4-0.6c-0.1-0.2-0.2-0.4-0.4-0.6l0,0c0.1,0.4,0.3,0.9,0.5,1.4c0.2,0.6,0.4,1.2,0.5,1.8l1.5,5.6l-1.4,0.4
				L275.4,182.5z"/>
		</g>
		<g>
			<polygon class="st-portrait-14" points="287.1,180.8 284.4,181.3 284.1,180.2 290.8,178.4 291.1,179.5 288.5,180.4 291.2,190.2 
				289.7,190.6 			"/>
		</g>
		<g>
			<path class="st-portrait-14" d="M306.8,180.6c0.6-0.4,1.1-0.8,1.3-1.4c0.2-0.5,0.2-1.2,0-2.1c-0.3-1.1-0.8-1.8-1.5-2.1
				c-0.7-0.3-1.6-0.4-2.6-0.1l-3,0.8l3,11.1l1.4-0.4l-1.6-6l-0.2-0.7l-0.8-3.2l1.5-0.4c0.7-0.2,1.2-0.2,1.6,0
				c0.4,0.2,0.6,0.7,0.8,1.3c0.2,0.7,0.2,1.2,0,1.6c-0.2,0.4-0.6,0.7-1.3,0.9l-0.6,0.2l4.3,5.2l1.6-0.4L306.8,180.6z"/>
		</g>
		<g>
			<polygon class="st-portrait-14" points="267.9,150.5 273.5,148.9 273.9,150.2 269.7,151.3 270.6,154.7 273.9,154 274.2,155 270.9,156 
				272,159.9 276.4,158.7 276.7,160 270.9,161.6 			"/>
		</g>
		<g>
			<polygon class="st-portrait-14" points="258.1,153.1 259.6,152.7 260.8,157.2 264.8,156.2 263.6,151.6 265,151.2 268,162.3 266.5,162.7 
				265.1,157.5 261.2,158.5 262.6,163.8 261.1,164.2 			"/>
		</g>
		<g>
			<path class="st-portrait-14" d="M235.7,176.1l2.2-0.6l3.3,5.1c0.3,0.5,0.6,0.9,0.7,1.3c0.2,0.4,0.3,0.7,0.4,1l0,0c0-0.3-0.1-0.7-0.1-1.1
				c0-0.4-0.1-1,0-1.5l0.3-6.1l2.2-0.6l3,11.1l-1.5,0.4l-1.8-6.6c-0.3-0.9-0.4-1.7-0.6-2.3c-0.1-0.6-0.2-1-0.3-1.2l0,0
				c0,0.1,0,0.3,0,0.5c0,0.2,0,0.5,0,0.9c0,0.3,0,0.7,0,1c0,0.4,0,0.7,0,1.1l-0.4,5.1l-1.4,0.4l-2.8-4.1c-0.2-0.3-0.4-0.6-0.6-0.9
				c-0.2-0.3-0.4-0.7-0.5-1c-0.2-0.3-0.3-0.6-0.4-0.8c-0.1-0.2-0.2-0.4-0.2-0.5l0,0c0,0.1,0.1,0.3,0.1,0.5c0.1,0.2,0.2,0.5,0.2,0.8
				c0.1,0.3,0.2,0.6,0.3,1c0.1,0.4,0.2,0.8,0.3,1.2l1.8,6.5l-1.4,0.4L235.7,176.1z"/>
		</g>
		<g>
			<path class="st-portrait-14" d="M253.6,183.5c-0.4,0.1-0.8,0.1-1.2,0.1c-0.4,0-0.8-0.1-1.1-0.3c-0.3-0.2-0.7-0.5-1-0.9
				c-0.3-0.4-0.5-0.9-0.7-1.6l-2.1-7.9l1.5-0.4l2.1,7.7c0.1,0.4,0.2,0.8,0.4,1c0.1,0.3,0.3,0.5,0.5,0.7c0.2,0.2,0.4,0.3,0.6,0.3
				c0.2,0,0.5,0,0.9-0.1c0.6-0.2,1-0.4,1.4-0.7c0.3-0.3,0.6-0.7,0.8-0.9l-2.4-9l1.5-0.4l3,11.1l-1.1,0.3l-0.5-1
				c-0.2,0.4-0.5,0.8-0.9,1.2C254.7,183,254.2,183.3,253.6,183.5"/>
		</g>
		<g>
			<path class="st-portrait-14" d="M263.1,180.9c-0.7,0.2-1.3,0.2-1.9,0.2c-0.6-0.1-1.2-0.2-1.7-0.4l0.3-1.3c0.5,0.2,1,0.4,1.4,0.4
				c0.4,0,0.9,0,1.4-0.1c0.7-0.2,1.2-0.5,1.4-0.9c0.2-0.4,0.3-0.9,0.1-1.5c-0.1-0.3-0.2-0.6-0.4-0.8c-0.2-0.2-0.3-0.4-0.6-0.5
				c-0.2-0.1-0.5-0.2-0.8-0.3c-0.3-0.1-0.6-0.1-1-0.1c-0.5,0-0.9-0.1-1.3-0.2c-0.4-0.1-0.7-0.2-1-0.4c-0.3-0.2-0.5-0.4-0.7-0.8
				c-0.2-0.3-0.4-0.7-0.5-1.2c-0.3-1-0.2-1.7,0.2-2.4c0.4-0.6,1.1-1.1,2.1-1.3c0.6-0.2,1.1-0.2,1.6-0.2c0.4,0,0.9,0.1,1.3,0.3
				l-0.3,1.3c-0.4-0.1-0.7-0.2-1.1-0.2c-0.3,0-0.7,0-1.1,0.1c-0.5,0.1-0.9,0.4-1.2,0.7c-0.2,0.3-0.3,0.8-0.1,1.3
				c0.1,0.3,0.2,0.5,0.3,0.7c0.1,0.2,0.3,0.3,0.4,0.4c0.2,0.1,0.4,0.2,0.6,0.2c0.3,0.1,0.6,0.1,0.9,0.1c0.5,0,0.9,0.1,1.3,0.2
				c0.4,0.1,0.8,0.2,1.1,0.4c0.3,0.2,0.6,0.5,0.9,0.8c0.3,0.3,0.5,0.8,0.6,1.3c0.1,0.4,0.2,0.8,0.1,1.2c0,0.4-0.1,0.8-0.3,1.2
				c-0.2,0.4-0.5,0.7-0.9,1C264.3,180.5,263.7,180.8,263.1,180.9"/>
		</g>
		<g>
			<polygon class="st-portrait-14" points="268.3,178.4 269.4,178 266.9,168.8 265.7,168.9 265.5,168.1 269.2,167.1 269.4,167.9 268.4,168.4 
				270.8,177.6 272,177.4 272.2,178.3 268.5,179.3 			"/>
		</g>
		<g>
			<path class="st-portrait-14" d="M278.3,176.8c-1.5,0.4-2.7,0.2-3.6-0.6c-0.9-0.8-1.7-2.1-2.2-4c-0.2-0.9-0.4-1.7-0.4-2.5
				c0-0.8,0.1-1.4,0.3-2c0.2-0.6,0.5-1.1,1-1.5c0.5-0.4,1.1-0.7,1.9-0.9c1.1-0.3,2-0.2,2.9,0.2l-0.4,1.3c-0.3-0.1-0.7-0.2-1-0.3
				c-0.3,0-0.7,0-1.1,0.1c-0.5,0.1-0.9,0.3-1.2,0.6c-0.3,0.3-0.5,0.6-0.6,1c-0.1,0.4-0.1,0.9,0,1.5c0.1,0.6,0.2,1.3,0.4,2
				c0.2,0.8,0.4,1.4,0.7,2c0.2,0.5,0.5,1,0.8,1.3c0.3,0.3,0.6,0.5,1,0.6c0.4,0.1,0.9,0.1,1.4-0.1c0.4-0.1,0.8-0.3,1.1-0.6
				c0.3-0.2,0.5-0.5,0.8-0.8l1,0.9c-0.3,0.4-0.7,0.7-1.1,1C279.4,176.5,278.9,176.7,278.3,176.8"/>
		</g>
		<g>
			<polygon class="st-portrait-14" points="252.3,156 249.6,156.6 249.3,155.4 256.1,153.6 256.4,154.8 253.8,155.6 256.4,165.4 254.9,165.8 
							"/>
		</g>
		<g>
			<path class="st-portrait-14" d="M292,152.8l-6.2-7.9c-0.2,0.2-0.5,0.4-0.7,0.6l6.7,7.5C291.9,152.9,292,152.8,292,152.8"/>
		</g>
		<g>
			<path class="st-portrait-14" d="M291.3,153.4l-7.5-6.7c-0.2,0.2-0.3,0.4-0.5,0.6l7.9,6.3C291.2,153.6,291.3,153.5,291.3,153.4"/>
		</g>
		<g>
			<path class="st-portrait-14" d="M295.7,151.6l0.5-10.1c-0.5,0-1,0-1.4,0l0.5,10C295.3,151.6,295.5,151.6,295.7,151.6"/>
		</g>
		<g>
			<path class="st-portrait-14" d="M292.8,152.2l-4.7-8.9c-0.3,0.2-0.6,0.3-0.9,0.5l5.3,8.5C292.6,152.4,292.7,152.3,292.8,152.2"/>
		</g>
		<g>
			<path class="st-portrait-14" d="M294.7,151.6l-1.3-10c-0.4,0.1-0.9,0.1-1.3,0.2l2.2,9.8C294.4,151.7,294.5,151.7,294.7,151.6"/>
		</g>
		<g>
			<path class="st-portrait-14" d="M290.7,154.3c0,0,0-0.1,0.1-0.1l-8.6-5.2c-0.1,0.1-0.1,0.2-0.2,0.3c-0.1,0.1-0.1,0.2-0.2,0.3l8.8,4.8
				C290.7,154.4,290.7,154.3,290.7,154.3"/>
		</g>
		<g>
			<path class="st-portrait-14" d="M296.6,151.7l2.2-9.8c-0.5-0.1-1-0.2-1.5-0.3l-1.3,10C296.3,151.7,296.4,151.7,296.6,151.7"/>
		</g>
		<g>
			<path class="st-portrait-14" d="M293.7,151.9l-3.1-9.6c-0.4,0.1-0.7,0.3-1.1,0.4l3.8,9.3C293.5,151.9,293.6,151.9,293.7,151.9"/>
		</g>
		<g>
			<path class="st-portrait-14" d="M291.1,160.3l-8,6.1c0.3,0.4,0.6,0.8,1,1.2l7.4-6.9C291.3,160.6,291.2,160.4,291.1,160.3"/>
		</g>
		<g>
			<path class="st-portrait-14" d="M291.7,161l-6.9,7.3c0.4,0.4,0.8,0.7,1.3,1.1l6-8C292,161.3,291.8,161.1,291.7,161"/>
		</g>
		<g>
			<path class="st-portrait-14" d="M290.6,159.5l-8.9,4.6c0.2,0.4,0.5,0.8,0.7,1.2l8.5-5.4C290.7,159.8,290.7,159.7,290.6,159.5"/>
		</g>
		<g>
			<path class="st-portrait-14" d="M288.4,170.9l4.5-9c-0.1,0-0.2-0.1-0.3-0.2c-0.1,0-0.2-0.1-0.3-0.2l-5.5,8.4c0.3,0.2,0.5,0.3,0.8,0.5
				C287.9,170.6,288.2,170.7,288.4,170.9"/>
		</g>
		<g>
			<path class="st-portrait-14" d="M290,157.8l-10,1.4c0.1,0.4,0.1,0.8,0.2,1.1l9.8-2.1C290.1,158,290,157.9,290,157.8"/>
		</g>
		<g>
			<path class="st-portrait-14" d="M290,156.8l-10.1-0.3c0,0.3,0,0.7,0,1l10.1-0.3C290,157.1,290,157,290,156.8"/>
		</g>
		<g>
			<path class="st-portrait-14" d="M290.1,155.9l-9.9-2c-0.1,0.3-0.1,0.6-0.2,0.9l10,1.5C290,156.1,290.1,156,290.1,155.9"/>
		</g>
		<g>
			<path class="st-portrait-14" d="M290.2,158.7l-9.6,3c0.1,0.4,0.3,0.8,0.4,1.2l9.3-3.8C290.3,159,290.3,158.8,290.2,158.7"/>
		</g>
		<g>
			<path class="st-portrait-14" d="M290.3,155l-9.4-3.7c-0.1,0.2-0.2,0.5-0.3,0.7l9.5,3.2C290.3,155.2,290.3,155.1,290.3,155"/>
		</g>
		<g>
			<path class="st-portrait-14" d="M300.1,159.7c0,0,0,0.1-0.1,0.1l8.6,5.2c0.1-0.1,0.1-0.2,0.2-0.3c0.1-0.1,0.1-0.2,0.2-0.3L300.1,159.7
				C300.1,159.7,300.1,159.7,300.1,159.7"/>
		</g>
		<g>
			<path class="st-portrait-14" d="M297.1,162.2l3.1,9.6c0.4-0.1,0.7-0.3,1.1-0.4l-3.8-9.3C297.3,162.1,297.2,162.2,297.1,162.2"/>
		</g>
		<g>
			<path class="st-portrait-14" d="M298,161.8l4.7,8.9c0.3-0.2,0.6-0.3,0.9-0.5l-5.3-8.5C298.2,161.7,298.1,161.8,298,161.8"/>
		</g>
		<g>
			<path class="st-portrait-14" d="M298.8,161.3l6.2,7.9c0.2-0.2,0.5-0.4,0.7-0.6l-6.7-7.5C298.9,161.2,298.9,161.2,298.8,161.3"/>
		</g>
		<g>
			<path class="st-portrait-14" d="M299.5,160.6l7.5,6.7c0.2-0.2,0.3-0.4,0.5-0.6l-7.9-6.3C299.6,160.5,299.5,160.6,299.5,160.6"/>
		</g>
		<g>
			<path class="st-portrait-14" d="M300.5,159l9.4,3.7c0.1-0.3,0.2-0.5,0.3-0.7l-9.5-3.2C300.5,158.8,300.5,158.9,300.5,159"/>
		</g>
		<g>
			<path class="st-portrait-14" d="M294.2,162.3l-2.2,9.8c0.5,0.1,1,0.2,1.5,0.3l1.3-10C294.5,162.4,294.4,162.4,294.2,162.3"/>
		</g>
		<g>
			<path class="st-portrait-14" d="M293.3,162l-4,9.3c0.5,0.2,1,0.4,1.6,0.6l2.9-9.6C293.6,162.2,293.5,162.1,293.3,162"/>
		</g>
		<g>
			<path class="st-portrait-14" d="M296.1,162.4l1.3,10c0.4-0.1,0.9-0.1,1.3-0.2l-2.2-9.8C296.4,162.4,296.3,162.4,296.1,162.4"/>
		</g>
		<g>
			<path class="st-portrait-14" d="M295.1,162.5l-0.5,10.1c0.5,0,0.9,0,1.4,0l-0.5-10.1C295.5,162.5,295.3,162.5,295.1,162.5"/>
		</g>
		<g>
			<path class="st-portrait-14" d="M299.7,153.8l8-6.1c-0.3-0.4-0.6-0.8-1-1.2l-7.4,6.8C299.5,153.5,299.6,153.6,299.7,153.8"/>
		</g>
		<g>
			<path class="st-portrait-14" d="M299.1,153.1l6.9-7.4c-0.4-0.4-0.8-0.7-1.3-1.1l-6,8.1C298.8,152.8,299,152.9,299.1,153.1"/>
		</g>
		<g>
			<path class="st-portrait-14" d="M300.2,154.5l8.9-4.6c-0.2-0.4-0.5-0.8-0.7-1.2l-8.5,5.4C300.1,154.2,300.1,154.4,300.2,154.5"/>
		</g>
		<g>
			<path class="st-portrait-14" d="M300.7,158.1l9.9,2c0.1-0.3,0.1-0.6,0.2-0.9l-10-1.5C300.8,157.9,300.7,158,300.7,158.1"/>
		</g>
		<g>
			<path class="st-portrait-14" d="M298.1,152.3c0.1,0.1,0.2,0.1,0.3,0.2l5.5-8.4c-0.2-0.2-0.5-0.3-0.8-0.5c-0.3-0.2-0.5-0.3-0.8-0.4l-4.5,9
				C297.9,152.2,298,152.3,298.1,152.3"/>
		</g>
		<g>
			<path class="st-portrait-14" d="M297.5,152l4-9.3c-0.5-0.2-1-0.4-1.6-0.6l-2.9,9.6C297.2,151.9,297.3,152,297.5,152"/>
		</g>
		<g>
			<path class="st-portrait-14" d="M300.8,157.2l10.1,0.3c0-0.3,0-0.7,0-1l-10.1,0.3C300.8,157,300.8,157.1,300.8,157.2"/>
		</g>
		<g>
			<path class="st-portrait-14" d="M300.6,155.4l9.6-3c-0.1-0.4-0.3-0.8-0.4-1.2l-9.3,3.8C300.5,155.1,300.5,155.2,300.6,155.4"/>
		</g>
		<g>
			<path class="st-portrait-14" d="M300.8,156.3l10-1.4c-0.1-0.4-0.1-0.8-0.2-1.2l-9.8,2.1C300.7,156,300.8,156.2,300.8,156.3"/>
		</g>
	</g>
	<g>
		
			<rect x="209.5" y="180.6" transform="matrix(0.9659 -0.2588 0.2588 0.9659 -41.3845 61.0724)" class="st-portrait-14" width="3.5" height="14.2"/>
		
			<rect x="209.5" y="180.6" transform="matrix(0.2588 0.9659 -0.9659 0.2588 337.8903 -64.9284)" class="st-portrait-14" width="3.5" height="14.2"/>
	</g>
</g>
</svg>
