<?xml version="1.0" encoding="utf-8"?>
<!-- Generator: Adobe Illustrator 21.0.2, SVG Export Plug-In . SVG Version: 6.00 Build 0)  -->
<svg version="1.1" id="Layer_1" xmlns="http://www.w3.org/2000/svg" xmlns:xlink="http://www.w3.org/1999/xlink" x="0px" y="0px"
	 viewBox="0 0 1945.5 1098.8" style="enable-background:new 0 0 1945.5 1098.8;" xml:space="preserve">
<style type="text/css">
	.st0{fill:none;stroke:#FFF8B9;stroke-width:4;stroke-linecap:round;stroke-linejoin:round;stroke-miterlimit:10;}
	.st1{fill:none;stroke:#FFFFFF;stroke-width:2.3868;stroke-linecap:round;stroke-linejoin:round;stroke-miterlimit:10;}
	.st2{fill:none;stroke:#EC0E69;stroke-width:2.3868;stroke-linecap:round;stroke-linejoin:round;stroke-miterlimit:10;}
	.st3{fill:none;stroke:#00B8F1;stroke-width:2.3868;stroke-linecap:round;stroke-linejoin:round;stroke-miterlimit:10;}
	.st4{fill:none;stroke:#FFF8B9;stroke-width:1.4321;stroke-linecap:round;stroke-linejoin:round;stroke-miterlimit:10;}
	.st5{fill:none;stroke:#EC0E69;stroke-width:2.1519;stroke-linecap:round;stroke-linejoin:round;stroke-miterlimit:10;}
	.st6{fill:none;stroke:#FFFFFF;stroke-width:2.1519;stroke-linecap:round;stroke-linejoin:round;stroke-miterlimit:10;}
	.st7{fill:none;stroke:#00B8F1;stroke-width:2.1519;stroke-linecap:round;stroke-linejoin:round;stroke-miterlimit:10;}
	.st8{fill:#FFF8B9;}
	.st9{font-family:'UnitOffc-Bold';}
	.st10{font-size:31.858px;}
	.st11{letter-spacing:1;}
	.st12{fill:none;stroke:#FFF8B9;stroke-width:0.9932;stroke-linecap:round;stroke-linejoin:round;stroke-miterlimit:10;}
	.st13{fill:#FFFFFF;}
	.st14{fill:none;stroke:#FFF8B9;stroke-width:3;stroke-linecap:round;stroke-linejoin:round;stroke-miterlimit:10;}
</style>
<path class="st0" d="M70,694.8l-15.8-59l8.3-159.2l72.3-19.4l-8.1,162.6l35.3-9.4l-19.3-72l65.2-30.2l22.5,83.8l13.3-3.6l14.9,55.8
	l-13.3,3.6l12.1,45.3L189,711.5l-12.1-45.3L70,694.8z"/>
<g>
	<path class="st0" d="M262.8,519.9l-19.3,5.2l-6.8-25.4l69.6-18.6l6.8,25.4l-19.3,5.2l21,78.2l-30.9,8.3L262.8,519.9z"/>
	<path class="st0" d="M315.5,478.5l30.9-8.3l9.8,36.4l14.7-3.9l-9.8-36.4L392,458l27.8,103.6l-30.9,8.3l-11.3-42.1l-14.7,3.9
		l11.3,42.1l-30.9,8.3L315.5,478.5z"/>
</g>
<g>
	<path class="st0" d="M469.2,647.7c3.3-4,5.9-7.6,7.8-10.9c2-3.3,3.3-6.6,4.1-9.9c0.7-3.3,0.9-6.9,0.6-10.9c-0.4-4-1.3-8.7-2.8-14.2
		l-39.1-145.9l50.2-13.5l41.3,154.1c4.2,15.8,3.6,30-2,42.7c-5.6,12.7-16.9,24.5-34,35.5L469.2,647.7z"/>
	<path class="st0" d="M582.6,417.7l50.2-13.5L678,572.6l-35.5,9.5l-8.7-10.3c-2.6,5.2-6.1,9.9-10.6,14.2
		c-4.5,4.3-11.3,7.7-20.5,10.1c-16.6,4.4-30,2.8-40.3-4.9c-10.3-7.7-18.1-21.6-23.5-41.7l-30-112.1l50.2-13.5l31.7,118.4
		c1.1,4.2,2.8,7.2,5,8.9c2.2,1.7,5.3,2.1,9.3,1c2.7-0.7,5-1.7,6.7-2.8c1.8-1.2,3.4-2.6,4.8-4.4L582.6,417.7z"/>
	<path class="st0" d="M652.2,399l50.2-13.5l33.9,126.3l47.1-12.6l11.3,42l-97.3,26.1L652.2,399z"/>
	<path class="st0" d="M805.4,460.8L738.2,376l52.2-14l18.7,28.1c2.8,4.1,5.4,8.6,7.7,13.5c2.3,4.9,4.5,10.1,6.5,15.6
		c-0.7-5.8-1.4-11.4-2-16.8c-0.7-5.3-0.9-10.5-0.6-15.4l1.9-33.6l49.8-13.3l-17,105.8l19.8,73.9l-50.2,13.5L805.4,460.8z"/>
</g>
<g>
	<path class="st0" d="M574.4,661.5l49.8-13.3c4.6-1.2,9-1.9,13.5-2c4.4-0.1,8.5,0.6,12.1,2.1c3.7,1.5,6.9,4.1,9.8,7.6
		c2.9,3.5,5.1,8.3,6.7,14.3c0.9,3.5,1.5,6.6,1.8,9.4c0.2,2.8,0,5.3-0.7,7.7c-0.7,2.4-2,4.6-3.8,6.8c-1.9,2.1-4.4,4.3-7.6,6.4
		c7.4-0.1,13.5,1.5,18.5,4.8c5,3.3,8.7,9.5,11.1,18.6c1.6,6.1,2.4,11.6,2.2,16.5c-0.2,4.9-1.5,9.3-4.1,13.2
		c-2.5,3.9-6.3,7.3-11.3,10.3c-5,3-11.5,5.5-19.5,7.7l-45.7,12.3L574.4,661.5z M643.3,743.5c5.1-1.4,6.7-6,4.6-13.8
		c-0.8-2.9-2.1-5.2-4-6.7c-1.9-1.6-4.3-1.9-7.3-1.1l-8.2,2.2l5.9,21.9L643.3,743.5z M629.1,697.2c5.1-1.4,6.8-5.5,5-12.2
		c-1.5-5.7-4.9-7.9-10-6.5l-7.2,1.9l5,18.8L629.1,697.2z"/>
	<path class="st0" d="M673.1,635.1l36.4-9.8l24.6,91.6l34.2-9.2l8.2,30.5l-70.6,18.9L673.1,635.1z"/>
	<path class="st0" d="M832.4,725.7c-34.1,9.1-56.8-7.4-68.2-49.7c-5.8-21.5-5.8-38.6,0-51.2c5.8-12.6,17.3-21.3,34.7-25.9
		c17.3-4.6,31.4-2.8,42.2,5.4c10.8,8.2,19.1,23.1,24.9,44.6c5.7,21.4,5.9,38.4,0.5,51C861.2,712.4,849.8,721.1,832.4,725.7z
		 M824.5,697c2.6-0.7,4.6-1.8,6-3.4c1.4-1.6,2.2-3.9,2.4-6.9c0.2-3.1-0.2-7-1.1-11.8c-0.9-4.8-2.3-10.8-4.2-17.9
		c-1.8-6.8-3.5-12.2-5-16.4c-1.5-4.2-3-7.3-4.6-9.5c-1.6-2.1-3.3-3.4-5.3-3.8c-1.9-0.4-4.2-0.3-6.8,0.4c-2.7,0.7-4.7,1.8-6.1,3.2
		c-1.4,1.4-2.2,3.6-2.4,6.4c-0.2,2.8,0,6.5,0.9,10.9c0.8,4.5,2.1,10.1,4,16.9c1.9,7,3.6,12.7,5.2,17.2c1.6,4.5,3.2,7.9,4.8,10.3
		c1.7,2.4,3.4,4,5.4,4.6C819.5,697.8,821.8,697.8,824.5,697z"/>
	<path class="st0" d="M943.2,696.1c-9.8,2.6-18.4,3.5-25.7,2.7c-7.3-0.9-13.7-3.4-19.1-7.8c-5.4-4.3-10-10.2-13.9-17.7
		c-3.8-7.5-7.2-16.6-10.1-27.4c-3.3-12.4-4.9-23-4.6-31.7c0.2-8.8,1.9-16.1,5-22c3.1-5.9,7.5-10.6,13.2-14.1
		c5.7-3.5,12.4-6.3,20.1-8.4c8.9-2.4,16.2-3.2,21.8-2.6c5.7,0.7,10.3,1.9,13.9,3.7l-6.1,29.8c-2.9-1.4-5.7-2.3-8.5-2.8
		s-5.9-0.3-9.3,0.6c-2.7,0.7-4.9,1.7-6.6,2.9c-1.7,1.2-2.9,3.1-3.6,5.6c-0.6,2.5-0.7,5.9-0.2,10.2c0.5,4.2,1.7,9.7,3.4,16.4
		c2.2,8.1,4.2,14.4,6,19c1.9,4.6,3.7,7.9,5.7,10c1.9,2.1,4,3.3,6.2,3.5c2.2,0.2,4.6,0,7.3-0.7c3.6-1,6.5-2.4,8.6-4.4
		c2.1-1.9,3.9-4.2,5.3-6.7l20.6,21.5c-2.5,4.2-6.1,8.1-10.8,11.7C957.4,691,951.1,693.9,943.2,696.1z"/>
	<path class="st0" d="M1006.2,545.8l35.7-9.6l-10.3,60.4l47.1,60.6l-38.6,10.3l-36.8-51.9l15.4,57.7l-36.4,9.8L949.6,561l36.4-9.8
		l13.2,49.2L1006.2,545.8z"/>
</g>
<g>
	<path class="st0" d="M1089.2,523.6l40.8-10.9c7.4-2,14.1-3.1,20.2-3.4c6.1-0.3,11.6,0.6,16.3,2.6c4.7,2,8.8,5.3,12.2,9.8
		c3.4,4.5,6.1,10.6,8.2,18.2c2,7.5,2.9,14.1,2.7,19.8c-0.2,5.7-1.7,10.7-4.5,14.9c-2.8,4.3-7,7.9-12.6,11
		c-5.6,3.1-12.7,5.8-21.5,8.1l-3.7,1l11.1,41.4l-36.4,9.8L1089.2,523.6z M1146.3,565.6c3.5-0.9,5.7-2.5,6.7-4.6
		c0.9-2.1,0.7-5.8-0.7-10.9c-1.3-4.9-3-7.9-5-8.9c-2-1-4.4-1.2-7.2-0.4l-6.7,1.8l6.6,24.7L1146.3,565.6z"/>
	<path class="st0" d="M1238.8,614.4l-34.7,9.3l-1.5-130.5l38.6-10.3l62.3,114.2l-38.7,10.4l-6.3-14.5l-21,5.6L1238.8,614.4z
		 M1237.2,544.6c-1.5-3.1-2.9-6.6-4.2-10.6c-1.4-3.9-2.4-7.1-3.2-9.4l-0.2,0c0.3,1.2,0.6,2.6,1,4.3c0.3,1.7,0.7,3.5,1,5.5
		c0.3,1.9,0.6,3.8,0.9,5.8c0.3,1.9,0.4,3.8,0.5,5.5l2.2,26.6l12.6-3.4L1237.2,544.6z"/>
	<path class="st0" d="M1278.1,473l44.3-11.9c8.4-2.3,15.6-3.4,21.6-3.4c6,0,11.1,1,15.3,3c4.2,2.1,7.6,5.1,10.3,9.2
		c2.6,4,4.8,9.1,6.4,15c1.3,4.9,1.9,9.2,1.9,12.9c-0.1,3.7-0.6,6.9-1.7,9.7c-1.1,2.7-2.6,5.1-4.6,7.1c-2,2-4.2,3.7-6.7,5.3
		c2.4,0,4.6,0.2,6.6,0.8c2,0.5,3.9,1.4,5.8,2.7c1.8,1.3,3.6,3,5.3,5.1c1.7,2.1,3.4,4.8,5.2,8.1l17.6,33.4l-38.6,10.3l-17-35.4
		c-1.7-3.4-3.3-5.6-4.8-6.4c-1.5-0.8-3.7-0.9-6.3-0.2l-3.7,1l12.4,46.3l-36.4,9.8L1278.1,473z M1336.1,511.1c6-1.6,7.9-6.3,5.8-14
		c-1.8-6.8-5.6-9.4-11.3-7.9l-8.4,2.3l5.8,21.7L1336.1,511.1z"/>
	<path class="st0" d="M1407.1,470.5l-22.8,6.1l-8-30l82-22l8,30l-22.8,6.1l24.7,92.2l-36.4,9.8L1407.1,470.5z"/>
	<path class="st0" d="M1513.2,484.5l-48.8-61.5l37.8-10.1l13.5,20.4c2,3,3.9,6.2,5.6,9.8c1.7,3.6,3.3,7.3,4.7,11.3
		c-0.5-4.2-1-8.3-1.5-12.2c-0.5-3.9-0.6-7.6-0.5-11.1l1.4-24.4l36.1-9.7l-12.3,76.7l14.4,53.6l-36.4,9.8L1513.2,484.5z"/>
</g>
<g>
	
		<rect x="1683.8" y="400.6" transform="matrix(0.9659 -0.2588 0.2588 0.9659 -53.7673 454.6075)" class="st1" width="31.7" height="61.7"/>
	
		<rect x="1651.6" y="410.6" transform="matrix(0.9659 -0.2588 0.2588 0.9659 -57.6229 445.2993)" class="st1" width="21.6" height="61.7"/>
	
		<rect x="1626.9" y="418.3" transform="matrix(0.9659 -0.2588 0.2588 0.9659 -60.5796 438.161)" class="st2" width="13.7" height="61.7"/>
	
		<rect x="1605.3" y="424.5" transform="matrix(0.9659 -0.2588 0.2588 0.9659 -62.9794 432.3675)" class="st2" width="10.5" height="61.7"/>
	<polygon class="st3" points="1884.8,381.9 1771,355.6 1777.2,378.8 1718.5,394.5 1734.5,454.1 1793.2,438.4 1799.4,461.6 	"/>
</g>
<g>
	
		<rect x="464.4" y="721.3" transform="matrix(0.9659 -0.2588 0.2588 0.9659 -178.322 149.9213)" class="st1" width="31.7" height="61.7"/>
	
		<rect x="506.7" y="711.3" transform="matrix(0.9659 -0.2588 0.2588 0.9659 -174.4664 159.2296)" class="st1" width="21.6" height="61.7"/>
	
		<rect x="539.2" y="703.7" transform="matrix(0.9659 -0.2588 0.2588 0.9659 -171.5097 166.3678)" class="st2" width="13.7" height="61.7"/>
	
		<rect x="564" y="697.5" transform="matrix(0.9659 -0.2588 0.2588 0.9659 -169.1099 172.1613)" class="st2" width="10.5" height="61.7"/>
	<polygon class="st3" points="295.1,801.8 408.9,828.1 402.7,804.9 461.4,789.2 445.4,729.6 386.7,745.3 380.5,722.2 	"/>
</g>
<g>
	<line class="st4" x1="626.6" y1="-52.5" x2="698.1" y2="209"/>
	<line class="st4" x1="525.3" y1="-12.9" x2="662.1" y2="221.2"/>
	<line class="st4" x1="441.9" y1="54.4" x2="634.7" y2="245.1"/>
	<line class="st4" x1="376.2" y1="140.7" x2="611.7" y2="275.1"/>
	<line class="st4" x1="734.8" y1="-65.7" x2="733.4" y2="205.4"/>
	<line class="st4" x1="841.5" y1="-51.5" x2="769.9" y2="210"/>
	<line class="st4" x1="940.9" y1="-9.1" x2="804.1" y2="225"/>
	<line class="st4" x1="1026.3" y1="55.7" x2="833.6" y2="246.4"/>
	<line class="st4" x1="1090.4" y1="141" x2="854.9" y2="275.3"/>
	<line class="st4" x1="337.3" y1="240.3" x2="599.5" y2="309.2"/>
	<line class="st4" x1="324.4" y1="346.3" x2="595.5" y2="344.9"/>
	<line class="st4" x1="871" y1="309.8" x2="1132.5" y2="238.3"/>
	<line class="st4" x1="336.1" y1="453.1" x2="597.6" y2="381.6"/>
	<g>
		<g>
			<g>
				<path class="st5" d="M736.3,354.4L736.3,354.4c-5.3,1.4-10.6-1.9-11.6-7.3l-13.5-70.7c-0.4-2.1,0.9-4.2,3-4.8l0,0
					c2.1-0.6,4.3,0.6,5,2.6l23.6,68C744.5,347.4,741.6,353,736.3,354.4z"/>
				<path class="st6" d="M712.6,265.9L712.6,265.9c-1.8,0.5-3.7-0.7-4-2.5l-4.7-24.5c-0.1-0.7,0.3-1.5,1-1.6l0,0
					c0.7-0.2,1.5,0.2,1.7,0.9l8.2,23.5C715.5,263.5,714.4,265.5,712.6,265.9z"/>
				<path class="st7" d="M703.4,231.7L703.4,231.7c-0.9,0.2-1.7-0.3-1.9-1.2l-2.2-11.6c-0.1-0.3,0.1-0.7,0.5-0.8l0,0
					c0.3-0.1,0.7,0.1,0.8,0.4l3.9,11.1C704.8,230.5,704.3,231.4,703.4,231.7z"/>
			</g>
			<g>
				<path class="st5" d="M738.6,353.4L738.6,353.4c-4.7,2.7-10.7,0.9-13.1-4l-31.4-64.8c-0.9-1.9-0.2-4.3,1.6-5.4l0,0
					c1.9-1.1,4.3-0.5,5.5,1.3l40.4,59.6C744.7,344.6,743.3,350.7,738.6,353.4z"/>
				<path class="st6" d="M692.8,274.2L692.8,274.2c-1.6,0.9-3.7,0.3-4.5-1.4l-10.8-22.4c-0.3-0.7-0.1-1.5,0.6-1.9l0,0
					c0.6-0.4,1.5-0.2,1.9,0.4l14,20.6C694.9,271.1,694.4,273.2,692.8,274.2z"/>
				<path class="st7" d="M675,243.4L675,243.4c-0.8,0.4-1.8,0.1-2.1-0.7l-5.1-10.6c-0.2-0.3,0-0.7,0.3-0.9l0,0
					c0.3-0.2,0.7-0.1,0.9,0.2l6.6,9.7C676,242,675.8,243,675,243.4z"/>
			</g>
			<g>
				<path class="st5" d="M740.5,352L740.5,352c-3.8,3.8-10.2,3.6-13.7-0.5L679.7,297c-1.4-1.6-1.3-4.1,0.2-5.6l0,0
					c1.5-1.5,4-1.6,5.6-0.2l54.5,47.1C744.1,341.8,744.4,348.1,740.5,352z"/>
				<path class="st6" d="M675.8,287.2L675.8,287.2c-1.3,1.3-3.5,1.3-4.7-0.2l-16.3-18.8c-0.5-0.6-0.5-1.4,0.1-1.9l0,0
					c0.5-0.5,1.4-0.6,1.9-0.1l18.8,16.3C677,283.7,677.1,285.9,675.8,287.2z"/>
				<path class="st7" d="M650.7,262.1L650.7,262.1c-0.6,0.6-1.7,0.6-2.2-0.1l-7.7-8.9c-0.2-0.3-0.2-0.7,0-0.9l0,0
					c0.2-0.2,0.6-0.3,0.9,0l8.9,7.7C651.3,260.5,651.3,261.5,650.7,262.1z"/>
			</g>
			<g>
				<path class="st5" d="M742,350L742,350c-2.7,4.7-8.9,6.1-13.4,3.1L669,312.6c-1.8-1.2-2.3-3.6-1.3-5.5v0c1.1-1.9,3.4-2.6,5.4-1.6
					l64.8,31.4C742.9,339.3,744.7,345.3,742,350z"/>
				<path class="st6" d="M662.7,304.2L662.7,304.2c-0.9,1.6-3.1,2.1-4.6,1.1l-20.6-14c-0.6-0.4-0.8-1.2-0.4-1.9l0,0
					c0.4-0.6,1.2-0.9,1.9-0.6l22.4,10.8C663,300.5,663.7,302.6,662.7,304.2z"/>
				<path class="st7" d="M632,286.5L632,286.5c-0.4,0.8-1.4,1-2.2,0.5l-9.7-6.6c-0.3-0.2-0.4-0.6-0.2-0.9v0c0.2-0.3,0.6-0.4,0.9-0.3
					l10.6,5.1C632.1,284.7,632.4,285.7,632,286.5z"/>
			</g>
			<g>
				<path class="st5" d="M742.9,347.8L742.9,347.8c-1.4,5.3-7,8.2-12.1,6.4l-68-23.6c-2-0.7-3.2-2.9-2.6-5l0,0
					c0.6-2.1,2.6-3.4,4.8-3l70.7,13.5C741,337.2,744.3,342.5,742.9,347.8z"/>
				<path class="st6" d="M654.5,324.1L654.5,324.1c-0.5,1.8-2.4,2.8-4.2,2.2l-23.5-8.2c-0.7-0.2-1.1-1-0.9-1.7l0,0
					c0.2-0.7,0.9-1.2,1.6-1L652,320C653.8,320.4,655,322.2,654.5,324.1z"/>
				<path class="st7" d="M620.2,314.9L620.2,314.9c-0.2,0.9-1.1,1.3-2,1l-11.1-3.9c-0.3-0.1-0.5-0.5-0.4-0.8l0,0
					c0.1-0.3,0.4-0.6,0.8-0.5L619,313C619.9,313.1,620.5,314,620.2,314.9z"/>
			</g>
			<g>
				<path class="st5" d="M743.3,345.3L743.3,345.3c0,5.4-4.6,9.7-10.1,9.3l-71.8-5.2c-2.2-0.2-3.8-2-3.8-4.1l0,0
					c0-2.2,1.7-4,3.8-4.1l71.8-5.2C738.6,335.6,743.3,339.9,743.3,345.3z"/>
				<path class="st6" d="M651.7,345.3L651.7,345.3c0,1.9-1.6,3.4-3.5,3.2l-24.8-1.8c-0.7-0.1-1.3-0.7-1.3-1.4l0,0
					c0-0.7,0.6-1.4,1.3-1.4l24.8-1.8C650.1,342,651.7,343.5,651.7,345.3z"/>
				<path class="st7" d="M616.2,345.3L616.2,345.3c0,0.9-0.8,1.6-1.6,1.5l-11.7-0.9c-0.4,0-0.6-0.3-0.6-0.7l0,0
					c0-0.4,0.3-0.6,0.6-0.7l11.7-0.9C615.5,343.7,616.2,344.4,616.2,345.3z"/>
			</g>
			<g>
				<path class="st5" d="M742.9,342.9L742.9,342.9c1.4,5.3-1.9,10.6-7.3,11.6l-70.7,13.5c-2.1,0.4-4.2-0.9-4.8-3l0,0
					c-0.6-2.1,0.6-4.3,2.6-5l68-23.6C736,334.7,741.5,337.7,742.9,342.9z"/>
				<path class="st6" d="M654.5,366.6L654.5,366.6c0.5,1.8-0.7,3.7-2.5,4l-24.5,4.7c-0.7,0.1-1.5-0.3-1.6-1l0,0
					c-0.2-0.7,0.2-1.5,0.9-1.7l23.5-8.2C652.1,363.8,654,364.8,654.5,366.6z"/>
				<path class="st7" d="M620.2,375.8L620.2,375.8c0.2,0.9-0.3,1.7-1.2,1.9l-11.6,2.2c-0.3,0.1-0.7-0.1-0.8-0.5l0,0
					c-0.1-0.3,0.1-0.7,0.4-0.8l11.1-3.9C619.1,374.4,620,374.9,620.2,375.8z"/>
			</g>
		</g>
		<g>
			<g>
				<path class="st5" d="M724.8,347.8L724.8,347.8c-1.4-5.3,1.9-10.6,7.3-11.6l70.7-13.5c2.1-0.4,4.2,0.9,4.8,3l0,0
					c0.6,2.1-0.6,4.3-2.6,5l-68,23.6C731.8,356,726.2,353,724.8,347.8z"/>
				<path class="st6" d="M813.3,324.1L813.3,324.1c-0.5-1.8,0.7-3.7,2.5-4l24.5-4.7c0.7-0.1,1.5,0.3,1.6,1l0,0
					c0.2,0.7-0.2,1.5-0.9,1.7l-23.5,8.2C815.7,326.9,813.8,325.9,813.3,324.1z"/>
				<path class="st7" d="M847.5,314.9L847.5,314.9c-0.2-0.9,0.3-1.7,1.2-1.9l11.6-2.2c0.3-0.1,0.7,0.1,0.8,0.5l0,0
					c0.1,0.3-0.1,0.7-0.4,0.8l-11.1,3.9C848.7,316.2,847.8,315.7,847.5,314.9z"/>
			</g>
			<g>
				<path class="st5" d="M725.8,350L725.8,350c-2.7-4.7-0.9-10.7,4-13.1l64.8-31.4c1.9-0.9,4.3-0.2,5.4,1.6l0,0
					c1.1,1.9,0.5,4.3-1.3,5.5l-59.6,40.4C734.6,356.1,728.5,354.7,725.8,350z"/>
				<path class="st6" d="M805.1,304.2L805.1,304.2c-0.9-1.6-0.3-3.7,1.4-4.5l22.4-10.8c0.7-0.3,1.5-0.1,1.9,0.6l0,0
					c0.4,0.6,0.2,1.5-0.4,1.9l-20.6,14C808.1,306.4,806,305.9,805.1,304.2z"/>
				<path class="st7" d="M835.8,286.5L835.8,286.5c-0.4-0.8-0.1-1.8,0.7-2.1l10.6-5.1c0.3-0.2,0.7,0,0.9,0.3l0,0
					c0.2,0.3,0.1,0.7-0.2,0.9L838,287C837.2,287.5,836.2,287.3,835.8,286.5z"/>
			</g>
			<g>
				<path class="st5" d="M727.3,352L727.3,352c-3.8-3.8-3.6-10.2,0.5-13.7l54.5-47.1c1.6-1.4,4.1-1.3,5.6,0.2h0
					c1.5,1.5,1.6,4,0.2,5.6L741,351.5C737.4,355.6,731.1,355.8,727.3,352z"/>
				<path class="st6" d="M792,287.2L792,287.2c-1.3-1.3-1.3-3.5,0.2-4.7l18.8-16.3c0.6-0.5,1.4-0.5,1.9,0.1l0,0
					c0.5,0.5,0.6,1.4,0.1,1.9L796.7,287C795.5,288.5,793.3,288.5,792,287.2z"/>
				<path class="st7" d="M817.1,262.1L817.1,262.1c-0.6-0.6-0.6-1.7,0.1-2.2l8.9-7.7c0.3-0.2,0.7-0.2,0.9,0l0,0
					c0.2,0.2,0.3,0.6,0,0.9l-7.7,8.9C818.8,262.7,817.7,262.8,817.1,262.1z"/>
			</g>
			<g>
				<path class="st5" d="M729.2,353.5L729.2,353.5c-4.7-2.7-6.1-8.9-3.1-13.4l40.4-59.6c1.2-1.8,3.6-2.3,5.5-1.3l0,0
					c1.9,1.1,2.6,3.4,1.6,5.4l-31.4,64.8C739.9,354.3,733.9,356.2,729.2,353.5z"/>
				<path class="st6" d="M775,274.2L775,274.2c-1.6-0.9-2.1-3.1-1.1-4.6l14-20.6c0.4-0.6,1.2-0.8,1.9-0.4l0,0
					c0.6,0.4,0.9,1.2,0.6,1.9l-10.8,22.4C778.7,274.5,776.6,275.1,775,274.2z"/>
				<path class="st7" d="M792.7,243.4L792.7,243.4c-0.8-0.4-1-1.4-0.5-2.2l6.6-9.7c0.2-0.3,0.6-0.4,0.9-0.2v0
					c0.3,0.2,0.4,0.6,0.3,0.9l-5.1,10.6C794.5,243.6,793.5,243.9,792.7,243.4z"/>
			</g>
			<g>
				<path class="st5" d="M731.5,354.4L731.5,354.4c-5.3-1.4-8.2-7-6.4-12.1l23.6-68c0.7-2,2.9-3.2,5-2.6l0,0c2.1,0.6,3.4,2.6,3,4.8
					l-13.5,70.7C742.1,352.4,736.7,355.8,731.5,354.4z"/>
				<path class="st6" d="M755.2,265.9L755.2,265.9c-1.8-0.5-2.8-2.4-2.2-4.2l8.2-23.5c0.2-0.7,1-1.1,1.7-0.9h0
					c0.7,0.2,1.2,0.9,1,1.6l-4.7,24.5C758.8,265.3,757,266.4,755.2,265.9z"/>
				<path class="st7" d="M764.3,231.7L764.3,231.7c-0.9-0.2-1.3-1.1-1-2l3.9-11.1c0.1-0.3,0.5-0.5,0.8-0.4l0,0
					c0.3,0.1,0.6,0.4,0.5,0.8l-2.2,11.6C766.1,231.4,765.2,231.9,764.3,231.7z"/>
			</g>
			<g>
				<path class="st5" d="M733.9,354.7L733.9,354.7c-5.4,0-9.7-4.6-9.3-10.1l5.2-71.8c0.2-2.2,2-3.8,4.1-3.8l0,0c2.2,0,4,1.7,4.1,3.8
					l5.2,71.8C743.6,350.1,739.3,354.7,733.9,354.7z"/>
				<path class="st6" d="M733.9,263.1L733.9,263.1c-1.9,0-3.4-1.6-3.2-3.5l1.8-24.8c0.1-0.7,0.7-1.3,1.4-1.3l0,0
					c0.7,0,1.4,0.6,1.4,1.3l1.8,24.8C737.3,261.5,735.8,263.1,733.9,263.1z"/>
				<path class="st7" d="M733.9,227.7L733.9,227.7c-0.9,0-1.6-0.8-1.5-1.6l0.9-11.7c0-0.4,0.3-0.6,0.7-0.6l0,0
					c0.4,0,0.6,0.3,0.7,0.6l0.9,11.7C735.5,226.9,734.8,227.7,733.9,227.7z"/>
			</g>
		</g>
	</g>
</g>
<g>
	<text transform="matrix(0.9659 -0.2588 0.2588 0.9659 1571.74 577.5992)" class="st8 st9 st10 st11">#Go4thDTLA</text>
	<line class="st4" x1="1502.9" y1="1242.1" x2="1392.8" y2="839.4"/>
	<line class="st4" x1="1658.8" y1="1181.1" x2="1448.2" y2="820.6"/>
	<line class="st4" x1="1861.5" y1="1151.1" x2="1490.5" y2="783.8"/>
	<line class="st4" x1="1965.5" y1="988.5" x2="1525.9" y2="737.7"/>
	<line class="st4" x1="1336.3" y1="1262.4" x2="1338.5" y2="844.9"/>
	<line class="st4" x1="1172" y1="1240.6" x2="1282.1" y2="837.9"/>
	<line class="st12" x1="1018.9" y1="1175.3" x2="1229.5" y2="814.9"/>
	<line class="st4" x1="887.4" y1="1075.5" x2="1184.1" y2="781.8"/>
	<line class="st4" x1="788.7" y1="944.2" x2="1151.3" y2="737.3"/>
	<line class="st4" x1="1126.6" y1="684.2" x2="723.9" y2="794.3"/>
	<line class="st4" x1="1955.5" y1="789.3" x2="1551.7" y2="683.3"/>
	<line class="st4" x1="1975.4" y1="626.2" x2="1557.9" y2="628.3"/>
	<g>
		<g>
			<g>
				<path class="st5" d="M1333.9,615.6L1333.9,615.6c8.1-2.2,16.3,3,17.9,11.2l20.8,108.9c0.6,3.3-1.4,6.5-4.6,7.3l0,0
					c-3.2,0.9-6.5-0.9-7.6-4L1324,634.3C1321.3,626.3,1325.8,617.8,1333.9,615.6z"/>
				<path class="st6" d="M1370.4,751.8L1370.4,751.8c2.8-0.8,5.6,1,6.2,3.9l7.2,37.6c0.2,1.1-0.5,2.2-1.6,2.5l0,0
					c-1.1,0.3-2.3-0.3-2.6-1.4l-12.6-36.2C1366.1,755.5,1367.6,752.5,1370.4,751.8z"/>
				<path class="st7" d="M1384.6,804.5L1384.6,804.5c1.3-0.4,2.7,0.5,2.9,1.8l3.4,17.8c0.1,0.5-0.2,1.1-0.8,1.2l0,0
					c-0.5,0.1-1.1-0.1-1.2-0.7l-5.9-17.1C1382.5,806.3,1383.2,804.9,1384.6,804.5z"/>
			</g>
			<g>
				<path class="st5" d="M1330.5,617L1330.5,617c7.3-4.2,16.6-1.3,20.2,6.2L1399,723c1.5,3,0.3,6.6-2.5,8.3l0,0
					c-2.9,1.7-6.6,0.8-8.4-1.9l-62.3-91.7C1321,630.7,1323.2,621.2,1330.5,617z"/>
				<path class="st6" d="M1400.9,739.1L1400.9,739.1c2.5-1.4,5.7-0.5,7,2.1l16.7,34.5c0.5,1,0.1,2.3-0.9,2.9l0,0
					c-1,0.6-2.3,0.3-2.9-0.7l-21.5-31.7C1397.7,743.8,1398.4,740.6,1400.9,739.1z"/>
				<path class="st7" d="M1428.3,786.4L1428.3,786.4c1.2-0.7,2.7-0.2,3.3,1l7.9,16.3c0.2,0.5,0.1,1.1-0.4,1.3l0,0
					c-0.5,0.3-1.1,0.1-1.4-0.3l-10.2-15C1426.7,788.7,1427.1,787.1,1428.3,786.4z"/>
			</g>
			<g>
				<path class="st5" d="M1327.5,619.3L1327.5,619.3c5.9-5.9,15.6-5.6,21.1,0.8l72.5,83.9c2.2,2.5,2,6.3-0.3,8.6l0,0
					c-2.4,2.4-6.1,2.5-8.6,0.3l-83.9-72.5C1321.9,635,1321.5,625.2,1327.5,619.3z"/>
				<path class="st6" d="M1427.2,719L1427.2,719c2-2,5.4-1.9,7.3,0.3l25.1,29c0.8,0.9,0.7,2.2-0.1,3l0,0c-0.8,0.8-2.1,0.9-3,0.1
					l-29-25.1C1425.2,724.4,1425.1,721.1,1427.2,719z"/>
				<path class="st7" d="M1465.8,757.6L1465.8,757.6c1-1,2.6-0.9,3.4,0.1l11.8,13.7c0.4,0.4,0.3,1-0.1,1.4l0,0
					c-0.4,0.4-1,0.4-1.4,0.1l-13.7-11.8C1464.9,760.2,1464.8,758.6,1465.8,757.6z"/>
			</g>
			<g>
				<path class="st5" d="M1325.2,622.3L1325.2,622.3c4.2-7.3,13.7-9.4,20.6-4.7l91.7,62.3c2.8,1.9,3.6,5.5,1.9,8.4l0,0
					c-1.7,2.9-5.3,4-8.3,2.5l-99.8-48.3C1323.8,638.9,1321,629.6,1325.2,622.3z"/>
				<path class="st6" d="M1447.3,692.8L1447.3,692.8c1.4-2.5,4.7-3.3,7.1-1.6l31.7,21.5c1,0.6,1.2,1.9,0.7,2.9l0,0
					c-0.6,1-1.8,1.4-2.9,0.9l-34.5-16.7C1446.8,698.5,1445.8,695.3,1447.3,692.8z"/>
				<path class="st7" d="M1494.6,720.1L1494.6,720.1c0.7-1.2,2.2-1.5,3.4-0.8l15,10.2c0.4,0.3,0.6,0.9,0.3,1.4l0,0
					c-0.3,0.5-0.9,0.7-1.3,0.4l-16.3-7.9C1494.4,722.8,1493.9,721.3,1494.6,720.1z"/>
			</g>
			<g>
				<path class="st5" d="M1323.7,625.8L1323.7,625.8c2.2-8.1,10.8-12.6,18.7-9.9l104.7,36.4c3.1,1.1,4.9,4.4,4,7.6l0,0
					c-0.9,3.2-4.1,5.2-7.3,4.6L1335,643.7C1326.7,642.1,1321.6,633.9,1323.7,625.8z"/>
				<path class="st6" d="M1459.9,662.3L1459.9,662.3c0.8-2.8,3.7-4.4,6.5-3.4l36.2,12.6c1.1,0.4,1.7,1.5,1.4,2.6l0,0
					c-0.3,1.1-1.4,1.8-2.5,1.6l-37.6-7.2C1460.9,667.9,1459.2,665.1,1459.9,662.3z"/>
				<path class="st7" d="M1512.7,676.4L1512.7,676.4c0.4-1.3,1.8-2.1,3.1-1.6l17.1,5.9c0.5,0.2,0.8,0.7,0.7,1.2l0,0
					c-0.1,0.5-0.7,0.9-1.2,0.8l-17.8-3.4C1513.2,679.1,1512.3,677.7,1512.7,676.4z"/>
			</g>
			<g>
				<path class="st5" d="M1323.2,629.5L1323.2,629.5c0-8.4,7.1-15,15.5-14.4l110.6,8.1c3.3,0.2,5.9,3,5.9,6.3l0,0
					c0,3.3-2.6,6.1-5.9,6.3l-110.6,8.1C1330.4,644.5,1323.2,637.9,1323.2,629.5z"/>
				<path class="st6" d="M1464.2,629.5L1464.2,629.5c0-2.9,2.5-5.2,5.4-5l38.2,2.8c1.1,0.1,2,1,2,2.2l0,0c0,1.2-0.9,2.1-2,2.2
					l-38.2,2.8C1466.7,634.7,1464.2,632.4,1464.2,629.5z"/>
				<path class="st7" d="M1518.9,629.5L1518.9,629.5c0-1.4,1.2-2.5,2.5-2.4l18.1,1.3c0.5,0,1,0.5,1,1l0,0c0,0.5-0.4,1-1,1l-18.1,1.3
					C1520,632,1518.9,630.9,1518.9,629.5z"/>
			</g>
			<g>
				<path class="st5" d="M1323.7,633.3L1323.7,633.3c-2.2-8.1,3-16.3,11.2-17.9l108.9-20.8c3.3-0.6,6.5,1.4,7.3,4.6l0,0
					c0.9,3.2-0.9,6.5-4,7.6l-104.7,36.4C1334.5,645.9,1325.9,641.4,1323.7,633.3z"/>
				<path class="st6" d="M1459.9,596.8L1459.9,596.8c-0.8-2.8,1-5.6,3.9-6.2l37.6-7.2c1.1-0.2,2.2,0.5,2.5,1.6l0,0
					c0.3,1.1-0.3,2.3-1.4,2.6l-36.2,12.6C1463.6,601.1,1460.7,599.6,1459.9,596.8z"/>
				<path class="st7" d="M1512.7,582.6L1512.7,582.6c-0.4-1.3,0.5-2.7,1.8-2.9l17.8-3.4c0.5-0.1,1.1,0.2,1.2,0.8l0,0
					c0.1,0.5-0.1,1.1-0.7,1.2l-17.1,5.9C1514.4,584.7,1513,583.9,1512.7,582.6z"/>
			</g>
		</g>
		<g>
			<g>
				<path class="st5" d="M1351.6,625.8L1351.6,625.8c2.2,8.1-3,16.3-11.2,17.9l-108.9,20.8c-3.3,0.6-6.5-1.4-7.3-4.6l0,0
					c-0.9-3.2,0.9-6.5,4-7.6l104.7-36.4C1340.9,613.1,1349.4,617.7,1351.6,625.8z"/>
				<path class="st6" d="M1215.4,662.3L1215.4,662.3c0.8,2.8-1,5.6-3.9,6.2l-37.6,7.2c-1.1,0.2-2.2-0.5-2.5-1.6l0,0
					c-0.3-1.1,0.3-2.3,1.4-2.6l36.2-12.6C1211.7,657.9,1214.7,659.5,1215.4,662.3z"/>
				<path class="st7" d="M1162.7,676.4L1162.7,676.4c0.4,1.3-0.5,2.7-1.8,2.9l-17.8,3.4c-0.5,0.1-1.1-0.2-1.2-0.8l0,0
					c-0.1-0.5,0.1-1.1,0.7-1.2l17.1-5.9C1160.9,674.3,1162.3,675.1,1162.7,676.4z"/>
			</g>
			<g>
				<path class="st5" d="M1350.2,622.3L1350.2,622.3c4.2,7.3,1.3,16.6-6.2,20.2l-99.8,48.3c-3,1.5-6.6,0.3-8.3-2.5l0,0
					c-1.7-2.9-0.8-6.6,1.9-8.4l91.7-62.3C1336.5,612.9,1346,615.1,1350.2,622.3z"/>
				<path class="st6" d="M1228.1,692.8L1228.1,692.8c1.4,2.5,0.5,5.7-2.1,7l-34.5,16.7c-1,0.5-2.3,0.1-2.9-0.9l0,0
					c-0.6-1-0.3-2.3,0.7-2.9l31.7-21.5C1223.3,689.5,1226.6,690.3,1228.1,692.8z"/>
				<path class="st7" d="M1180.8,720.1L1180.8,720.1c0.7,1.2,0.2,2.7-1,3.3l-16.3,7.9c-0.5,0.2-1.1,0.1-1.3-0.4l0,0
					c-0.3-0.5-0.1-1.1,0.3-1.4l15-10.2C1178.5,718.6,1180.1,718.9,1180.8,720.1z"/>
			</g>
			<g>
				<path class="st5" d="M1347.9,619.3L1347.9,619.3c5.9,5.9,5.6,15.6-0.8,21.1l-83.9,72.5c-2.5,2.2-6.3,2-8.6-0.3l0,0
					c-2.4-2.4-2.5-6.1-0.3-8.6l72.5-83.9C1332.2,613.7,1341.9,613.4,1347.9,619.3z"/>
				<path class="st6" d="M1248.2,719L1248.2,719c2,2,1.9,5.4-0.3,7.3l-29,25.1c-0.9,0.8-2.2,0.7-3-0.1l0,0c-0.8-0.8-0.9-2.1-0.1-3
					l25.1-29C1242.8,717.1,1246.1,717,1248.2,719z"/>
				<path class="st7" d="M1209.5,757.6L1209.5,757.6c1,1,0.9,2.6-0.1,3.4l-13.7,11.8c-0.4,0.4-1,0.3-1.4-0.1l0,0
					c-0.4-0.4-0.4-1-0.1-1.4l11.8-13.7C1207,756.7,1208.6,756.7,1209.5,757.6z"/>
			</g>
			<g>
				<path class="st5" d="M1344.9,617L1344.9,617c7.3,4.2,9.4,13.7,4.7,20.6l-62.3,91.7c-1.9,2.8-5.5,3.6-8.4,1.9l0,0
					c-2.9-1.7-4-5.3-2.5-8.3l48.3-99.8C1328.3,615.7,1337.6,612.8,1344.9,617z"/>
				<path class="st6" d="M1274.4,739.1L1274.4,739.1c2.5,1.4,3.3,4.7,1.6,7.1l-21.5,31.7c-0.6,1-1.9,1.2-2.9,0.7l0,0
					c-1-0.6-1.4-1.8-0.9-2.9l16.7-34.5C1268.7,738.7,1271.9,737.7,1274.4,739.1z"/>
				<path class="st7" d="M1247.1,786.4L1247.1,786.4c1.2,0.7,1.5,2.2,0.8,3.4l-10.2,15c-0.3,0.4-0.9,0.6-1.4,0.3l0,0
					c-0.5-0.3-0.7-0.9-0.4-1.3l7.9-16.3C1244.4,786.2,1245.9,785.7,1247.1,786.4z"/>
			</g>
			<g>
				<path class="st5" d="M1341.4,615.6L1341.4,615.6c8.1,2.2,12.6,10.8,9.9,18.7L1314.9,739c-1.1,3.1-4.4,4.9-7.6,4l0,0
					c-3.2-0.9-5.2-4.1-4.6-7.3l20.8-108.9C1325.1,618.6,1333.3,613.4,1341.4,615.6z"/>
				<path class="st6" d="M1304.9,751.8L1304.9,751.8c2.8,0.8,4.4,3.7,3.4,6.5l-12.6,36.2c-0.4,1.1-1.5,1.7-2.6,1.4l0,0
					c-1.1-0.3-1.8-1.4-1.6-2.5l7.2-37.6C1299.3,752.8,1302.1,751,1304.9,751.8z"/>
				<path class="st7" d="M1290.8,804.5L1290.8,804.5c1.3,0.4,2.1,1.8,1.6,3.1l-5.9,17.1c-0.2,0.5-0.7,0.8-1.2,0.7l0,0
					c-0.5-0.1-0.9-0.7-0.8-1.2l3.4-17.8C1288.1,805,1289.5,804.2,1290.8,804.5z"/>
			</g>
			<g>
				<path class="st5" d="M1337.7,615.1L1337.7,615.1c8.4,0,15,7.1,14.4,15.5l-8.1,110.6c-0.2,3.3-3,5.9-6.3,5.9l0,0
					c-3.3,0-6.1-2.6-6.3-5.9l-8.1-110.6C1322.7,622.2,1329.3,615.1,1337.7,615.1z"/>
				<path class="st6" d="M1337.7,756.1L1337.7,756.1c2.9,0,5.2,2.5,5,5.4l-2.8,38.2c-0.1,1.1-1,2-2.2,2l0,0c-1.2,0-2.1-0.9-2.2-2
					l-2.8-38.2C1332.5,758.5,1334.8,756.1,1337.7,756.1z"/>
				<path class="st7" d="M1337.7,810.7L1337.7,810.7c1.4,0,2.5,1.2,2.4,2.5l-1.3,18.1c0,0.5-0.5,1-1,1l0,0c-0.5,0-1-0.4-1-1
					l-1.3-18.1C1335.2,811.9,1336.3,810.7,1337.7,810.7z"/>
			</g>
		</g>
	</g>
</g>
<g>
	<g>
		<g>
			<path class="st13" d="M57.2,425.9l-0.8-3c-0.4-1.5-1-3-3.6-2.5l0,0l-2,0.5l0,0c-2.5,0.8-2.3,2.4-1.9,3.9l3.5,13.1
				c0.7,2.6,1.6,3.2,3.6,2.7l2-0.5c2.1-0.6,2.5-1.6,1.8-4.1l-1.9-7.1l-2.6,0.7l-1.3,0.4l0.6,2.4l1.3-0.4l1.2,4.6
				c0.2,0.6,0.2,1.1-0.5,1.3l-0.6,0.2c-0.7,0.2-0.9-0.2-1.1-0.9l-3.3-12.5c-0.2-0.8-0.3-1.4,0.7-1.7l0.2,0c1-0.3,1.2,0.3,1.4,1.1
				l0.7,2.5L57.2,425.9z"/>
			<path class="st13" d="M127.8,417.2l-0.6-2.2c-0.7-2.6-1.2-3.6-3-3.4c-0.1,0-0.1-0.1,0-0.1c1.9-0.6,1.6-2,0.7-5.4
				c-1-3.9-1.6-4.7-4.8-3.8l-4.2,1.1l5.3,19.8l2.6-0.7l0-0.1l0,0l-4.6-17.3l0,0l1.3-0.4c1.1-0.3,1.3-0.3,1.8,1.9
				c0.9,3.3,1,3.9-0.3,4.2l-0.2,0.1l0.6,2.2c0.7-0.2,0.8-0.2,1.2,0.3c0.5,0.6,0.9,2.1,1.1,2.9l0.7,2.8c0.9,3.3,3.8,1.9,3.8,1.9
				C128.6,420,128.5,419.6,127.8,417.2"/>
			<path class="st13" d="M69,433l-0.6-2.2c-0.7-2.6-1.2-3.6-3-3.4c-0.1,0-0.1-0.1,0-0.1c1.9-0.6,1.6-2,0.7-5.4
				c-1-3.9-1.6-4.7-4.8-3.9l-4.2,1.1l5.3,19.8l2.6-0.7l0-0.1l0,0l-4.6-17.3l0,0l1.3-0.4c1.1-0.3,1.3-0.3,1.8,1.9
				c0.9,3.3,1,3.9-0.3,4.2l-0.2,0.1l0.6,2.2c0.7-0.2,0.8-0.2,1.2,0.3c0.5,0.6,0.9,2.1,1.1,2.9l0.7,2.8c0.9,3.3,3.8,1.9,3.8,1.9
				C69.8,435.7,69.7,435.4,69,433"/>
			<path class="st13" d="M91.3,410.1l-4.7,1.3l5.3,19.8l2.5-0.7L89.7,413l1.5-0.4c1-0.3,1.2,0.3,1.4,1.1l3.3,12.5
				c0.2,0.6,0.2,1.1-0.5,1.3l-0.6,0.2l0.7,2.4l1.3-0.3c2.1-0.6,2.5-1.5,1.8-4.2l-3.5-13.1C94.7,410.8,94,409.3,91.3,410.1"/>
			<polygon class="st13" points="72.3,415.1 69.2,416 71.5,436.5 74,435.9 73.6,432.5 75.2,432.1 74.5,429.6 73.3,430 72.3,421.3 
				78.1,434.8 80.6,434.1 			"/>
			<polygon class="st13" points="112,404.5 108.9,405.3 111.2,425.9 113.7,425.2 113.3,421.9 114.9,421.5 114.3,419 113,419.3 
				112,410.6 117.8,424.1 120.3,423.4 			"/>
			<path class="st13" d="M82.2,412.5L82.2,412.5l3.5,13c-0.1-0.1-6.5-12.2-6.5-12.2l-2.8,0.7l5.3,19.8l2-0.5l0,0l0.5-0.1l-3.4-12.9
				c1.7,3.3,6.2,12.1,6.2,12.1l2.8-0.8l-5.3-19.8L82.2,412.5z"/>
			<path class="st13" d="M105.2,412.4c0.6,2.2,0.6,2.8-0.5,3.1l-0.4,0.1l0.6,2.2l0.6-0.2c3-0.8,3.2-2.2,2.2-5.7l-0.3-1.1
				c-1.1-3.9-1.6-4.7-4.8-3.8l-4.2,1.1l5.3,19.8l2.6-0.7l0-0.1l0,0l-4.6-17.3l0,0l1.3-0.4c1.1-0.3,1.3-0.3,1.8,1.9L105.2,412.4z"/>
			
				<rect x="128.2" y="400.2" transform="matrix(0.9659 -0.2588 0.2588 0.9659 -101.8211 47.4948)" class="st13" width="2.6" height="20.4"/>
			<polygon class="st13" points="132,399.3 134.8,398.5 133.6,408.8 140.4,418.2 137.5,419 131.1,409.8 			"/>
		</g>
	</g>
	<g>
		<g>
			<polygon class="st13" points="240.3,392.3 245.6,390.8 246,392 242,393.1 242.9,396.3 246,395.6 246.2,396.6 243.2,397.5 
				244.2,401.3 248.4,400.1 248.7,401.4 243.1,402.9 			"/>
		</g>
		<g>
			<polygon class="st13" points="215.8,398.8 221.1,397.4 221.5,398.6 217.5,399.7 218.3,402.9 221.5,402.2 221.7,403.2 
				218.7,404.1 219.7,407.8 223.9,406.7 224.2,407.9 218.6,409.4 			"/>
		</g>
		<g>
			<path class="st13" d="M213.8,410.9c-1.4,0.4-2.6,0.2-3.5-0.6c-0.9-0.8-1.6-2-2.1-3.8c-0.2-0.9-0.4-1.6-0.4-2.4
				c0-0.7,0-1.4,0.2-1.9c0.2-0.6,0.5-1,1-1.4c0.4-0.4,1-0.7,1.8-0.9c1-0.3,2-0.2,2.7,0.2l-0.4,1.2c-0.3-0.1-0.6-0.2-1-0.3
				c-0.3,0-0.7,0-1.1,0.1c-0.5,0.1-0.9,0.3-1.2,0.6c-0.3,0.3-0.5,0.6-0.6,1c-0.1,0.4-0.1,0.9,0,1.4c0.1,0.6,0.2,1.2,0.4,1.9
				c0.2,0.7,0.4,1.4,0.6,1.9c0.2,0.5,0.5,0.9,0.8,1.2c0.3,0.3,0.6,0.5,1,0.6c0.4,0.1,0.8,0.1,1.4-0.1c0.4-0.1,0.8-0.3,1-0.5
				c0.3-0.2,0.5-0.5,0.7-0.8l1,0.9c-0.3,0.4-0.6,0.7-1,1C214.8,410.6,214.4,410.8,213.8,410.9"/>
		</g>
		<g>
			<path class="st13" d="M223.6,396.7l1.4-0.4l4.5,5.3c0.4,0.4,0.7,0.8,1,1.2c0.3,0.4,0.5,0.8,0.7,1.1l0,0c-0.1-0.3-0.3-0.8-0.5-1.3
				c-0.2-0.5-0.4-1.1-0.5-1.7l-1.5-5.6l1.3-0.3l2.8,10.6l-1.5,0.4l-4.2-4.8c-0.3-0.3-0.5-0.6-0.7-0.9c-0.2-0.2-0.4-0.5-0.5-0.7
				c-0.1-0.2-0.3-0.4-0.4-0.6c-0.1-0.2-0.2-0.4-0.3-0.5l0,0c0.1,0.4,0.3,0.8,0.5,1.4c0.2,0.6,0.3,1.1,0.5,1.8l1.4,5.3l-1.3,0.3
				L223.6,396.7z"/>
		</g>
		<g>
			<polygon class="st13" points="234.7,395.1 232.2,395.6 231.9,394.5 238.3,392.8 238.6,393.9 236.1,394.7 238.6,404.1 
				237.2,404.4 			"/>
		</g>
		<g>
			<path class="st13" d="M253.5,394.9c0.6-0.4,1-0.8,1.2-1.3c0.2-0.5,0.2-1.2,0-2c-0.3-1-0.7-1.7-1.4-2c-0.7-0.3-1.5-0.4-2.5-0.1
				l-2.8,0.8l2.8,10.6l1.4-0.4l-1.5-5.7l-0.2-0.7l-0.8-3l1.4-0.4c0.7-0.2,1.2-0.2,1.5,0c0.3,0.2,0.6,0.6,0.8,1.2
				c0.2,0.7,0.2,1.2,0,1.6c-0.2,0.4-0.6,0.7-1.3,0.8l-0.6,0.2l4.2,5l1.6-0.4L253.5,394.9z"/>
		</g>
		<g>
			<polygon class="st13" points="216.4,366.1 221.8,364.6 222.1,365.9 218.1,366.9 219,370.2 222.1,369.5 222.4,370.4 219.3,371.4 
				220.3,375.1 224.5,374 224.8,375.2 219.2,376.7 			"/>
		</g>
		<g>
			<polygon class="st13" points="207.1,368.6 208.5,368.2 209.6,372.6 213.4,371.5 212.3,367.2 213.7,366.8 216.5,377.4 
				215.1,377.8 213.8,372.8 210,373.8 211.3,378.8 209.9,379.2 			"/>
		</g>
		<g>
			<path class="st13" d="M185.7,390.6l2.1-0.6l3.1,4.9c0.3,0.4,0.5,0.9,0.7,1.2c0.2,0.4,0.3,0.7,0.4,1l0,0c0-0.3-0.1-0.6-0.1-1
				c0-0.4,0-0.9,0-1.4l0.3-5.8l2.1-0.6l2.8,10.6l-1.4,0.4L194,393c-0.2-0.9-0.4-1.6-0.5-2.2c-0.1-0.5-0.2-0.9-0.2-1.1l0,0
				c0,0.1,0,0.2,0,0.5c0,0.2,0,0.5,0,0.8c0,0.3,0,0.6,0,1c0,0.4,0,0.7,0,1l-0.3,4.9l-1.3,0.3l-2.6-3.9c-0.2-0.3-0.4-0.6-0.6-0.9
				c-0.2-0.3-0.4-0.6-0.5-0.9c-0.2-0.3-0.3-0.6-0.4-0.8c-0.1-0.2-0.2-0.4-0.2-0.5l0,0c0,0.1,0.1,0.2,0.1,0.4
				c0.1,0.2,0.1,0.5,0.2,0.7c0.1,0.3,0.2,0.6,0.3,1c0.1,0.4,0.2,0.7,0.3,1.1l1.7,6.3l-1.3,0.3L185.7,390.6z"/>
		</g>
		<g>
			<path class="st13" d="M202.8,397.6c-0.4,0.1-0.7,0.1-1.1,0.1c-0.4,0-0.7-0.1-1.1-0.3c-0.3-0.2-0.6-0.5-0.9-0.8
				c-0.3-0.4-0.5-0.9-0.7-1.5l-2-7.6l1.4-0.4l2,7.3c0.1,0.4,0.2,0.7,0.3,1c0.1,0.3,0.3,0.5,0.4,0.6c0.2,0.2,0.4,0.2,0.6,0.3
				c0.2,0,0.5,0,0.9-0.1c0.5-0.1,1-0.4,1.3-0.7c0.3-0.3,0.6-0.6,0.7-0.9l-2.3-8.6l1.4-0.4l2.8,10.6l-1,0.3l-0.5-0.9
				c-0.2,0.4-0.5,0.7-0.9,1.1C203.8,397.2,203.3,397.5,202.8,397.6"/>
		</g>
		<g>
			<path class="st13" d="M211.8,395.2c-0.6,0.2-1.2,0.2-1.8,0.2c-0.6,0-1.1-0.2-1.6-0.4l0.3-1.2c0.5,0.2,0.9,0.3,1.3,0.4
				c0.4,0,0.8,0,1.3-0.1c0.7-0.2,1.2-0.5,1.4-0.9c0.2-0.4,0.2-0.8,0.1-1.4c-0.1-0.3-0.2-0.6-0.3-0.8c-0.1-0.2-0.3-0.4-0.5-0.5
				c-0.2-0.1-0.5-0.2-0.7-0.2c-0.3-0.1-0.6-0.1-0.9-0.1c-0.5,0-0.9-0.1-1.3-0.2c-0.4-0.1-0.7-0.2-1-0.4c-0.3-0.2-0.5-0.4-0.7-0.7
				c-0.2-0.3-0.3-0.7-0.5-1.1c-0.2-0.9-0.2-1.7,0.2-2.3c0.4-0.6,1.1-1,2-1.3c0.6-0.2,1.1-0.2,1.5-0.2c0.4,0,0.8,0.1,1.2,0.3
				l-0.3,1.3c-0.4-0.1-0.7-0.2-1-0.2c-0.3,0-0.7,0-1,0.1c-0.5,0.1-0.9,0.4-1.1,0.7c-0.2,0.3-0.3,0.7-0.1,1.3
				c0.1,0.3,0.2,0.5,0.3,0.7c0.1,0.2,0.2,0.3,0.4,0.4c0.2,0.1,0.4,0.2,0.6,0.2c0.2,0,0.5,0.1,0.9,0.1c0.5,0,0.9,0.1,1.3,0.2
				c0.4,0.1,0.8,0.2,1.1,0.4c0.3,0.2,0.6,0.4,0.9,0.8c0.3,0.3,0.5,0.7,0.6,1.3c0.1,0.4,0.1,0.8,0.1,1.2c0,0.4-0.1,0.8-0.3,1.1
				c-0.2,0.4-0.5,0.7-0.8,0.9C212.9,394.8,212.4,395,211.8,395.2"/>
		</g>
		<g>
			<polygon class="st13" points="216.8,392.8 217.8,392.4 215.4,383.6 214.3,383.7 214.1,383 217.7,382 217.9,382.8 216.8,383.2 
				219.2,392 220.3,391.9 220.5,392.6 217,393.6 			"/>
		</g>
		<g>
			<path class="st13" d="M226.4,391.3c-1.4,0.4-2.6,0.2-3.5-0.6c-0.9-0.8-1.6-2-2.1-3.8c-0.2-0.9-0.4-1.6-0.4-2.4
				c0-0.7,0-1.4,0.2-1.9c0.2-0.6,0.5-1,1-1.4c0.4-0.4,1-0.7,1.8-0.9c1-0.3,1.9-0.2,2.7,0.2l-0.4,1.2c-0.3-0.1-0.6-0.2-1-0.3
				c-0.3,0-0.7,0-1.1,0.1c-0.5,0.1-0.9,0.3-1.2,0.6c-0.3,0.3-0.5,0.6-0.6,1c-0.1,0.4-0.1,0.9,0,1.4c0.1,0.6,0.2,1.2,0.4,1.9
				c0.2,0.7,0.4,1.4,0.6,1.9c0.2,0.5,0.5,0.9,0.8,1.2c0.3,0.3,0.6,0.5,1,0.6c0.4,0.1,0.8,0.1,1.4-0.1c0.4-0.1,0.8-0.3,1-0.5
				c0.3-0.2,0.5-0.5,0.7-0.8l0.9,0.9c-0.3,0.4-0.6,0.7-1,1C227.4,390.9,226.9,391.1,226.4,391.3"/>
		</g>
		<g>
			<polygon class="st13" points="201.5,371.4 199,371.9 198.7,370.8 205.1,369.1 205.4,370.2 202.9,371 205.4,380.4 204,380.8 			
				"/>
		</g>
		<g>
			<path class="st13" d="M239.5,368.3l-6-7.5c-0.2,0.2-0.5,0.4-0.7,0.6l6.4,7.2C239.3,368.4,239.4,368.4,239.5,368.3"/>
		</g>
		<g>
			<path class="st13" d="M238.8,368.9l-7.2-6.4c-0.2,0.2-0.3,0.4-0.5,0.6l7.5,6C238.7,369.1,238.7,369,238.8,368.9"/>
		</g>
		<g>
			<path class="st13" d="M242.9,367.2l0.4-9.6c-0.5,0-0.9,0-1.4,0l0.4,9.6C242.6,367.2,242.7,367.2,242.9,367.2"/>
		</g>
		<g>
			<path class="st13" d="M240.2,367.8l-4.5-8.5c-0.3,0.2-0.6,0.3-0.9,0.5l5.1,8.2C240,367.9,240.1,367.9,240.2,367.8"/>
		</g>
		<g>
			<path class="st13" d="M242,367.2l-1.3-9.5c-0.4,0.1-0.8,0.1-1.2,0.2l2.1,9.4C241.7,367.3,241.8,367.3,242,367.2"/>
		</g>
		<g>
			<path class="st13" d="M238.2,369.8C238.2,369.7,238.2,369.7,238.2,369.8l-8.2-5.1c-0.1,0.1-0.1,0.2-0.2,0.3
				c-0.1,0.1-0.1,0.2-0.2,0.3L238.2,369.8C238.1,369.8,238.2,369.8,238.2,369.8"/>
		</g>
		<g>
			<path class="st13" d="M243.8,367.3l2.1-9.4c-0.5-0.1-1-0.2-1.5-0.3l-1.2,9.5C243.5,367.2,243.7,367.3,243.8,367.3"/>
		</g>
		<g>
			<path class="st13" d="M241.1,367.4l-2.9-9.1c-0.4,0.1-0.7,0.2-1.1,0.4l3.6,8.9C240.8,367.5,241,367.5,241.1,367.4"/>
		</g>
		<g>
			<path class="st13" d="M238.5,375.5l-7.7,5.8c0.3,0.4,0.6,0.8,1,1.1l7-6.5C238.7,375.8,238.6,375.6,238.5,375.5"/>
		</g>
		<g>
			<path class="st13" d="M239.1,376.2l-6.6,7c0.4,0.4,0.8,0.7,1.2,1l5.8-7.7C239.4,376.4,239.3,376.3,239.1,376.2"/>
		</g>
		<g>
			<path class="st13" d="M238.1,374.8l-8.5,4.4c0.2,0.4,0.4,0.8,0.7,1.2l8.1-5.2C238.2,375,238.1,374.9,238.1,374.8"/>
		</g>
		<g>
			<path class="st13" d="M236,385.6l4.3-8.6c-0.1,0-0.2-0.1-0.3-0.1c-0.1,0-0.2-0.1-0.3-0.2l-5.3,8c0.2,0.2,0.5,0.3,0.7,0.5
				C235.5,385.3,235.8,385.5,236,385.6"/>
		</g>
		<g>
			<path class="st13" d="M237.5,373.1l-9.5,1.3c0.1,0.4,0.1,0.7,0.2,1.1l9.4-2C237.6,373.3,237.5,373.2,237.5,373.1"/>
		</g>
		<g>
			<path class="st13" d="M237.5,372.2l-9.6-0.3c0,0.3,0,0.7,0,1l9.6-0.3C237.5,372.4,237.5,372.3,237.5,372.2"/>
		</g>
		<g>
			<path class="st13" d="M237.6,371.3l-9.4-1.9c-0.1,0.3-0.1,0.6-0.1,0.9l9.5,1.4C237.5,371.5,237.6,371.4,237.6,371.3"/>
		</g>
		<g>
			<path class="st13" d="M237.7,373.9l-9.2,2.9c0.1,0.4,0.3,0.8,0.4,1.2l8.9-3.7C237.8,374.2,237.8,374.1,237.7,373.9"/>
		</g>
		<g>
			<path class="st13" d="M237.8,370.5l-8.9-3.5c-0.1,0.2-0.2,0.5-0.3,0.7l9.1,3.1C237.8,370.6,237.8,370.6,237.8,370.5"/>
		</g>
		<g>
			<path class="st13" d="M247.2,375C247.1,375,247.1,375,247.2,375l8.2,5.1c0.1-0.1,0.1-0.2,0.2-0.3c0-0.1,0.1-0.2,0.2-0.3
				L247.2,375C247.2,374.9,247.2,374.9,247.2,375"/>
		</g>
		<g>
			<path class="st13" d="M244.3,377.3l2.9,9.1c0.4-0.1,0.7-0.2,1.1-0.4l-3.6-8.9C244.5,377.2,244.4,377.3,244.3,377.3"/>
		</g>
		<g>
			<path class="st13" d="M245.1,376.9l4.5,8.5c0.3-0.2,0.6-0.3,0.9-0.5l-5.1-8.2C245.3,376.8,245.2,376.9,245.1,376.9"/>
		</g>
		<g>
			<path class="st13" d="M245.9,376.4l6,7.5c0.2-0.2,0.4-0.4,0.7-0.6l-6.4-7.2C246,376.3,246,376.4,245.9,376.4"/>
		</g>
		<g>
			<path class="st13" d="M246.6,375.8l7.2,6.4c0.2-0.2,0.3-0.4,0.5-0.6l-7.5-6C246.7,375.7,246.6,375.7,246.6,375.8"/>
		</g>
		<g>
			<path class="st13" d="M247.5,374.3l8.9,3.5c0.1-0.2,0.2-0.5,0.3-0.7l-9.1-3.1C247.6,374.1,247.5,374.2,247.5,374.3"/>
		</g>
		<g>
			<path class="st13" d="M241.5,377.4l-2.1,9.4c0.5,0.1,1,0.2,1.5,0.3l1.2-9.5C241.9,377.5,241.7,377.5,241.5,377.4"/>
		</g>
		<g>
			<path class="st13" d="M240.6,377.1l-3.8,8.8c0.5,0.2,1,0.4,1.5,0.5l2.8-9.2C241,377.3,240.8,377.2,240.6,377.1"/>
		</g>
		<g>
			<path class="st13" d="M243.3,377.5l1.3,9.5c0.4-0.1,0.8-0.1,1.2-0.2l-2.1-9.4C243.6,377.5,243.5,377.5,243.3,377.5"/>
		</g>
		<g>
			<path class="st13" d="M242.4,377.6l-0.4,9.6c0.5,0,0.9,0,1.4,0l-0.4-9.6C242.7,377.6,242.6,377.6,242.4,377.6"/>
		</g>
		<g>
			<path class="st13" d="M246.8,369.2l7.7-5.8c-0.3-0.4-0.6-0.8-1-1.1l-7,6.5C246.6,369,246.7,369.1,246.8,369.2"/>
		</g>
		<g>
			<path class="st13" d="M246.2,368.6l6.6-7c-0.4-0.4-0.8-0.7-1.2-1l-5.8,7.7C245.9,368.3,246.1,368.5,246.2,368.6"/>
		</g>
		<g>
			<path class="st13" d="M247.3,370l8.5-4.4c-0.2-0.4-0.4-0.8-0.7-1.2l-8.1,5.2C247.1,369.7,247.2,369.9,247.3,370"/>
		</g>
		<g>
			<path class="st13" d="M247.7,373.4l9.4,1.9c0.1-0.3,0.1-0.6,0.2-0.9l-9.5-1.4C247.8,373.2,247.8,373.3,247.7,373.4"/>
		</g>
		<g>
			<path class="st13" d="M245.3,367.9c0.1,0.1,0.2,0.1,0.3,0.2l5.3-8c-0.2-0.2-0.5-0.3-0.7-0.5c-0.3-0.1-0.5-0.3-0.8-0.4l-4.3,8.6
				C245.1,367.8,245.2,367.8,245.3,367.9"/>
		</g>
		<g>
			<path class="st13" d="M244.7,367.6l3.8-8.8c-0.5-0.2-1-0.4-1.5-0.6l-2.8,9.2C244.4,367.5,244.5,367.5,244.7,367.6"/>
		</g>
		<g>
			<path class="st13" d="M247.8,372.5l9.6,0.3c0-0.3,0-0.7,0-1l-9.6,0.3C247.9,372.3,247.9,372.4,247.8,372.5"/>
		</g>
		<g>
			<path class="st13" d="M247.6,370.8l9.2-2.9c-0.1-0.4-0.3-0.8-0.4-1.2l-8.9,3.7C247.5,370.5,247.6,370.7,247.6,370.8"/>
		</g>
		<g>
			<path class="st13" d="M247.8,371.7l9.5-1.3c-0.1-0.4-0.1-0.7-0.2-1.1l-9.4,2C247.8,371.4,247.8,371.5,247.8,371.7"/>
		</g>
	</g>
	<g>
		
			<rect x="160.6" y="394.9" transform="matrix(0.9659 -0.2588 0.2588 0.9659 -98.4267 55.7)" class="st13" width="3.4" height="13.5"/>
		
			<rect x="160.6" y="394.9" transform="matrix(0.2588 0.9659 -0.9659 0.2588 508.2911 140.9075)" class="st13" width="3.4" height="13.5"/>
	</g>
</g>
<g>
	<path class="st14" d="M350.2,672.7c-12.7,3.4-21.2-2.8-25.4-18.5c-2.1-8-2.1-14.4,0-19.1c2.1-4.7,6.5-7.9,12.9-9.7
		c6.4-1.7,11.7-1.1,15.7,2c4,3.1,7.1,8.6,9.3,16.6c2.1,8,2.2,14.3,0.2,19S356.7,671,350.2,672.7z M347.3,662c1-0.3,1.7-0.7,2.2-1.3
		c0.5-0.6,0.8-1.4,0.9-2.6s-0.1-2.6-0.4-4.4c-0.3-1.8-0.9-4-1.6-6.7c-0.7-2.5-1.3-4.6-1.8-6.1c-0.6-1.6-1.1-2.7-1.7-3.5
		c-0.6-0.8-1.2-1.3-2-1.4c-0.7-0.2-1.6-0.1-2.5,0.1c-1,0.3-1.8,0.7-2.3,1.2c-0.5,0.5-0.8,1.3-0.9,2.4c-0.1,1.1,0,2.4,0.3,4.1
		c0.3,1.7,0.8,3.8,1.5,6.3c0.7,2.6,1.3,4.7,1.9,6.4c0.6,1.7,1.2,2.9,1.8,3.9c0.6,0.9,1.3,1.5,2,1.7
		C345.4,662.3,346.3,662.3,347.3,662z"/>
	<path class="st14" d="M360.8,620.2l26.1-7l3,11.2l-12.6,3.4l1.6,5.8l9.7-2.6l2.9,10.6l-9.6,2.6l4.8,17.9l-13.6,3.6L360.8,620.2z"/>
</g>
</svg>
