<?xml version="1.0" encoding="utf-8"?>
<!-- Generator: Adobe Illustrator 23.0.1, SVG Export Plug-In . SVG Version: 6.00 Build 0)  -->
<svg version="1.1" id="Layer_1" xmlns="http://www.w3.org/2000/svg" xmlns:xlink="http://www.w3.org/1999/xlink" x="0px" y="0px"
	 viewBox="0 0 333.9642029 521.2404785" enable-background="new 0 0 333.9642029 521.2404785" xml:space="preserve">
<g>
	<g>
		<path fill="#FFFFFF" d="M69.6450348,103.8948669v13.9641953h-8.0905685v14.725853H46.7219696v-14.725853H12.5055294v-4.7391281
			l33.3737488-50.3555832h15.6751862v41.1305161H69.6450348z M46.5531807,84.0066605L34.164772,103.8948669h12.5571976V84.0066605
			H46.5531807z"/>
		<path fill="#FFFFFF" d="M67.3688965,62.7643509h48.8801422v13.9641953H99.731163v55.856369H83.8871918v-55.856369H67.3688965
			V62.7643509z"/>
		<path fill="#FFFFFF" d="M137.8230438,132.5849152h-15.8435516V62.7643509h15.8435516v27.8435745h22.4179688V62.7643509h15.8435516
			v69.8205643h-15.8435516v-28.0127869h-22.4179688V132.5849152z"/>
		<path fill="#FFFFFF" d="M51.6101532,140.4722595c19.2991257,0,34.9747314,15.7415314,34.9747314,36.1377869
			c0,20.3958435-15.0012894,36.2217712-34.9747314,36.2217712c-20.5637913,0-35.0591278-15.8259277-35.0591278-36.2217712
			C16.5510235,156.2137909,32.4789734,140.4722595,51.6101532,140.4722595z M51.6101532,197.4291229
			c12.6411667,0,17.8665085-10.4095306,17.8665085-20.8190765c0-10.4095306-5.5625-20.8194885-17.8665085-20.8194885
			c-12.220459,0-17.9513321,10.4099579-17.9513321,20.8194885
			C33.6588211,187.0195923,38.6314011,197.4291229,51.6101532,197.4291229z"/>
		<path fill="#FFFFFF" d="M133.7788086,155.7061615h-24.3556747v13.8793793h22.5023575v13.9642029h-22.5023575v28.0127869
			H93.5791626v-69.8205719h40.199646V155.7061615z"/>
		<path fill="#FFFFFF" d="M49.9243546,270.8215637c0,13.7106018-7.7534103,20.9887085-21.6592426,20.9887085
			C18.3207951,291.8102722,12,285.124176,12,285.124176l5.0565529-13.2873535c0,0,4.9721565,4.7395325,9.0176506,4.7395325
			c4.5510235,0,8.0061722-2.7929993,8.0061722-9.8175049v-46.0388489h15.8439789V270.8215637z"/>
		<path fill="#FFFFFF" d="M112.6255188,265.7435913c0,17.2644043-9.4392014,26.0666809-27.1373444,26.0666809
			s-27.1369324-8.8022766-27.1369324-26.0666809v-45.0235901h15.8439789v40.368866
			c0,11.6792297,3.5395432,15.06427,11.2929535,15.06427s11.2933731-3.3850403,11.2933731-15.06427v-40.368866h15.8439713
			V265.7435913z"/>
		<path fill="#FFFFFF" d="M137.7382355,276.576355h23.9345398v13.9642029h-39.7780991v-69.8205566h15.8435593V276.576355z"/>
		<path fill="#FFFFFF" d="M173.5552368,220.7200012l14.4957581,22.3423767l14.4957581-22.3423767h19.0463562l-25.6199188,38.5071411
			v31.3134155h-15.8443909v-31.3134155l-25.6199188-38.5071411H173.5552368z"/>
		<path fill="#FFFFFF" d="M41.2438622,299.6972046c11.9672737,0,21.4064789,4.4859314,21.4064789,17.7732849
			c0,6.4316406-2.7812538,11.9328613-8.6804924,14.9794617c8.6804924,1.5233154,14.8324966,6.3468323,14.8324966,17.6028442
			c0,11.510437-8.3433304,19.4653931-22.7546959,19.4653931H19.669014v-69.8209839H41.2438622z M36.7772331,327.0335693
			c6.8263245,0,10.5346603-2.1161804,10.5346603-7.95578c0-4.9931641-3.6239395-7.10849-10.5346603-7.10849H35.512989v15.06427
			H36.7772331z M40.485569,357.2469177c7.5006409,0,11.6301117-2.2849731,11.6301117-7.7861633
			c0-6.4324646-4.1294708-8.7174377-11.6301117-8.7174377h-4.97258v16.5036011H40.485569z"/>
		<path fill="#FFFFFF" d="M91.6397552,355.5539856h23.934967v13.9642029H75.795784v-69.8209839h15.8439713V355.5539856z"/>
		<path fill="#FFFFFF" d="M153.2450562,298.4283447c19.299118,0,34.9747314,15.7410889,34.9747314,36.1369324
			c0,20.3966675-15.001297,36.2225952-34.9747314,36.2225952c-20.563797,0-35.0595551-15.8259277-35.0595551-36.2225952
			C118.1855011,314.1694336,134.1138763,298.4283447,153.2450562,298.4283447z M153.2450562,355.3851929
			c12.6415863,0,17.8665161-10.4103699,17.8665161-20.8199158s-5.5625153-20.8190613-17.8665161-20.8190613
			c-12.220047,0-17.9513397,10.4095154-17.9513397,20.8190613S140.2658844,355.3851929,153.2450562,355.3851929z"/>
		<path fill="#FFFFFF" d="M245.8643951,350.8144226l6.7415161,13.5409851c0,0-7.7534027,6.4324646-22.8386688,6.4324646
			c-19.6367035,0-37.6720123-16.0803528-37.6720123-36.0529785c0-20.0574036,17.9513245-36.3065491,37.6720123-36.3065491
			c15.0852661,0,22.8386688,6.4316406,22.8386688,6.4316406l-6.7415161,13.5409546c0,0-5.5625-4.3163147-13.6534882-4.3163147
			c-15.9283752,0-22.9226379,11.1712036-22.9226379,20.4806519c0,9.3942871,6.9942627,20.5654602,22.9226379,20.5654602
			C240.3018951,355.1307373,245.8643951,350.8144226,245.8643951,350.8144226z"/>
		<path fill="#FFFFFF" d="M300.1365662,369.5181885l-25.6199036-29.6204834v29.6204834h-15.8435669v-69.8209839h15.8435669
			v28.5212402l23.8505554-28.5212402h19.2151489l-27.9804382,33.091156l32.3622742,36.7298279H300.1365662z"/>
		<path fill="#FFFFFF" d="M45.036171,378.6748047c13.568676,0,23.7661743,7.0245056,23.7661743,21.4967651
			c0,14.3874207-10.1974983,22.4271851-23.7661743,22.4271851H35.512989v25.8970337H19.669014v-69.8209839H45.036171z
			 M39.9796181,409.9042664c6.2368202,0,12.1360626-2.1161804,12.1360626-9.2246704
			c0-7.1941223-5.8992424-9.3094482-12.1360626-9.3094482h-4.466629v18.5341187H39.9796181z"/>
		<path fill="#FFFFFF" d="M133.7788086,448.4957886H116.75457l-5.1405258-13.9642029H85.1510086l-5.1409454,13.9642029H62.9862404
			l28.0640144-69.8209839h14.6641235L133.7788086,448.4957886z M98.4664993,400.2563782h-0.1683655l-7.7534103,20.3110352
			h15.6756058L98.4664993,400.2563782z"/>
		<path fill="#FFFFFF" d="M161.3368835,378.6748047c12.8943481,0,22.6698761,7.0245056,22.6698761,20.7351074
			c0,10.4943542-5.7304535,17.5188599-14.242157,20.2270508l23.9345551,28.8588257h-20.1422424l-21.2381134-27.5899658v27.5899658
			h-15.8435516v-69.8209839H161.3368835z M154.1729736,409.6498108c5.9840546,0,13.1471252-0.4232178,13.1471252-9.1398315
			s-7.1630707-9.1398315-13.1471252-9.1398315h-1.8541718v18.2796631H154.1729736z"/>
		<path fill="#FFFFFF" d="M189.0628967,378.6748047h48.8801422v13.9642029h-16.517868v55.856781h-15.8444061v-55.856781h-16.517868
			V378.6748047z"/>
		<path fill="#FFFFFF" d="M257.9996338,378.6748047l14.4957581,22.3432312l14.4957581-22.3432312h19.0463562L280.417572,417.182373
			v31.3134155h-15.8443909V417.182373l-25.6199188-38.5075684H257.9996338z"/>
	</g>
	<g>
		<g>
			<path fill="#FFFFFF" d="M120.1418304,32.88097l-3.480278,0.0012741v-3.6405373l3.480278-0.0030651v-3.7808685h3.7806015
				v3.7808685l3.4829636,0.0030651V32.88097h-3.4829636v3.8749733h-3.7806015V32.88097z"/>
		</g>
		<g>
			<path fill="#FFFFFF" d="M19.0899754,27.7061195V24.812561c0-1.4708481-0.1957474-2.9365883-2.5862045-3.0338879v-0.0025539
				h-1.9166069v0.005619c-2.3903303,0.0923176-2.5860767,1.5599747-2.5860767,3.0308228v12.5089188
				c0,2.4633751,0.6235027,3.2376785,2.5860767,3.2463608l0,0h1.9166069l0,0
				c1.9678078-0.0086823,2.5862045-0.7829857,2.5862045-3.2463608v-6.730484h-2.4677105h-1.2558174v2.2856331h1.2558174v4.3369522
				c0,0.6140556-0.0735493,1.0398979-0.7805605,1.0398979h-0.5910702c-0.7070122,0-0.7855406-0.4258423-0.7855406-1.03862
				V25.3692856c0-0.7169743,0.0274534-1.3043423,0.9949493-1.3043423l0.1746788,0.001276
				c0.9651985,0,0.9875431,0.586092,0.9875431,1.3049812v2.334919H19.0899754z"/>
			<path fill="#FFFFFF" d="M83.8010254,36.8420067v-2.0513229c0-2.4408989-0.2257538-3.4621563-1.8656616-3.7059155
				c-0.0772476-0.0125122-0.0697174-0.1221981,0.0051117-0.1221981c1.8642502-0.0406036,1.9403534-1.4103241,1.9403534-4.6356182
				c0-3.7253246-0.3392715-4.5508327-3.3319092-4.5508327h-3.9803085v18.7929993h2.4577484v-0.056694h-0.0261688V24.0394058
				h0.0261688l1.2605438,0.0037022c1.0488358-0.0037022,1.1821442,0.0492878,1.1821442,2.1274261
				c0,3.1129265-0.0535049,3.6691399-1.28685,3.6691399H80.0028v2.0773716
				c0.7007523,0.0062561,0.7580872,0.0568218,1.0199738,0.5592766c0.287941,0.6122704,0.3129654,2.1023979,0.3129654,2.8193703
				v2.647377c0,3.1666832,2.9365845,2.626049,2.9365845,2.626049
				C83.8545227,39.4543953,83.8010254,39.1033783,83.8010254,36.8420067"/>
			<path fill="#FFFFFF" d="M27.8624363,36.8420067v-2.04813c0-2.4440918-0.2219219-3.4653492-1.86553-3.7110233
				c-0.0748253-0.0062561-0.0672913-0.1202831,0.0074062-0.1202831c1.8631039-0.0406036,1.9379292-1.4103241,1.9379292-4.6330643
				c0-3.7259617-0.3367138-4.5533867-3.3269253-4.5533867h-3.9852886v18.7917213l2.4615803,0.001915v-0.0573311h-0.0287304
				V24.043108l0.0287304-0.0024261h1.2618179c1.0450039,0.0024261,1.1795883,0.0529919,1.1795883,2.1298523
				c0,3.1124172-0.0547791,3.6691399-1.2818661,3.6691399h-0.184639v2.0773716
				c0.7010117,0.0049801,0.755661,0.0568218,1.0176792,0.5592766c0.2892151,0.6122704,0.3142414,2.1023979,0.3142414,2.8193703
				v2.647377c0,3.1666832,2.9378586,2.626049,2.9378586,2.626049
				C27.9146614,39.4543953,27.8624363,39.1033783,27.8624363,36.8420067"/>
			<path fill="#FFFFFF" d="M53.0658684,21.7786732l-4.4790611-0.0025539v18.7936363l2.3991394-0.001915V24.0649433
				l1.4539909,0.001276c0.9701767-0.001276,0.9949493,0.5854549,0.9949493,1.3030663V37.214859
				c0,0.6127777-0.0771255,1.03862-0.7855415,1.03862h-0.5971985v2.3143616h1.2281075
				c1.9878578,0,2.6213226-0.7705994,2.6213226-3.2463608V24.812561
				C55.901577,23.2943401,55.6882095,21.7761192,53.0658684,21.7786732"/>
			<polygon fill="#FFFFFF" points="35.0372581,21.7761192 32.0770531,21.7761192 29.2303638,40.5678406 31.6132889,40.5697556 
				32.0545807,37.5321655 33.5610504,37.5321655 33.5610504,35.1803894 32.3962746,35.1803894 33.5610504,27.205452 
				35.5112381,40.5678406 37.8953133,40.5678406 			"/>
			<polygon fill="#FFFFFF" points="72.8090744,21.7761192 69.8487473,21.7761192 67.0032043,40.5691185 69.3811493,40.5678406 
				69.8249969,37.5328026 71.3326111,37.5328026 71.3326111,35.1803894 70.1679688,35.1803894 71.331337,27.205452 
				73.2816544,40.5678406 75.6632996,40.5678406 			"/>
			<path fill="#FFFFFF" d="M44.4133034,21.7761192v0.0025539l0,0v12.3886356
				c-0.0237503-0.1122398-2.8280449-12.3911896-2.8280449-12.3911896h-2.623745v18.7929993l1.8716583,0.0006371v0.005619
				l0.5200768-0.001915V28.3432884c0.7145424,3.2994804,2.6411095,12.2264671,2.6411095,12.2264671l2.6971664-0.001915V21.7761192
				H44.4133034z"/>
			<path fill="#FFFFFF" d="M64.8770599,27.211071c0,2.0755825-0.1570511,2.6478844-1.2046127,2.6478844l-0.3390121-0.0024261
				v2.108017l0.5997543,0.0024261c2.8816757,0,3.358078-1.1659279,3.358078-4.5508327v-1.0524139
				c0-3.7277489-0.3468018-4.551342-3.3319016-4.551342h-3.9827385V40.602829l2.4577522,0.0012779v-0.058609l-0.0261765,0.0017853
				V24.0755405h0.0261765h1.2619476c1.0485764,0,1.1807327,0.0505657,1.1807327,2.1267872V27.211071z"/>
			<rect x="85.6590195" y="21.824131" fill="#FFFFFF" width="2.3953106" height="18.7793369"/>
			<polygon fill="#FFFFFF" points="91.8014832,21.9021473 94.4300766,21.9021473 90.9186401,30.7586517 94.7454681,40.6807175 
				91.9610901,40.6807175 88.5045624,31.0285854 			"/>
		</g>
		<g>
			<g>
				<polygon fill="#FFFFFF" points="194.4563293,40.7929573 199.2658539,40.7929573 199.2658539,41.8797188 195.7106171,41.8797188 
					195.7106171,44.7719994 198.4753265,44.8835983 198.4753265,45.7471619 195.7106171,45.8587608 195.7106171,49.1750984 
					199.4442291,49.1750984 199.4442291,50.2755203 194.4563293,50.2755203 				"/>
				<polygon fill="#FFFFFF" points="172.5535278,40.7929573 177.3654785,40.7929573 177.3654785,41.8803558 173.8055115,41.8803558 
					173.8055115,44.7719994 176.5698395,44.8835983 176.5698395,45.7490768 173.8055115,45.8587608 173.8055115,49.1762466 
					177.5400238,49.1762466 177.5400238,50.2792244 172.5535278,50.2792244 				"/>
				<path fill="#FFFFFF" d="M168.2302399,50.4563255c-1.2756042,0-2.1996918-0.4152412-2.7781067-1.2444534
					c-0.5748596-0.8304901-0.8643341-2.0444298-0.8643341-3.6430931c0-0.7611542,0.0662689-1.4495239,0.2045593-2.0624313
					c0.1347046-0.6159706,0.3505096-1.1359215,0.6409912-1.5624008c0.2917786-0.4290352,0.6644897-0.7556648,1.1235352-0.9851227
					c0.4613342-0.2300949,1.0148773-0.3453979,1.6733551-0.3453979c0.9226837,0,1.6734924,0.2481003,2.2446442,0.7444267
					l-0.5986023,0.9228096c-0.2369843-0.1820869-0.4863739-0.3293114-0.7494049-0.4340172
					c-0.2631683-0.1059799-0.5636139-0.1589699-0.896637-0.1589699c-0.4577637,0-0.8292084,0.0760994-1.1222534,0.2275391
					c-0.2918854,0.1522064-0.521347,0.3860054-0.693222,0.7026749c-0.1721191,0.3148804-0.2893372,0.7139053-0.3529205,1.1908264
					c-0.0635986,0.475769-0.0960236,1.0443649-0.0960236,1.7077103c0,0.6602783,0.0324249,1.2344971,0.0997162,1.7195854
					c0.0697174,0.4870071,0.1870728,0.8878212,0.3542175,1.2039795c0.1694336,0.3166695,0.4026031,0.5536613,0.7020264,0.7100792
					c0.3004456,0.1552696,0.6845398,0.2326469,1.1483002,0.2326469c0.3704224,0,0.6959076-0.068058,0.9775848-0.2064705
					c0.2832184-0.1384163,0.541275-0.3017311,0.7757111-0.4937744l0.6010284,0.9334068
					c-0.3166656,0.2412033-0.6721497,0.4401436-1.0623627,0.5997543
					C169.1705475,50.3771591,168.7265778,50.4563255,168.2302399,50.4563255"/>
				<path fill="#FFFFFF" d="M179.5563507,40.7929573h1.270752l2.6148071,5.3969002
					c0.2082672,0.4232903,0.3865204,0.8361053,0.537323,1.2463722c0.1497803,0.407711,0.276947,0.7730293,0.3768005,1.0928879
					h0.0272064c-0.0372925-0.3198586-0.0709991-0.7213135-0.1045837-1.2033386
					c-0.0298767-0.4806213-0.0462189-0.9801407-0.0462189-1.4925575v-5.0402641h1.1572418v9.4862671h-1.3080444
					l-2.3967133-4.9559898c-0.1645966-0.3311005-0.3017273-0.6204414-0.4115448-0.8685417
					c-0.1083984-0.2493782-0.1981659-0.4725761-0.2779694-0.6739426c-0.0761108-0.2014923-0.1458282-0.3897057-0.2034149-0.5636177
					c-0.0597534-0.1746788-0.1170807-0.3485909-0.1718597-0.5237808h-0.0274658
					c0.0372925,0.3373528,0.0660248,0.758728,0.0897675,1.2600327c0.0224762,0.5000305,0.0323029,1.0249596,0.0323029,1.5749168
					v4.7509232h-1.1583862V40.7929573z"/>
				<polygon fill="#FFFFFF" points="189.2091064,41.8965721 186.9870605,41.7575188 186.9870605,40.7929573 192.6829987,40.7929573 
					192.6829987,41.7575188 190.4609528,41.8965721 190.4609528,50.2792244 189.2091064,50.2792244 				"/>
				<g>
					<path fill="#FFFFFF" d="M204.9382935,45.9566994c0.5821228-0.1652298,1.0149994-0.4464035,1.3043365-0.8404503
						c0.2842407-0.3940468,0.4263458-0.9539642,0.4263458-1.6803856c0-0.8984184-0.2493744-1.5624008-0.7530975-1.9938622
						c-0.5025787-0.4332504-1.1922302-0.649044-2.0651093-0.649044h-2.5412598v9.4862671h1.2196808v-5.0937691v-0.6148224
						v-2.6902771h1.2693481c0.5986023,0,1.0174255,0.1246262,1.2518616,0.3715744
						c0.2318878,0.2487373,0.3517914,0.6477661,0.3517914,1.1990013c0,0.5965614-0.117218,1.0336418-0.3455353,1.3148117
						c-0.2307281,0.2806587-0.6495514,0.4197121-1.2581177,0.4197121h-0.5199432l2.3453827,5.0937691h1.4041901
						L204.9382935,45.9566994z"/>
				</g>
				<g>
					<polygon fill="#FFFFFF" points="180.4004974,13.6491022 185.2138519,13.6491022 185.2138519,14.7358627 
						181.6550446,14.7358627 181.6550446,17.6257191 184.419632,17.7397442 184.419632,18.6020279 181.6550446,18.7149048 
						181.6550446,22.0312424 185.389679,22.0312424 185.389679,23.1340904 180.4004974,23.1340904 					"/>
					<polygon fill="#FFFFFF" points="172.0697174,13.6491022 173.3228455,13.6491022 173.3228455,17.5314846 
						176.7071075,17.5314846 176.7071075,13.6491022 177.9590912,13.6491022 177.9590912,23.1340904 176.7071075,23.1340904 
						176.7071075,18.6469746 173.3228455,18.6469746 173.3228455,23.1340904 172.0697174,23.1340904 					"/>
					<path fill="#FFFFFF" d="M149.3214874,27.2210293h1.8541565l1.5100555,4.7777367
						c0.1459351,0.4401455,0.2505188,0.8404484,0.3129578,1.1970844c0.0648651,0.3579102,0.107132,0.6609192,0.1247559,0.9083786
						h0.0261688c0.0273285-0.2375031,0.0698547-0.5398674,0.1296082-0.9021225
						c0.0597534-0.3616142,0.1621704-0.763195,0.3079834-1.2033405l1.5376282-4.7777367h1.8689728v9.4862652h-1.2518616v-5.6038837
						c0-0.8060989,0.0112457-1.4532261,0.0312958-1.9339752c0.0248871-0.4820251,0.0397034-0.8105698,0.0472412-0.9832058
						h-0.0273285c-0.0149384,0.0716343-0.0462189,0.2076225-0.0860596,0.4052849
						c-0.0423889,0.1968975-0.0960236,0.4269924-0.1633148,0.6876049c-0.0698395,0.2618904-0.1470947,0.5387192-0.2318878,0.8324051
						c-0.0873413,0.2948341-0.1759491,0.5748558-0.266861,0.8417244l-1.379303,3.9920673h-1.1571045l-1.3329468-3.8287525
						c-0.0997162-0.2744045-0.1933136-0.5668106-0.2755432-0.879776c-0.0810852-0.3110504-0.1546326-0.6084385-0.2145233-0.8890991
						c-0.0672913-0.2792549-0.1197662-0.524929-0.1596069-0.7356148c-0.0399628-0.2108154-0.0699768-0.3542099-0.0872192-0.4258442
						h-0.0299988c0,0.0804443,0.0062561,0.2150288,0.0149384,0.3977528c0.009964,0.1838703,0.0174866,0.4046459,0.0274506,0.6609173
						c0.0088043,0.2567825,0.0173645,0.5467644,0.0223389,0.8666248c0.0049896,0.3222866,0.0062561,0.6559372,0.0062561,1.0050392
						v5.5907307h-1.1582489V27.2210293z"/>
					<path fill="#FFFFFF" d="M161.9842377,36.8850365c-0.3254852,0-0.6446991-0.048008-0.9538422-0.1427536
						c-0.3092651-0.0966606-0.5812378-0.2575493-0.8156738-0.4813881c-0.2381439-0.2251167-0.4300537-0.5255661-0.5748596-0.8977814
						c-0.1433868-0.3710632-0.2169342-0.8317642-0.2169342-1.3828697v-6.7579365h1.2531281v6.5384388
						c0,0.3473129,0.0213318,0.6496811,0.0637207,0.9021225c0.0374146,0.2519302,0.1109619,0.4601898,0.2182159,0.6260567
						c0.1022797,0.1639557,0.2493744,0.2880669,0.434021,0.3709373c0.1819611,0.0841484,0.4289093,0.1252632,0.7280731,0.1252632
						c0.4913483,0,0.9078674-0.0984497,1.2471466-0.2967491c0.3439789-0.1976624,0.6109772-0.3927727,0.8117065-0.586731v-7.6793385
						h1.2518616v9.4849873h-0.9240875l-0.2180939-0.8815651c-0.2657166,0.2668724-0.5872345,0.5087128-0.9701691,0.7301254
						C162.9394684,36.7752266,162.4943542,36.8850365,161.9842377,36.8850365"/>
					<path fill="#FFFFFF" d="M170.0881195,36.8850365c-0.5634918,0-1.0896912-0.0867004-1.5810394-0.2612495
						c-0.4912262-0.1740417-0.9027557-0.4071999-1.2407532-0.702034l0.5475311-0.9228096
						c0.3714447,0.2843666,0.7155609,0.4894333,1.0249481,0.6135483c0.3141174,0.1228371,0.7006378,0.1870613,1.1522675,0.1870613
						c0.6283569,0,1.0722046-0.1359863,1.3292389-0.406559c0.2617645-0.2705727,0.390213-0.6559372,0.390213-1.1497116
						c0-0.284874-0.038559-0.5274849-0.1183624-0.7245064c-0.0748291-0.1970253-0.1920471-0.3659554-0.3466797-0.5080757
						c-0.1509247-0.1427536-0.3418274-0.2675056-0.5636139-0.3709373c-0.224472-0.1059799-0.4751282-0.2138786-0.755661-0.3241997
						c-0.3927765-0.1465874-0.7294922-0.3036461-1.0101471-0.4695129c-0.2816772-0.1634426-0.5136871-0.354847-0.7007599-0.5692368
						c-0.1870575-0.2169437-0.3266296-0.4695129-0.4165192-0.7575779c-0.0923157-0.289217-0.1371307-0.6315498-0.1371307-1.0255985
						c0-0.8179741,0.234436-1.4296055,0.7033081-1.8374424c0.4675903-0.409626,1.1147156-0.6129074,1.9402313-0.6122684
						c0.5199432,0,0.9502563,0.0555439,1.2956543,0.1708469c0.3452606,0.1147919,0.6696014,0.2768288,0.966217,0.4887924
						l-0.5161133,0.9907398c-0.2731323-0.1931934-0.5385895-0.3341618-0.7892456-0.4276314
						c-0.2556305-0.0910416-0.5523834-0.1366272-0.8878174-0.1366272c-0.4526672,0-0.8144073,0.1010017-1.0748901,0.3030071
						c-0.2631683,0.2013645-0.3967285,0.5417843-0.3967285,1.0201054c0,0.2375011,0.02388,0.4401436,0.0735474,0.6047363
						c0.0524902,0.1658669,0.1361237,0.3092613,0.2519379,0.4332485c0.1197662,0.124752,0.2743988,0.234436,0.4640198,0.3304577
						c0.1920471,0.0953846,0.4276276,0.1995773,0.7107086,0.3099022c0.3641663,0.1377754,0.7033081,0.2837238,1.0199738,0.4401436
						c0.3192291,0.1559067,0.5935059,0.3479519,0.8253784,0.5780487c0.2321472,0.229454,0.4153748,0.5050087,0.5536652,0.8260193
						c0.1348419,0.3230515,0.2021332,0.7227173,0.2021332,1.1983604c0,0.3492279-0.0460968,0.6851768-0.1421204,1.0112953
						c-0.0947418,0.3254776-0.2569122,0.6141815-0.4813843,0.8666229c-0.2293243,0.2525711-0.531311,0.4558525-0.9014893,0.6066513
						C171.1057892,36.8102112,170.6419067,36.8850365,170.0881195,36.8850365"/>
					<polygon fill="#FFFFFF" points="174.7381439,36.0059013 175.6945343,35.8936615 175.6945343,28.032238 174.7381439,27.9105511 
						174.7381439,27.2210293 177.8992157,27.2210293 177.8992157,27.9105511 176.9465179,28.032238 176.9465179,35.8936615 
						177.8992157,36.0059013 177.8992157,36.7072945 174.7381439,36.7072945 					"/>
					<path fill="#FFFFFF" d="M183.0791473,36.8850365c-1.2694702,0-2.1948395-0.4146042-2.7709656-1.2463684
						c-0.5797119-0.8274269-0.8677673-2.0425148-0.8677673-3.6399021c0-0.760643,0.0686951-1.4490128,0.2045593-2.0656223
						c0.1370087-0.6153336,0.3502502-1.1365604,0.6409912-1.5611248c0.2917633-0.4271202,0.6646118-0.7556648,1.1259613-0.9851208
						c0.4550781-0.2281799,1.0112915-0.3436108,1.6672211-0.3436108c0.9302216,0,1.677063,0.2469501,2.2469482,0.7420006
						l-0.5984802,0.9208927c-0.234436-0.1795311-0.4863739-0.3254795-0.7483826-0.4321003
						c-0.2641907-0.1053429-0.5636139-0.1570568-0.9000854-0.1570568c-0.4540558,0-0.8255005,0.0759754-1.1172638,0.226265
						c-0.2907562,0.1515656-0.5213623,0.3853645-0.6960297,0.70331c-0.171875,0.3155193-0.2867889,0.7119942-0.3539581,1.1901894
						c-0.0635834,0.4764061-0.0947418,1.0462818-0.0947418,1.7077103c0,0.6590023,0.0348511,1.2344952,0.1021423,1.7195873
						c0.0648651,0.4863663,0.1869354,0.8865433,0.3540802,1.2052574c0.1695709,0.3160286,0.4003143,0.5523796,0.7034454,0.7076492
						c0.2967377,0.1570587,0.6808319,0.2349472,1.1445923,0.2349472c0.3704224,0,0.6982117-0.0679283,0.9801483-0.2063446
						c0.2816772-0.1377754,0.5411377-0.3023682,0.7768555-0.4956894l0.5998688,0.935833
						c-0.3167877,0.2389069-0.6734161,0.4389954-1.0649109,0.599884
						C184.0243073,36.805233,183.5802002,36.8850365,183.0791473,36.8850365"/>
					<polygon fill="#FFFFFF" points="166.8012848,14.7594852 164.556778,14.6217089 164.556778,13.6491022 170.3077393,13.6491022 
						170.3077393,14.6217089 168.0656586,14.7594852 168.0656586,23.1340904 166.8012848,23.1340904 					"/>
				</g>
			</g>
			<g>
				<path fill="#FFFFFF" d="M199.131012,20.6432629l-3.2830048-7.6183043
					c-0.2320099,0.0992146-0.4576263,0.2058353-0.6835175,0.3192225l3.7260895,7.4095325
					C198.969101,20.714386,199.0489044,20.6769733,199.131012,20.6432629z"/>
				<path fill="#FFFFFF" d="M198.4289856,21.0217323l-4.5823669-6.9119282
					c-0.1785126,0.118495-0.3567657,0.243247-0.5301666,0.3722134l4.9257202,6.6713619
					C198.3044891,21.1071568,198.3667908,21.063488,198.4289856,21.0217323z"/>
				<path fill="#FFFFFF" d="M202.2572174,20.488121l2.5139313-7.903306
					c-0.3740082-0.118495-0.7519531-0.2212849-1.1347656-0.3030052l-1.7767944,8.1014776
					C201.9930267,20.4107418,202.1274872,20.4468765,202.2572174,20.488121z"/>
				<path fill="#FFFFFF" d="M199.8917847,20.3932476l-1.8766479-8.0783663
					c-0.2780914,0.0642271-0.556076,0.1371374-0.8304749,0.2219229l2.4129333,7.9344616
					C199.6959076,20.4412594,199.7932129,20.4150829,199.8917847,20.3932476z"/>
				<path fill="#FFFFFF" d="M201.4792023,20.3147202l1.0649261-8.2230396
					c-0.3492279-0.0449467-0.7057343-0.0761023-1.0612183-0.0916805l-0.3778229,8.2829247
					C201.2309875,20.2891808,201.3545837,20.2997799,201.4792023,20.3147202z"/>
				<path fill="#FFFFFF" d="M197.7370453,21.5891819c0.0211945-0.0224724,0.0449371-0.0455837,0.0685577-0.066143
					l-5.7359009-5.9878435c-0.0648651,0.0629511-0.1321564,0.1252632-0.1970215,0.1894903
					c-0.0649872,0.0660152-0.1273041,0.1315193-0.1920471,0.1970243l5.990387,5.73668
					C197.692215,21.6346397,197.7145691,21.6115284,197.7370453,21.5891819z"/>
				<path fill="#FFFFFF" d="M202.9955139,20.7967453l3.8780212-7.3321533
					c-0.3779602-0.2002163-0.7681732-0.3797474-1.1609344-0.5412731l-3.1262054,7.6838074
					C202.7272339,20.663311,202.8633575,20.7262611,202.9955139,20.7967453z"/>
				<path fill="#FFFFFF" d="M200.6786041,20.2829247l-0.4089966-8.2816477
					c-0.3192139,0.0162163-0.6409912,0.0436697-0.9576569,0.0847855l1.0323639,8.2262316
					C200.4566803,20.2991409,200.5689087,20.2891808,200.6786041,20.2829247z"/>
				<path fill="#FFFFFF" d="M196.7556305,26.4411068l-7.6849518,3.1241646
					c0.1608887,0.3946857,0.3392792,0.7806892,0.5424347,1.1615849l7.3321228-3.8793163
					C196.874115,26.7141056,196.8118134,26.5795212,196.7556305,26.4411068z"/>
				<path fill="#FFFFFF" d="M197.1024323,27.1187515l-7.042923,4.383688
					c0.2443848,0.3872814,0.5075531,0.766901,0.7980499,1.1334934l6.521698-5.1181545
					C197.2819519,27.387537,197.1859283,27.2560177,197.1024323,27.1187515z"/>
				<path fill="#FFFFFF" d="M196.528717,25.7134075l-8.100174,1.7769184
					c0.0847778,0.3810234,0.1869354,0.7594929,0.3054199,1.1341324l7.9032898-2.5138111
					C196.5947418,25.9791279,196.5574493,25.8462029,196.528717,25.7134075z"/>
				<path fill="#FFFFFF" d="M192.4138336,34.2932091l5.5140991-6.1955948
					c-0.0661469-0.05797-0.1298523-0.1183681-0.1908875-0.1788921c-0.0623169-0.0616741-0.1223297-0.1259003-0.1808167-0.1907673
					l-6.194809,5.5122032c0.1633148,0.1832352,0.335434,0.3640404,0.511261,0.5411453
					C192.0496674,33.9584084,192.2293243,34.1279793,192.4138336,34.2932091z"/>
				<path fill="#FFFFFF" d="M196.4613037,24.1959515l-8.227356-1.0331306
					c-0.0422668,0.3211384-0.0684509,0.6390839-0.0847931,0.9600925l8.2809906,0.4091148
					C196.4364014,24.4215775,196.4463654,24.3087006,196.4613037,24.1959515z"/>
				<path fill="#FFFFFF" d="M196.6173401,23.4508877l-7.9345703-2.4147263
					c-0.0821075,0.2755527-0.1569366,0.5517445-0.2193756,0.8298512l8.077713,1.8766441
					C196.5637054,23.6440811,196.5884857,23.5480576,196.6173401,23.4508877z"/>
				<path fill="#FFFFFF" d="M196.9027252,22.7432346l-7.4129639-3.7266006
					c-0.111084,0.2263927-0.2183533,0.4552116-0.3156433,0.6858177l7.6164856,3.280838
					C196.8229218,22.9022083,196.860321,22.822403,196.9027252,22.7432346z"/>
				<path fill="#FFFFFF" d="M196.4278412,24.9577446l-8.2812347,0.3754044
					c0.0163422,0.358551,0.0450745,0.7132702,0.0924377,1.0662022l8.2222595-1.0692673
					C196.4463654,25.2077579,196.4364014,25.0824966,196.4278412,24.9577446z"/>
				<path fill="#FFFFFF" d="M197.3017426,22.0948315l-6.673645-4.9273891
					c-0.1295929,0.17519-0.2543488,0.3534431-0.3715668,0.533102l6.9131927,4.5800743
					C197.2121124,22.2188168,197.2545013,22.1558666,197.3017426,22.0948315z"/>
				<path fill="#FFFFFF" d="M204.0654144,27.9187222c-0.0225983,0.0224743-0.0462189,0.0443077-0.0662689,0.0679302
					l5.7350006,5.9886093c0.064743-0.0648651,0.1296082-0.1278152,0.1943359-0.1939583
					c0.0650024-0.0642281,0.1273193-0.1290932,0.1921844-0.1944695l-5.9879608-5.7373199
					C204.1127777,27.8719883,204.0901794,27.8949718,204.0654144,27.9187222z"/>
				<path fill="#FFFFFF" d="M201.1225739,29.2254906l0.4088593,8.2824135
					c0.3218994-0.0181313,0.6411285-0.0468597,0.9616241-0.0847855l-1.0338898-8.2268696
					C201.3470459,29.2092743,201.2346802,29.2180843,201.1225739,29.2254906z"/>
				<path fill="#FFFFFF" d="M201.9132233,29.1151676l1.8752289,8.0784931
					c0.2769623-0.0655022,0.5562134-0.1384125,0.8306122-0.2220497l-2.4140778-7.9356098
					C202.1101227,29.0652409,202.011673,29.0915451,201.9132233,29.1151676z"/>
				<path fill="#FFFFFF" d="M202.6711731,28.8664303l3.2821198,7.6163883
					c0.2318726-0.0990868,0.4600525-0.2057076,0.6856842-0.3192215l-3.7232666-7.4100456
					C202.8320618,28.79352,202.75354,28.8309326,202.6711731,28.8664303z"/>
				<path fill="#FFFFFF" d="M203.371933,28.485405l4.5813446,6.9138451c0.1822052-0.119133,0.3603363-0.2437592,0.5337372-0.3734894
					l-4.9253387-6.671875C203.4992371,28.3994713,203.4369354,28.4430122,203.371933,28.485405z"/>
				<path fill="#FFFFFF" d="M204.5004425,27.4130745l6.6726227,4.9280243
					c0.1297302-0.1771011,0.2542267-0.353569,0.3741302-0.5350151l-6.9168854-4.5807114
					C204.5903473,27.2902374,204.5479431,27.3514004,204.5004425,27.4130745z"/>
				<path fill="#FFFFFF" d="M198.8082123,28.7117977l-3.8781586,7.3302364
					c0.3792419,0.2020073,0.7657471,0.3821754,1.1585236,0.5417862l3.1262054-7.6831703
					C199.0775146,28.843956,198.9416504,28.7810059,198.8082123,28.7117977z"/>
				<path fill="#FFFFFF" d="M198.1386108,28.2747192l-5.1187744,6.5272026
					c0.3678741,0.2867889,0.7469788,0.5517426,1.1347656,0.7949905l4.3816376-7.0410233
					C198.4017792,28.4698277,198.2669525,28.3763599,198.1386108,28.2747192z"/>
				<path fill="#FFFFFF" d="M200.3245239,29.1925468l-1.0700378,8.2236786
					c0.3543396,0.0448189,0.7095642,0.0760994,1.06633,0.0921898l0.3778381-8.2829247
					C200.5724945,29.2193623,200.447998,29.2092743,200.3245239,29.1925468z"/>
				<path fill="#FFFFFF" d="M199.5462646,29.019783l-2.5136871,7.9038162
					c0.3727264,0.1178589,0.7519531,0.2188606,1.1322174,0.3036461l1.7804871-8.1014805
					C199.8082733,29.0965252,199.6761169,29.0615387,199.5462646,29.019783z"/>
				<path fill="#FFFFFF" d="M205.0455475,23.0674362l7.6862183-3.1242924
					c-0.1596069-0.3940468-0.3405457-0.7818394-0.5411377-1.1603088l-7.3321381,3.8780403
					C204.9296112,22.7936726,204.9906464,22.9290218,205.0455475,23.0674362z"/>
				<path fill="#FFFFFF" d="M204.7001495,22.3883877l7.0440674-4.382412
					c-0.2443848-0.3884296-0.5099792-0.7662601-0.7980499-1.1328564l-6.5242462,5.1187935
					C204.5256042,22.11973,204.6165161,22.2518883,204.7001495,22.3883877z"/>
				<path fill="#FFFFFF" d="M205.2724457,23.7950077l8.1001892-1.7762794
					c-0.0798035-0.3815346-0.1820831-0.7619209-0.3041534-1.1354103l-7.9007263,2.5139389
					C205.2100067,23.5300541,205.2438507,23.6602974,205.2724457,23.7950077z"/>
				<path fill="#FFFFFF" d="M204.9007568,26.7659473l7.4093781,3.7251968
					c0.1149292-0.2249889,0.2196198-0.4544449,0.3217773-0.6851788l-7.6200714-3.2800732
					C204.9781342,26.6050587,204.9407196,26.685503,204.9007568,26.7659473z"/>
				<path fill="#FFFFFF" d="M204.0654144,21.5891819c0.0611572,0.0623131,0.1233521,0.1259022,0.1793976,0.1894913
					l6.1974945-5.5109272c-0.1645813-0.1851482-0.335434-0.3659554-0.5138245-0.5430603
					c-0.1756897-0.174551-0.3590546-0.3485909-0.5410156-0.5119047l-5.511673,6.197381
					C203.9393768,21.4663448,204.0054016,21.5273819,204.0654144,21.5891819z"/>
				<path fill="#FFFFFF" d="M203.6663818,21.2331867l5.1175079-6.5254154
					c-0.3667297-0.2880659-0.7444305-0.5530205-1.1347656-0.7955017l-4.3817596,7.0415325
					C203.4032135,21.0392265,203.5355072,21.1321831,203.6663818,21.2331867z"/>
				<path fill="#FFFFFF" d="M205.18396,26.0570183l7.9343109,2.4153633
					c0.0822449-0.2761917,0.1570587-0.5530205,0.2230835-0.8311272l-8.0814209-1.8760052
					C205.2398987,25.8624191,205.2100067,25.9597187,205.18396,26.0570183z"/>
				<path fill="#FFFFFF" d="M205.3733215,24.5506725l8.28125-0.3771935
					c-0.0137939-0.3559971-0.0449524-0.710207-0.0897675-1.0649261l-8.2250671,1.0686283
					C205.3535309,24.3000183,205.3670654,24.4259205,205.3733215,24.5506725z"/>
				<path fill="#FFFFFF" d="M205.3397369,25.3113136l8.2300415,1.0355587
					c0.0398407-0.3197346,0.068573-0.642149,0.0847931-0.9613705l-8.2825165-0.4109039
					C205.3647766,25.0874767,205.355835,25.1990757,205.3397369,25.3113136z"/>
			</g>
		</g>
	</g>
</g>
<text transform="matrix(1 0 0 1 20.0239258 477.5161133)" fill="#FFFFFF" font-size="24.1038799px">THURS 3:00 PM - 9:30 PM</text>
<text transform="matrix(1 0 0 1 20 504.1088867)" fill="#FFFFFF" font-size="20.5275803px">FREE/GRATIS  //  #GO4THDTLA</text>
</svg>
