<?xml version="1.0" encoding="utf-8"?>
<!-- Generator: Adobe Illustrator 19.2.1, SVG Export Plug-In . SVG Version: 6.00 Build 0)  -->
<svg version="1.1" id="Layer_1" xmlns="http://www.w3.org/2000/svg" xmlns:xlink="http://www.w3.org/1999/xlink" x="0px" y="0px"
	 data-original-viewBox="0 0 422.5 956.9" viewBox="0 0 422.5 550" enable-background="new 0 0 422.5 956.9" xml:space="preserve" width="422" height="550">
<switch>
<g>
	<defs>
		<rect id="SVGID_1_" x="184.6" y="463.1" width="43" height="493"/>
	</defs>
	<clipPath id="SVGID_2_">
		<use xlink:href="#SVGID_1_"  overflow="visible"/>
	</clipPath>
	<g clip-path="url(#SVGID_2_)">
		<defs>
			<rect id="SVGID_3_" x="184.4" y="462.4" width="43.6" height="494.5"/>
		</defs>
		<clipPath id="SVGID_4_">
			<use xlink:href="#SVGID_3_"  overflow="visible"/>
		</clipPath>
		<path clip-path="url(#SVGID_4_)" fill="#FCEF47" d="M215.9,466.8l2.9-2.9C217.5,464.6,216.4,465.6,215.9,466.8 M211,644.8
			c-7.2-13.2-14.1-25.7-14.1-56.7c0-32.2,7.2-45.7,14.9-60c7.4-13.9,15.1-28.3,15.1-58.8c0-3.2-2.6-5.8-5.8-5.8
			c-0.9,0-1.7,0.2-2.4,0.5l-2.9,2.9c-0.3,0.7-0.5,1.5-0.5,2.4c0,27.6-6.7,40.1-13.7,53.3c-8,15-16.2,30.4-16.2,65.5
			c0,34,7.9,48.4,15.5,62.3c7.4,13.6,14.5,26.4,14.5,59.4c0,27.6-6.7,40.1-13.7,53.3c-8,15-16.2,30.4-16.2,65.5
			c0,34,7.9,48.4,15.5,62.3c7.4,13.6,14.5,26.4,14.5,59.4c0,1.8,0.8,3.3,2,4.4c1,0.9,2.3,1.4,3.8,1.4c3.2,0,5.8-2.6,5.8-5.8
			c0-1.8,0-3.5-0.1-5.1c-0.7-32.2-8.4-46.2-15.8-59.8c-7.2-13.2-14.1-25.7-14.1-56.7c0-32.2,7.2-45.7,14.9-60
			c7.4-13.9,15.1-28.3,15.1-58.8C227,673.8,218.9,659,211,644.8"/>
	</g>

<path fill="#FCEF47" d="M156.4,172c-1.5,0-2.8,0.5-3.9,1.6c-1.1,1.1-1.6,2.4-1.6,4c0,1.6,0.5,2.9,1.6,4c1.1,1.1,2.4,1.6,3.9,1.6
	c1.6,0,2.9-0.5,3.9-1.6c1.1-1.1,1.6-2.4,1.6-4c0-1.6-0.5-2.9-1.6-4C159.2,172.5,158,172,156.4,172 M156.4,185.8
	c-2.2,0-4.2-0.8-5.8-2.4c-1.6-1.6-2.4-3.6-2.4-5.9c0-2.3,0.8-4.3,2.4-5.9c1.6-1.6,3.5-2.4,5.8-2.4c2.3,0,4.3,0.8,5.8,2.4
	c1.5,1.6,2.3,3.6,2.3,5.9c0,2.3-0.8,4.3-2.3,5.9C160.6,185,158.7,185.8,156.4,185.8"/>
<path fill="#FCEF47" d="M349.2,172c-1.5,0-2.8,0.5-3.9,1.6c-1.1,1.1-1.6,2.4-1.6,4c0,1.6,0.5,2.9,1.6,4c1.1,1.1,2.4,1.6,3.9,1.6
	c1.6,0,2.9-0.5,3.9-1.6c1.1-1.1,1.6-2.4,1.6-4c0-1.6-0.5-2.9-1.6-4C352.1,172.5,350.8,172,349.2,172 M349.2,185.8
	c-2.2,0-4.2-0.8-5.8-2.4c-1.6-1.6-2.4-3.6-2.4-5.9c0-2.3,0.8-4.3,2.4-5.9c1.6-1.6,3.5-2.4,5.8-2.4c2.3,0,4.3,0.8,5.8,2.4
	c1.5,1.6,2.3,3.6,2.3,5.9c0,2.3-0.8,4.3-2.3,5.9C353.5,185,351.5,185.8,349.2,185.8"/>
<path fill="#FCEF47" d="M349,265.3c-1.5,0-2.8,0.5-3.9,1.6c-1.1,1.1-1.6,2.4-1.6,4c0,1.6,0.5,2.9,1.6,4c1.1,1.1,2.4,1.6,3.9,1.6
	c1.6,0,2.9-0.5,3.9-1.6c1.1-1.1,1.6-2.4,1.6-4c0-1.6-0.5-2.9-1.6-4C351.9,265.9,350.6,265.3,349,265.3 M349,279.2
	c-2.2,0-4.2-0.8-5.8-2.4c-1.6-1.6-2.4-3.6-2.4-5.9c0-2.3,0.8-4.3,2.4-5.9c1.6-1.6,3.5-2.4,5.8-2.4c2.3,0,4.3,0.8,5.8,2.4
	c1.5,1.6,2.3,3.6,2.3,5.9c0,2.3-0.8,4.3-2.3,5.9C353.3,278.4,351.3,279.2,349,279.2"/>
<path fill="#FCEF47" d="M247.4,265.3c-1.5,0-2.8,0.5-3.9,1.6c-1.1,1.1-1.6,2.4-1.6,4c0,1.6,0.5,2.9,1.6,4c1.1,1.1,2.4,1.6,3.9,1.6
	c1.6,0,2.9-0.5,3.9-1.6c1.1-1.1,1.6-2.4,1.6-4c0-1.6-0.5-2.9-1.6-4C250.3,265.9,249,265.3,247.4,265.3 M247.4,279.2
	c-2.2,0-4.2-0.8-5.8-2.4c-1.6-1.6-2.4-3.6-2.4-5.9c0-2.3,0.8-4.3,2.4-5.9c1.6-1.6,3.5-2.4,5.8-2.4c2.3,0,4.3,0.8,5.8,2.4
	c1.5,1.6,2.3,3.6,2.3,5.9c0,2.3-0.8,4.3-2.3,5.9C251.7,278.4,249.7,279.2,247.4,279.2"/>
<path fill="#FCEF47" d="M247.4,172c-1.5,0-2.8,0.5-3.9,1.6c-1.1,1.1-1.6,2.4-1.6,4c0,1.6,0.5,2.9,1.6,4c1.1,1.1,2.4,1.6,3.9,1.6
	c1.6,0,2.9-0.5,3.9-1.6c1.1-1.1,1.6-2.4,1.6-4c0-1.6-0.5-2.9-1.6-4C250.3,172.5,249,172,247.4,172 M247.4,185.8
	c-2.2,0-4.2-0.8-5.8-2.4c-1.6-1.6-2.4-3.6-2.4-5.9c0-2.3,0.8-4.3,2.4-5.9c1.6-1.6,3.5-2.4,5.8-2.4c2.3,0,4.3,0.8,5.8,2.4
	c1.5,1.6,2.3,3.6,2.3,5.9c0,2.3-0.8,4.3-2.3,5.9C251.7,185,249.7,185.8,247.4,185.8"/>
<path fill="#FFFFFF" d="M82.3,316.3c-2.2,0-3.8-0.6-4.9-1.8c-1.1-1.2-1.6-2.9-1.6-5.1c0-0.8,0.1-1.6,0.2-2.6
	c0.1-0.9,0.3-1.8,0.5-2.7c0.2-0.9,0.5-1.7,0.8-2.5c0.3-0.8,0.6-1.5,1-2c0.8-1.3,1.7-2.2,2.8-2.8c1.1-0.6,2.3-0.9,3.8-0.9
	c1.2,0,2.2,0.2,3,0.5c0.8,0.3,1.5,0.8,2.1,1.3l-1.6,2.4c-0.4-0.4-0.9-0.7-1.5-1s-1.2-0.4-1.9-0.4c-0.9,0-1.7,0.2-2.3,0.6
	c-0.6,0.4-1.1,1.1-1.5,2c-0.2,0.5-0.4,1-0.6,1.7c-0.2,0.7-0.4,1.4-0.6,2.2s-0.3,1.5-0.4,2.3c-0.1,0.8-0.2,1.4-0.2,2
	c0,1.4,0.3,2.3,0.8,2.9c0.5,0.6,1.3,0.9,2.5,0.9c0.8,0,1.5-0.2,2.2-0.5c0.7-0.3,1.3-0.6,1.8-1l0.8,2.7c-0.7,0.4-1.4,0.8-2.3,1.1
	C84.3,316.1,83.3,316.3,82.3,316.3"/>
<path fill="#FFFFFF" d="M98.4,313.6c0.9,0,1.6-0.2,2.1-0.7c0.6-0.4,1.1-1.1,1.5-2.1c0.2-0.5,0.4-1.1,0.7-1.8
	c0.2-0.7,0.4-1.5,0.6-2.3c0.2-0.8,0.3-1.6,0.4-2.4c0.1-0.8,0.2-1.5,0.2-2.1c0-2.5-1-3.7-3-3.7c-0.9,0-1.6,0.2-2.2,0.6
	c-0.6,0.4-1.1,1.1-1.5,2.1c-0.2,0.5-0.4,1.1-0.7,1.8c-0.2,0.7-0.4,1.5-0.6,2.3c-0.2,0.8-0.3,1.6-0.4,2.4c-0.1,0.8-0.2,1.4-0.2,2
	c0,1.3,0.3,2.3,0.8,2.9C96.6,313.3,97.4,313.6,98.4,313.6 M98.2,316.3c-2,0-3.6-0.6-4.7-1.8c-1.1-1.2-1.7-3-1.7-5.3
	c0-0.9,0.1-1.8,0.2-2.7c0.2-1,0.4-1.9,0.6-2.8c0.3-0.9,0.6-1.8,1-2.6c0.4-0.8,0.7-1.5,1.2-2c0.8-1.1,1.7-1.9,2.7-2.4
	c1-0.5,2.1-0.8,3.4-0.8c2.1,0,3.6,0.6,4.7,1.8c1.1,1.2,1.6,2.9,1.6,5.2c0,0.9-0.1,1.8-0.2,2.8c-0.2,1-0.4,2-0.6,2.9
	c-0.3,0.9-0.6,1.8-1,2.7c-0.4,0.8-0.8,1.5-1.2,2.1C102.9,315.3,100.8,316.3,98.2,316.3"/>
<path fill="#FFFFFF" d="M115.5,316.3c-0.6,0-1.2-0.1-1.7-0.3c-0.5-0.2-1-0.4-1.4-0.8c-0.4-0.4-0.7-0.8-1-1.4
	c-0.2-0.6-0.4-1.3-0.4-2.1c0-0.3,0-0.6,0.1-1c0-0.4,0.1-0.8,0.2-1.2l2.8-13.2h3.3l-2.9,13.5c-0.1,0.6-0.2,1.2-0.2,1.7
	c0,0.7,0.1,1.2,0.5,1.5c0.3,0.3,0.8,0.5,1.5,0.5c0.8,0,1.5-0.2,2.1-0.5c0.7-0.3,1.2-0.7,1.6-1.1l3.3-15.5h3.3l-4.2,19.6h-2.3
	l-0.2-1.8c-0.6,0.6-1.3,1.1-2,1.5C117.3,316.1,116.5,316.3,115.5,316.3"/>
<path fill="#FFFFFF" d="M132.8,296.3h3.2l2.5,10.3c0.2,0.8,0.4,1.6,0.5,2.5c0.1,0.8,0.2,1.6,0.3,2.3h0c0.1-0.6,0.2-1.5,0.3-2.5
	c0.1-1,0.3-2,0.5-3l2-9.6h3l-4.2,19.6h-3.4l-2.2-9.7c-0.3-1.1-0.5-2.1-0.6-2.9s-0.2-1.5-0.3-2.2h-0.1c-0.1,0.6-0.2,1.4-0.3,2.5
	c-0.1,1.1-0.3,2.2-0.6,3.4l-1.9,9h-3.1L132.8,296.3z"/>
<polygon fill="#FFFFFF" points="153.7,299.2 149.4,299.2 150,296.3 161.9,296.3 161.3,299.2 157,299.2 153.4,315.9 150.2,315.9 "/>
<path fill="#FFFFFF" d="M168.9,313.1c0.5,0,1,0,1.4-0.1c0.4-0.1,0.8-0.2,1.1-0.5c0.3-0.2,0.6-0.5,0.9-0.9c0.3-0.4,0.5-0.9,0.7-1.4
	c0.2-0.5,0.4-1,0.6-1.7c0.2-0.7,0.3-1.3,0.5-2c0.1-0.7,0.3-1.4,0.3-2.1c0.1-0.7,0.1-1.3,0.1-1.8c0-1.3-0.3-2.2-0.8-2.7
	c-0.5-0.5-1.3-0.8-2.3-0.8h-2l-3,14H168.9z M166.6,296.3h5.1c2,0,3.5,0.5,4.7,1.5c1.1,1,1.7,2.6,1.7,4.9c0,0.8-0.1,1.6-0.2,2.4
	c-0.1,0.9-0.3,1.7-0.5,2.5c-0.2,0.8-0.4,1.6-0.7,2.4c-0.3,0.8-0.6,1.4-1,2c-0.4,0.7-0.8,1.4-1.3,1.9c-0.5,0.5-1,0.9-1.6,1.2
	c-0.6,0.3-1.2,0.5-1.9,0.6c-0.7,0.1-1.5,0.2-2.3,0.2h-6.2L166.6,296.3z"/>
<path fill="#FFFFFF" d="M188.1,313.6c0.9,0,1.6-0.2,2.1-0.7c0.6-0.4,1.1-1.1,1.5-2.1c0.2-0.5,0.4-1.1,0.7-1.8
	c0.2-0.7,0.4-1.5,0.6-2.3c0.2-0.8,0.3-1.6,0.4-2.4c0.1-0.8,0.2-1.5,0.2-2.1c0-2.5-1-3.7-3-3.7c-0.9,0-1.6,0.2-2.2,0.6
	c-0.6,0.4-1.1,1.1-1.5,2.1c-0.2,0.5-0.5,1.1-0.7,1.8c-0.2,0.7-0.4,1.5-0.6,2.3c-0.2,0.8-0.3,1.6-0.4,2.4c-0.1,0.8-0.2,1.4-0.2,2
	c0,1.3,0.3,2.3,0.8,2.9C186.4,313.3,187.1,313.6,188.1,313.6 M188,316.3c-2,0-3.6-0.6-4.7-1.8c-1.1-1.2-1.7-3-1.7-5.3
	c0-0.9,0.1-1.8,0.2-2.7c0.2-1,0.4-1.9,0.6-2.8c0.3-0.9,0.6-1.8,1-2.6c0.4-0.8,0.7-1.5,1.2-2c0.8-1.1,1.7-1.9,2.7-2.4
	c1-0.5,2.1-0.8,3.4-0.8c2.1,0,3.6,0.6,4.7,1.8c1.1,1.2,1.6,2.9,1.6,5.2c0,0.9-0.1,1.8-0.2,2.8c-0.2,1-0.4,2-0.6,2.9
	c-0.3,0.9-0.6,1.8-1,2.7c-0.4,0.8-0.8,1.5-1.2,2.1C192.6,315.3,190.6,316.3,188,316.3"/>
<path fill="#FFFFFF" d="M202.2,296.3h3.3l-0.1,8.3c0,1.5-0.1,3-0.2,4.4c-0.1,1.4-0.2,2.5-0.3,3.2h0c0.2-0.7,0.6-1.7,1-3
	c0.4-1.3,0.9-2.7,1.5-4.2l3.5-8.7h3.2L214,305c0,1.3,0,2.5-0.1,3.8c-0.1,1.3-0.2,2.4-0.3,3.4h0.1c0.3-0.9,0.6-2,1-3.4
	c0.4-1.4,0.9-2.8,1.5-4.3l3.1-8.1h3.5l-8,19.6H211l0.1-9c0-0.5,0-1.1,0.1-1.7c0-0.6,0.1-1.2,0.1-1.7c0-0.5,0.1-1.1,0.1-1.5
	c0-0.5,0.1-0.9,0.1-1.2h-0.1c-0.1,0.3-0.2,0.6-0.3,1.1c-0.1,0.5-0.3,1-0.5,1.5c-0.2,0.5-0.4,1.1-0.6,1.7c-0.2,0.6-0.4,1.2-0.7,1.7
	l-3.7,9h-3.7L202.2,296.3z"/>
<path fill="#FFFFFF" d="M227.3,296.3h3.2l2.5,10.3c0.2,0.8,0.4,1.6,0.5,2.5c0.1,0.8,0.2,1.6,0.3,2.3h0c0.1-0.6,0.2-1.5,0.3-2.5
	c0.1-1,0.3-2,0.5-3l2-9.6h3l-4.2,19.6h-3.4l-2.2-9.7c-0.3-1.1-0.5-2.1-0.6-2.9c-0.1-0.8-0.2-1.5-0.3-2.2H229
	c-0.1,0.6-0.2,1.4-0.3,2.5c-0.1,1.1-0.3,2.2-0.6,3.4l-1.9,9h-3.1L227.3,296.3z"/>
<polygon fill="#FFFFFF" points="255.9,299.2 251.5,299.2 252.1,296.3 264,296.3 263.4,299.2 259.2,299.2 255.6,315.9 252.3,315.9 
	"/>
<path fill="#FFFFFF" d="M271.7,313.6c0.9,0,1.6-0.2,2.1-0.7s1.1-1.1,1.5-2.1c0.2-0.5,0.4-1.1,0.7-1.8c0.2-0.7,0.4-1.5,0.6-2.3
	c0.2-0.8,0.3-1.6,0.4-2.4c0.1-0.8,0.2-1.5,0.2-2.1c0-2.5-1-3.7-3-3.7c-0.9,0-1.6,0.2-2.2,0.6c-0.6,0.4-1.1,1.1-1.5,2.1
	c-0.2,0.5-0.4,1.1-0.7,1.8c-0.2,0.7-0.4,1.5-0.6,2.3c-0.2,0.8-0.3,1.6-0.4,2.4c-0.1,0.8-0.2,1.4-0.2,2c0,1.3,0.3,2.3,0.8,2.9
	C270,313.3,270.7,313.6,271.7,313.6 M271.6,316.3c-2,0-3.6-0.6-4.7-1.8c-1.1-1.2-1.7-3-1.7-5.3c0-0.9,0.1-1.8,0.2-2.7
	c0.2-1,0.4-1.9,0.6-2.8c0.3-0.9,0.6-1.8,1-2.6c0.4-0.8,0.7-1.5,1.2-2c0.8-1.1,1.7-1.9,2.7-2.4c1-0.5,2.1-0.8,3.4-0.8
	c2.1,0,3.6,0.6,4.7,1.8c1.1,1.2,1.6,2.9,1.6,5.2c0,0.9-0.1,1.8-0.2,2.8c-0.2,1-0.4,2-0.6,2.9c-0.3,0.9-0.6,1.8-0.9,2.7
	c-0.4,0.8-0.8,1.5-1.2,2.1C276.2,315.3,274.2,316.3,271.6,316.3"/>
<path fill="#FFFFFF" d="M291.3,312.9c1.8-1.3,3.4-2.5,4.7-3.5c1.3-1,2.3-2,3.2-2.9c0.8-0.9,1.4-1.7,1.8-2.6c0.4-0.8,0.6-1.7,0.6-2.7
	c0-0.9-0.2-1.5-0.7-2c-0.5-0.4-1.1-0.7-1.8-0.7c-0.8,0-1.5,0.1-2.1,0.4c-0.6,0.2-1.2,0.5-1.8,0.9l-1.1-2.2c0.7-0.5,1.6-0.9,2.4-1.2
	c0.9-0.3,1.9-0.5,3-0.5c0.8,0,1.5,0.1,2.2,0.3c0.7,0.2,1.3,0.6,1.7,1c0.5,0.4,0.9,1,1.1,1.6c0.3,0.6,0.4,1.4,0.4,2.2
	c0,1.1-0.2,2.2-0.5,3.1c-0.4,1-0.9,1.9-1.7,2.8c-0.8,0.9-1.8,1.9-3.1,2.9c-1.3,1-2.8,2.1-4.6,3.2h7.7l-0.6,2.8h-11.5L291.3,312.9z"
	/>
<path fill="#FFFFFF" d="M313.8,301.2c-0.2,0.5-0.4,1.2-0.6,2c-0.2,0.8-0.4,1.6-0.6,2.4c-0.2,0.9-0.3,1.7-0.4,2.5
	c-0.1,0.8-0.2,1.5-0.2,2.2c0,1.2,0.2,2.1,0.6,2.6c0.4,0.5,1,0.8,1.8,0.8c0.9,0,1.5-0.2,2-0.7c0.5-0.5,0.9-1.1,1.2-2
	c0.2-0.5,0.4-1.2,0.7-2c0.2-0.8,0.4-1.6,0.6-2.4c0.2-0.8,0.3-1.7,0.4-2.5c0.1-0.8,0.2-1.5,0.2-2.2c0-1.2-0.2-2.1-0.6-2.6
	c-0.4-0.5-1-0.8-1.8-0.8c-0.8,0-1.4,0.2-2,0.7C314.6,299.6,314.1,300.3,313.8,301.2 M322.8,302.5c0,0.8-0.1,1.7-0.2,2.6
	c-0.1,0.9-0.3,1.9-0.6,2.8c-0.2,0.9-0.5,1.8-0.8,2.6c-0.3,0.8-0.6,1.5-1,2.1c-1.4,2.4-3.4,3.6-5.8,3.6c-0.9,0-1.7-0.1-2.4-0.4
	c-0.7-0.3-1.3-0.7-1.8-1.2c-0.5-0.5-0.9-1.2-1.2-2.1c-0.3-0.8-0.4-1.8-0.4-3c0-0.8,0.1-1.7,0.2-2.6c0.1-0.9,0.3-1.9,0.6-2.8
	c0.2-0.9,0.5-1.8,0.8-2.6c0.3-0.8,0.7-1.5,1-2.1c1.5-2.4,3.4-3.6,5.8-3.6c1.8,0,3.2,0.5,4.2,1.6
	C322.3,298.5,322.8,300.2,322.8,302.5"/>
<polygon fill="#FFFFFF" points="326.7,313.3 330,313.3 332.8,300.5 329.1,301.9 328.3,300.1 334.6,296.2 336.9,296.2 333.3,313.3 
	336.3,313.3 335.8,315.9 326.2,315.9 "/>
<path fill="#FFFFFF" d="M344.4,315.8c0.6-2.1,1.2-4,2-5.7c0.7-1.7,1.5-3.3,2.3-4.7c0.8-1.4,1.7-2.6,2.5-3.6c0.9-1,1.7-1.9,2.5-2.7
	h-8.4l0.6-2.9h11.5l-0.6,3c-0.8,0.7-1.6,1.7-2.5,2.8c-0.9,1.1-1.7,2.4-2.6,3.9c-0.8,1.4-1.6,3-2.3,4.8c-0.7,1.7-1.3,3.6-1.7,5.5
	L344.4,315.8z"/>
<path fill="#FFFFFF" d="M91.1,111.5h9.5l10.6,42.3c0.8,3.3,1.5,6.5,2,9.6c0.5,3.1,0.9,5.9,1.2,8.3h0.1c0.3-2.4,0.8-5.5,1.3-9.3
	c0.5-3.7,1.2-7.6,2-11.6l8.3-39.4h8.6l-15.3,72.4h-9.8l-9.7-39.1c-0.6-2.4-1.1-4.6-1.5-6.5c-0.4-1.9-0.7-3.6-1-5.2
	c-0.3-1.6-0.5-3-0.7-4.4c-0.2-1.4-0.3-2.7-0.5-4h-0.2c-0.3,2.6-0.7,5.8-1.4,9.7c-0.6,3.9-1.4,8-2.3,12.2l-7.9,37.3h-8.7L91.1,111.5z
	"/>
<path fill="#FFFFFF" d="M201,154.6l-10.8-43.1h10.3l5,23.4c0.4,2.2,0.8,4.1,1.1,5.9c0.3,1.8,0.5,3.6,0.6,5.4
	c0.9-1.8,1.8-3.6,2.8-5.4c0.9-1.8,2.1-3.7,3.5-5.8l14.9-23.5h10.8l-28.9,43.7l-6.1,28.7h-9.5L201,154.6z"/>
<polygon fill="#FFFFFF" points="294.6,111.5 330.6,111.5 328.9,119.5 302.3,119.5 297.6,142.1 318.5,142.1 316.8,150 296,150 
	290.4,175.8 318.3,175.8 316.6,183.9 279.3,183.9 281.5,173.4 "/>
<path fill="#FFFFFF" d="M294.4,248.3h17.4l-0.8-12.6c-0.4-5.1-0.5-9.4-0.6-13c0-3.5,0-6.7,0.2-9.6h-0.2c-0.5,1.5-1,2.9-1.5,4.3
	c-0.5,1.4-1.1,2.9-1.7,4.5c-0.7,1.6-1.5,3.4-2.4,5.4c-0.9,2-2.1,4.4-3.4,7.2L294.4,248.3z M307.3,204.8h10.4l5.7,72.5h-9.7
	l-1.4-21.2h-21.7l-10.5,21.2h-9.9L307.3,204.8z"/>
<polygon fill="#FFFFFF" points="86.9,237 77.5,237.1 77.4,237.7 75.8,245.1 162,245.1 163.7,237 "/>
<polygon fill="#FFFFFF" points="203.7,204.9 213,204.9 199.5,269 223.4,269 221.6,277.2 188.4,277.2 "/>
<path fill="#FCEF47" d="M27.1,209.5C27.1,209.5,27,209.5,27.1,209.5c-1.4,0-2.5-1.2-2.4-2.5l0-0.7c1-30,9.4-59.7,24.1-85.8
	c0.7-1.2,2.1-1.6,3.3-0.9c1.2,0.7,1.6,2.1,0.9,3.3c-14.4,25.4-22.5,54.3-23.5,83.6l0,0.7C29.5,208.5,28.4,209.5,27.1,209.5"/>
<path fill="#FCEF47" d="M27.7,231.3c-1.3,0-2.3-1-2.4-2.3l0-0.1c-0.1-1.3,0.8-2.5,2.1-2.7c1.3-0.1,2.5,0.8,2.7,2.1
	c0,0.1,0,0.2,0,0.4c0.1,1.3-0.9,2.5-2.3,2.6C27.8,231.3,27.7,231.3,27.7,231.3"/>
<path fill="#FCEF47" d="M159.5,393.4c-0.2,0-0.5,0-0.7-0.1c-32.7-9.8-62.2-28.3-85.3-53.7C50.3,314,34.6,282.7,28,249
	c-0.3-1.3,0.6-2.6,1.9-2.8c1.3-0.3,2.6,0.6,2.8,1.9c6.4,32.9,21.7,63.4,44.3,88.2c22.5,24.7,51.2,42.8,83.1,52.4
	c1.3,0.4,2,1.7,1.6,3C161.5,392.7,160.6,393.4,159.5,393.4"/>
<polygon fill="#FFFFFF" points="221.5,57 218.9,57 218.9,54.2 221.5,54.2 221.5,51.4 224.4,51.4 224.4,54.2 227,54.2 227,57 
	224.4,57 224.4,59.9 221.5,59.9 "/>
<path fill="#FFFFFF" d="M151.8,53.1v-2.2c0-1.1-0.1-2.2-2-2.3v0h-1.4v0c-1.8,0.1-1.9,1.2-1.9,2.3v9.4c0,1.9,0.5,2.4,1.9,2.4h1.4
	c1.5,0,2-0.6,2-2.4v-5.1h-1.9H149V57h0.9v3.3c0,0.5-0.1,0.8-0.6,0.8h-0.4c-0.5,0-0.6-0.3-0.6-0.8v-8.9c0-0.5,0-1,0.8-1l0.1,0
	c0.7,0,0.7,0.4,0.7,1v1.8H151.8z"/>
<path fill="#FFFFFF" d="M200.6,60v-1.5c0-1.8-0.2-2.6-1.4-2.8c-0.1,0-0.1-0.1,0-0.1c1.4,0,1.5-1.1,1.5-3.5c0-2.8-0.3-3.4-2.5-3.4h-3
	v14.2h1.9v0h0V50.3h0l1,0c0.8,0,0.9,0,0.9,1.6c0,2.3,0,2.8-1,2.8h-0.1v1.6c0.5,0,0.6,0,0.8,0.4c0.2,0.5,0.2,1.6,0.2,2.1v2
	c0,2.4,2.2,2,2.2,2C200.6,61.9,200.6,61.7,200.6,60"/>
<path fill="#FFFFFF" d="M158.4,60v-1.5c0-1.8-0.2-2.6-1.4-2.8c-0.1,0-0.1-0.1,0-0.1c1.4,0,1.5-1.1,1.5-3.5c0-2.8-0.3-3.4-2.5-3.4h-3
	v14.2l1.9,0v0h0V50.3l0,0h1c0.8,0,0.9,0,0.9,1.6c0,2.3,0,2.8-1,2.8h-0.1v1.6c0.5,0,0.6,0,0.8,0.4c0.2,0.5,0.2,1.6,0.2,2.1v2
	c0,2.4,2.2,2,2.2,2C158.4,61.9,158.4,61.7,158.4,60"/>
<path fill="#FFFFFF" d="M177.4,48.6l-3.4,0v14.2l1.8,0V50.3l1.1,0c0.7,0,0.8,0.4,0.8,1v8.9c0,0.5-0.1,0.8-0.6,0.8h-0.5v1.7h0.9
	c1.5,0,2-0.6,2-2.4v-9.4C179.5,49.7,179.4,48.6,177.4,48.6"/>
<polygon fill="#FFFFFF" points="163.8,48.6 161.6,48.6 159.4,62.8 161.2,62.8 161.5,60.5 162.7,60.5 162.7,58.7 161.8,58.7 
	162.7,52.7 164.2,62.8 166,62.8 "/>
<polygon fill="#FFFFFF" points="192.3,48.6 190,48.6 187.9,62.8 189.7,62.8 190,60.5 191.2,60.5 191.2,58.7 190.3,58.7 191.2,52.7 
	192.6,62.8 194.4,62.8 "/>
<path fill="#FFFFFF" d="M170.9,48.6L170.9,48.6v9.3c0-0.1-2.1-9.3-2.1-9.3h-2v14.2l1.4,0v0l0.4,0v-9.2c0.5,2.5,2,9.2,2,9.2l2,0V48.6
	H170.9z"/>
<path fill="#FFFFFF" d="M186.3,52.7c0,1.6-0.1,2-0.9,2l-0.3,0v1.6l0.5,0c2.2,0,2.5-0.9,2.5-3.4v-0.8c0-2.8-0.3-3.4-2.5-3.4h-3v14.2
	l1.9,0v0l0,0V50.3h0h1c0.8,0,0.9,0,0.9,1.6V52.7z"/>
<rect x="202" y="48.6" fill="#FFFFFF" width="1.8" height="14.2"/>
<polygon fill="#FFFFFF" points="206.6,48.7 208.6,48.7 205.9,55.4 208.8,62.8 206.7,62.8 204.1,55.6 "/>
<polygon fill="#FFFFFF" points="271.8,62.9 275.4,62.9 275.4,63.7 272.7,63.7 272.7,65.9 274.8,66 274.8,66.7 272.7,66.7 
	272.7,69.2 275.6,69.2 275.6,70.1 271.8,70.1 "/>
<polygon fill="#FFFFFF" points="255.3,62.9 258.9,62.9 258.9,63.7 256.2,63.7 256.2,65.9 258.3,66 258.3,66.7 256.2,66.7 
	256.2,69.3 259,69.3 259,70.1 255.3,70.1 "/>
<path fill="#FFFFFF" d="M252,70.2c-1,0-1.7-0.3-2.1-0.9c-0.4-0.6-0.7-1.5-0.7-2.7c0-0.6,0-1.1,0.2-1.6c0.1-0.5,0.3-0.9,0.5-1.2
	c0.2-0.3,0.5-0.6,0.8-0.7c0.3-0.2,0.8-0.3,1.3-0.3c0.7,0,1.3,0.2,1.7,0.6l-0.5,0.7c-0.2-0.1-0.4-0.2-0.6-0.3
	c-0.2-0.1-0.4-0.1-0.7-0.1c-0.3,0-0.6,0.1-0.8,0.2c-0.2,0.1-0.4,0.3-0.5,0.5c-0.1,0.2-0.2,0.5-0.3,0.9c0,0.4-0.1,0.8-0.1,1.3
	c0,0.5,0,0.9,0.1,1.3c0.1,0.4,0.1,0.7,0.3,0.9c0.1,0.2,0.3,0.4,0.5,0.5c0.2,0.1,0.5,0.2,0.9,0.2c0.3,0,0.5-0.1,0.7-0.2
	c0.2-0.1,0.4-0.2,0.6-0.4l0.5,0.7c-0.2,0.2-0.5,0.3-0.8,0.5C252.7,70.2,252.4,70.2,252,70.2"/>
<path fill="#FFFFFF" d="M260.6,62.9h1l2,4.1c0.2,0.3,0.3,0.6,0.4,0.9c0.1,0.3,0.2,0.6,0.3,0.8h0c0-0.2-0.1-0.5-0.1-0.9
	c0-0.4,0-0.7,0-1.1v-3.8h0.9v7.2h-1l-1.8-3.7c-0.1-0.2-0.2-0.5-0.3-0.7c-0.1-0.2-0.1-0.4-0.2-0.5c-0.1-0.2-0.1-0.3-0.2-0.4
	c0-0.1-0.1-0.3-0.1-0.4h0c0,0.3,0,0.6,0.1,0.9c0,0.4,0,0.8,0,1.2v3.6h-0.9V62.9z"/>
<polygon fill="#FFFFFF" points="267.8,63.8 266.2,63.7 266.2,62.9 270.5,62.9 270.5,63.7 268.8,63.8 268.8,70.1 267.8,70.1 "/>
<path fill="#FFFFFF" d="M279.7,66.8c0.4-0.1,0.8-0.3,1-0.6c0.2-0.3,0.3-0.7,0.3-1.3c0-0.7-0.2-1.2-0.6-1.5c-0.4-0.3-0.9-0.5-1.6-0.5
	H277v7.2h0.9v-3.8v-0.5v-2h1c0.5,0,0.8,0.1,0.9,0.3c0.2,0.2,0.3,0.5,0.3,0.9c0,0.5-0.1,0.8-0.3,1c-0.2,0.2-0.5,0.3-0.9,0.3h-0.4
	l1.8,3.8h1.1L279.7,66.8z"/>
<polygon fill="#FFFFFF" points="261.2,42.5 264.8,42.5 264.8,43.3 262.1,43.3 262.1,45.5 264.2,45.5 264.2,46.2 262.1,46.3 
	262.1,48.8 265,48.8 265,49.6 261.2,49.6 "/>
<polygon fill="#FFFFFF" points="254.9,42.5 255.9,42.5 255.9,45.4 258.4,45.4 258.4,42.5 259.4,42.5 259.4,49.6 258.4,49.6 
	258.4,46.2 255.9,46.2 255.9,49.6 254.9,49.6 "/>
<path fill="#FFFFFF" d="M237.8,52.7h1.4l1.1,3.6c0.1,0.3,0.2,0.6,0.2,0.9c0,0.3,0.1,0.5,0.1,0.7h0c0-0.2,0.1-0.4,0.1-0.7
	c0-0.3,0.1-0.6,0.2-0.9l1.2-3.6h1.4v7.2h-0.9v-4.2c0-0.6,0-1.1,0-1.5c0-0.4,0-0.6,0-0.7h0c0,0.1,0,0.2-0.1,0.3
	c0,0.2-0.1,0.3-0.1,0.5c-0.1,0.2-0.1,0.4-0.2,0.6c-0.1,0.2-0.1,0.4-0.2,0.6l-1,3h-0.9l-1-2.9c-0.1-0.2-0.1-0.4-0.2-0.7
	c-0.1-0.2-0.1-0.5-0.2-0.7c-0.1-0.2-0.1-0.4-0.1-0.6c0-0.2-0.1-0.3-0.1-0.3h0c0,0.1,0,0.2,0,0.3c0,0.1,0,0.3,0,0.5
	c0,0.2,0,0.4,0,0.7c0,0.2,0,0.5,0,0.8v4.2h-0.9V52.7z"/>
<path fill="#FFFFFF" d="M247.3,60c-0.2,0-0.5,0-0.7-0.1c-0.2-0.1-0.4-0.2-0.6-0.4c-0.2-0.2-0.3-0.4-0.4-0.7c-0.1-0.3-0.2-0.6-0.2-1
	v-5.1h0.9v4.9c0,0.3,0,0.5,0,0.7c0,0.2,0.1,0.3,0.2,0.5c0.1,0.1,0.2,0.2,0.3,0.3c0.1,0.1,0.3,0.1,0.6,0.1c0.4,0,0.7-0.1,0.9-0.2
	c0.3-0.1,0.5-0.3,0.6-0.4v-5.8h0.9v7.2h-0.7l-0.2-0.7c-0.2,0.2-0.4,0.4-0.7,0.6C248,59.9,247.7,60,247.3,60"/>
<path fill="#FFFFFF" d="M253.4,60c-0.4,0-0.8-0.1-1.2-0.2c-0.4-0.1-0.7-0.3-0.9-0.5l0.4-0.7c0.3,0.2,0.5,0.4,0.8,0.5
	c0.2,0.1,0.5,0.1,0.9,0.1c0.5,0,0.8-0.1,1-0.3c0.2-0.2,0.3-0.5,0.3-0.9c0-0.2,0-0.4-0.1-0.5c-0.1-0.1-0.1-0.3-0.3-0.4
	c-0.1-0.1-0.3-0.2-0.4-0.3c-0.2-0.1-0.4-0.2-0.6-0.2c-0.3-0.1-0.6-0.2-0.8-0.4c-0.2-0.1-0.4-0.3-0.5-0.4c-0.1-0.2-0.2-0.4-0.3-0.6
	c-0.1-0.2-0.1-0.5-0.1-0.8c0-0.6,0.2-1.1,0.5-1.4c0.4-0.3,0.8-0.5,1.5-0.5c0.4,0,0.7,0,1,0.1c0.3,0.1,0.5,0.2,0.7,0.4l-0.4,0.7
	c-0.2-0.1-0.4-0.3-0.6-0.3c-0.2-0.1-0.4-0.1-0.7-0.1c-0.3,0-0.6,0.1-0.8,0.2c-0.2,0.2-0.3,0.4-0.3,0.8c0,0.2,0,0.3,0.1,0.5
	c0,0.1,0.1,0.2,0.2,0.3c0.1,0.1,0.2,0.2,0.4,0.2c0.1,0.1,0.3,0.2,0.5,0.2c0.3,0.1,0.5,0.2,0.8,0.3c0.2,0.1,0.4,0.3,0.6,0.4
	c0.2,0.2,0.3,0.4,0.4,0.6c0.1,0.2,0.2,0.5,0.2,0.9c0,0.3,0,0.5-0.1,0.8c-0.1,0.2-0.2,0.5-0.4,0.7c-0.2,0.2-0.4,0.3-0.7,0.5
	C254.2,59.9,253.8,60,253.4,60"/>
<polygon fill="#FFFFFF" points="256.9,59.3 257.7,59.2 257.7,53.3 256.9,53.2 256.9,52.7 259.3,52.7 259.3,53.2 258.6,53.3 
	258.6,59.2 259.3,59.3 259.3,59.8 256.9,59.8 "/>
<path fill="#FFFFFF" d="M263.2,60c-1,0-1.7-0.3-2.1-0.9c-0.4-0.6-0.7-1.5-0.7-2.7c0-0.6,0.1-1.1,0.2-1.6c0.1-0.5,0.3-0.9,0.5-1.2
	c0.2-0.3,0.5-0.6,0.8-0.7c0.3-0.2,0.8-0.3,1.3-0.3c0.7,0,1.3,0.2,1.7,0.6l-0.5,0.7c-0.2-0.1-0.4-0.2-0.6-0.3
	c-0.2-0.1-0.4-0.1-0.7-0.1c-0.3,0-0.6,0.1-0.8,0.2c-0.2,0.1-0.4,0.3-0.5,0.5c-0.1,0.2-0.2,0.5-0.3,0.9c0,0.4-0.1,0.8-0.1,1.3
	c0,0.5,0,0.9,0.1,1.3c0,0.4,0.1,0.7,0.3,0.9c0.1,0.2,0.3,0.4,0.5,0.5c0.2,0.1,0.5,0.2,0.9,0.2c0.3,0,0.5-0.1,0.7-0.2
	c0.2-0.1,0.4-0.2,0.6-0.4l0.5,0.7c-0.2,0.2-0.5,0.3-0.8,0.5C263.9,59.9,263.6,60,263.2,60"/>
<polygon fill="#FFFFFF" points="250.9,43.3 249.3,43.2 249.3,42.5 253.6,42.5 253.6,43.2 251.9,43.3 251.9,49.6 250.9,49.6 "/>
<path fill="#FFFFFF" d="M275.3,47.7l-2.5-5.7c-0.2,0.1-0.3,0.2-0.5,0.2l2.8,5.6C275.2,47.8,275.3,47.8,275.3,47.7"/>
<path fill="#FFFFFF" d="M274.8,48l-3.5-5.2c-0.1,0.1-0.3,0.2-0.4,0.3l3.7,5C274.7,48.1,274.7,48.1,274.8,48"/>
<path fill="#FFFFFF" d="M277.7,47.6l1.9-6c-0.3-0.1-0.6-0.2-0.9-0.2l-1.3,6.1C277.5,47.6,277.6,47.6,277.7,47.6"/>
<path fill="#FFFFFF" d="M275.9,47.5l-1.4-6.1c-0.2,0-0.4,0.1-0.6,0.2l1.8,6C275.7,47.6,275.8,47.6,275.9,47.5"/>
<path fill="#FFFFFF" d="M277.1,47.5l0.8-6.2c-0.3,0-0.5-0.1-0.8-0.1l-0.3,6.2C276.9,47.5,277,47.5,277.1,47.5"/>
<path fill="#FFFFFF" d="M274.3,48.5C274.3,48.4,274.3,48.4,274.3,48.5l-4.3-4.6c0,0-0.1,0.1-0.1,0.1c0,0-0.1,0.1-0.1,0.1L274.3,48.5
	C274.2,48.5,274.3,48.5,274.3,48.5"/>
<path fill="#FFFFFF" d="M278.2,47.9l2.9-5.5c-0.3-0.2-0.6-0.3-0.9-0.4l-2.4,5.8C278,47.8,278.1,47.8,278.2,47.9"/>
<path fill="#FFFFFF" d="M276.5,47.5l-0.3-6.2c-0.2,0-0.5,0-0.7,0.1l0.8,6.2C276.3,47.5,276.4,47.5,276.5,47.5"/>
<path fill="#FFFFFF" d="M273.5,52.1l-5.8,2.4c0.1,0.3,0.3,0.6,0.4,0.9l5.5-2.9C273.6,52.3,273.6,52.2,273.5,52.1"/>
<path fill="#FFFFFF" d="M273.8,52.6l-5.3,3.3c0.2,0.3,0.4,0.6,0.6,0.9l4.9-3.9C273.9,52.8,273.9,52.7,273.8,52.6"/>
<path fill="#FFFFFF" d="M273.4,51.6l-6.1,1.3c0.1,0.3,0.1,0.6,0.2,0.9l6-1.9C273.4,51.8,273.4,51.7,273.4,51.6"/>
<path fill="#FFFFFF" d="M270.3,58l4.2-4.7c0,0-0.1-0.1-0.1-0.1c0,0-0.1-0.1-0.1-0.1l-4.7,4.2c0.1,0.1,0.3,0.3,0.4,0.4
	C270,57.8,270.1,57.9,270.3,58"/>
<path fill="#FFFFFF" d="M273.3,50.4l-6.2-0.8c0,0.2-0.1,0.5-0.1,0.7l6.2,0.3C273.3,50.6,273.3,50.5,273.3,50.4"/>
<path fill="#FFFFFF" d="M273.4,49.9l-6-1.8c-0.1,0.2-0.1,0.4-0.2,0.6l6.1,1.4C273.4,50,273.4,49.9,273.4,49.9"/>
<path fill="#FFFFFF" d="M273.6,49.3l-5.6-2.8c-0.1,0.2-0.2,0.3-0.2,0.5l5.7,2.5C273.6,49.4,273.6,49.4,273.6,49.3"/>
<path fill="#FFFFFF" d="M273.3,51l-6.2,0.3c0,0.3,0,0.5,0.1,0.8l6.2-0.8C273.3,51.2,273.3,51.1,273.3,51"/>
<path fill="#FFFFFF" d="M273.9,48.8l-5-3.7c-0.1,0.1-0.2,0.3-0.3,0.4l5.2,3.5C273.9,48.9,273.9,48.9,273.9,48.8"/>
<path fill="#FFFFFF" d="M279,53.2C279,53.2,279,53.3,279,53.2l4.3,4.6c0,0,0.1-0.1,0.1-0.1c0,0,0.1-0.1,0.1-0.1L279,53.2
	C279.1,53.2,279.1,53.2,279,53.2"/>
<path fill="#FFFFFF" d="M276.8,54.2l0.3,6.2c0.2,0,0.5,0,0.7-0.1l-0.8-6.2C277,54.2,276.9,54.2,276.8,54.2"/>
<path fill="#FFFFFF" d="M277.4,54.1l1.4,6.1c0.2,0,0.4-0.1,0.6-0.2l-1.8-6C277.6,54.1,277.5,54.1,277.4,54.1"/>
<path fill="#FFFFFF" d="M278,53.9l2.5,5.7c0.2-0.1,0.3-0.2,0.5-0.2l-2.8-5.6C278.1,53.9,278.1,53.9,278,53.9"/>
<path fill="#FFFFFF" d="M278.5,53.7l3.5,5.2c0.1-0.1,0.3-0.2,0.4-0.3l-3.7-5C278.6,53.6,278.6,53.6,278.5,53.7"/>
<path fill="#FFFFFF" d="M279.4,52.8l5,3.7c0.1-0.1,0.2-0.3,0.3-0.4l-5.2-3.5C279.4,52.7,279.4,52.8,279.4,52.8"/>
<path fill="#FFFFFF" d="M275.1,53.8l-2.9,5.5c0.3,0.2,0.6,0.3,0.9,0.4l2.4-5.8C275.3,53.9,275.2,53.9,275.1,53.8"/>
<path fill="#FFFFFF" d="M274.6,53.5l-3.9,4.9c0.3,0.2,0.6,0.4,0.9,0.6l3.3-5.3C274.8,53.6,274.7,53.6,274.6,53.5"/>
<path fill="#FFFFFF" d="M276.2,54.2l-0.8,6.2c0.3,0,0.5,0.1,0.8,0.1l0.3-6.2C276.4,54.2,276.3,54.2,276.2,54.2"/>
<path fill="#FFFFFF" d="M275.6,54.1l-1.9,6c0.3,0.1,0.6,0.2,0.9,0.2l1.3-6.1C275.8,54.1,275.7,54.1,275.6,54.1"/>
<path fill="#FFFFFF" d="M279.8,49.6l5.8-2.4c-0.1-0.3-0.3-0.6-0.4-0.9l-5.5,2.9C279.7,49.4,279.7,49.5,279.8,49.6"/>
<path fill="#FFFFFF" d="M279.5,49.1l5.3-3.3c-0.2-0.3-0.4-0.6-0.6-0.9l-4.9,3.9C279.4,48.9,279.5,49,279.5,49.1"/>
<path fill="#FFFFFF" d="M280,50.1l6.1-1.3c-0.1-0.3-0.1-0.6-0.2-0.9l-6,1.9C279.9,49.9,279.9,50,280,50.1"/>
<path fill="#FFFFFF" d="M279.7,52.4l5.6,2.8c0.1-0.2,0.2-0.3,0.2-0.5l-5.7-2.5C279.7,52.2,279.7,52.3,279.7,52.4"/>
<path fill="#FFFFFF" d="M279,48.5c0,0,0.1,0.1,0.1,0.1l4.7-4.2c-0.1-0.1-0.3-0.3-0.4-0.4c-0.1-0.1-0.3-0.3-0.4-0.4l-4.2,4.7
	C278.9,48.4,279,48.4,279,48.5"/>
<path fill="#FFFFFF" d="M278.7,48.2l3.9-4.9c-0.3-0.2-0.6-0.4-0.9-0.6l-3.3,5.3C278.5,48,278.6,48.1,278.7,48.2"/>
<path fill="#FFFFFF" d="M279.9,51.8l6,1.8c0.1-0.2,0.1-0.4,0.2-0.6l-6.1-1.4C279.9,51.7,279.9,51.7,279.9,51.8"/>
<path fill="#FFFFFF" d="M280,50.7l6.2-0.3c0-0.3,0-0.5-0.1-0.8l-6.2,0.8C280,50.5,280,50.6,280,50.7"/>
<path fill="#FFFFFF" d="M280,51.3l6.2,0.8c0-0.2,0.1-0.5,0.1-0.7L280,51C280,51.1,280,51.2,280,51.3"/>
<path fill="#FCEF47" d="M188.2,364.3l-0.7,2.6h1.9l0.7-2.6H188.2z M185.1,364.3l0.3-1.6h1.7l1-3.7h1.5l-1,3.7h2l1-3.7h1.5l-1,3.7
	h1.6l-0.4,1.6h-1.7l-0.7,2.6h1.6l-0.3,1.6h-1.7l-1,4H188l1.1-4h-2l-1,4h-1.5l1-4H184l0.3-1.6h1.7l0.7-2.6H185.1z"/>
<path fill="#FCEF47" d="M198.3,359h2.2l1.7,7.1c0.1,0.5,0.3,1.1,0.3,1.7c0.1,0.6,0.1,1.1,0.2,1.6h0c0.1-0.4,0.1-1,0.2-1.7
	c0.1-0.7,0.2-1.4,0.4-2l1.4-6.6h2.1l-2.9,13.5h-2.3l-1.5-6.7c-0.2-0.8-0.3-1.4-0.4-2c-0.1-0.5-0.1-1-0.2-1.5h0c0,0.4-0.1,1-0.2,1.7
	c-0.1,0.7-0.2,1.5-0.4,2.3l-1.3,6.2h-2.1L198.3,359z"/>
<path fill="#FCEF47" d="M211.9,366.9l-2-7.9h2.4l0.8,3.7c0.1,0.4,0.2,0.8,0.2,1.2c0,0.4,0.1,0.8,0.1,1.1c0.2-0.4,0.3-0.7,0.5-1.1
	c0.2-0.4,0.4-0.7,0.6-1.1l2.3-3.8h2.6l-5.3,8l-1.2,5.5h-2.3L211.9,366.9z"/>
<polygon fill="#FCEF47" points="222.5,359 229.4,359 229,360.9 224.4,360.9 223.7,364.5 227.3,364.5 226.9,366.4 223.3,366.4 
	222.4,370.5 227.3,370.5 226.9,372.5 219.7,372.5 "/>
<polygon fill="#FCEF47" points="233.1,359 235.4,359 233,370.5 237.2,370.5 236.8,372.5 230.2,372.5 "/>
<path fill="#FCEF47" d="M243.9,367.3h2.7l-0.1-2.4c0-0.8,0-1.5,0-2.2c0-0.6,0-1.2,0-1.6h0c-0.1,0.2-0.1,0.5-0.2,0.7
	c-0.1,0.2-0.2,0.5-0.3,0.8s-0.2,0.6-0.4,0.9c-0.1,0.3-0.3,0.7-0.5,1.2L243.9,367.3z M245.9,359h2.4l0.9,13.5h-2.3l-0.2-3.4h-3.6
	l-1.6,3.4h-2.4L245.9,359z"/>
<path fill="#EB0C80" d="M211.3,0c-50.1,0-96.2,17.5-132.4,46.8c-11.8,9.5-22.6,20.3-32.1,32.1C17.5,115.1,0,161.2,0,211.3
	C0,272.6,26.3,328,68.3,366.6c31.1,28.6,70.8,48.1,114.6,54c9.2,1.2,18.5,1.9,28,1.9c0.1,0,1.8,0,2.5,0c10.4,0.1,14.6,1.1,17.1,3.9
	c1.4,1.5,2.3,3.6,3.5,6.3c0.4,0.8,0.7,1.7,1.2,2.6c0.7,1.5,1.4,3,2.3,4.6h-6.9H217h-33.7c0.6-2,1.2-4.1,1.7-6.1c0.3-1,0.5-2,0.8-2.8
	c0.8-2.8-0.8-5.6-3.5-6.4c-1.3-0.4-2.6-0.2-3.7,0.3c-1,0.5-1.9,1.3-2.4,2.4c-0.1,0.3-0.2,0.5-0.3,0.8c-0.3,0.9-0.5,1.9-0.8,3
	c-1,3.7-2.4,8.8-3.9,11.3c-1,1.6-1,3.6-0.1,5.2c0.9,1.6,2.6,2.7,4.5,2.7h31.1h13.6h21h5.9c1.1,0,2.1-0.3,3-0.9
	c0.5-0.4,1-0.8,1.3-1.3c0.1-0.2,0.3-0.4,0.4-0.6c0.9-1.8,0.7-3.9-0.6-5.5c-0.3-0.4-0.6-0.8-0.9-1.2c-3.4-4.7-5.2-8.7-6.7-12.2
	c-0.2-0.4-0.3-0.7-0.5-1.1c-1.5-3.3-3-6.2-5.1-8.4c-4.1-4.3-10.6-6.7-24.4-6.9c-0.7,0-2.5,0-2.6,0c-6.3,0-12.5-0.3-18.6-0.9
	c-44.7-4.2-85.3-23.2-116.7-52c-40.1-36.8-65.3-89.5-65.3-148c0-110.8,90.1-200.9,200.9-200.9c110.8,0,200.9,90.1,200.9,200.9
	c0,13-1.3,25.8-3.6,38.1c-6.4,33.4-21,64-41.9,89.4c-0.8,0.9-1.5,1.9-2.3,2.8c-25.3,29.7-59.2,52.1-98.4,63.1
	c-4.8,1.3-9.7,2.5-14.6,3.5c-1,0.2-2,0.4-3,0.6c-0.4,0.1-0.8,0.2-1.2,0.2c-2.6,0.5-4.3,2.7-4.2,5.3c0,0.3,0,0.5,0.1,0.8
	c0.5,2.8,3.2,4.7,6,4.2c1-0.2,2.1-0.4,3.1-0.6c2.7-0.5,5.4-1.1,8-1.7c34.4-8.1,65.2-24.4,90.5-46.5c7.6-6.6,14.7-13.8,21.2-21.4
	c0.8-0.9,1.6-1.8,2.3-2.8c20.9-25.2,35.9-55.2,43.3-88c3.4-15.1,5.2-30.8,5.2-46.9C422.5,94.8,327.8,0,211.3,0"/>
</g>
<foreignobject>{{ page.title }}</foreignobject>
</switch>
</svg>
